<svg fill="none" height="48" viewBox="0 0 50 48" width="50" xmlns="http://www.w3.org/2000/svg">
    <path clip-rule="evenodd"
        d="M19.2187 16.9193C19.2187 16.9193 18.9414 15.2931 19.4715 11.6273C20.0032 7.96062 22.2601 4.75625 23.6412 3.2651C25.0224 1.77396 27.9602 1.44128 27.9602 1.44128H13.7116C7.32702 1.44128 2.10593 7.43305 2.10593 14.7546V16.4343L19.2187 16.9193Z"
        fill="#A9CEE9" fill-rule="evenodd" />
    <path clip-rule="evenodd"
        d="M4.76477 34.2646C1.95498 32.0329 0 28.1405 0 24.2862V21.0002H42.9495V24.2862C42.9495 28.9446 40.9313 32.8931 37.0142 34.9644L19.4784 34.9626L4.76477 34.2646Z"
        fill="#418ABF" fill-rule="evenodd" />
    <path clip-rule="evenodd"
        d="M8.61511 33.1451C12.5831 33.1451 15.7999 36.3613 15.7999 40.3289C15.7999 44.2938 12.5831 47.5091 8.61511 47.5091C4.64885 47.5091 1.43378 44.2938 1.43378 40.3289C1.43378 36.3613 4.64885 33.1451 8.61511 33.1451Z"
        fill="#A9CEE9" fill-rule="evenodd" />
    <path clip-rule="evenodd"
        d="M32.1831 33.3334C36.1477 33.3334 39.3663 36.5495 39.3663 40.5172C39.3663 44.4821 36.1477 47.6973 32.1831 47.6973C28.2169 47.6973 25 44.4821 25 40.5172C25 36.5495 28.2169 33.3334 32.1831 33.3334Z"
        fill="#A9CEE9" fill-rule="evenodd" />
    <path clip-rule="evenodd"
        d="M44.6315 21.0047V12.1349C44.6311 11.6346 44.7512 11.0943 44.9731 10.5704C45.3045 9.78264 45.8656 9.0357 46.5288 8.50451C46.86 8.23801 47.2155 8.02499 47.5766 7.88086C47.9382 7.73583 48.3041 7.65968 48.6654 7.65968H49.3868C49.7254 7.65968 50 7.38502 50 7.04691C50 6.70789 49.7254 6.43323 49.3868 6.43323H48.6654C47.9516 6.43323 47.2647 6.63446 46.6438 6.96351C46.1775 7.21098 45.7461 7.53006 45.3588 7.9008C44.7782 8.45647 44.2956 9.12544 43.9523 9.84881C43.61 10.5731 43.4056 11.3535 43.405 12.1349V21.0047C43.405 21.3438 43.6795 21.6184 44.0182 21.6184C44.3569 21.6184 44.6315 21.3438 44.6315 21.0047Z"
        fill="#14443A" fill-rule="evenodd" />
    <path clip-rule="evenodd"
        d="M27.5479 34.3499H15.4439C15.1051 34.3499 14.8305 34.6245 14.8305 34.9626C14.8305 35.3016 15.1051 35.5763 15.4439 35.5763H27.5479C27.8866 35.5763 28.1612 35.3016 28.1612 34.9626C28.1612 34.6245 27.8866 34.3499 27.5479 34.3499Z"
        fill="#14443A" fill-rule="evenodd" />
    <path clip-rule="evenodd"
        d="M6.21666 32.7145C4.89312 31.6639 3.75323 30.2036 2.9511 28.5465C2.14805 26.8904 1.68322 25.0394 1.68376 23.2165V20.5442H43.405V23.2165C43.4049 25.4582 42.9202 27.5059 41.9814 29.2327C41.0413 30.9595 39.651 32.3709 37.7964 33.3526C37.4969 33.5113 37.3825 33.882 37.5407 34.1811C37.6991 34.4812 38.0701 34.5954 38.3696 34.4368C40.4337 33.3472 42.0112 31.7482 43.059 29.8183C44.108 27.8884 44.6316 25.634 44.6315 23.2165V19.9305C44.6315 19.7692 44.5661 19.6114 44.4519 19.4972C44.3376 19.383 44.1797 19.3177 44.0182 19.3177H1.07053C0.908999 19.3177 0.751092 19.383 0.636877 19.4972C0.522662 19.6114 0.457214 19.7692 0.457214 19.9305V23.2165C0.457758 25.2479 0.970458 27.2711 1.84729 29.0813C2.72511 30.8925 3.96761 32.4933 5.45386 33.6753C5.71909 33.8856 6.1048 33.8412 6.31546 33.5765C6.52612 33.3109 6.4818 32.9248 6.21666 32.7145Z"
        fill="#14443A" fill-rule="evenodd" />
    <path clip-rule="evenodd"
        d="M29.0308 0H14.7804C13.0885 0 11.4713 0.39794 10.0058 1.11315C7.80665 2.1855 5.94739 3.9649 4.6369 6.18485C3.32651 8.4057 2.56335 11.0716 2.56326 13.927V15.6067C2.56326 15.9448 2.83783 16.2195 3.17649 16.2195C3.51524 16.2195 3.78981 15.9448 3.78981 15.6067L3.78972 13.927C3.78926 10.4126 5.04436 7.22457 7.04721 4.92757C8.04841 3.77907 9.23507 2.85266 10.5433 2.21541C11.8519 1.57816 13.2809 1.22736 14.7804 1.22645H29.0308C29.3695 1.22645 29.6441 0.9527 29.6441 0.61368C29.6441 0.27466 29.3695 0 29.0308 0Z"
        fill="#14443A" fill-rule="evenodd" />
    <path clip-rule="evenodd"
        d="M9.68565 32.0755V32.6882C11.5012 32.6892 13.1398 33.4234 14.3309 34.6127C14.9258 35.2082 15.407 35.9162 15.7392 36.7021C16.0716 37.488 16.2554 38.3501 16.2555 39.2593C16.2554 40.1675 16.0716 41.0296 15.7393 41.8146C15.241 42.993 14.4071 43.9965 13.3581 44.7053C12.3088 45.4133 11.0481 45.8257 9.68565 45.8266C8.77655 45.8266 7.91377 45.6426 7.12805 45.3099C5.94973 44.8123 4.94554 43.9783 4.23713 42.9305C3.52881 41.8817 3.11601 40.6217 3.11574 39.2593C3.11601 37.4427 3.84998 35.8038 5.03972 34.6127C5.63445 34.018 6.34259 33.5367 7.12814 33.2049C7.91387 32.8723 8.77655 32.6882 9.68565 32.6882V31.4618C7.53414 31.4618 5.58115 32.3356 4.17232 33.7461C2.76257 35.1548 1.88892 37.1082 1.88919 39.2593C1.88892 41.4094 2.76258 43.3619 4.17241 44.7697C5.58134 46.1792 7.53424 47.0531 9.68565 47.0531C11.8362 47.0531 13.789 46.1792 15.1981 44.7697C16.608 43.3619 17.4823 41.4094 17.4819 39.2593C17.4823 37.1082 16.6081 35.1548 15.1982 33.7461C13.7892 32.3356 11.8363 31.4618 9.68565 31.4618V32.0755Z"
        fill="#14443A" fill-rule="evenodd" />
    <path clip-rule="evenodd"
        d="M33.3041 32.0755V32.6882C35.1198 32.6892 36.7584 33.4234 37.9494 34.6127C38.5444 35.2082 39.0256 35.9162 39.3579 36.7021C39.6902 37.488 39.874 38.3501 39.8741 39.2593C39.874 40.1675 39.6902 41.0296 39.358 41.8146C38.8597 42.993 38.0257 43.9965 36.9768 44.7053C35.9274 45.4133 34.6667 45.8257 33.3041 45.8266C31.4885 45.8257 29.8503 45.0924 28.6597 43.9031C27.4702 42.712 26.7363 41.074 26.736 39.2593C26.7363 37.4427 27.4703 35.8038 28.6599 34.6127C29.2546 34.018 29.9625 33.5367 30.7478 33.2049C31.5333 32.8723 32.3957 32.6882 33.3041 32.6882V31.4618C31.1535 31.4618 29.201 32.3356 27.7924 33.7461C26.3829 35.1548 25.5092 37.1082 25.5095 39.2593C25.5092 41.4094 26.383 43.3619 27.7925 44.7697C29.2012 46.1792 31.1536 47.0531 33.3041 47.0531C35.4547 47.0531 37.4076 46.1792 38.8167 44.7697C40.2267 43.3619 41.1009 41.4094 41.1006 39.2593C41.1009 37.1082 40.2268 35.1548 38.8167 33.7461C37.4077 32.3356 35.4548 31.4618 33.3041 31.4618V32.0755Z"
        fill="#14443A" fill-rule="evenodd" />
    <path clip-rule="evenodd"
        d="M9.68571 39.8721C9.84715 39.8721 10.0051 39.8068 10.1193 39.6926C10.2335 39.5784 10.2989 39.4207 10.2989 39.2593C10.2989 39.098 10.2335 38.9393 10.1194 38.8251C10.0051 38.7118 9.84715 38.6456 9.68571 38.6456C9.52417 38.6456 9.36627 38.7118 9.25205 38.8251C9.13783 38.9393 9.07239 39.098 9.07239 39.2593C9.07239 39.4207 9.13783 39.5784 9.25205 39.6926C9.36627 39.8068 9.52417 39.8721 9.68571 39.8721Z"
        fill="#14443A" fill-rule="evenodd" />
    <path clip-rule="evenodd"
        d="M33.3041 39.8721C33.4656 39.8721 33.6235 39.8068 33.7377 39.6926C33.852 39.5784 33.9174 39.4207 33.9174 39.2593C33.9174 39.098 33.852 38.9393 33.7377 38.8251C33.6235 38.7118 33.4656 38.6456 33.3041 38.6456C33.1426 38.6456 32.9846 38.7118 32.8705 38.8251C32.7563 38.9393 32.6909 39.098 32.6909 39.2593C32.6909 39.4207 32.7563 39.5784 32.8705 39.6926C32.9846 39.8068 33.1426 39.8721 33.3041 39.8721Z"
        fill="#14443A" fill-rule="evenodd" />
    <path clip-rule="evenodd"
        d="M20.7438 0.028082C20.0727 0.0271756 19.4159 0.13142 18.7854 0.327217C17.6812 0.668957 16.6593 1.2908 15.7518 2.12294C14.3902 3.37296 13.279 5.09616 12.5022 7.12121C11.7262 9.14718 11.2856 11.4786 11.2854 13.9542V15.6339C11.2854 15.972 11.56 16.2467 11.8986 16.2467C12.2374 16.2467 12.5119 15.972 12.5119 15.6339V13.9542C12.5119 12.1793 12.7533 10.4869 13.1868 8.95138C13.8361 6.64804 14.9204 4.70003 16.245 3.35211C16.907 2.6777 17.6273 2.15194 18.3822 1.79661C19.1377 1.44127 19.9264 1.25454 20.7438 1.25454C21.0824 1.25454 21.357 0.979876 21.357 0.640856C21.357 0.301836 21.0824 0.028082 20.7438 0.028082Z"
        fill="#14443A" fill-rule="evenodd" />
    <path clip-rule="evenodd"
        d="M20.9007 15.6339V13.9533C20.9006 12.1784 21.1422 10.486 21.5756 8.95045C22.2249 6.64711 23.3092 4.6991 24.6338 3.35118C25.2959 2.67676 26.0161 2.15101 26.771 1.79568C27.5265 1.44034 28.3151 1.25361 29.1325 1.2527C29.4712 1.2527 29.7458 0.978946 29.7458 0.639926C29.7458 0.300906 29.4712 0.0262451 29.1325 0.0262451C28.4614 0.0262451 27.8047 0.130489 27.1741 0.326287C26.0699 0.668026 25.048 1.28986 24.1406 2.12291C22.7789 3.37203 21.6678 5.09523 20.8911 7.12119C20.115 9.14624 19.6745 11.4777 19.6742 13.9533V15.6339C19.6742 15.972 19.9488 16.2466 20.2875 16.2466C20.6262 16.2466 20.9007 15.972 20.9007 15.6339Z"
        fill="#14443A" fill-rule="evenodd" />
    <path clip-rule="evenodd"
        d="M1.42689 47.6069H42.8969C43.2357 47.6069 43.5101 47.3323 43.5101 46.9933C43.5101 46.6542 43.2357 46.3805 42.8969 46.3805H1.42689C1.08823 46.3805 0.81366 46.6542 0.81366 46.9933C0.81366 47.3323 1.08823 47.6069 1.42689 47.6069Z"
        fill="#14443A" fill-rule="evenodd" />
</svg>
