<svg fill="none" height="48" viewBox="0 0 50 48" width="50" xmlns="http://www.w3.org/2000/svg">
    <path clip-rule="evenodd"
        d="M19.2188 16.9193C19.2188 16.9193 18.9415 15.2931 19.4715 11.6274C20.0032 7.96068 22.2601 4.75631 23.6412 3.26516C25.0224 1.77402 27.9602 1.44135 27.9602 1.44135H13.7116C7.32705 1.44135 2.10596 7.43312 2.10596 14.7547V16.4344L19.2188 16.9193Z"
        fill="#A9CEE9" fill-rule="evenodd" />
    <path clip-rule="evenodd"
        d="M4.76477 34.2646C1.95498 32.0328 0 28.1405 0 24.2861V21.0002H42.9495V24.2861C42.9495 28.9445 40.9313 32.8931 37.0142 34.9644L19.4784 34.9625L4.76477 34.2646Z"
        fill="#418ABF" fill-rule="evenodd" />
    <path clip-rule="evenodd"
        d="M8.61505 33.1451C12.583 33.1451 15.7998 36.3612 15.7998 40.3289C15.7998 44.2938 12.583 47.509 8.61505 47.509C4.64879 47.509 1.43372 44.2938 1.43372 40.3289C1.43372 36.3612 4.64879 33.1451 8.61505 33.1451Z"
        fill="#A9CEE9" fill-rule="evenodd" />
    <path clip-rule="evenodd"
        d="M32.1831 33.3334C36.1477 33.3334 39.3663 36.5495 39.3663 40.5172C39.3663 44.4821 36.1477 47.6973 32.1831 47.6973C28.2169 47.6973 25 44.4821 25 40.5172C25 36.5495 28.2169 33.3334 32.1831 33.3334Z"
        fill="#A9CEE9" fill-rule="evenodd" />
    <path clip-rule="evenodd"
        d="M44.6316 21.0048V12.135C44.6311 11.6346 44.7512 11.0944 44.9731 10.5704C45.3045 9.7827 45.8656 9.03577 46.5288 8.50457C46.86 8.23807 47.2156 8.02505 47.5767 7.88092C47.9383 7.73589 48.3041 7.65974 48.6655 7.65974H49.3868C49.7255 7.65974 50.0001 7.38508 50.0001 7.04697C50.0001 6.70795 49.7255 6.43329 49.3868 6.43329H48.6655C47.9516 6.43329 47.2648 6.63452 46.6438 6.96357C46.1776 7.21104 45.7462 7.53012 45.3588 7.90086C44.7782 8.45653 44.2956 9.12551 43.9524 9.84887C43.6101 10.5731 43.4057 11.3536 43.405 12.135V21.0048C43.405 21.3438 43.6796 21.6185 44.0183 21.6185C44.357 21.6185 44.6316 21.3438 44.6316 21.0048Z"
        fill="#14443A" fill-rule="evenodd" />
    <path clip-rule="evenodd"
        d="M27.5479 34.3498H15.4439C15.1051 34.3498 14.8306 34.6245 14.8306 34.9626C14.8306 35.3016 15.1051 35.5762 15.4439 35.5762H27.5479C27.8866 35.5762 28.1612 35.3016 28.1612 34.9626C28.1612 34.6245 27.8866 34.3498 27.5479 34.3498Z"
        fill="#14443A" fill-rule="evenodd" />
    <path clip-rule="evenodd"
        d="M6.21659 32.7145C4.89306 31.6639 3.75317 30.2036 2.95103 28.5466C2.14799 26.8905 1.68315 25.0395 1.6837 23.2165V20.5443H43.4049V23.2165C43.4048 25.4582 42.9201 27.506 41.9813 29.2328C41.0412 30.9596 39.6509 32.371 37.7963 33.3527C37.4968 33.5113 37.3824 33.8821 37.5407 34.1812C37.699 34.4812 38.0701 34.5955 38.3696 34.4368C40.4337 33.3473 42.0111 31.7482 43.0589 29.8184C44.108 27.8885 44.6315 25.6341 44.6315 23.2165V19.9306C44.6315 19.7692 44.566 19.6115 44.4518 19.4973C44.3376 19.3831 44.1797 19.3178 44.0181 19.3178H1.07047C0.908938 19.3178 0.751031 19.3831 0.636816 19.4973C0.5226 19.6115 0.457153 19.7692 0.457153 19.9306V23.2165C0.457697 25.2479 0.970397 27.2712 1.84723 29.0814C2.72505 30.8925 3.96755 32.4934 5.4538 33.6754C5.71903 33.8857 6.10474 33.8413 6.3154 33.5766C6.52606 33.311 6.48174 32.9248 6.21659 32.7145Z"
        fill="#14443A" fill-rule="evenodd" />
    <path clip-rule="evenodd"
        d="M29.0308 0H14.7804C13.0884 0 11.4713 0.39794 10.0058 1.11315C7.80662 2.1855 5.94736 3.9649 4.63687 6.18485C3.32648 8.4057 2.56332 11.0716 2.56323 13.927V15.6067C2.56323 15.9448 2.8378 16.2195 3.17646 16.2195C3.51521 16.2195 3.78978 15.9448 3.78978 15.6067L3.78969 13.927C3.78923 10.4126 5.04433 7.22457 7.04718 4.92757C8.04838 3.77907 9.23504 2.85266 10.5433 2.21541C11.8518 1.57816 13.2809 1.22736 14.7804 1.22645H29.0308C29.3695 1.22645 29.644 0.9527 29.644 0.61368C29.644 0.27466 29.3695 0 29.0308 0Z"
        fill="#14443A" fill-rule="evenodd" />
    <path clip-rule="evenodd"
        d="M9.68562 32.0755V32.6882C11.5012 32.6892 13.1398 33.4234 14.3308 34.6127C14.9257 35.2082 15.407 35.9162 15.7392 36.7021C16.0715 37.488 16.2554 38.3501 16.2554 39.2593C16.2554 40.1675 16.0715 41.0296 15.7393 41.8146C15.241 42.993 14.4071 43.9965 13.3581 44.7053C12.3088 45.4133 11.048 45.8257 9.68562 45.8266C8.77652 45.8266 7.91374 45.6426 7.12802 45.3099C5.94969 44.8123 4.94551 43.9783 4.2371 42.9305C3.52878 41.8817 3.11598 40.6217 3.11571 39.2593C3.11598 37.4427 3.84995 35.8038 5.03969 34.6127C5.63442 34.018 6.34256 33.5367 7.12811 33.2049C7.91383 32.8723 8.77652 32.6882 9.68562 32.6882V31.4618C7.53411 31.4618 5.58112 32.3356 4.17229 33.7461C2.76254 35.1548 1.88889 37.1082 1.88916 39.2593C1.88889 41.4094 2.76254 43.3619 4.17238 44.7697C5.58131 46.1792 7.5342 47.0531 9.68562 47.0531C11.8361 47.0531 13.7889 46.1792 15.198 44.7697C16.608 43.3619 17.4823 41.4094 17.4819 39.2593C17.4823 37.1082 16.6081 35.1548 15.1981 33.7461C13.7891 32.3356 11.8362 31.4618 9.68562 31.4618V32.0755Z"
        fill="#14443A" fill-rule="evenodd" />
    <path clip-rule="evenodd"
        d="M33.3042 32.0755V32.6882C35.1198 32.6892 36.7585 33.4234 37.9495 34.6127C38.5444 35.2082 39.0256 35.9162 39.3579 36.7021C39.6903 37.488 39.874 38.3501 39.8741 39.2593C39.874 40.1675 39.6903 41.0296 39.358 41.8146C38.8597 42.993 38.0257 43.9965 36.9768 44.7053C35.9274 45.4133 34.6667 45.8257 33.3042 45.8266C31.4885 45.8257 29.8503 45.0924 28.6598 43.9031C27.4702 42.712 26.7363 41.074 26.7361 39.2593C26.7363 37.4427 27.4703 35.8038 28.66 34.6127C29.2546 34.018 29.9626 33.5367 30.7478 33.2049C31.5333 32.8723 32.3957 32.6882 33.3042 32.6882V31.4618C31.1536 31.4618 29.201 32.3356 27.7925 33.7461C26.3829 35.1548 25.5092 37.1082 25.5095 39.2593C25.5092 41.4094 26.383 43.3619 27.7926 44.7697C29.2012 46.1792 31.1537 47.0531 33.3042 47.0531C35.4548 47.0531 37.4077 46.1792 38.8167 44.7697C40.2267 43.3619 41.1009 41.4094 41.1006 39.2593C41.1009 37.1082 40.2268 35.1548 38.8168 33.7461C37.4078 32.3356 35.4549 31.4618 33.3042 31.4618V32.0755Z"
        fill="#14443A" fill-rule="evenodd" />
    <path clip-rule="evenodd"
        d="M9.68571 39.872C9.84715 39.872 10.0051 39.8068 10.1193 39.6925C10.2335 39.5783 10.2989 39.4206 10.2989 39.2592C10.2989 39.0979 10.2335 38.9393 10.1194 38.825C10.0051 38.7117 9.84715 38.6456 9.68571 38.6456C9.52417 38.6456 9.36627 38.7117 9.25205 38.825C9.13783 38.9393 9.07239 39.0979 9.07239 39.2592C9.07239 39.4206 9.13783 39.5783 9.25205 39.6925C9.36627 39.8068 9.52417 39.872 9.68571 39.872Z"
        fill="#14443A" fill-rule="evenodd" />
    <path clip-rule="evenodd"
        d="M33.3041 39.872C33.4657 39.872 33.6236 39.8068 33.7378 39.6925C33.852 39.5783 33.9175 39.4206 33.9175 39.2592C33.9175 39.0979 33.852 38.9393 33.7378 38.825C33.6236 38.7117 33.4657 38.6456 33.3041 38.6456C33.1427 38.6456 32.9847 38.7117 32.8706 38.825C32.7564 38.9393 32.6909 39.0979 32.6909 39.2592C32.6909 39.4206 32.7564 39.5783 32.8706 39.6925C32.9847 39.8068 33.1427 39.872 33.3041 39.872Z"
        fill="#14443A" fill-rule="evenodd" />
    <path clip-rule="evenodd"
        d="M20.7438 0.0281431C20.0727 0.0272366 19.4159 0.131481 18.7854 0.327278C17.6812 0.669018 16.6593 1.29086 15.7518 2.123C14.3902 3.37302 13.279 5.09622 12.5022 7.12127C11.7262 9.14724 11.2856 11.4787 11.2854 13.9543V15.6339C11.2854 15.9721 11.56 16.2467 11.8986 16.2467C12.2374 16.2467 12.5119 15.9721 12.5119 15.6339V13.9543C12.5119 12.1794 12.7533 10.487 13.1868 8.95144C13.8361 6.6481 14.9204 4.70009 16.245 3.35217C16.907 2.67776 17.6273 2.152 18.3822 1.79667C19.1377 1.44133 19.9264 1.2546 20.7438 1.2546C21.0824 1.2546 21.357 0.979937 21.357 0.640917C21.357 0.301897 21.0824 0.0281431 20.7438 0.0281431Z"
        fill="#14443A" fill-rule="evenodd" />
    <path clip-rule="evenodd"
        d="M20.9007 15.6339V13.9533C20.9006 12.1784 21.1422 10.4861 21.5756 8.95051C22.2249 6.64717 23.3092 4.69916 24.6338 3.35124C25.2959 2.67683 26.0161 2.15107 26.771 1.79574C27.5265 1.4404 28.3151 1.25367 29.1325 1.25276C29.4712 1.25276 29.7458 0.979007 29.7458 0.639987C29.7458 0.300967 29.4712 0.0263062 29.1325 0.0263062C28.4614 0.0263062 27.8047 0.13055 27.1741 0.326348C26.0699 0.668087 25.048 1.28993 24.1406 2.12297C22.7789 3.37209 21.6678 5.09529 20.8911 7.12125C20.115 9.14631 19.6745 11.4777 19.6742 13.9533V15.6339C19.6742 15.972 19.9488 16.2467 20.2875 16.2467C20.6262 16.2467 20.9007 15.972 20.9007 15.6339Z"
        fill="#14443A" fill-rule="evenodd" />
    <path clip-rule="evenodd"
        d="M1.42683 47.6069H42.8969C43.2356 47.6069 43.5101 47.3323 43.5101 46.9933C43.5101 46.6542 43.2356 46.3805 42.8969 46.3805H1.42683C1.08817 46.3805 0.813599 46.6542 0.813599 46.9933C0.813599 47.3323 1.08817 47.6069 1.42683 47.6069Z"
        fill="#14443A" fill-rule="evenodd" />
</svg>
