<svg fill="none" height="20" viewBox="0 0 18 20" width="18" xmlns="http://www.w3.org/2000/svg">
    <path
        d="M16.2277 19.72H1.62315C1.39904 19.7214 1.18237 19.6401 1.01495 19.4918C0.847536 19.3435 0.741252 19.1388 0.716604 18.9172L0.000434373 8.22369C-0.00334033 8.10421 0.0175191 7.98524 0.0617417 7.8741C0.105964 7.76296 0.172601 7.66201 0.257546 7.57749C0.342491 7.49297 0.443949 7.42666 0.555644 7.38266C0.667339 7.33866 0.786914 7.3179 0.906985 7.32166H17.0934C17.3339 7.32166 17.5645 7.41669 17.7345 7.58586C17.9045 7.75502 18 7.98445 18 8.22369L17.1342 18.9262C17.1075 19.1462 17.0003 19.3488 16.8331 19.4952C16.6659 19.6416 16.4504 19.7216 16.2277 19.72Z"
        fill="#D2D2D2" />
    <path
        d="M4.46533 10.4713V5.51013C4.46533 4.31397 4.9429 3.1668 5.79296 2.32098C6.64301 1.47517 7.79593 1 8.99809 1C10.2002 1 11.3532 1.47517 12.2032 2.32098C13.0533 3.1668 13.5308 4.31397 13.5308 5.51013V10.4713"
        stroke="#D2D2D2" stroke-linecap="round" stroke-linejoin="round" stroke-width="1.6" />
</svg>
