<svg fill="none" height="26" viewBox="0 0 26 26" width="26" xmlns="http://www.w3.org/2000/svg">
    <path clip-rule="evenodd"
        d="M4.83098 8.09612C5.83389 4.50477 9.24501 2.16663 13 2.16663C16.7549 2.16663 20.1661 4.50477 21.169 8.09612C21.4101 8.95957 21.6347 9.82775 21.8034 10.605C22.1972 12.4191 22.5254 14.8404 22.7284 16.5169C22.9195 18.0946 21.8182 19.5404 20.201 19.7935C18.2626 20.097 15.2713 20.5 13 20.5C10.7287 20.5 7.73733 20.097 5.79893 19.7935C4.18179 19.5404 3.08041 18.0946 3.27152 16.5169C3.47459 14.8404 3.80285 12.4191 4.19658 10.605C4.36528 9.82775 4.58985 8.95957 4.83098 8.09612ZM13 3.83329C9.95577 3.83329 7.26356 5.72269 6.47835 8.53444C6.2419 9.38111 6.02641 10.2159 5.86698 10.9505C5.49066 12.6842 5.16975 15.0403 4.96718 16.7125C4.88238 17.4127 5.36626 18.0378 6.06937 18.1479C8.0036 18.4508 10.8771 18.8333 13 18.8333C15.1229 18.8333 17.9964 18.4508 19.9306 18.1479C20.6337 18.0378 21.1176 17.4127 21.0328 16.7125C20.8302 15.0403 20.5093 12.6842 20.133 10.9505C19.9736 10.2159 19.7581 9.38111 19.5217 8.53444C18.7365 5.72269 16.0443 3.83329 13 3.83329Z"
        fill="#418ABF" fill-rule="evenodd" />
    <path clip-rule="evenodd"
        d="M10.7234 18.8334C11.1948 18.8334 11.5772 19.2065 11.5772 19.6667V20.7779C11.5772 21.5449 12.2142 22.1667 13 22.1667C13.7859 22.1667 14.4229 21.5449 14.4229 20.7779V19.6667C14.4229 19.2065 14.8052 18.8334 15.2766 18.8334C15.7481 18.8334 16.1304 19.2065 16.1304 19.6667V20.7779C16.1304 22.4654 14.7289 23.8334 13 23.8334C11.2711 23.8334 9.86963 22.4654 9.86963 20.7779V19.6667C9.86963 19.2065 10.2519 18.8334 10.7234 18.8334Z"
        fill="#418ABF" fill-rule="evenodd" />
</svg>
