<svg fill="none" height="16" viewBox="0 0 16 16" width="16" xmlns="http://www.w3.org/2000/svg">
    <path clip-rule="evenodd"
        d="M0.226762 0.226762C0.529102 -0.0755875 1.01929 -0.0755875 1.32163 0.226762L8 6.9051L14.6784 0.226762C14.9807 -0.0755875 15.4709 -0.0755875 15.7732 0.226762C16.0756 0.529102 16.0756 1.01929 15.7732 1.32163L9.0949 8L15.7732 14.6784C16.0756 14.9807 16.0756 15.4709 15.7732 15.7732C15.4709 16.0756 14.9807 16.0756 14.6784 15.7732L8 9.0949L1.32163 15.7732C1.01929 16.0756 0.529102 16.0756 0.226762 15.7732C-0.0755875 15.4709 -0.0755875 14.9807 0.226762 14.6784L6.9051 8L0.226762 1.32163C-0.0755875 1.01929 -0.0755875 0.529102 0.226762 0.226762Z"
        fill="#2A2A2A" fill-rule="evenodd" />
</svg>
