<svg fill="none" height="17" viewBox="0 0 17 17" width="17" xmlns="http://www.w3.org/2000/svg">
    <path clip-rule="evenodd"
        d="M8.5 15.6923C12.4722 15.6923 15.6923 12.4722 15.6923 8.5C15.6923 4.52778 12.4722 1.30772 8.5 1.30772C4.52778 1.30772 1.30773 4.52778 1.30772 8.5C1.30772 12.4722 4.52778 15.6923 8.5 15.6923ZM17 8.5C17 13.1944 13.1944 17 8.5 17C3.80562 17 3.32694e-07 13.1944 7.43094e-07 8.5C1.15349e-06 3.80562 3.80562 -1.15349e-06 8.5 -7.43094e-07C13.1944 -3.32694e-07 17 3.80562 17 8.5Z"
        fill="#ED2127" fill-rule="evenodd" />
    <path clip-rule="evenodd"
        d="M8.49999 4.79479C8.13891 4.79479 7.84617 5.08753 7.84617 5.44869L7.84617 8.93582C7.84617 9.29698 8.13891 9.58972 8.49999 9.58972C8.86107 9.58972 9.15381 9.29698 9.15381 8.93582L9.15381 5.44869C9.15381 5.08753 8.86107 4.79479 8.49999 4.79479Z"
        fill="#ED2127" fill-rule="evenodd" />
    <path
        d="M7.62806 11.5513C7.62806 12.0328 8.01838 12.4231 8.49982 12.4231C8.98126 12.4231 9.37158 12.0328 9.37158 11.5513C9.37158 11.0698 8.98126 10.6795 8.49982 10.6795C8.01838 10.6795 7.62806 11.0698 7.62806 11.5513Z"
        fill="#ED2127" />
</svg>
