<svg fill="none" height="167" viewBox="0 0 170 167" width="170" xmlns="http://www.w3.org/2000/svg">
    <path
        d="M170 107.123C170 149.995 107.301 166.895 64.4292 166.895C21.5578 166.895 0 113.511 0 70.6393C0 27.7679 14.5715 0 57.4429 0C135.068 0 170 64.2519 170 107.123Z"
        fill="#FFFFFE" fill-opacity="0.7" />
    <path clip-rule="evenodd"
        d="M38.9189 59.1622H59.7797C59.7797 59.1622 59.7797 41.6469 77.9821 41.3334C87.4353 41.1704 92.3369 47.3626 94.3282 52.1064C96.6406 57.6155 95.941 63.8937 92.8422 69.0022C89.3042 74.8361 81.6838 80.6982 67.6252 78.221L67.4919 124.697H88.119V97.145C88.119 97.145 117.049 89.6666 117.049 57.7846C117.049 27.2806 92.3813 20.6907 79.1239 20.2673C71.7466 20.0315 69.0725 19.7147 59.9484 21.01C48.3211 22.6604 38.6729 36.1609 38.9189 59.1622Z"
        fill="#E0565F" fill-rule="evenodd" />
    <path clip-rule="evenodd" d="M67.4341 153.939H88.3682V134.387H67.4341V153.939Z" fill="#E0565F"
        fill-rule="evenodd" />
    <path clip-rule="evenodd" d="M88.3682 153.939H79.7271V134.387H67.4341H88.3682V153.939Z"
        fill="#B81217" fill-rule="evenodd" />
    <path clip-rule="evenodd"
        d="M88.1189 124.697H79.4777V97.1451C79.4777 97.1451 102.71 91.1378 107.536 66.9478C107.647 66.9853 107.765 67.0175 107.892 67.0431L116.136 67.1511C111.221 91.1725 88.1189 97.1451 88.1189 97.1451V124.697ZM59.7796 59.1625H51.1384C51.1384 59.1625 51.1384 41.6471 69.3408 41.3336C69.4625 41.3314 69.5842 41.3304 69.7045 41.3304C71.1634 41.3304 72.5118 41.4832 73.7558 41.7588C59.7792 44.4754 59.7796 59.1625 59.7796 59.1625ZM103.707 38.6111C95.3658 24.1043 78.039 20.1957 69.3426 20.1957C68.3962 20.1957 67.2093 20.2199 65.8428 20.3065C67.9534 20.1187 69.6901 20.053 71.4246 20.053C73.7121 20.053 75.9953 20.1675 79.1237 20.2675C88.3118 20.5608 102.98 23.8146 111.119 35.94L109.504 36.0361L109.213 35.5499L106.829 36.6581C106.309 36.8997 105.81 37.1822 105.334 37.5015C104.915 37.7818 104.34 38.1585 103.707 38.6111ZM58.1516 21.3634C58.7397 21.215 59.3339 21.0976 59.9335 21.012C59.3508 21.116 58.7552 21.2327 58.1516 21.3634Z"
        fill="#B81217" fill-rule="evenodd" />
    <path clip-rule="evenodd"
        d="M30.2777 59.1623H51.1385C51.1385 59.1623 51.1385 41.647 69.3409 41.3334C78.7941 41.1705 83.6957 47.3627 85.687 52.1065C87.9995 57.6156 87.2998 63.8938 84.2013 69.0023C80.663 74.8362 72.9096 80.1387 58.8511 77.6616V124.697H79.4778V97.1451C79.4778 97.1451 108.408 89.6667 108.408 57.7847C108.408 27.2807 81.0523 20.1956 69.3427 20.1956C60.3884 20.1956 29.884 22.3603 30.2777 59.1623Z"
        fill="#E0565F" fill-rule="evenodd" />
    <path clip-rule="evenodd"
        d="M79.4779 124.697H58.8511V77.6616C61.286 78.0907 63.5302 78.2865 65.5981 78.2865C75.4674 78.2857 81.276 73.8255 84.2014 69.0023C86.0591 65.9393 87.0546 62.4554 87.0553 58.9694C87.0561 56.6414 86.6129 54.3124 85.6871 52.1065C84.0327 48.165 80.3701 43.224 73.756 41.7586C72.512 41.483 71.1636 41.3302 69.7047 41.3302C69.5844 41.3302 69.4627 41.3313 69.341 41.3334C51.1386 41.647 51.1386 59.1623 51.1386 59.1623H30.2778C30.2753 58.9286 30.2742 58.6967 30.2742 58.4655C30.2706 22.3332 60.4451 20.1956 69.3428 20.1956C78.0392 20.1956 95.366 24.1042 103.707 38.611C101.961 39.8594 99.7821 41.6856 99.2743 43.6625C97.6752 49.8905 100.384 56.8441 100.384 56.8441L100.417 56.8184C100.61 57.3433 101.59 57.7518 102.208 57.9389C102.711 58.091 103.236 58.1347 103.763 58.1347C104.052 58.1347 104.342 58.1213 104.63 58.1058C104.693 58.1025 104.757 58.0989 104.821 58.0949L106.992 63.9125C106.992 63.9125 106.266 64.355 106.235 65.1128C106.208 65.7959 106.535 66.6043 107.537 66.9478C102.71 91.1379 79.4779 97.1451 79.4779 97.1451V124.697Z"
        fill="#ED2127" fill-rule="evenodd" />
    <path clip-rule="evenodd" d="M58.793 153.939H79.7271V134.387H58.793V153.939Z" fill="#E0565F"
        fill-rule="evenodd" />
    <path clip-rule="evenodd" d="M58.793 153.939H79.7271V134.387H58.793V153.939Z" fill="#ED2127"
        fill-rule="evenodd" />
    <path clip-rule="evenodd"
        d="M71.6968 41.4301C71.6957 41.4366 71.5881 41.4297 71.3847 41.4113C71.1806 41.4008 70.8841 41.3434 70.4958 41.3391C69.7232 41.2878 68.5984 41.3076 67.2247 41.4749C65.8528 41.6464 64.2314 41.9867 62.503 42.5856C61.6437 42.8951 60.7497 43.2513 59.8719 43.7173C58.9863 44.1662 58.1092 44.7156 57.2987 45.3835C56.4834 46.0445 55.7939 46.8161 55.1929 47.6085C54.5896 48.3985 54.0673 49.2054 53.6147 49.9994C52.7276 51.5992 52.1215 53.1419 51.7466 54.4733C51.363 55.8033 51.1954 56.9162 51.1191 57.6859C51.0747 58.0709 51.0632 58.3715 51.0523 58.5755C51.0404 58.7796 51.031 58.8865 51.0245 58.8865C51.018 58.8865 51.0148 58.7793 51.0144 58.5748C51.013 58.37 51.0126 58.0677 51.0462 57.6797C51.1 56.9042 51.2488 55.7812 51.6187 54.4375C51.9795 53.0924 52.577 51.5327 53.4634 49.9152C53.9156 49.1119 54.4394 48.2959 55.0466 47.4962C55.6501 46.6969 56.3487 45.912 57.1795 45.2383C58.003 44.5596 58.8913 44.0048 59.7871 43.5536C60.6756 43.0848 61.5783 42.7294 62.4459 42.4216C64.1909 41.8271 65.8261 41.4987 67.2092 41.3427C68.5933 41.1917 69.7257 41.1921 70.5008 41.2661C70.8899 41.2816 71.1868 41.351 71.3898 41.3737C71.5921 41.4044 71.6979 41.4239 71.6968 41.4301Z"
        fill="#132529" fill-rule="evenodd" />
    <path clip-rule="evenodd"
        d="M103.128 37.7062C103.125 37.708 103.102 37.6798 103.06 37.6238C103.012 37.5588 102.952 37.4761 102.877 37.3728C102.713 37.1391 102.483 36.8129 102.191 36.3986C102.04 36.1884 101.883 35.9467 101.694 35.696C101.493 35.4526 101.275 35.1889 101.042 34.9061C100.809 34.6218 100.56 34.3188 100.295 33.9973C100.024 33.6823 99.7069 33.3753 99.3909 33.0383C99.0672 32.7085 98.7454 32.3458 98.3791 31.9994C98.0049 31.661 97.6152 31.3092 97.2124 30.9451C97.0094 30.7652 96.8104 30.5727 96.594 30.3942C96.3733 30.2205 96.1494 30.0439 95.9222 29.8647C95.4634 29.5118 95.0083 29.1264 94.5117 28.771C92.5319 27.337 90.2165 25.9586 87.6765 24.7345C87.0336 24.4437 86.3989 24.1565 85.773 23.8733C85.1329 23.6248 84.5019 23.3799 83.8817 23.1394C83.2669 22.8844 82.6384 22.703 82.0308 22.5026C81.42 22.3129 80.832 22.0933 80.236 21.9543C79.6447 21.7989 79.0686 21.6476 78.5083 21.5006C77.9485 21.3521 77.3919 21.264 76.8609 21.1484C76.327 21.0487 75.8173 20.9158 75.316 20.8533C74.8168 20.781 74.3375 20.7117 73.8798 20.6456C72.9671 20.4892 72.1291 20.4581 71.3983 20.3844C71.0321 20.3555 70.6918 20.3165 70.3776 20.3017C70.064 20.2934 69.7769 20.2855 69.5168 20.2786C69.01 20.2624 68.6113 20.2497 68.3255 20.2403C68.198 20.2342 68.0958 20.2295 68.0153 20.2255C67.9452 20.2212 67.9094 20.2176 67.9094 20.2143C67.9094 20.2111 67.9452 20.2082 68.0149 20.2064C68.0954 20.2053 68.1977 20.2042 68.3252 20.2024C68.6116 20.2031 69.0107 20.2042 69.5186 20.2056C69.779 20.2074 70.0673 20.2096 70.3815 20.2121C70.6969 20.2215 71.0382 20.2555 71.4056 20.2797C72.1392 20.3433 72.9804 20.3653 73.8964 20.5138C74.3566 20.5762 74.8381 20.642 75.3395 20.7103C75.8426 20.7691 76.3548 20.8984 76.8912 20.9952C77.4251 21.1083 77.9842 21.1932 78.5463 21.3395C79.1094 21.4847 79.6888 21.6342 80.2826 21.787C80.8808 21.9246 81.4721 22.1428 82.0858 22.3314C82.6966 22.5311 83.3279 22.7117 83.9456 22.9667C84.5683 23.2073 85.2023 23.4522 85.8452 23.7007C86.4741 23.9846 87.1116 24.2728 87.7571 24.5643C90.3079 25.7939 92.6312 27.1831 94.6139 28.6312C95.1113 28.9899 95.5671 29.3792 96.0258 29.7361C96.253 29.9171 96.477 30.0955 96.6977 30.2711C96.9141 30.4517 97.1127 30.6464 97.3157 30.8284C97.7181 31.1968 98.1064 31.553 98.4799 31.8954C98.8454 32.2458 99.1658 32.6131 99.4877 32.9469C99.8019 33.2882 100.116 33.5996 100.386 33.9185C100.647 34.2443 100.893 34.5521 101.124 34.84C101.354 35.1275 101.568 35.3952 101.765 35.6422C101.951 35.8969 102.104 36.1421 102.25 36.3563C102.531 36.78 102.751 37.1134 102.909 37.3522C102.978 37.4598 103.033 37.5458 103.076 37.6137C103.113 37.6729 103.13 37.7044 103.128 37.7062Z"
        fill="#132529" fill-rule="evenodd" />
    <path clip-rule="evenodd"
        d="M100.954 82.4938C100.959 82.4982 100.905 82.5726 100.797 82.7105C100.675 82.8615 100.515 83.0606 100.316 83.3087C100.107 83.5695 99.8467 83.8837 99.5277 84.2345C99.2113 84.5867 98.8616 84.9984 98.4419 85.4225C98.0309 85.8549 97.5776 86.3255 97.0661 86.8063C96.5687 87.3015 96.0041 87.7953 95.4168 88.3219C94.2219 89.3524 92.8605 90.4314 91.3641 91.4706C89.8603 92.5 88.3675 93.3886 86.9793 94.1395C86.2782 94.5015 85.6158 94.8533 84.9757 95.1419C84.3447 95.4493 83.7433 95.7054 83.1932 95.9358C82.6477 96.1771 82.1384 96.3577 81.6967 96.5282C81.2553 96.7012 80.8692 96.833 80.5517 96.9353C80.2486 97.0335 80.0059 97.1123 79.8217 97.1722C79.6541 97.2242 79.5652 97.2488 79.563 97.2423C79.5609 97.2365 79.6457 97.1997 79.8094 97.1361C79.9907 97.0678 80.2295 96.9783 80.5275 96.8659C80.8406 96.7536 81.2224 96.6124 81.6588 96.4299C82.0962 96.2504 82.6004 96.0622 83.1408 95.8134C83.6866 95.5757 84.2826 95.3134 84.9089 95.001C85.5435 94.7073 86.2009 94.3512 86.8974 93.9867C88.2757 93.2307 89.7596 92.3411 91.2575 91.3152C92.7478 90.2807 94.1067 89.2101 95.3034 88.1912C95.8918 87.6696 96.4578 87.1823 96.9584 86.6932C97.4728 86.2193 97.9301 85.7555 98.3462 85.33C98.771 84.9132 99.1264 84.5086 99.4497 84.164C99.7751 83.8209 100.043 83.5146 100.26 83.2614C100.47 83.0226 100.639 82.8315 100.767 82.6867C100.885 82.5563 100.949 82.4898 100.954 82.4938Z"
        fill="#132529" fill-rule="evenodd" />
    <path clip-rule="evenodd"
        d="M79.1134 123.059C79.061 123.059 79.0191 117.258 79.0191 110.102C79.0191 102.944 79.061 97.1433 79.1134 97.1433C79.1651 97.1433 79.2073 102.944 79.2073 110.102C79.2073 117.258 79.1651 123.059 79.1134 123.059Z"
        fill="#132529" fill-rule="evenodd" />
    <path clip-rule="evenodd"
        d="M79.9087 152.613C79.8567 152.613 79.8148 148.541 79.8148 143.52C79.8148 138.496 79.8567 134.426 79.9087 134.426C79.9603 134.426 80.003 138.496 80.003 143.52C80.003 148.541 79.9603 152.613 79.9087 152.613Z"
        fill="#132529" fill-rule="evenodd" />
    <path clip-rule="evenodd"
        d="M100.444 56.3897C100.08 57.1168 101.43 57.7034 102.208 57.9389C102.987 58.1744 103.818 58.1498 104.63 58.1058C105.707 58.0476 106.822 57.9472 107.758 57.4126C108.59 56.9373 109.21 56.152 109.644 55.2977C110.077 54.4435 110.34 53.5148 110.601 52.593C110.601 52.593 102.067 53.1518 100.444 56.3897Z"
        fill="#E0565F" fill-rule="evenodd" />
    <path clip-rule="evenodd"
        d="M103.763 58.1345C103.236 58.1345 102.711 58.0908 102.208 57.9387C101.59 57.7516 100.61 57.3431 100.417 56.8182L102.123 55.4847C102.577 55.1401 103.009 54.8432 103.503 54.5625L104.821 58.0948C104.757 58.0987 104.693 58.1023 104.63 58.1056C104.342 58.1211 104.052 58.1345 103.763 58.1345Z"
        fill="#B81217" fill-rule="evenodd" />
    <path clip-rule="evenodd"
        d="M124.553 54.0769C125.945 55.072 127.658 55.6099 129.37 55.5896C130.19 55.5795 131.058 55.4213 131.664 54.8679C131.942 54.6133 132.15 54.2878 132.437 54.0429C132.631 53.8768 132.859 53.7507 133.042 53.5716C133.225 53.3924 133.363 53.1363 133.308 52.8864C133.252 52.6303 133.037 52.2178 132.809 52.0888C131.829 51.5326 130.66 51.5524 129.533 51.5784C128.406 51.6041 127.296 51.867 126.228 52.2264C125.354 52.5201 124.438 52.9351 123.996 53.7435L124.553 54.0769Z"
        fill="#E0565F" fill-rule="evenodd" />
    <path clip-rule="evenodd"
        d="M129.276 55.5899C127.633 55.5899 125.993 55.077 124.643 54.1407C124.644 54.1346 124.644 54.1284 124.645 54.1223C124.677 53.8572 124.724 53.5357 124.788 53.1684C124.799 53.1019 124.811 53.034 124.823 52.9646C126.091 52.3621 128.113 51.7484 131.102 51.7246C131.109 51.7246 131.115 51.7246 131.122 51.7246C132.491 51.7246 133.308 52.8863 133.308 52.8863L133.226 52.6991C133.266 52.7634 133.295 52.827 133.308 52.8863C133.316 52.9242 133.32 52.9625 133.32 53.0004C133.32 53.2124 133.197 53.4198 133.042 53.5715C132.859 53.7506 132.631 53.8767 132.437 54.0428C132.15 54.2877 131.942 54.6132 131.664 54.8678C131.058 55.4212 130.19 55.5794 129.37 55.5895C129.338 55.5899 129.307 55.5899 129.276 55.5899Z"
        fill="#B81217" fill-rule="evenodd" />
    <path clip-rule="evenodd"
        d="M107.893 67.0431L125.899 67.2789C126.057 67.2811 126.17 67.1276 126.122 66.977L124.01 60.3885C124.01 60.3885 124.321 57.0961 124.751 53.1344C125.404 47.1225 126.273 39.5627 126.284 39.583C125.054 36.1316 117.787 35.5432 117.787 35.5432L109.504 36.0359L109.213 35.5497L106.829 36.6579C106.309 36.8995 105.811 37.182 105.334 37.5013C103.761 38.555 99.9659 40.9686 99.2742 43.6624C97.6751 49.8904 100.384 56.844 100.384 56.844L102.123 55.4848C102.577 55.1402 103.009 54.8433 103.502 54.5626L106.992 63.9125C106.992 63.9125 106.266 64.355 106.235 65.1128C106.205 65.871 106.611 66.7837 107.893 67.0431Z"
        fill="#FD2F35" fill-rule="evenodd" />
    <path clip-rule="evenodd"
        d="M113.972 56.4144C113.802 56.4144 113.644 56.378 113.515 56.2595C113.297 56.0608 113.234 55.7368 113.274 55.4453C113.314 55.1531 113.442 54.8822 113.555 54.6109C114.613 52.0922 114.577 49.2271 115.577 46.6853C115.881 49.7924 116.183 52.949 115.611 56.0182C115.243 56.145 115.027 56.2851 114.618 56.3342C114.405 56.3599 114.18 56.4144 113.972 56.4144Z"
        fill="#B81217" fill-rule="evenodd" />
    <path clip-rule="evenodd"
        d="M109.897 63.2725C109.588 63.2725 109.282 63.2298 108.979 63.1251L108.736 62.9304C109.461 62.1347 110.253 61.3274 111.281 61.0088C111.688 60.8827 112.11 60.8401 112.536 60.8401C112.968 60.8401 113.403 60.8838 113.832 60.9275C117.232 61.2764 120.633 61.4845 124.033 61.8338C124.054 62.1462 123.834 62.5764 123.561 62.7303C123.289 62.8838 122.969 62.9282 122.658 62.9633C121.821 63.0572 120.979 63.1041 120.137 63.1041C118.925 63.1041 117.713 63.007 116.517 62.8126C115.694 62.6794 114.866 62.4995 114.037 62.4995C113.855 62.4995 113.673 62.5081 113.491 62.5277C112.28 62.6591 111.07 63.2725 109.897 63.2725Z"
        fill="#B81217" fill-rule="evenodd" />
    <path clip-rule="evenodd"
        d="M132.788 51.6965C131.316 48.3864 126.133 39.2258 126.133 39.2258L122.118 44.2585L123.055 54.1379C123.055 54.1379 125.175 51.7717 131.102 51.7247C132.484 51.7135 133.308 52.8864 133.308 52.8864L132.788 51.6965Z"
        fill="#ED2127" fill-rule="evenodd" />
    <path clip-rule="evenodd"
        d="M108.69 49.9478C108.64 49.9611 108.337 48.9938 108.013 47.787C107.69 46.5802 107.469 45.5909 107.518 45.5775C107.569 45.5642 107.872 46.5315 108.195 47.7383C108.519 48.9447 108.74 49.9341 108.69 49.9478Z"
        fill="#132529" fill-rule="evenodd" />
    <path clip-rule="evenodd"
        d="M121.815 43.589C121.824 43.5792 121.956 43.6919 122.187 43.9043C122.412 44.1221 122.731 44.4476 123.081 44.8875C123.782 45.7548 124.64 47.1115 124.998 48.8095C125.177 49.6536 125.207 50.4873 125.113 51.2292C125.02 51.9683 124.878 52.6181 124.788 53.1686C124.692 53.7176 124.636 54.1644 124.607 54.4747C124.579 54.7846 124.571 54.9576 124.556 54.9576C124.545 54.9576 124.528 54.7842 124.534 54.4704C124.54 54.1565 124.577 53.7024 124.656 53.148C124.731 52.5932 124.858 51.9376 124.941 51.209C125.023 50.4841 124.989 49.6735 124.814 48.8489C124.464 47.1909 123.642 45.8476 122.976 44.9691C122.308 44.0788 121.787 43.6164 121.815 43.589Z"
        fill="#132529" fill-rule="evenodd" />
    <path clip-rule="evenodd"
        d="M118.139 66.2562C118.142 66.2688 118.003 66.3086 117.747 66.37C117.62 66.4028 117.462 66.4375 117.277 66.4614C117.092 66.487 116.882 66.5275 116.647 66.5379C116.178 66.5831 115.614 66.582 114.993 66.5289C114.373 66.4639 113.695 66.3404 113.006 66.1309C112.318 65.913 111.69 65.6309 111.142 65.3333C110.6 65.0252 110.135 64.707 109.774 64.4043C109.586 64.2623 109.436 64.1099 109.298 63.9838C109.158 63.8596 109.049 63.7418 108.962 63.6425C108.786 63.4471 108.694 63.3355 108.704 63.3268C108.731 63.3008 109.118 63.7342 109.856 64.2995C110.223 64.5852 110.688 64.8865 111.225 65.1812C111.768 65.4655 112.387 65.7371 113.061 65.9513C113.738 66.1569 114.402 66.2829 115.011 66.3562C115.62 66.418 116.174 66.4332 116.638 66.405C117.566 66.357 118.131 66.2193 118.139 66.2562Z"
        fill="#132529" fill-rule="evenodd" />
    <path clip-rule="evenodd"
        d="M123.7 64.1959C123.722 64.1912 123.792 64.388 123.839 64.7229C123.882 65.0556 123.891 65.5356 123.742 66.0395C123.599 66.5459 123.297 66.9429 123.034 67.1581C122.77 67.3778 122.567 67.4475 122.558 67.4291C122.542 67.4023 122.718 67.2922 122.944 67.061C123.169 66.8327 123.427 66.4592 123.561 65.9857C123.835 65.0314 123.629 64.1999 123.7 64.1959Z"
        fill="#132529" fill-rule="evenodd" />
    <path clip-rule="evenodd"
        d="M122.721 65.4687C122.768 65.4571 122.863 65.9845 122.629 66.5798C122.401 67.1776 121.975 67.5019 121.948 67.4622C121.907 67.4228 122.245 67.0634 122.454 66.5119C122.672 65.9632 122.665 65.4705 122.721 65.4687Z"
        fill="#132529" fill-rule="evenodd" />
    <path clip-rule="evenodd"
        d="M119.496 53.5831C119.535 53.6217 119.201 53.9992 118.854 54.5074C118.504 55.0142 118.273 55.461 118.222 55.4397C118.176 55.4216 118.337 54.9261 118.699 54.4012C119.059 53.8746 119.463 53.5466 119.496 53.5831Z"
        fill="#132529" fill-rule="evenodd" />
    <path clip-rule="evenodd"
        d="M107.138 44.8351C107.119 44.8586 106.833 44.6278 106.34 44.306C105.847 43.9838 105.136 43.5857 104.296 43.2707C103.456 42.9583 102.657 42.7925 102.074 42.7134C101.491 42.6336 101.124 42.6206 101.124 42.5899C101.124 42.5689 101.493 42.5342 102.089 42.5816C102.684 42.6274 103.504 42.7755 104.362 43.0945C105.219 43.4156 105.936 43.8415 106.416 44.1965C106.896 44.5516 107.153 44.8196 107.138 44.8351Z"
        fill="#132529" fill-rule="evenodd" />
    <path clip-rule="evenodd"
        d="M126.135 39.1058C126.17 39.1553 125.196 39.7502 124.31 40.8132C123.413 41.8679 122.994 42.9288 122.939 42.9028C122.917 42.8948 122.994 42.6196 123.19 42.2024C123.385 41.7856 123.712 41.2326 124.166 40.6922C124.621 40.1533 125.11 39.7364 125.487 39.4731C125.865 39.2087 126.124 39.0863 126.135 39.1058Z"
        fill="#132529" fill-rule="evenodd" />
    <path clip-rule="evenodd"
        d="M118.699 36.1295C118.705 36.1266 118.733 36.184 118.78 36.2964C118.834 36.4069 118.889 36.5778 118.949 36.8028C119.063 37.251 119.124 37.9413 118.942 38.7591C118.754 39.5668 118.303 40.5077 117.468 41.2482C116.64 41.9941 115.422 42.4362 114.145 42.4319C112.865 42.4232 111.665 41.9858 110.79 41.3107C109.903 40.6439 109.317 39.8106 108.943 39.0726C108.576 38.3256 108.405 37.6693 108.328 37.2138C108.291 36.9852 108.269 36.8071 108.263 36.6854C108.255 36.564 108.254 36.5005 108.26 36.4997C108.279 36.4979 108.301 36.7522 108.4 37.1994C108.498 37.6458 108.686 38.2866 109.062 39.0116C109.443 39.7279 110.027 40.5323 110.893 41.1712C111.747 41.8182 112.908 42.235 114.146 42.2437C115.381 42.2476 116.554 41.8261 117.355 41.1178C118.163 40.4134 118.614 39.509 118.813 38.7277C119.006 37.937 118.968 37.2633 118.877 36.8183C118.788 36.3704 118.677 36.1374 118.699 36.1295Z"
        fill="#132529" fill-rule="evenodd" />
    <path clip-rule="evenodd"
        d="M118.223 55.5036C118.233 55.4765 118.243 55.4498 118.253 55.4231C118.338 55.3375 118.552 54.9448 118.854 54.5074C119.06 54.2058 119.261 53.9504 119.383 53.7843C119.404 53.7698 119.426 53.7568 119.45 53.7456C119.505 53.7185 119.567 53.7026 119.629 53.7026C119.681 53.7026 119.732 53.7142 119.777 53.7402C119.934 53.8301 119.957 54.0425 119.963 54.2235C119.974 54.5966 119.982 54.9777 119.994 55.3512L118.223 55.5036Z"
        fill="#B81217" fill-rule="evenodd" />
    <path clip-rule="evenodd"
        d="M118.253 55.423C118.473 54.8566 118.77 54.4141 119.188 53.9612C119.248 53.8965 119.31 53.8329 119.383 53.7842C119.261 53.9503 119.06 54.2057 118.854 54.5073C118.552 54.9447 118.338 55.3374 118.253 55.423Z"
        fill="#D5797D" fill-rule="evenodd" />
    <path clip-rule="evenodd"
        d="M124.825 52.9493C124.914 52.448 125.032 51.8722 125.113 51.2289C125.207 50.487 125.177 49.6533 124.998 48.8092C124.947 48.5661 124.885 48.3298 124.815 48.1008C125.325 48.8207 125.724 49.6277 125.84 50.4982C125.967 51.446 125.313 52.055 124.825 52.9493Z"
        fill="#B81217" fill-rule="evenodd" />
    <path clip-rule="evenodd"
        d="M124.635 53.377C125.064 51.6652 125.32 50.255 124.557 47.7551C124.645 47.8682 124.732 47.9834 124.815 48.1012C124.885 48.3302 124.947 48.5664 124.998 48.8095C125.178 49.6536 125.207 50.4873 125.113 51.2292C125.032 51.8725 124.914 52.4483 124.825 52.9497C124.792 53.0111 124.759 53.0736 124.728 53.1375L124.635 53.377Z"
        fill="#132529" fill-rule="evenodd" />
    <path clip-rule="evenodd"
        d="M122.304 134.465L121.223 150.667L114.179 150.584L113.07 133.74L122.304 134.465Z"
        fill="#F1AD92" fill-rule="evenodd" />
    <path clip-rule="evenodd"
        d="M121.424 148.534L121.426 149.002C121.426 149.002 129.366 152.198 129.449 153.705L113.679 153.613L113.924 148.366C116.262 149.465 118.715 149.602 121.424 148.534Z"
        fill="#418ABF" fill-rule="evenodd" />
    <path clip-rule="evenodd"
        d="M115.511 150.053C115.206 150.135 114.993 150.477 115.062 150.786C115.131 151.094 115.477 151.314 115.784 151.238C116.091 151.162 116.359 150.759 116.256 150.459C116.152 150.16 115.732 149.925 115.452 150.073"
        fill="#FFFFFE" fill-rule="evenodd" />
    <path clip-rule="evenodd"
        d="M113.679 153.613L113.738 152.351L128.831 152.901C128.831 152.901 129.531 153.211 129.449 153.705L113.679 153.613Z"
        fill="#132529" fill-rule="evenodd" />
    <path clip-rule="evenodd"
        d="M121.481 149.047C121.478 149.124 121.092 149.157 120.712 149.402C120.325 149.637 120.129 149.97 120.057 149.939C119.987 149.923 120.104 149.464 120.57 149.175C121.033 148.882 121.498 148.976 121.481 149.047Z"
        fill="#132529" fill-rule="evenodd" />
    <path clip-rule="evenodd"
        d="M123.131 149.741C123.148 149.815 122.814 149.945 122.55 150.269C122.277 150.585 122.209 150.937 122.133 150.933C122.06 150.945 122.01 150.493 122.345 150.097C122.676 149.697 123.129 149.667 123.131 149.741Z"
        fill="#132529" fill-rule="evenodd" />
    <path clip-rule="evenodd"
        d="M124.058 151.726C123.988 151.742 123.884 151.357 124.084 150.936C124.281 150.514 124.645 150.35 124.677 150.414C124.721 150.478 124.485 150.703 124.326 151.05C124.159 151.394 124.135 151.719 124.058 151.726Z"
        fill="#132529" fill-rule="evenodd" />
    <path clip-rule="evenodd"
        d="M121.019 15.9867C121.425 14.9738 120.933 13.749 120.054 13.1021C119.174 12.4555 118.002 12.3164 116.924 12.4869C115.846 12.6574 114.835 13.1075 113.839 13.5528C112.935 12.6444 111.506 12.3009 110.288 12.6986C109.071 13.0963 108.12 14.2167 107.927 15.4835C107.151 15.2863 106.275 15.5518 105.739 16.1463C105.202 16.7409 105.029 17.6388 105.304 18.3909L110.186 20.1059L115.519 29.4854C117.077 30.8161 119.627 30.7799 121.148 29.4059C122.669 28.0319 122.962 25.4987 121.796 23.8137C122.097 23.55 122.345 23.2325 122.545 22.8872C123.391 22.3649 124.052 21.5496 124.27 20.5762C124.735 18.514 123.118 16.233 121.019 15.9867Z"
        fill="#132529" fill-rule="evenodd" />
    <path clip-rule="evenodd"
        d="M117.787 35.5432C117.484 34.0164 117.272 32.9707 117.276 32.9815C117.276 32.9815 120.154 31.8607 119.956 27.8394C119.858 25.8397 119.094 22.6871 118.387 20.1276C117.75 17.8238 115.602 15.2838 113.327 16.0178L106.449 19.3777C105.758 19.6006 105.637 20.2497 105.8 20.9573L105.811 21.3022L108.487 32.3758L109.618 37.3254C110.119 39.4313 112.143 40.8071 114.286 40.4968C116.656 40.1533 118.253 37.8925 117.787 35.5432Z"
        fill="#F1AD92" fill-rule="evenodd" />
    <path clip-rule="evenodd"
        d="M118.341 22.8026C118.406 23.0641 118.238 23.3343 117.966 23.4069C117.694 23.4791 117.421 23.3267 117.357 23.0648C117.292 22.8033 117.461 22.5324 117.732 22.4602C118.004 22.3876 118.277 22.5407 118.341 22.8026Z"
        fill="#132529" fill-rule="evenodd" />
    <path clip-rule="evenodd"
        d="M118.045 22.0337C117.997 22.1113 117.56 21.9112 117.023 22.0254C116.485 22.1316 116.149 22.4903 116.077 22.4368C116.042 22.4137 116.081 22.2833 116.226 22.1222C116.369 21.9622 116.632 21.7808 116.967 21.7119C117.301 21.6436 117.609 21.7079 117.797 21.8C117.989 21.8921 118.069 21.9979 118.045 22.0337Z"
        fill="#132529" fill-rule="evenodd" />
    <path clip-rule="evenodd"
        d="M113.115 24.0008C113.179 24.2623 113.011 24.5329 112.739 24.6051C112.468 24.6774 112.195 24.5249 112.13 24.263C112.066 24.0015 112.234 23.731 112.505 23.6584C112.777 23.5858 113.05 23.7393 113.115 24.0008Z"
        fill="#132529" fill-rule="evenodd" />
    <path clip-rule="evenodd"
        d="M112.852 23.3071C112.803 23.3851 112.366 23.1847 111.829 23.2988C111.292 23.405 110.956 23.7641 110.883 23.7102C110.849 23.6871 110.887 23.5567 111.032 23.3956C111.175 23.2356 111.438 23.0543 111.773 22.9853C112.108 22.917 112.415 22.9813 112.603 23.0734C112.794 23.1655 112.875 23.2714 112.852 23.3071Z"
        fill="#132529" fill-rule="evenodd" />
    <path clip-rule="evenodd"
        d="M115.571 26.7041C115.562 26.6741 115.884 26.5466 116.411 26.3638C116.545 26.3208 116.669 26.2663 116.672 26.168C116.684 26.0618 116.595 25.9264 116.495 25.7808C116.297 25.476 116.089 25.1563 115.871 24.8215C114.996 23.4528 114.332 22.3158 114.387 22.2811C114.442 22.2464 115.197 23.3275 116.072 24.6961C116.284 25.0342 116.487 25.3564 116.681 25.6652C116.765 25.8101 116.892 25.9683 116.865 26.1883C116.849 26.2988 116.764 26.3942 116.681 26.4364C116.599 26.4816 116.522 26.4993 116.455 26.5173C115.917 26.6611 115.58 26.7344 115.571 26.7041Z"
        fill="#132529" fill-rule="evenodd" />
    <path clip-rule="evenodd"
        d="M117.276 32.9817C117.276 32.9817 114.693 33.6998 111.772 32.6848C111.772 32.6848 113.663 35.1558 117.482 33.9747L117.276 32.9817Z"
        fill="#EA8E6C" fill-rule="evenodd" />
    <path clip-rule="evenodd"
        d="M112.953 22.5413C112.917 22.6959 112.365 22.692 111.735 22.8469C111.102 22.9892 110.61 23.2392 110.509 23.1168C110.463 23.0575 110.536 22.9076 110.727 22.7386C110.916 22.5702 111.229 22.394 111.608 22.3044C111.986 22.2159 112.345 22.234 112.589 22.3001C112.835 22.3662 112.968 22.4684 112.953 22.5413Z"
        fill="#132529" fill-rule="evenodd" />
    <path clip-rule="evenodd"
        d="M117.841 20.3254C117.755 20.4706 117.291 20.4359 116.763 20.5403C116.232 20.6292 115.808 20.826 115.679 20.7202C115.621 20.6675 115.666 20.5306 115.836 20.3745C116.004 20.2192 116.305 20.0577 116.669 19.9909C117.032 19.9248 117.369 19.9696 117.578 20.0563C117.791 20.1426 117.878 20.2553 117.841 20.3254Z"
        fill="#132529" fill-rule="evenodd" />
    <path clip-rule="evenodd"
        d="M108.141 16.7901C108.3 17.5703 108.819 18.2689 109.521 18.6449C110.222 19.0213 111.092 19.0678 111.829 18.7684C112.402 18.5362 112.991 18.1005 113.572 18.3104C114.183 18.5315 114.375 19.3431 114.941 19.6606C115.751 20.1139 116.727 19.3283 117.651 19.4059C118.366 19.4659 118.92 20.0218 119.479 20.4701C120.038 20.9187 120.814 21.294 121.446 20.9548C121.277 20.3588 121.107 19.7567 120.806 19.2149C120.506 18.673 120.06 18.1894 119.483 17.9636C119.167 17.8401 118.821 17.7968 118.519 17.6414C117.867 17.3066 117.574 16.5488 117.099 15.9907C116.486 15.2712 115.509 14.8796 114.569 14.9768C113.787 15.0574 113.045 15.4507 112.26 15.4175C111.679 15.3929 111.123 15.1347 110.542 15.1444C109.41 15.1636 108.56 16.1547 107.932 17.0964"
        fill="#132529" fill-rule="evenodd" />
    <path clip-rule="evenodd"
        d="M111.947 17.6168C111.43 17.5785 110.366 17.4694 110.016 17.1006C109.257 16.2991 108.124 15.879 107.111 16.1477C106.099 16.4161 105.284 17.4289 105.298 18.5537C104.061 18.8203 103.013 19.8497 102.661 21.1443C102.31 22.4389 102.668 23.9466 103.564 24.9388C103.799 25.1985 104.157 25.797 104.157 25.797C104.157 25.797 103.692 26.3771 103.514 26.7716C102.689 28.5989 104.929 29.2989 104.929 29.2989C104.935 30.5274 106.067 30.5216 106.794 30.518C107.493 30.5144 107.922 32.4512 108.487 32.3757L107.913 26.3934C107.983 26.4216 108.069 26.4396 108.178 26.4414C109.548 26.466 109.19 23.8758 108.747 23.2054C109.133 22.6874 109.523 22.1618 109.773 21.5532C110.023 20.9442 110.039 19.4232 109.826 18.7838C110.303 18.7134 112.174 17.6337 111.947 17.6168Z"
        fill="#132529" fill-rule="evenodd" />
    <path clip-rule="evenodd"
        d="M108.118 26.7108C107.905 25.8909 106.888 25.5253 106.256 26.0895C105.909 26.3991 105.702 26.9196 105.921 27.7915C106.504 30.1166 108.718 29.0518 108.706 28.9839C108.698 28.942 108.368 27.6709 108.118 26.7108Z"
        fill="#F1AD92" fill-rule="evenodd" />
    <path clip-rule="evenodd"
        d="M107.774 28.2812C107.762 28.2761 107.741 28.3195 107.681 28.3682C107.622 28.4156 107.512 28.4654 107.379 28.4502C107.111 28.4217 106.806 28.0836 106.69 27.6675C106.631 27.4573 106.625 27.2445 106.658 27.0589C106.686 26.871 106.766 26.7247 106.884 26.6716C107 26.6124 107.107 26.6644 107.151 26.7226C107.199 26.78 107.196 26.8299 107.209 26.8309C107.217 26.8353 107.249 26.7796 107.206 26.6883C107.185 26.6446 107.144 26.5962 107.078 26.5654C107.011 26.534 106.923 26.5315 106.839 26.5626C106.663 26.6196 106.543 26.8252 106.507 27.0289C106.461 27.2362 106.463 27.4764 106.529 27.7123C106.661 28.1772 107.011 28.5553 107.372 28.5683C107.546 28.5698 107.67 28.4864 107.727 28.4138C107.785 28.3383 107.783 28.2834 107.774 28.2812Z"
        fill="#EA8E6C" fill-rule="evenodd" />
    <path clip-rule="evenodd"
        d="M120.591 23.4626C120.576 23.4449 120.801 23.3001 121.097 22.9374C121.388 22.5773 121.741 21.9647 121.823 21.131C121.863 20.7189 121.843 20.2547 121.694 19.7913C121.545 19.3311 121.279 18.8677 120.868 18.5083C120.067 17.7794 118.739 17.442 117.548 17.8617C117.439 17.8968 117.339 17.9513 117.236 17.9939C117.137 18.0456 117.044 18.1034 116.952 18.155L116.808 18.2356L116.806 18.0767C116.803 17.7964 116.697 17.5255 116.514 17.3174C116.333 17.1083 116.097 16.9493 115.847 16.8406C115.34 16.6174 114.795 16.6138 114.297 16.7272C113.299 16.9537 112.454 17.4095 111.655 17.5013C110.864 17.602 110.207 17.4059 109.853 17.139C109.671 17.0115 109.568 16.8695 109.5 16.7778C109.442 16.6777 109.414 16.6246 109.42 16.6217C109.439 16.6062 109.536 16.8435 109.893 17.0815C110.243 17.3185 110.876 17.4875 111.638 17.3741C112.017 17.3181 112.42 17.1827 112.851 17.0237C113.282 16.8662 113.743 16.6773 114.261 16.5617C114.52 16.5065 114.792 16.466 115.077 16.4801C115.36 16.4949 115.646 16.5592 115.919 16.6737C116.19 16.79 116.449 16.9612 116.655 17.1968C116.863 17.4297 116.991 17.7498 116.994 18.077L116.848 17.9983C116.947 17.9423 117.046 17.8805 117.152 17.8256C117.261 17.7797 117.369 17.7223 117.484 17.6851C118.751 17.2401 120.141 17.602 120.984 18.3797C121.416 18.7637 121.694 19.26 121.843 19.7454C121.993 20.2349 122.006 20.7189 121.956 21.1455C121.853 22.0088 121.468 22.6304 121.153 22.9844C120.994 23.1628 120.854 23.2874 120.751 23.3582C120.649 23.4319 120.594 23.4677 120.591 23.4626Z"
        fill="#334F55" fill-rule="evenodd" />
    <path clip-rule="evenodd"
        d="M120.118 15.297C120.104 15.323 119.871 15.1139 119.369 15.0398C119.122 15.0077 118.81 15.0091 118.48 15.1204C118.151 15.2226 117.804 15.4408 117.565 15.7861L117.477 15.9136L117.422 15.7691C117.13 14.99 116.276 14.2492 115.219 14.1329C114.424 14.0418 113.702 14.3994 113.101 14.7451C112.496 15.0994 111.943 15.4462 111.422 15.6138C110.907 15.7948 110.451 15.8146 110.151 15.7633C110.001 15.737 109.887 15.7016 109.814 15.6705C109.741 15.6387 109.704 15.6192 109.706 15.6134C109.712 15.5965 109.867 15.6611 110.16 15.6907C110.452 15.7178 110.884 15.6792 111.377 15.4885C111.875 15.3108 112.404 14.9636 113.013 14.5952C113.321 14.4157 113.652 14.2315 114.026 14.1014C114.396 13.9678 114.816 13.901 115.239 13.9458C116.374 14.0711 117.274 14.8697 117.574 15.711L117.431 15.694C117.704 15.3158 118.087 15.0919 118.441 14.9933C118.797 14.8863 119.128 14.8986 119.385 14.9463C119.644 14.9972 119.832 15.0893 119.951 15.1627C120.068 15.2403 120.122 15.2913 120.118 15.297Z"
        fill="#334F55" fill-rule="evenodd" />
    <path clip-rule="evenodd"
        d="M115.363 27.7718C115.199 27.6136 114.955 27.5619 114.728 27.5879C114.516 27.6118 114.255 27.8018 114.12 28.0322L114.111 28.0456L114.091 28.0752L114.1 28.0694C114.05 28.1511 114.021 28.2471 114.032 28.3418C114.054 28.5553 114.217 28.7344 114.409 28.8305C114.714 28.9829 115.118 28.9389 115.355 28.6932C115.592 28.4476 115.609 28.0091 115.363 27.7718Z"
        fill="#E0565F" fill-rule="evenodd" />
    <path clip-rule="evenodd"
        d="M115.544 28.8956C115.516 28.901 115.48 28.7883 115.384 28.637C115.29 28.4864 115.122 28.2975 114.881 28.1873C114.64 28.0782 114.387 28.0757 114.212 28.1039C114.034 28.1306 113.927 28.1783 113.912 28.1533C113.899 28.1346 113.988 28.041 114.18 27.9745C114.367 27.9077 114.668 27.8842 114.959 28.0161C115.25 28.149 115.43 28.391 115.503 28.5763C115.578 28.7649 115.566 28.8927 115.544 28.8956Z"
        fill="#132529" fill-rule="evenodd" />
    <path clip-rule="evenodd"
        d="M108.171 29.3421C108.189 29.3309 108.274 29.523 108.139 29.7968C108.071 29.9269 107.947 30.0706 107.754 30.145C107.561 30.2223 107.314 30.1934 107.117 30.0692C106.92 29.9453 106.787 29.7351 106.773 29.5274C106.757 29.3211 106.833 29.1467 106.921 29.0296C107.109 28.7891 107.32 28.7836 107.317 28.8042C107.329 28.8328 107.158 28.8862 107.031 29.1037C106.971 29.2099 106.925 29.3558 106.946 29.5086C106.964 29.6603 107.065 29.8127 107.217 29.9099C107.371 30.0052 107.552 30.0309 107.696 29.9814C107.843 29.9344 107.955 29.8297 108.024 29.7293C108.165 29.5205 108.14 29.3435 108.171 29.3421Z"
        fill="#E0565F" fill-rule="evenodd" />
    <path clip-rule="evenodd"
        d="M106.952 29.203C106.972 29.2124 106.941 29.3262 106.783 29.4032C106.707 29.4386 106.6 29.4609 106.483 29.4324C106.365 29.405 106.252 29.3172 106.188 29.1976C106.123 29.0781 106.111 28.9358 106.153 28.822C106.193 28.7082 106.27 28.6313 106.342 28.5865C106.492 28.4969 106.604 28.5334 106.601 28.5554C106.603 28.5832 106.512 28.602 106.422 28.6923C106.33 28.779 106.263 28.9473 106.353 29.108C106.438 29.272 106.616 29.3071 106.739 29.2778C106.864 29.2518 106.929 29.1861 106.952 29.203Z"
        fill="#E0565F" fill-rule="evenodd" />
    <path clip-rule="evenodd"
        d="M110.924 61.2825C110.924 61.2825 119.867 61.8009 125.153 61.8496C129.248 61.8876 131.073 60.7996 131.892 58.1689C132.579 55.9601 131.102 51.7246 131.102 51.7246C128.333 51.7383 126.625 52.1201 124.843 52.9552L125.318 54.892L110.898 56.1353L110.924 61.2825Z"
        fill="#F1AD92" fill-rule="evenodd" />
    <path clip-rule="evenodd"
        d="M128.324 56.9581C128.274 56.9917 127.854 56.2082 126.974 55.6184C126.103 55.0145 125.22 54.9097 125.233 54.8512C125.235 54.8292 125.457 54.8237 125.807 54.9014C126.155 54.9776 126.626 55.1546 127.08 55.4631C127.533 55.7726 127.869 56.1461 128.067 56.4423C128.268 56.7392 128.343 56.948 128.324 56.9581Z"
        fill="#EA8E6C" fill-rule="evenodd" />
    <path clip-rule="evenodd"
        d="M107.649 52.9421C107.649 52.9421 104.883 53.6053 102.852 54.9638L105.012 60.8381C105.733 62.7659 107.944 63.7134 109.695 62.7132C112.415 61.1593 113.374 56.6218 113.374 56.6218L116.363 43.6623L111.411 40.5596L107.649 52.9421Z"
        fill="#F1AD92" fill-rule="evenodd" />
    <path clip-rule="evenodd"
        d="M111.412 40.5598L111.611 36.2976L110.506 31.9808C110.444 31.7417 110.414 31.4433 110.607 31.2978C110.81 31.1457 111.113 31.1533 111.275 31.3191C111.578 31.6286 113.022 35.4199 113.022 35.4199C113.022 35.4199 115.213 34.1029 115.604 34.0386C115.996 33.9747 116.483 35.1536 116.514 35.2468C116.545 35.34 116.518 36.0393 116.518 36.0393C116.518 36.0393 117.873 36.0794 117.994 36.2654C118.116 36.4515 118.151 37.4155 118.151 37.4155C118.151 37.4155 118.724 37.599 118.816 38.0339C118.909 38.4688 119.093 39.1833 118.823 39.34C118.553 39.4968 117.982 39.8103 117.982 39.8103C117.982 39.8103 117.752 42.022 117.693 42.2232C117.634 42.4244 116.363 43.6626 116.363 43.6626L111.412 40.5598Z"
        fill="#F1AD92" fill-rule="evenodd" />
    <path clip-rule="evenodd"
        d="M106.806 62.8026C106.811 62.7907 106.94 62.8795 107.22 62.9705C107.498 63.0634 107.937 63.1475 108.497 63.0713C109.052 62.9966 109.735 62.7531 110.346 62.2189C110.948 61.6738 111.558 60.9514 112.065 60.043C112.317 59.5889 112.543 59.0897 112.734 58.5508C112.929 58.0126 113.056 57.4289 113.197 56.8192C113.481 55.6019 113.786 54.2914 114.111 52.899C114.763 50.1123 115.492 46.9972 116.277 43.6423L116.282 43.617L116.301 43.599C116.55 43.3548 116.8 43.1037 117.047 42.8458C117.171 42.7165 117.294 42.5854 117.411 42.4507C117.469 42.3839 117.53 42.3141 117.575 42.247C117.618 42.2033 117.619 42.1162 117.636 42.0237C117.734 41.3006 117.81 40.5536 117.89 39.8012L117.896 39.7532L117.937 39.7297C118.164 39.6029 118.393 39.4743 118.626 39.3436C118.679 39.3125 118.756 39.2749 118.788 39.2489C118.817 39.2258 118.843 39.185 118.853 39.1279C118.88 39.0178 118.871 38.8834 118.857 38.7537C118.825 38.4994 118.765 38.2036 118.697 37.9685C118.607 37.7492 118.359 37.5914 118.122 37.5043L118.06 37.4815L118.057 37.4187C118.048 37.2092 118.034 36.9939 118.01 36.7797C117.998 36.6728 117.985 36.5652 117.962 36.4626C117.951 36.4142 117.937 36.3586 117.921 36.3289L117.899 36.3076L117.838 36.2823C117.436 36.1718 116.963 36.1552 116.515 36.1332L116.421 36.1285L116.424 36.0356C116.43 35.8128 116.44 35.5639 116.43 35.3298C116.436 35.2681 116.38 35.1742 116.346 35.0878C116.307 35.0008 116.265 34.9148 116.222 34.8299C116.134 34.662 116.039 34.4972 115.927 34.3531C115.87 34.2827 115.809 34.2141 115.743 34.1729C115.669 34.1288 115.638 34.1187 115.551 34.1509C115.383 34.2101 115.21 34.3008 115.042 34.3842C114.367 34.7353 113.712 35.1182 113.07 35.4996L112.976 35.5556L112.935 35.4544C112.594 34.5991 112.257 33.7542 111.924 32.922C111.758 32.5059 111.593 32.0927 111.43 31.6827C111.37 31.4754 111.225 31.3584 111.033 31.311C110.841 31.2619 110.652 31.3211 110.562 31.4833C110.517 31.5599 110.498 31.652 110.507 31.7405C110.518 31.8211 110.558 31.9428 110.581 32.0418C110.636 32.2498 110.69 32.4575 110.745 32.6638C110.853 33.0766 110.961 33.4859 111.067 33.8911C111.28 34.7021 111.489 35.4974 111.693 36.2758L111.697 36.2885L111.696 36.3015C111.624 37.7846 111.555 39.2081 111.49 40.5634L111.489 40.5735L111.486 40.5825C110.121 45.0243 108.989 48.7083 108.195 51.2905C107.797 52.5699 107.484 53.5762 107.267 54.2709C107.159 54.6075 107.076 54.8679 107.017 55.0525C106.96 55.2288 106.924 55.3184 106.924 55.3184C106.924 55.3184 106.944 55.2241 106.994 55.0456C107.048 54.8593 107.124 54.5963 107.222 54.2571C107.428 53.5593 107.728 52.5493 108.109 51.2642C108.887 48.6775 109.998 44.9867 111.337 40.537L111.333 40.5561C111.395 39.2005 111.46 37.777 111.526 36.2935L111.529 36.3192C111.323 35.5411 111.112 34.7461 110.897 33.9359C110.79 33.531 110.682 33.1218 110.572 32.7093C110.518 32.5027 110.463 32.2957 110.408 32.0873C110.382 31.9767 110.349 31.8933 110.329 31.76C110.315 31.6336 110.342 31.5028 110.407 31.3923C110.472 31.2814 110.572 31.1915 110.7 31.146C110.826 31.1041 110.952 31.108 111.073 31.1344C111.192 31.1629 111.309 31.2164 111.404 31.3027C111.5 31.3822 111.566 31.5191 111.598 31.6144C111.762 32.0241 111.928 32.4373 112.095 32.8534C112.428 33.6856 112.766 34.5298 113.108 35.3851L112.974 35.3399C113.62 34.956 114.273 34.5727 114.956 34.2173C115.13 34.131 115.297 34.0418 115.492 33.9724C115.545 33.9572 115.597 33.9381 115.674 33.9471C115.739 33.9562 115.8 33.9829 115.845 34.0154C115.942 34.0779 116.01 34.157 116.074 34.2365C116.199 34.3968 116.298 34.5688 116.389 34.744C116.434 34.8317 116.477 34.9206 116.517 35.0109C116.551 35.1041 116.611 35.1807 116.618 35.3172C116.629 35.5733 116.619 35.8139 116.612 36.0425L116.521 35.945C116.985 35.9706 117.435 35.9782 117.9 36.105L117.993 36.1454L118.086 36.2401C118.122 36.3094 118.131 36.364 118.146 36.4228C118.17 36.5374 118.184 36.6486 118.197 36.7591C118.221 36.9802 118.235 37.1966 118.244 37.4118L118.179 37.3262C118.459 37.4321 118.735 37.5942 118.869 37.8969C118.957 38.1946 119.003 38.4453 119.043 38.7328C119.056 38.874 119.069 39.017 119.034 39.1716C119.019 39.2468 118.979 39.3345 118.903 39.3952C118.828 39.4498 118.78 39.4667 118.718 39.5043C118.485 39.6354 118.253 39.7644 118.026 39.8915L118.074 39.82C117.992 40.5749 117.916 41.3183 117.816 42.0505L117.793 42.1906C117.789 42.2336 117.755 42.3134 117.726 42.3477C117.669 42.4315 117.608 42.4987 117.548 42.5699C117.426 42.7082 117.302 42.8401 117.177 42.9705C116.927 43.2302 116.676 43.4812 116.426 43.7265L116.45 43.6831C115.656 47.0359 114.918 50.1487 114.258 52.9333C113.927 54.3247 113.616 55.6337 113.326 56.8495C113.182 57.4553 113.05 58.0476 112.849 58.5913C112.653 59.136 112.42 59.6395 112.161 60.0971C111.641 61.0128 111.019 61.7377 110.403 62.2835C109.77 62.825 109.071 63.0627 108.505 63.1298C107.933 63.1985 107.488 63.1027 107.211 62.9991C107.071 62.9474 106.969 62.8994 106.904 62.86C106.837 62.8239 106.804 62.8048 106.806 62.8026Z"
        fill="#EA8E6C" fill-rule="evenodd" />
    <path clip-rule="evenodd"
        d="M116.517 36.0321C116.516 36.0584 116.395 36.0721 116.204 36.0812C116.014 36.092 115.753 36.0974 115.484 36.1664C115.218 36.2354 115.001 36.3694 114.872 36.4937C114.74 36.6168 114.682 36.7216 114.655 36.7104C114.634 36.7035 114.649 36.5717 114.772 36.4052C114.893 36.2387 115.134 36.062 115.437 35.9844C115.739 35.9074 116.017 35.9251 116.209 35.9483C116.403 35.9732 116.519 36.0068 116.517 36.0321Z"
        fill="#EA8E6C" fill-rule="evenodd" />
    <path clip-rule="evenodd"
        d="M115.458 36.0714C115.409 36.0534 115.406 35.9418 115.451 35.8222C115.495 35.7026 115.571 35.6206 115.62 35.6391C115.668 35.6571 115.672 35.7687 115.627 35.8883C115.582 36.0079 115.507 36.0898 115.458 36.0714Z"
        fill="#EA8E6C" fill-rule="evenodd" />
    <path clip-rule="evenodd"
        d="M118.21 37.3833C118.209 37.4378 117.726 37.4938 117.138 37.5314C116.847 37.5574 116.628 37.6622 116.541 37.8186C116.446 37.9663 116.478 38.0887 116.45 38.0967C116.433 38.1129 116.335 37.9746 116.423 37.759C116.463 37.6567 116.552 37.544 116.681 37.4722C116.808 37.3985 116.962 37.3631 117.115 37.3447C117.722 37.3053 118.211 37.3338 118.21 37.3833Z"
        fill="#EA8E6C" fill-rule="evenodd" />
    <path clip-rule="evenodd"
        d="M117.969 38.6826C118.021 38.6852 118.051 38.9521 118.036 39.279C118.022 39.6062 117.967 39.8692 117.916 39.867C117.864 39.8649 117.834 39.5979 117.848 39.2707C117.863 38.9438 117.917 38.6801 117.969 38.6826Z"
        fill="#EA8E6C" fill-rule="evenodd" />
    <path clip-rule="evenodd"
        d="M100.662 42.0381C100.67 42.0457 100.527 42.1772 100.34 42.4676C100.155 42.7573 99.9503 43.2218 99.851 43.8315C99.7448 44.4398 99.7397 45.1791 99.786 45.9955C99.8257 46.8129 99.8918 47.7105 99.9915 48.6496C100.19 50.529 100.495 52.2148 100.754 53.4252C100.882 54.0309 100.998 54.5185 101.078 54.8552C101.114 55.0051 101.144 55.1326 101.171 55.2431C101.192 55.3323 101.199 55.3797 101.199 55.3797C101.199 55.3797 101.182 55.3349 101.156 55.2471C101.126 55.1377 101.091 55.0109 101.049 54.8624C100.961 54.5276 100.837 54.0414 100.702 53.4367C100.429 52.2274 100.115 50.5402 99.9167 48.6576C99.8167 47.717 99.7524 46.8176 99.7166 45.9987C99.6747 45.181 99.6845 44.4354 99.7983 43.8221C99.9059 43.2073 100.121 42.7392 100.316 42.4513C100.512 42.1631 100.662 42.0381 100.662 42.0381Z"
        fill="#FFFFFE" fill-rule="evenodd" />
    <path clip-rule="evenodd"
        d="M108.263 37.1276C108.264 37.1301 108.236 37.1453 108.182 37.172C108.108 37.207 108.03 37.2442 107.943 37.2858C107.737 37.384 107.438 37.5292 107.08 37.7275C106.358 38.1158 105.396 38.7151 104.366 39.4238C103.334 40.1328 102.42 40.8028 101.753 41.28C101.446 41.4975 101.181 41.6842 100.959 41.8417C100.88 41.8955 100.808 41.9446 100.741 41.9905C100.691 42.0237 100.663 42.0403 100.662 42.0382C100.66 42.0364 100.684 42.0154 100.732 41.9782C100.797 41.9287 100.866 41.876 100.942 41.8182C101.161 41.6553 101.42 41.4621 101.721 41.237C102.381 40.749 103.29 40.0721 104.323 39.3616C105.355 38.6519 106.324 38.0577 107.055 37.6806C107.417 37.488 107.72 37.3493 107.931 37.259C108.02 37.2222 108.101 37.1893 108.176 37.1579C108.232 37.1359 108.262 37.125 108.263 37.1276Z"
        fill="#FFFFFE" fill-rule="evenodd" />
    <path clip-rule="evenodd"
        d="M125.489 39.4775C125.487 39.4789 125.467 39.463 125.429 39.4316C125.377 39.3868 125.323 39.3406 125.266 39.2907C125.124 39.1701 124.913 39.0017 124.634 38.819C124.082 38.4444 123.258 38.0222 122.312 37.6436C121.365 37.2654 120.48 36.9967 119.836 36.8201C119.514 36.7308 119.252 36.6647 119.07 36.6199C118.997 36.6015 118.928 36.5838 118.861 36.5668C118.814 36.5538 118.789 36.5459 118.79 36.5434C118.79 36.5408 118.816 36.5437 118.864 36.552C118.932 36.5647 119.002 36.5777 119.076 36.5914C119.26 36.6275 119.525 36.6857 119.849 36.7688C120.499 36.9327 121.389 37.1943 122.34 37.5739C123.289 37.9539 124.116 38.3866 124.664 38.7749C125.217 39.1574 125.489 39.4775 125.489 39.4775Z"
        fill="#FFFFFE" fill-rule="evenodd" />
    <path clip-rule="evenodd"
        d="M108.365 67.0493C108.363 67.0537 108.313 67.0381 108.224 67.0009C108.136 66.9637 108.011 66.9023 107.866 66.8091C107.582 66.6296 107.196 66.2771 107.08 65.7454C106.961 65.2242 107.073 64.7322 107.22 64.4237C107.293 64.267 107.37 64.1499 107.429 64.0744C107.489 63.9986 107.526 63.9614 107.53 63.9643C107.542 63.9729 107.399 64.1333 107.269 64.445C107.138 64.7513 107.039 65.2274 107.154 65.7284C107.263 66.2337 107.624 66.5769 107.896 66.7651C108.173 66.958 108.372 67.0363 108.365 67.0493Z"
        fill="#FFFFFE" fill-rule="evenodd" />
    <path clip-rule="evenodd"
        d="M107.216 63.1381C107.236 63.1323 107.313 63.3356 107.387 63.5917C107.462 63.8482 107.507 64.0606 107.487 64.0664C107.467 64.0721 107.39 63.8691 107.315 63.6127C107.24 63.3566 107.196 63.1442 107.216 63.1381Z"
        fill="#FFFFFE" fill-rule="evenodd" />
    <path clip-rule="evenodd"
        d="M112.099 144.123L123.118 144.068L122.917 105.976L122.815 67.2289L107.893 67.0432L105.21 72.1012C104.128 74.1417 103.392 76.3591 103.146 78.6557C102.958 80.4061 104.27 86.115 104.728 87.5674L108.835 100.593L112.099 144.123Z"
        fill="#132529" fill-rule="evenodd" />
    <path clip-rule="evenodd"
        d="M126.048 67.281L138.154 100.285C139.576 104.708 139.101 109.093 136.662 113.179L122.605 140.615L114.702 130.728L126.463 106.15L116.095 89.3523L117.84 67.3157L122.723 67.2373L126.048 67.281Z"
        fill="#132529" fill-rule="evenodd" />
    <path clip-rule="evenodd"
        d="M121.809 78.3374C121.809 78.3374 121.818 78.3945 121.826 78.5064C121.833 78.6267 121.844 78.7918 121.857 79.0038C121.881 79.4503 121.915 80.0932 121.959 80.9171C122.04 82.5881 122.156 84.9901 122.299 87.9556C122.436 90.9306 122.599 94.4682 122.78 98.396C122.868 100.361 122.961 102.423 123.057 104.561C123.126 105.63 123.094 106.72 123.107 107.825C123.11 108.93 123.114 110.051 123.118 111.186C123.133 120.264 123.146 128.481 123.156 134.438C123.153 137.406 123.149 139.812 123.147 141.484C123.141 142.309 123.137 142.953 123.135 143.4C123.131 143.612 123.128 143.777 123.127 143.898C123.124 144.01 123.118 144.067 123.118 144.067C123.118 144.067 123.111 144.01 123.107 143.898C123.105 143.777 123.101 143.612 123.097 143.4C123.091 142.953 123.083 142.309 123.073 141.484C123.062 139.812 123.045 137.407 123.023 134.439C122.999 128.482 122.966 120.266 122.929 111.19C122.926 110.055 122.923 108.934 122.92 107.829C122.908 106.724 122.941 105.634 122.873 104.566C122.781 102.428 122.691 100.366 122.607 98.4007C122.441 94.4729 122.292 90.9349 122.167 87.9603C122.048 84.9945 121.952 82.5913 121.886 80.9204C121.857 80.0958 121.835 79.4521 121.819 79.0056C121.814 78.7929 121.81 78.6275 121.806 78.5072C121.805 78.3952 121.809 78.3374 121.809 78.3374Z"
        fill="#334F55" fill-rule="evenodd" />
    <path clip-rule="evenodd"
        d="M121.533 67.9319C121.546 67.9305 121.572 68.0583 121.609 68.2906C121.647 68.5232 121.692 68.8606 121.739 69.2781C121.836 70.1136 121.937 71.272 121.996 72.5546C122.053 73.8376 122.056 75.0004 122.036 75.8409C122.025 76.2614 122.011 76.6016 121.995 76.8364C121.979 77.0712 121.964 77.2009 121.951 77.2005C121.923 77.1998 121.916 76.68 121.903 75.8405C121.889 75.0011 121.865 73.8423 121.808 72.5629C121.75 71.2843 121.67 70.1277 121.607 69.2908C121.545 68.4535 121.506 67.9351 121.533 67.9319Z"
        fill="#334F55" fill-rule="evenodd" />
    <path clip-rule="evenodd"
        d="M119.105 68.6758C119.124 68.6992 118.917 68.7932 118.86 69.0875C118.834 69.2281 118.864 69.4072 119 69.5275C119.131 69.6489 119.359 69.7099 119.542 69.6265C119.725 69.5419 119.828 69.3299 119.821 69.1515C119.82 68.9691 119.704 68.8296 119.58 68.7581C119.32 68.6086 119.114 68.7043 119.108 68.674C119.103 68.6642 119.143 68.6263 119.236 68.5992C119.328 68.5725 119.478 68.5656 119.641 68.64C119.8 68.7076 119.981 68.8892 119.994 69.1424C120.013 69.3834 119.89 69.6687 119.621 69.7977C119.347 69.9172 119.051 69.8237 118.88 69.6528C118.698 69.4769 118.678 69.2216 118.731 69.0568C118.781 68.8849 118.884 68.7755 118.965 68.7234C119.046 68.6707 119.101 68.6657 119.105 68.6758Z"
        fill="#334F55" fill-rule="evenodd" />
    <path clip-rule="evenodd"
        d="M113.324 68.0213C113.335 68.0188 113.379 68.1394 113.423 68.367C113.469 68.5942 113.496 68.9333 113.455 69.3487C113.416 69.7637 113.29 70.2539 113.038 70.748C112.788 71.2418 112.4 71.7334 111.88 72.1127C111.354 72.4847 110.763 72.6957 110.216 72.7744C109.667 72.855 109.162 72.817 108.756 72.722C108.35 72.6278 108.037 72.493 107.836 72.3778C107.635 72.2629 107.535 72.182 107.541 72.1734C107.558 72.1365 107.985 72.4421 108.783 72.5916C109.561 72.747 110.762 72.6765 111.77 71.9599C112.77 71.2342 113.222 70.1195 113.323 69.3321C113.437 68.5284 113.284 68.0263 113.324 68.0213Z"
        fill="#334F55" fill-rule="evenodd" />
    <path clip-rule="evenodd"
        d="M127.497 71.1836C127.498 71.2016 127.224 71.2222 126.803 71.1012C126.385 70.9838 125.833 70.6884 125.382 70.1921C124.931 69.6939 124.69 69.1167 124.614 68.6891C124.534 68.2585 124.581 67.9883 124.599 67.9905C124.632 67.9901 124.634 68.2556 124.743 68.6587C124.849 69.0608 125.095 69.5935 125.521 70.0656C125.949 70.5348 126.456 70.831 126.846 70.9755C127.236 71.1225 127.501 71.1503 127.497 71.1836Z"
        fill="#334F55" fill-rule="evenodd" />
    <path clip-rule="evenodd"
        d="M131.8 106.765C131.813 106.782 131.592 107.003 131.162 107.273C130.946 107.405 130.673 107.548 130.34 107.632C130.01 107.718 129.611 107.729 129.231 107.602C128.462 107.349 127.982 106.771 127.688 106.375C127.394 105.965 127.246 105.693 127.264 105.68C127.288 105.663 127.476 105.91 127.792 106.292C128.108 106.663 128.584 107.193 129.288 107.423C129.995 107.66 130.672 107.382 131.096 107.157C131.53 106.924 131.782 106.74 131.8 106.765Z"
        fill="#334F55" fill-rule="evenodd" />
    <path clip-rule="evenodd"
        d="M129.042 108.873C129 108.903 128.49 108.258 127.902 107.432C127.315 106.606 126.873 105.912 126.915 105.882C126.957 105.852 127.468 106.497 128.056 107.323C128.643 108.149 129.085 108.843 129.042 108.873Z"
        fill="#334F55" fill-rule="evenodd" />
    <path clip-rule="evenodd"
        d="M110.531 79.6187C110.483 79.6382 110.354 79.4301 110.244 79.1541C110.133 78.8785 110.083 78.6391 110.131 78.6199C110.18 78.6004 110.308 78.8085 110.418 79.0844C110.529 79.3604 110.579 79.5999 110.531 79.6187Z"
        fill="#FAF9F6" fill-rule="evenodd" />
    <path clip-rule="evenodd"
        d="M117.525 80.618C117.473 80.618 117.431 80.4388 117.431 80.2185C117.431 79.9974 117.473 79.8186 117.525 79.8186C117.577 79.8186 117.619 79.9974 117.619 80.2185C117.619 80.4388 117.577 80.618 117.525 80.618Z"
        fill="#FAF9F6" fill-rule="evenodd" />
    <path clip-rule="evenodd"
        d="M114.651 84.4154C114.599 84.4187 114.542 84.198 114.523 83.922C114.505 83.6464 114.531 83.4199 114.583 83.4163C114.635 83.4127 114.692 83.6338 114.711 83.9094C114.73 84.1853 114.703 84.4118 114.651 84.4154Z"
        fill="#FAF9F6" fill-rule="evenodd" />
    <path clip-rule="evenodd"
        d="M109.398 87.2121C109.356 87.2439 109.207 87.111 109.013 86.9719C108.822 86.8307 108.649 86.7299 108.666 86.6789C108.68 86.6305 108.905 86.6598 109.124 86.8198C109.344 86.9784 109.44 87.1836 109.398 87.2121Z"
        fill="#FAF9F6" fill-rule="evenodd" />
    <path clip-rule="evenodd"
        d="M118.657 90.7423C118.614 90.7134 118.669 90.5562 118.779 90.3908C118.889 90.225 119.014 90.1141 119.057 90.143C119.1 90.1715 119.046 90.3294 118.936 90.4948C118.825 90.6606 118.7 90.7711 118.657 90.7423Z"
        fill="#FAF9F6" fill-rule="evenodd" />
    <path clip-rule="evenodd"
        d="M112.929 91.7417C112.877 91.7417 112.835 91.4433 112.835 91.0752C112.835 90.7075 112.877 90.4092 112.929 90.4092C112.981 90.4092 113.023 90.7075 113.023 91.0752C113.023 91.4433 112.981 91.7417 112.929 91.7417Z"
        fill="#FAF9F6" fill-rule="evenodd" />
    <path clip-rule="evenodd"
        d="M111.072 95.7935C111.042 95.8354 110.853 95.7505 110.65 95.6031C110.448 95.4561 110.309 95.303 110.339 95.2607C110.37 95.2188 110.558 95.3037 110.761 95.4507C110.963 95.5981 111.103 95.7512 111.072 95.7935Z"
        fill="#FAF9F6" fill-rule="evenodd" />
    <path clip-rule="evenodd"
        d="M116.859 97.2035C116.88 97.2508 116.763 97.349 116.597 97.4224C116.432 97.4964 116.281 97.5173 116.26 97.4697C116.238 97.4224 116.355 97.3241 116.521 97.2508C116.687 97.1771 116.838 97.1558 116.859 97.2035Z"
        fill="#FAF9F6" fill-rule="evenodd" />
    <path clip-rule="evenodd"
        d="M112.929 103.798C112.883 103.821 112.696 103.542 112.512 103.174C112.328 102.806 112.216 102.489 112.263 102.466C112.309 102.443 112.496 102.722 112.68 103.09C112.864 103.457 112.975 103.774 112.929 103.798Z"
        fill="#FAF9F6" fill-rule="evenodd" />
    <path clip-rule="evenodd"
        d="M119.323 103.199C119.278 103.174 119.36 102.93 119.507 102.655C119.654 102.379 119.811 102.175 119.857 102.199C119.903 102.223 119.82 102.467 119.673 102.743C119.526 103.019 119.369 103.223 119.323 103.199Z"
        fill="#FAF9F6" fill-rule="evenodd" />
    <path clip-rule="evenodd"
        d="M116.526 108.793C116.472 108.785 116.477 108.5 116.421 108.162C116.369 107.822 116.278 107.552 116.326 107.528C116.369 107.503 116.549 107.759 116.607 108.132C116.667 108.504 116.575 108.803 116.526 108.793Z"
        fill="#FAF9F6" fill-rule="evenodd" />
    <path clip-rule="evenodd"
        d="M113.529 111.99C113.49 112.026 113.31 111.89 113.126 111.688C112.942 111.486 112.824 111.293 112.862 111.258C112.901 111.223 113.081 111.359 113.265 111.561C113.449 111.764 113.567 111.956 113.529 111.99Z"
        fill="#FAF9F6" fill-rule="evenodd" />
    <path clip-rule="evenodd"
        d="M120.804 113.204C120.766 113.167 120.899 112.973 121.1 112.769C121.301 112.565 121.494 112.429 121.53 112.466C121.568 112.502 121.435 112.697 121.234 112.901C121.033 113.105 120.84 113.24 120.804 113.204Z"
        fill="#FAF9F6" fill-rule="evenodd" />
    <path clip-rule="evenodd"
        d="M116.619 117.99C116.568 117.982 116.567 117.707 116.618 117.375C116.667 117.043 116.75 116.78 116.802 116.788C116.853 116.796 116.854 117.071 116.803 117.403C116.753 117.735 116.67 117.997 116.619 117.99Z"
        fill="#FAF9F6" fill-rule="evenodd" />
    <path clip-rule="evenodd"
        d="M113.804 120.312C113.759 120.338 113.601 120.152 113.451 119.896C113.301 119.64 113.216 119.411 113.261 119.385C113.306 119.359 113.464 119.545 113.613 119.801C113.763 120.057 113.849 120.286 113.804 120.312Z"
        fill="#FAF9F6" fill-rule="evenodd" />
    <path clip-rule="evenodd"
        d="M120.586 123.244C120.617 123.286 120.432 123.47 120.175 123.654C119.918 123.838 119.685 123.953 119.654 123.911C119.624 123.868 119.808 123.685 120.066 123.501C120.323 123.317 120.556 123.202 120.586 123.244Z"
        fill="#FAF9F6" fill-rule="evenodd" />
    <path clip-rule="evenodd"
        d="M114.937 127.048C114.887 127.029 114.951 126.738 114.981 126.379C115.014 126.02 115.002 125.722 115.055 125.713C115.104 125.702 115.204 126.008 115.168 126.395C115.135 126.784 114.983 127.067 114.937 127.048Z"
        fill="#FAF9F6" fill-rule="evenodd" />
    <path clip-rule="evenodd"
        d="M117.192 132.506C117.151 132.539 116.999 132.416 116.852 132.232C116.705 132.048 116.619 131.872 116.659 131.84C116.7 131.808 116.852 131.93 116.999 132.114C117.146 132.298 117.232 132.474 117.192 132.506Z"
        fill="#FAF9F6" fill-rule="evenodd" />
    <path clip-rule="evenodd"
        d="M114.727 136.17C114.684 136.199 114.486 135.984 114.283 135.69C114.081 135.395 113.952 135.134 113.995 135.104C114.037 135.075 114.236 135.289 114.439 135.584C114.641 135.878 114.77 136.14 114.727 136.17Z"
        fill="#FAF9F6" fill-rule="evenodd" />
    <path clip-rule="evenodd"
        d="M121.522 131.574C121.473 131.556 121.478 131.421 121.533 131.274C121.589 131.127 121.673 131.023 121.722 131.041C121.77 131.059 121.765 131.194 121.709 131.341C121.654 131.488 121.57 131.592 121.522 131.574Z"
        fill="#FAF9F6" fill-rule="evenodd" />
    <path clip-rule="evenodd"
        d="M118.524 140.3C118.476 140.275 118.567 140.017 118.637 139.696C118.71 139.374 118.737 139.103 118.79 139.101C118.84 139.096 118.899 139.387 118.82 139.737C118.744 140.087 118.567 140.325 118.524 140.3Z"
        fill="#FAF9F6" fill-rule="evenodd" />
    <path clip-rule="evenodd"
        d="M120.472 84.4736C120.425 84.4956 120.31 84.3504 120.216 84.1488C120.122 83.9476 120.084 83.7667 120.131 83.7446C120.178 83.7226 120.292 83.8678 120.386 84.0694C120.481 84.2706 120.519 84.4515 120.472 84.4736Z"
        fill="#FAF9F6" fill-rule="evenodd" />
    <path clip-rule="evenodd"
        d="M115.46 73.2245C115.489 73.27 115.235 73.4734 114.966 73.7623C114.695 74.0488 114.509 74.3157 114.461 74.2901C114.416 74.2684 114.539 73.9415 114.829 73.6337C115.117 73.3242 115.436 73.1808 115.46 73.2245Z"
        fill="#FAF9F6" fill-rule="evenodd" />
    <path clip-rule="evenodd"
        d="M119.923 73.0912C119.871 73.1017 119.785 72.8871 119.66 72.6397C119.538 72.3908 119.417 72.194 119.457 72.1586C119.494 72.1239 119.693 72.2814 119.828 72.5555C119.966 72.829 119.973 73.0825 119.923 73.0912Z"
        fill="#FAF9F6" fill-rule="evenodd" />
    <path clip-rule="evenodd"
        d="M106.019 76.7614C105.97 76.7422 106.02 76.5027 106.129 76.2264C106.238 75.9501 106.366 75.7417 106.414 75.7605C106.463 75.7796 106.413 76.0191 106.304 76.2954C106.194 76.5717 106.067 76.7801 106.019 76.7614Z"
        fill="#FAF9F6" fill-rule="evenodd" />
    <path clip-rule="evenodd"
        d="M106.468 82.2167C106.434 82.2564 106.229 82.1397 106.008 81.9555C105.787 81.7717 105.635 81.5903 105.669 81.5502C105.702 81.5105 105.907 81.6272 106.128 81.8114C106.349 81.9949 106.501 82.1766 106.468 82.2167Z"
        fill="#FAF9F6" fill-rule="evenodd" />
    <path clip-rule="evenodd"
        d="M115.593 68.8947C115.545 68.9142 115.446 68.7806 115.373 68.5967C115.299 68.4125 115.279 68.2478 115.327 68.2286C115.375 68.2095 115.474 68.3428 115.547 68.5266C115.621 68.7108 115.642 68.8756 115.593 68.8947Z"
        fill="#FAF9F6" fill-rule="evenodd" />
    <path clip-rule="evenodd"
        d="M124.331 71.5614C124.28 71.5502 124.284 71.3328 124.341 71.0756C124.397 70.8184 124.484 70.6186 124.535 70.6298C124.585 70.641 124.581 70.8585 124.524 71.116C124.468 71.3732 124.381 71.5726 124.331 71.5614Z"
        fill="#FAF9F6" fill-rule="evenodd" />
    <path clip-rule="evenodd"
        d="M126.384 75.689C126.336 75.6691 126.402 75.3996 126.53 75.0868C126.659 74.774 126.802 74.5367 126.85 74.5566C126.898 74.5761 126.833 74.8459 126.704 75.1584C126.575 75.4712 126.432 75.7085 126.384 75.689Z"
        fill="#FAF9F6" fill-rule="evenodd" />
    <path clip-rule="evenodd"
        d="M124.919 79.0192C124.872 79.0427 124.7 78.7927 124.535 78.4619C124.369 78.1307 124.273 77.8435 124.319 77.8204C124.366 77.7969 124.537 78.0465 124.703 78.3777C124.869 78.7089 124.965 78.9961 124.919 79.0192Z"
        fill="#FAF9F6" fill-rule="evenodd" />
    <path clip-rule="evenodd"
        d="M128.049 82.3495C128.001 82.3308 128.036 82.122 128.128 81.8829C128.22 81.6437 128.334 81.4653 128.382 81.4837C128.431 81.5022 128.395 81.7113 128.303 81.9504C128.211 82.1895 128.097 82.3683 128.049 82.3495Z"
        fill="#FAF9F6" fill-rule="evenodd" />
    <path clip-rule="evenodd"
        d="M125.252 85.6135C125.207 85.6409 125.097 85.5441 125.006 85.3967C124.913 85.2497 124.874 85.1081 124.919 85.0803C124.963 85.0529 125.073 85.15 125.165 85.2974C125.257 85.4444 125.296 85.586 125.252 85.6135Z"
        fill="#FAF9F6" fill-rule="evenodd" />
    <path clip-rule="evenodd"
        d="M125.849 92.3432C125.811 92.379 125.586 92.1987 125.347 91.9412C125.108 91.6837 124.945 91.4463 124.983 91.4109C125.021 91.3755 125.246 91.5554 125.485 91.813C125.724 92.0705 125.887 92.3078 125.849 92.3432Z"
        fill="#FAF9F6" fill-rule="evenodd" />
    <path clip-rule="evenodd"
        d="M129.515 88.4778C129.474 88.51 129.277 88.3272 129.074 88.0696C128.872 87.8121 128.741 87.5773 128.782 87.5452C128.823 87.513 129.02 87.6958 129.222 87.9533C129.425 88.2109 129.555 88.4457 129.515 88.4778Z"
        fill="#FAF9F6" fill-rule="evenodd" />
    <path clip-rule="evenodd"
        d="M131.526 93.8125C131.479 93.7905 131.561 93.5192 131.709 93.2072C131.857 92.8944 132.015 92.6596 132.062 92.6816C132.109 92.704 132.027 92.9753 131.879 93.2874C131.731 93.5994 131.573 93.8349 131.526 93.8125Z"
        fill="#FAF9F6" fill-rule="evenodd" />
    <path clip-rule="evenodd"
        d="M127.25 98.2027C127.204 98.2305 127.036 98.0297 126.804 97.8173C126.573 97.6024 126.36 97.4514 126.384 97.4033C126.405 97.3578 126.678 97.4438 126.931 97.6789C127.186 97.913 127.294 98.1785 127.25 98.2027Z"
        fill="#FAF9F6" fill-rule="evenodd" />
    <path clip-rule="evenodd"
        d="M127.516 102.732C127.516 102.784 127.338 102.826 127.117 102.826C126.896 102.826 126.717 102.784 126.717 102.732C126.717 102.68 126.896 102.638 127.117 102.638C127.338 102.638 127.516 102.68 127.516 102.732Z"
        fill="#FAF9F6" fill-rule="evenodd" />
    <path clip-rule="evenodd"
        d="M131.913 101.467C131.867 101.438 131.96 101.213 132.029 100.929C132.102 100.646 132.125 100.404 132.179 100.401C132.229 100.395 132.291 100.659 132.212 100.975C132.133 101.291 131.954 101.495 131.913 101.467Z"
        fill="#FAF9F6" fill-rule="evenodd" />
    <path clip-rule="evenodd"
        d="M136.28 102.985C136.231 103.003 136.098 102.749 135.982 102.42C135.867 102.091 135.813 101.81 135.862 101.793C135.911 101.775 136.044 102.028 136.16 102.358C136.275 102.687 136.329 102.968 136.28 102.985Z"
        fill="#FAF9F6" fill-rule="evenodd" />
    <path clip-rule="evenodd"
        d="M135.584 109.197C135.538 109.173 135.65 108.87 135.833 108.521C136.016 108.171 136.202 107.907 136.248 107.931C136.294 107.955 136.183 108.258 136 108.608C135.816 108.958 135.631 109.221 135.584 109.197Z"
        fill="#FAF9F6" fill-rule="evenodd" />
    <path clip-rule="evenodd"
        d="M131.598 112.848C131.55 112.868 131.402 112.618 131.267 112.29C131.132 111.961 131.062 111.679 131.11 111.659C131.158 111.64 131.306 111.889 131.441 112.218C131.576 112.547 131.646 112.829 131.598 112.848Z"
        fill="#FAF9F6" fill-rule="evenodd" />
    <path clip-rule="evenodd"
        d="M127.183 114.255C127.183 114.307 127.034 114.349 126.85 114.349C126.666 114.349 126.517 114.307 126.517 114.255C126.517 114.203 126.666 114.161 126.85 114.161C127.034 114.161 127.183 114.203 127.183 114.255Z"
        fill="#FAF9F6" fill-rule="evenodd" />
    <path clip-rule="evenodd"
        d="M129.715 120.05C129.664 120.064 129.564 119.851 129.491 119.575C129.417 119.299 129.398 119.064 129.448 119.051C129.498 119.038 129.598 119.251 129.672 119.526C129.746 119.802 129.764 120.037 129.715 120.05Z"
        fill="#FAF9F6" fill-rule="evenodd" />
    <path clip-rule="evenodd"
        d="M126.517 118.119C126.473 118.092 126.526 117.921 126.636 117.737C126.747 117.553 126.872 117.426 126.917 117.453C126.961 117.479 126.908 117.65 126.797 117.834C126.687 118.018 126.562 118.146 126.517 118.119Z"
        fill="#FAF9F6" fill-rule="evenodd" />
    <path clip-rule="evenodd"
        d="M126.45 124.513C126.399 124.519 126.328 124.271 126.29 123.958C126.254 123.645 126.266 123.387 126.317 123.381C126.369 123.375 126.441 123.624 126.478 123.936C126.514 124.249 126.502 124.507 126.45 124.513Z"
        fill="#FAF9F6" fill-rule="evenodd" />
</svg>
