<svg fill="none" height="52" viewBox="0 0 50 52" width="50" xmlns="http://www.w3.org/2000/svg">
    <path clip-rule="evenodd"
        d="M25.5087 51.4026L25.8696 50.2989C25.922 50.1416 25.9482 49.9625 25.9482 49.7658V36.1394C25.9482 35.0837 25.0892 34.2247 24.0336 34.2247H18.8785V25.7201C18.8785 24.314 19.0961 22.9211 19.5226 21.5814C19.9359 20.2592 20.5643 18.993 21.3909 17.822C23.0644 15.4555 23.9488 12.6704 23.9488 9.76651V7.19293H31.8015V9.76651C31.8015 11.1909 32.0208 12.6145 32.4552 13.997C32.8895 15.362 33.5327 16.651 34.3646 17.8246C34.6504 18.2371 34.9178 18.6653 35.1633 19.1048L35.8633 20.3571H31.2221C30.1673 20.3571 29.3083 21.2161 29.3083 22.2709V26.4061L31.4423 44.8013L31.4589 44.8476V49.7658C31.4589 49.9607 31.4852 50.1407 31.5376 50.3015L31.8959 51.4026H25.5087Z"
        fill="#A9CEE9" fill-rule="evenodd" />
    <path clip-rule="evenodd"
        d="M33.3745 51.4026C32.4726 51.4026 31.7377 50.6677 31.7377 49.7659V45.0845H46.6015V49.7659C46.6015 50.6668 45.8675 51.4009 44.9656 51.4026H33.3745Z"
        fill="#A9CEE9" fill-rule="evenodd" />
    <path clip-rule="evenodd"
        d="M23.9496 5.51246V2.89518C23.9496 1.99334 24.6836 1.25928 25.5855 1.25928H30.1611C30.5998 1.25928 31.0123 1.42968 31.3225 1.73991C31.6319 2.04752 31.8023 2.45824 31.8023 2.89518V5.51246H23.9496Z"
        fill="#418ABF" fill-rule="evenodd" />
    <path clip-rule="evenodd"
        d="M26.1763 50.735L26.7382 50.9185L27.0991 49.8157V49.8165C27.1743 49.5876 27.2066 49.3464 27.2066 49.0982V35.4709C27.2066 35.1266 27.1367 34.7963 27.0091 34.4965C26.8186 34.0456 26.5014 33.6646 26.102 33.3946C25.7027 33.1245 25.2177 32.9655 24.7012 32.9655H20.1378V25.0525C20.1378 23.7076 20.3458 22.3758 20.7539 21.0929L20.7548 21.0894C21.1489 19.8284 21.7501 18.6181 22.5419 17.4952L22.541 17.496C24.2852 15.0308 25.2081 12.1225 25.2081 9.0989V7.11693H31.8784V9.0989C31.8784 10.5845 32.1074 12.0675 32.5592 13.5059V13.5085C33.0127 14.9321 33.683 16.2761 34.5499 17.4995L35.0322 17.157L34.5464 17.4934C34.8208 17.8901 35.0786 18.3026 35.3154 18.7256L35.5234 19.0979H31.8898C31.5463 19.0979 31.2151 19.1678 30.9154 19.2953C30.4645 19.4859 30.0835 19.8031 29.8134 20.2024C29.5434 20.6018 29.3843 21.0868 29.3843 21.6033V25.7385C29.3843 25.7629 29.3852 25.7822 29.3887 25.8066L31.5227 44.2019C31.528 44.2508 31.5385 44.2945 31.5559 44.3408L31.5734 44.3862L32.1275 44.1791H31.5358V49.0982C31.5358 49.3455 31.5682 49.5876 31.6442 49.8183L31.6433 49.8157L31.7499 50.1434H26.1763V50.735L26.7382 50.9185L26.1763 50.735V51.3257H32.5635C32.7532 51.3257 32.9306 51.2357 33.0415 51.0819C33.1534 50.929 33.1849 50.7324 33.1263 50.5515L32.768 49.4504L32.7671 49.4486C32.7374 49.3586 32.7182 49.2407 32.7182 49.0982V44.1791C32.7182 44.1092 32.7051 44.0384 32.6806 43.9729L32.664 43.9266L32.11 44.1337L32.6972 44.0655L30.5667 25.7044V21.6033C30.5667 21.4198 30.6043 21.2476 30.6707 21.0894C30.7712 20.8526 30.9399 20.649 31.1522 20.5065C31.3637 20.3632 31.6154 20.2802 31.8898 20.2802H36.5318C36.7407 20.2802 36.9356 20.1684 37.0413 19.9883C37.147 19.8074 37.1497 19.5829 37.0474 19.4002L36.3474 18.1488C36.0923 17.6926 35.8144 17.2478 35.519 16.8205L35.5146 16.8153C34.7176 15.6906 34.1024 14.4567 33.6865 13.1493L33.6873 13.152C33.2705 11.8254 33.0608 10.463 33.0608 9.0989V6.52531C33.0608 6.36976 32.997 6.21771 32.8869 6.1076C32.7776 5.99749 32.6247 5.93457 32.4692 5.93457H24.6164C24.4609 5.93457 24.3088 5.99749 24.1987 6.1076C24.0886 6.21771 24.0248 6.36976 24.0248 6.52531V9.0989C24.0248 11.8822 23.1798 14.5441 21.5762 16.8127L21.5753 16.8135C20.7154 18.0335 20.0583 19.3548 19.6266 20.7373L19.6275 20.7338C19.1818 22.132 18.9554 23.5852 18.9554 25.0525V33.5571C18.9554 33.7126 19.0184 33.8647 19.1285 33.9748C19.2386 34.0849 19.3906 34.1478 19.5471 34.1478H24.7012C24.8847 34.1478 25.0569 34.1845 25.2151 34.2518C25.4519 34.3523 25.6555 34.521 25.7988 34.7325C25.9413 34.9448 26.0243 35.1965 26.0243 35.4709V49.0982C26.0243 49.2424 26.005 49.3595 25.9762 49.446V49.4469L25.6144 50.5506C25.5559 50.7306 25.5865 50.9281 25.6974 51.0819C25.8093 51.2349 25.9867 51.3257 26.1763 51.3257V50.735Z"
        fill="#14443A" fill-rule="evenodd" />
    <path clip-rule="evenodd"
        d="M34.0421 50.735V50.1434C33.897 50.1434 33.7616 50.1145 33.6366 50.0612C33.4496 49.9826 33.2879 49.8489 33.1752 49.6811C33.0625 49.5133 32.9969 49.3158 32.9969 49.0982V45.0076H46.6776V49.0982C46.6776 49.2424 46.6487 49.3778 46.5963 49.5028C46.5168 49.6898 46.3831 49.8506 46.2161 49.9642C46.0484 50.0778 45.85 50.1425 45.6324 50.1434H45.6333H34.0421V51.3257H45.6341C45.94 51.3257 46.2345 51.2628 46.501 51.1492C46.9004 50.9788 47.2395 50.6974 47.4789 50.3426C47.7192 49.9878 47.8608 49.557 47.8599 49.0982V44.4159C47.8599 44.2604 47.797 44.1083 47.6869 43.9982C47.5768 43.8881 47.4247 43.8252 47.2692 43.8252H32.4053C32.2498 43.8252 32.0977 43.8881 31.9876 43.9982C31.8775 44.1083 31.8146 44.2604 31.8146 44.4159V49.0982C31.8146 49.4041 31.8766 49.6986 31.9902 49.9651C32.1598 50.3653 32.442 50.7044 32.7968 50.9447C33.1516 51.1842 33.5824 51.3257 34.0421 51.3257V50.735Z"
        fill="#14443A" fill-rule="evenodd" />
    <path clip-rule="evenodd"
        d="M24.6173 4.8448H25.208V2.22753C25.208 2.08246 25.2377 1.94701 25.2901 1.82205C25.3697 1.63504 25.5034 1.47424 25.6703 1.36064C25.8381 1.24791 26.0364 1.18236 26.254 1.18236H30.8288C31.1146 1.18324 31.3697 1.28898 31.5725 1.48997V1.49084C31.7726 1.69096 31.8783 1.94526 31.8792 2.22665V4.25318H24.6173V4.8448H25.208H24.6173V5.43555H32.4708C32.6264 5.43555 32.7784 5.37263 32.8885 5.26252C32.9987 5.15241 33.0616 5.00035 33.0616 4.8448V2.22665C33.0624 1.63591 32.8265 1.06876 32.407 0.652792L32.4079 0.653666C31.9902 0.234203 31.4213 -0.000871454 30.8288 2.42778e-06H26.254C25.9473 2.42778e-06 25.6537 0.0629219 25.3863 0.175653C24.986 0.345186 24.6478 0.627449 24.4075 0.982245C24.1672 1.33704 24.0256 1.76874 24.0256 2.22753V4.8448C24.0256 5.00035 24.0886 5.15241 24.1987 5.26252C24.3088 5.37263 24.4617 5.43555 24.6173 5.43555V4.8448Z"
        fill="#14443A" fill-rule="evenodd" />
    <path clip-rule="evenodd"
        d="M1.63776 51.4017C0.746398 51.4017 0.012337 50.672 0.000976562 49.7754V42.3553H25.6704V49.7658C25.6704 50.6676 24.9354 51.4017 24.0336 51.4017H1.63776Z"
        fill="#418ABF" fill-rule="evenodd" />
    <path clip-rule="evenodd"
        d="M0 40.6757V34.7368C0.0113605 33.8297 0.745421 33.1 1.63678 33.1H24.0335C24.9353 33.1 25.6703 33.8341 25.6703 34.7368V40.6757H0Z"
        fill="#418ABF" fill-rule="evenodd" />
    <path clip-rule="evenodd"
        d="M2.30528 50.7341V50.1425C2.16284 50.1425 2.03001 50.1137 1.90592 50.0612C1.72066 49.9834 1.55899 49.8497 1.44451 49.682C1.33003 49.5142 1.26274 49.3158 1.26012 49.1L0.668503 49.1078H1.26012V42.2784H25.7463V49.0982C25.7463 49.2433 25.7174 49.3787 25.665 49.5037C25.5855 49.6898 25.4518 49.8515 25.284 49.9642C25.1162 50.077 24.9187 50.1425 24.7011 50.1425H2.30528V51.3249H24.7011C25.007 51.3249 25.3015 51.2628 25.568 51.1492C25.9683 50.9797 26.3073 50.6983 26.5476 50.3435C26.788 49.9887 26.9295 49.557 26.9286 49.0982V41.6877C26.9286 41.5321 26.8657 41.3792 26.7556 41.2691C26.6455 41.159 26.4935 41.0961 26.3379 41.0961H0.668503C0.512952 41.0961 0.360896 41.159 0.250787 41.2691C0.140678 41.3792 0.0777588 41.5321 0.0777588 41.6877V49.1148C0.0812543 49.4189 0.146795 49.7108 0.261274 49.9756C0.433429 50.3715 0.714819 50.707 1.06787 50.9456C1.42092 51.1842 1.84912 51.3257 2.30528 51.3249V50.7341Z"
        fill="#14443A" fill-rule="evenodd" />
    <path clip-rule="evenodd"
        d="M0.667648 40.0081H1.25927V34.0683H0.667648L1.25927 34.0761C1.26276 33.7817 1.38248 33.5204 1.57386 33.329C1.66999 33.2337 1.78272 33.1568 1.90594 33.1044C2.02916 33.052 2.16199 33.0231 2.30443 33.0231H24.7011C24.8462 33.0231 24.9817 33.0528 25.1066 33.1053C25.2936 33.1839 25.4553 33.3185 25.568 33.4854C25.6816 33.6532 25.7463 33.8516 25.7463 34.0683V39.4164H0.667648V40.0081H1.25927H0.667648V40.5988H26.3379C26.4935 40.5988 26.6455 40.5359 26.7556 40.4258C26.8657 40.3157 26.9287 40.1636 26.9287 40.0081V34.0683C26.9295 33.7624 26.8666 33.4688 26.753 33.2014C26.5835 32.8012 26.3021 32.463 25.9464 32.2226C25.5916 31.9823 25.1608 31.8408 24.7011 31.8408H2.30443C2.00119 31.8408 1.70844 31.9037 1.44278 32.0164C1.04517 32.1859 0.707847 32.4665 0.466656 32.8195C0.226338 33.1726 0.0821476 33.6025 0.0769043 34.0613V40.0081C0.0769043 40.1636 0.139824 40.3157 0.249933 40.4258C0.360042 40.5359 0.512097 40.5988 0.667648 40.5988V40.0081Z"
        fill="#14443A" fill-rule="evenodd" />
    <path clip-rule="evenodd"
        d="M31.7202 43.404L29.5862 24.986V20.8683C29.5862 19.9665 30.3202 19.2333 31.2221 19.2333H33.599V23.3632C33.599 23.441 33.662 23.5031 33.7389 23.5031C33.8131 23.5031 33.8778 23.4384 33.8778 23.3632V19.2333H37.3567V23.3632C37.3567 23.4384 37.4214 23.5031 37.4957 23.5031C37.5735 23.5031 37.6355 23.441 37.6355 23.3632V19.2333H41.1205V23.3632C41.1205 23.4384 41.1861 23.5031 41.2595 23.5031C41.3346 23.5031 41.3993 23.4384 41.3993 23.3632V19.2333H44.8844V23.3632C44.8844 23.441 44.9473 23.5031 45.0242 23.5031C45.0985 23.5031 45.1631 23.4384 45.1631 23.3632V19.2333H47.1049C48.0111 19.2333 48.7294 19.9446 48.7408 20.8526L48.7356 24.9808L46.612 43.404H31.7202Z"
        fill="#418ABF" fill-rule="evenodd" />
    <path clip-rule="evenodd"
        d="M32.3879 42.7363L32.9751 42.6682L30.8446 24.2852V20.2007C30.8446 20.0556 30.8743 19.9201 30.9267 19.7952C31.0054 19.609 31.14 19.4474 31.3069 19.3346C31.4747 19.2219 31.673 19.1564 31.8898 19.1564H33.676V22.6956C33.676 22.7943 33.6961 22.8922 33.7336 22.9796C33.7896 23.1124 33.8813 23.2234 33.9984 23.3021C34.1147 23.3807 34.2588 23.427 34.4074 23.4262C34.5123 23.427 34.6119 23.4034 34.6975 23.365C34.8277 23.3073 34.9317 23.219 35.0086 23.1072C35.0855 22.9953 35.1371 22.8538 35.1371 22.6956V19.1564H37.4328V22.6956C37.4328 22.8005 37.4564 22.8992 37.494 22.9857C37.5516 23.1159 37.6399 23.2208 37.7518 23.2986C37.8645 23.3755 38.0061 23.4262 38.1642 23.4262C38.263 23.427 38.36 23.4061 38.4482 23.3693C38.5802 23.3134 38.6912 23.2208 38.7698 23.1046C38.8485 22.9883 38.8948 22.8441 38.8948 22.6956V19.1564H41.1975V22.6956C41.1975 22.8005 41.2202 22.8992 41.2586 22.9857C41.3154 23.115 41.4037 23.2199 41.5156 23.2977C41.6274 23.3746 41.769 23.4262 41.928 23.4262C42.032 23.427 42.1316 23.4034 42.2182 23.3659C42.3475 23.3082 42.4524 23.2199 42.5301 23.1081C42.607 22.9962 42.6586 22.8538 42.6586 22.6956V19.1564H44.9613V22.6956C44.9613 22.7943 44.9814 22.8922 45.019 22.9796C45.0749 23.1116 45.1666 23.2225 45.2837 23.3021C45.4 23.3807 45.5433 23.427 45.6918 23.4262C45.7976 23.427 45.8972 23.4034 45.9828 23.365C46.1131 23.3073 46.217 23.219 46.2939 23.1072C46.3709 22.9953 46.4224 22.8538 46.4224 22.6956V19.1564H47.7726C47.9211 19.1564 48.0583 19.1852 48.1824 19.2368C48.3677 19.3137 48.5241 19.4421 48.636 19.6064C48.7478 19.7707 48.8142 19.9682 48.8177 20.1928L49.4085 20.1849L48.8177 20.1841L48.8125 24.2782L46.7527 42.1447H32.3879V42.7363L32.9751 42.6682L32.3879 42.7363V43.3271H47.2797C47.5794 43.3271 47.8329 43.1016 47.8669 42.8036L49.9905 24.3804C49.9931 24.356 49.9948 24.3385 49.9948 24.314L50.0001 20.1858V20.1779C49.9966 19.8738 49.9328 19.5811 49.8192 19.3163C49.6497 18.9187 49.3683 18.5822 49.0135 18.3463C48.6587 18.1095 48.2287 17.9731 47.7726 17.974H45.8308C45.6752 17.974 45.5232 18.0369 45.4131 18.147C45.303 18.2571 45.24 18.4092 45.24 18.5647V22.6956H45.698L45.2785 22.5121C45.2549 22.5654 45.24 22.6283 45.24 22.6956H45.698L45.2785 22.5121L45.6857 22.6903L45.4332 22.3242C45.3659 22.3714 45.3135 22.4325 45.2785 22.5121L45.6857 22.6903L45.4332 22.3242L45.6918 22.7V22.2438C45.5887 22.2447 45.5005 22.2779 45.4332 22.3242L45.6918 22.7V22.2438V22.6956L45.8675 22.2796C45.8133 22.2569 45.7521 22.2438 45.6918 22.2438V22.6956L45.8675 22.2796L45.6918 22.6956L46.0667 22.443C46.0178 22.3714 45.9496 22.3146 45.8675 22.2796L45.6918 22.6956L46.0667 22.443L45.6918 22.6956H46.1436C46.1445 22.6047 46.1157 22.5147 46.0667 22.443L45.6918 22.6956H46.1436V18.5647C46.1436 18.4092 46.0807 18.2571 45.9706 18.147C45.8605 18.0369 45.7084 17.974 45.5529 17.974H42.0679C41.9114 17.974 41.7594 18.0369 41.6493 18.147C41.5392 18.2571 41.4762 18.4092 41.4762 18.5647V22.6956H41.9342L41.5147 22.5121C41.4911 22.5654 41.4762 22.6283 41.4762 22.6956H41.9342L41.5147 22.5121L41.9219 22.6903L41.6702 22.3233C41.603 22.3705 41.5505 22.4317 41.5147 22.5121L41.9219 22.6903L41.6702 22.3233L41.928 22.6991V22.2438C41.8258 22.2447 41.7375 22.277 41.6702 22.3233L41.928 22.6991V22.2438V22.7035L42.1133 22.2831C42.0591 22.2595 41.9962 22.2438 41.928 22.2438V22.7035L42.1133 22.2831L41.9333 22.6903L42.3012 22.4387C42.254 22.3714 42.1937 22.3189 42.1133 22.2831L41.9333 22.6903L42.3012 22.4387L41.9254 22.6956H42.3798C42.3798 22.5942 42.3475 22.506 42.3012 22.4387L41.9254 22.6956H42.3798V18.5647C42.3798 18.4092 42.3169 18.2571 42.2068 18.147C42.0967 18.0369 41.9446 17.974 41.7891 17.974H38.3032C38.1476 17.974 37.9956 18.0369 37.8855 18.147C37.7753 18.2571 37.7124 18.4092 37.7124 18.5647V22.6956H38.1634L37.7483 22.5208C37.7247 22.575 37.7124 22.6353 37.7124 22.6956H38.1634L37.7483 22.5208L38.1642 22.6956L37.9117 22.3216C37.8391 22.3705 37.7823 22.4387 37.7483 22.5208L38.1642 22.6956L37.9117 22.3216L38.1642 22.6956V22.2438C38.0733 22.2438 37.9833 22.2726 37.9117 22.3216L38.1642 22.6956V22.2438V22.7026L38.3477 22.2822C38.2944 22.2586 38.2315 22.2438 38.1642 22.2438V22.7026L38.3477 22.2822L38.1695 22.6903L38.5365 22.4378C38.4893 22.3705 38.4281 22.3181 38.3477 22.2822L38.1695 22.6903L38.5365 22.4378L38.1607 22.6956H38.6151C38.6151 22.5942 38.5828 22.5051 38.5365 22.4378L38.1607 22.6956H38.6151V18.5647C38.6151 18.4092 38.5522 18.2571 38.4421 18.147C38.332 18.0369 38.18 17.974 38.0244 17.974H34.5455C34.3899 17.974 34.2379 18.0369 34.1278 18.147C34.0177 18.2571 33.9547 18.4092 33.9547 18.5647V22.6956H34.4127L33.9932 22.5121C33.9696 22.5654 33.9547 22.6283 33.9547 22.6956H34.4127L33.9932 22.5121L34.4004 22.6903L34.1479 22.3242C34.0806 22.3714 34.0281 22.4317 33.9932 22.5121L34.4004 22.6903L34.1479 22.3242L34.4074 22.7V22.2438C34.3034 22.2447 34.2143 22.2779 34.1479 22.3242L34.4074 22.7V22.2438V22.6956L34.5822 22.2796C34.528 22.2569 34.4668 22.2438 34.4074 22.2438V22.6956L34.5822 22.2796L34.4065 22.6956L34.7814 22.443C34.7325 22.3714 34.6643 22.3146 34.5822 22.2796L34.4065 22.6956L34.7814 22.443L34.4065 22.6956H34.8583C34.8583 22.6047 34.8304 22.5147 34.7814 22.443L34.4065 22.6956H34.8583V18.5647C34.8583 18.4092 34.7954 18.2571 34.6853 18.147C34.5752 18.0369 34.4231 17.974 34.2676 17.974H31.8898C31.5848 17.974 31.2903 18.036 31.0237 18.1497C30.6226 18.3192 30.2844 18.6006 30.0441 18.9554C29.8038 19.3102 29.6622 19.7419 29.6622 20.2007V24.3184C29.6622 24.3437 29.6631 24.3621 29.6666 24.3865L31.8006 42.8036C31.8347 43.1016 32.0881 43.3271 32.3879 43.3271V42.7363Z"
        fill="#14443A" fill-rule="evenodd" />
</svg>
