<svg fill="none" height="186" viewBox="0 0 186 186" width="186" xmlns="http://www.w3.org/2000/svg">
    <path
        d="M186 93.3328C186 135.429 120.381 185.11 77.2677 185.11C34.154 185.11 0 131.929 0 89.8328C0 47.7367 72.7878 0 115.901 0C159.015 0 186 51.2367 186 93.3328Z"
        fill="#FBFCFD" />
    <path clip-rule="evenodd"
        d="M122.682 117.293H113.75V68.6816C113.75 57.2399 104.442 47.9313 93 47.9313C81.5583 47.9313 72.2496 57.2399 72.2496 68.6816V117.293H63.3184V68.6816C63.3184 52.3162 76.6338 39 93 39C109.365 39 122.682 52.3162 122.682 68.6816V117.293Z"
        fill="#FBFCFD" fill-rule="evenodd" />
    <path clip-rule="evenodd"
        d="M122.682 87H113.75V68.6816C113.75 57.2399 104.442 47.9313 93 47.9313C81.5583 47.9313 72.2496 57.2399 72.2496 68.6816V95.6692H63.3184V68.6816C63.3184 52.3162 76.6338 39 93 39C109.365 39 122.682 52.3162 122.682 68.6816V87Z"
        fill="#165D91" fill-rule="evenodd" />
    <path clip-rule="evenodd"
        d="M128.847 146.994H57.1519C54.8587 146.994 53 145.136 53 142.843V99.8218C53 97.5286 54.8587 95.6692 57.1519 95.6692H128.847C131.141 95.6692 133 97.5286 133 99.8218V142.843C133 145.136 131.141 146.994 128.847 146.994Z"
        fill="#418ABF" fill-rule="evenodd" />
    <path clip-rule="evenodd"
        d="M94.8243 131.046H91.1755V121.048C88.3756 120.251 86.3125 117.702 86.3125 114.645C86.3125 110.952 89.3067 107.958 92.9999 107.958C96.6923 107.958 99.6859 110.952 99.6859 114.645C99.6859 117.702 97.6242 120.251 94.8243 121.048V131.046Z"
        fill="#165D91" fill-rule="evenodd" />
    <path clip-rule="evenodd"
        d="M57.2656 142.127C57.0827 142.127 56.9341 133.568 56.9341 123.012C56.9341 112.452 57.0827 103.894 57.2656 103.894C57.4493 103.894 57.5979 112.452 57.5979 123.012C57.5979 133.568 57.4493 142.127 57.2656 142.127Z"
        fill="#FBFCFD" fill-rule="evenodd" />
    <path clip-rule="evenodd"
        d="M87.7634 123.217C87.7412 123.25 87.4496 123.113 86.9794 122.772C86.5071 122.434 85.8796 121.856 85.2551 121.016C84.008 119.379 82.8675 116.409 83.6086 113.201C84.3846 110 86.7372 107.856 88.5852 106.954C89.5206 106.482 90.3396 106.248 90.9134 106.157C91.4872 106.064 91.8088 106.072 91.8138 106.111C91.8417 106.236 90.5447 106.358 88.811 107.366C87.1031 108.33 84.9706 110.398 84.2553 113.354C83.5693 116.316 84.5483 119.121 85.6417 120.749C86.74 122.427 87.8441 123.117 87.7634 123.217Z"
        fill="#FBFCFD" fill-rule="evenodd" />
    <path clip-rule="evenodd"
        d="M140.547 126.091C140.547 131.111 136.478 135.181 131.457 135.181C126.437 135.181 122.367 131.111 122.367 126.091C122.367 121.07 126.437 117 131.457 117C136.478 117 140.547 121.07 140.547 126.091Z"
        fill="#132529" fill-rule="evenodd" />
    <path clip-rule="evenodd"
        d="M138.181 126.091C138.181 131.111 134.111 135.181 129.09 135.181C124.07 135.181 120 131.111 120 126.091C120 121.07 124.07 117 129.09 117C134.111 117 138.181 121.07 138.181 126.091Z"
        fill="#334F55" fill-rule="evenodd" />
    <path
        d="M127.752 129.5C127.672 129.5 127.593 129.483 127.519 129.451C127.446 129.419 127.38 129.372 127.326 129.313L124.491 126.297C124.385 126.185 124.328 126.034 124.333 125.879C124.338 125.725 124.404 125.578 124.517 125.472C124.63 125.366 124.78 125.309 124.935 125.314C125.09 125.319 125.237 125.385 125.343 125.498L127.746 128.059L132.652 122.692C132.702 122.63 132.763 122.579 132.834 122.542C132.904 122.505 132.981 122.482 133.06 122.476C133.14 122.47 133.219 122.48 133.295 122.506C133.37 122.531 133.439 122.572 133.498 122.625C133.557 122.679 133.604 122.743 133.637 122.816C133.67 122.888 133.688 122.967 133.69 123.046C133.691 123.126 133.677 123.205 133.647 123.278C133.617 123.352 133.572 123.418 133.515 123.474L128.183 129.307C128.13 129.367 128.064 129.415 127.991 129.448C127.917 129.481 127.838 129.499 127.758 129.5H127.752Z"
        fill="#FBFCFD" />
</svg>
