<svg fill="none" height="11" viewBox="0 0 11 11" width="11" xmlns="http://www.w3.org/2000/svg">
    <path
        d="M10.4438 1.2567L9.70227 0.511991C9.02247 -0.170664 7.97192 -0.170664 7.29212 0.511991L6.05616 1.81523L9.20788 4.98025L10.5056 3.67701C10.8146 3.36672 11 2.9323 11 2.49789C11 2.06347 10.7528 1.567 10.4438 1.2567Z"
        fill="#6C6C6C" />
    <path
        d="M7.84834 4.9183L5.37641 2.43591L0.494382 7.33858C0.185392 7.64889 -1.90735e-06 8.08333 -1.90735e-06 8.57976V10.5036C-1.90735e-06 10.7519 0.185392 11.0001 0.494382 11.0001H2.47191C2.90449 11.0001 3.33708 10.8139 3.70786 10.5036L8.5899 5.60096L7.84834 4.9183Z"
        fill="#6C6C6C" />
</svg>
