<svg fill="none" height="186" viewBox="0 0 186 186" width="186" xmlns="http://www.w3.org/2000/svg">
    <path
        d="M186 93.3328C186 135.429 120.381 185.11 77.2677 185.11C34.154 185.11 0 131.929 0 89.8328C0 47.7367 72.7878 0 115.901 0C159.015 0 186 51.2367 186 93.3328Z"
        fill="#FBFCFD" />
    <path clip-rule="evenodd"
        d="M122.682 117.293H113.75V68.6816C113.75 57.2399 104.442 47.9313 93 47.9313C81.5583 47.9313 72.2496 57.2399 72.2496 68.6816V117.293H63.3184V68.6816C63.3184 52.3162 76.6338 39 93 39C109.365 39 122.682 52.3162 122.682 68.6816V117.293Z"
        fill="#E0565F" fill-rule="evenodd" />
    <path clip-rule="evenodd"
        d="M122.682 95.6692H113.75V68.6816C113.75 57.2399 104.442 47.9313 93 47.9313C81.5583 47.9313 72.2496 57.2399 72.2496 68.6816V95.6692H63.3184V68.6816C63.3184 52.3162 76.6338 39 93 39C109.365 39 122.682 52.3162 122.682 68.6816V95.6692Z"
        fill="#165D91" fill-rule="evenodd" />
    <path clip-rule="evenodd"
        d="M128.847 146.994H57.1519C54.8587 146.994 53 145.136 53 142.843V99.8218C53 97.5286 54.8587 95.6692 57.1519 95.6692H128.847C131.141 95.6692 133 97.5286 133 99.8218V142.843C133 145.136 131.141 146.994 128.847 146.994Z"
        fill="#418ABF" fill-rule="evenodd" />
    <path clip-rule="evenodd"
        d="M94.8243 131.046H91.1755V121.048C88.3756 120.251 86.3125 117.702 86.3125 114.645C86.3125 110.952 89.3067 107.958 92.9999 107.958C96.6923 107.958 99.6859 110.952 99.6859 114.645C99.6859 117.702 97.6242 120.251 94.8243 121.048V131.046Z"
        fill="#165D91" fill-rule="evenodd" />
    <path clip-rule="evenodd"
        d="M57.2656 142.127C57.0827 142.127 56.9341 133.568 56.9341 123.012C56.9341 112.452 57.0827 103.894 57.2656 103.894C57.4493 103.894 57.5979 112.452 57.5979 123.012C57.5979 133.568 57.4493 142.127 57.2656 142.127Z"
        fill="#FBFCFD" fill-rule="evenodd" />
    <path clip-rule="evenodd"
        d="M87.7632 123.217C87.7411 123.25 87.4495 123.113 86.9793 122.772C86.5069 122.434 85.8795 121.856 85.2549 121.016C84.0079 119.379 82.8674 116.409 83.6085 113.201C84.3845 110 86.737 107.856 88.585 106.954C89.5205 106.482 90.3394 106.248 90.9133 106.157C91.4871 106.064 91.8087 106.072 91.8137 106.111C91.8416 106.236 90.5445 106.358 88.8109 107.366C87.1029 108.33 84.9705 110.398 84.2552 113.354C83.5691 116.316 84.5482 119.121 85.6415 120.749C86.7399 122.427 87.844 123.117 87.7632 123.217Z"
        fill="#FBFCFD" fill-rule="evenodd" />
    <path clip-rule="evenodd"
        d="M140.547 126.091C140.547 131.111 136.478 135.181 131.457 135.181C126.437 135.181 122.367 131.111 122.367 126.091C122.367 121.07 126.437 117 131.457 117C136.478 117 140.547 121.07 140.547 126.091Z"
        fill="#132529" fill-rule="evenodd" />
    <path clip-rule="evenodd"
        d="M138.181 126.091C138.181 131.111 134.111 135.181 129.09 135.181C124.07 135.181 120 131.111 120 126.091C120 121.07 124.07 117 129.09 117C134.111 117 138.181 121.07 138.181 126.091Z"
        fill="#334F55" fill-rule="evenodd" />
    <path
        d="M128.086 127.343C128.086 126.885 128.16 126.475 128.31 126.111C128.459 125.747 128.767 125.429 129.234 125.159C129.374 125.075 129.546 124.981 129.752 124.879C129.957 124.767 130.158 124.636 130.354 124.487C130.55 124.337 130.713 124.165 130.844 123.969C130.984 123.763 131.054 123.53 131.054 123.269C131.054 123.073 131.016 122.9 130.942 122.751C130.867 122.601 130.769 122.475 130.648 122.373C130.526 122.27 130.382 122.195 130.214 122.149C130.055 122.093 129.892 122.065 129.724 122.065C129.518 122.065 129.332 122.102 129.164 122.177C128.996 122.242 128.842 122.331 128.702 122.443C128.571 122.545 128.45 122.667 128.338 122.807C128.235 122.937 128.146 123.063 128.072 123.185L126.854 122.345C126.975 122.055 127.134 121.799 127.33 121.575C127.535 121.351 127.764 121.164 128.016 121.015C128.277 120.856 128.557 120.739 128.856 120.665C129.154 120.581 129.462 120.539 129.78 120.539C130.134 120.539 130.484 120.59 130.83 120.693C131.175 120.795 131.483 120.959 131.754 121.183C132.034 121.407 132.258 121.696 132.426 122.051C132.603 122.396 132.692 122.811 132.692 123.297C132.692 123.595 132.654 123.861 132.58 124.095C132.514 124.319 132.416 124.524 132.286 124.711C132.155 124.897 132.001 125.065 131.824 125.215C131.646 125.364 131.446 125.509 131.222 125.649C131.035 125.761 130.848 125.868 130.662 125.971C130.475 126.073 130.302 126.19 130.144 126.321C129.994 126.442 129.868 126.587 129.766 126.755C129.672 126.913 129.626 127.109 129.626 127.343H128.086ZM128.114 130.605V128.673H129.668V130.605H128.114Z"
        fill="#FBFCFD" />
</svg>
