<?xml version="1.0" encoding="UTF-8"?>
<svg height="31px" version="1.1" viewBox="0 0 31 31" width="31px"
    xmlns="http://www.w3.org/2000/svg">
    <title>Group 16</title>
    <g fill="none" fill-rule="evenodd" id="Page-1" stroke="none" stroke-width="1">
        <g id="Home" transform="translate(-108.000000, -589.000000)">
            <g id="Group-3" transform="translate(30.000000, 433.000000)">
                <g id="Group-16" transform="translate(78.000000, 156.000000)">
                    <ellipse cx="15.330827" cy="15.3652396" fill="#418ABF" id="Oval" rx="15.330827"
                        ry="15.3652396"></ellipse>
                    <g fill="#FFFFFF" fill-rule="nonzero" id="Group"
                        transform="translate(11.923977, 11.950742)">
                        <path
                            d="M6.85833659,4.3458861 L0.623485145,4.3458861 C0.233806929,4.3458861 0,4.11307077 0,3.72504523 C0,3.33701968 0.233806929,3.10420436 0.623485145,3.10420436 L6.85833659,3.10420436 C7.24801481,3.10420436 7.48182174,3.33701968 7.48182174,3.72504523 C7.48182174,4.11307077 7.24801481,4.3458861 6.85833659,4.3458861 Z"
                            id="Path-Copy-19"></path>
                        <path
                            d="M3.74091087,7.45009046 C3.35123265,7.45009046 3.11742572,7.21727513 3.11742572,6.82924958 L3.11742572,0.620840871 C3.11742572,0.232815327 3.35123265,0 3.74091087,0 C4.13058908,0 4.36439601,0.232815327 4.36439601,0.620840871 L4.36439601,6.82924958 C4.36439601,7.21727513 4.13058908,7.45009046 3.74091087,7.45009046 Z"
                            id="Path-Copy-20"></path>
                    </g>
                </g>
            </g>
        </g>
    </g>
</svg>