<svg fill="none" height="42" viewBox="0 0 45 42" width="45" xmlns="http://www.w3.org/2000/svg">
    <path clip-rule="evenodd"
        d="M40.7269 20.9622C42.5072 18.8355 43.4897 16.136 43.4897 13.3605C43.4897 6.82842 38.1702 1.51123 31.6354 1.51123C27.6961 1.51123 24.0069 3.43337 21.7409 6.40758H21.7461C19.4836 3.43337 15.7927 1.51123 11.8551 1.51123C5.3203 1.51123 0 6.8292 0 13.3605C0 16.136 0.983324 18.8355 2.76193 20.9622L9.37004 28.7477L20.0348 41.3568C20.2703 41.6356 21.439 41.5473 22.2404 41.4593C22.6915 41.4096 23.027 41.36 23.0141 41.3759L40.7269 20.9622Z"
        fill="#418ABF" fill-rule="evenodd" />
    <path clip-rule="evenodd"
        d="M44.0822 24.3244H37.8088L38.6825 23.318H44.0822C44.3599 23.318 44.5851 23.5433 44.5851 23.8212C44.5851 24.0991 44.3599 24.3244 44.0822 24.3244ZM5.61526 24.3243H1.26362C0.985872 24.3243 0.760742 24.0991 0.760742 23.8212C0.760742 23.5433 0.985872 23.318 1.26362 23.318H4.76132L5.61526 24.3243Z"
        fill="#A9CEE9" fill-rule="evenodd" />
    <path clip-rule="evenodd"
        d="M23.2358 32.6224C23.002 32.6224 22.7993 32.4618 22.7458 32.2333L18.3769 13.4566L15.6081 23.9495C15.5494 24.1699 15.3493 24.3243 15.1216 24.3243H5.61529L4.76135 23.3179H14.7335L17.9215 11.2398C17.9793 11.0187 18.1803 10.8649 18.408 10.8649C18.4106 10.8649 18.4132 10.8649 18.4149 10.8649C18.6461 10.8684 18.8453 11.0292 18.8979 11.2541L23.2038 29.7617L25.6268 17.903C25.6708 17.6887 25.8476 17.5272 26.0658 17.5036C26.084 17.5016 26.1021 17.5006 26.1202 17.5006C26.3168 17.5006 26.498 17.6165 26.5799 17.7997L29.0287 23.3179H38.6826L37.8088 24.3243H28.7018C28.5026 24.3243 28.3223 24.207 28.2421 24.0253L26.2979 19.6456L23.7291 32.22C23.6817 32.4522 23.4799 32.6192 23.2427 32.6224C23.2401 32.6224 23.2383 32.6224 23.2358 32.6224Z"
        fill="#A9CEE9" fill-rule="evenodd" />
    <path clip-rule="evenodd"
        d="M4.13767 19.6591C2.44618 17.638 1.51116 15.0697 1.51202 12.4327C1.51202 9.32683 2.77568 6.51374 4.81737 4.47136C6.86079 2.42993 9.67533 1.16731 12.7814 1.16714C14.6566 1.16705 16.4749 1.62464 18.0948 2.43787C19.7147 3.25075 21.1336 4.41909 22.2084 5.83223L22.6733 5.47901V4.89549H22.6699V5.47901L23.1339 5.83275C24.2113 4.41918 25.6311 3.25075 27.2509 2.43787C28.8708 1.62464 30.6891 1.16705 32.5644 1.16714C35.6713 1.16739 38.485 2.42967 40.5284 4.47102C42.5701 6.51323 43.832 9.32631 43.8329 12.4327C43.8329 15.07 42.8996 17.638 41.2064 19.6589C40.9994 19.906 41.0321 20.2741 41.2788 20.481C41.5264 20.688 41.8938 20.6555 42.1009 20.4085C43.9718 18.176 44.9991 15.345 44.9999 12.4327C44.9999 9.0063 43.6035 5.89477 41.353 3.64563C39.1035 1.39563 35.9913 -0.000172513 32.5644 0C30.4985 8.62565e-05 28.5025 0.503565 26.7274 1.39477C24.9514 2.28623 23.3944 3.5655 22.2058 5.12527C22.0712 5.30141 22.048 5.53948 22.1463 5.73795C22.2446 5.93643 22.4482 6.06254 22.6699 6.06254H22.6733C22.8941 6.06254 23.0977 5.93669 23.196 5.73821C23.2944 5.53982 23.2719 5.3021 23.1374 5.12579C21.9505 3.56558 20.3944 2.28623 18.6184 1.39477C16.8432 0.503565 14.8464 8.62565e-05 12.7814 0C9.35532 -0.000172513 6.24319 1.3958 3.99276 3.64589C1.74146 5.89511 0.344109 9.00664 0.344971 12.4327C0.344971 15.3453 1.37487 18.176 3.24319 20.4083C3.44934 20.6554 3.81766 20.688 4.06521 20.4812C4.31191 20.2743 4.34468 19.9063 4.13767 19.6591Z"
        fill="#14443A" fill-rule="evenodd" />
    <path clip-rule="evenodd"
        d="M9.85302 28.1967L20.5178 40.8059V40.8066C20.7705 41.1045 21.0784 41.331 21.4114 41.4808C21.7443 41.6308 22.1023 41.7053 22.4594 41.7053C22.8122 41.7053 23.1658 41.6325 23.4945 41.4863C23.824 41.3404 24.1293 41.1201 24.3812 40.8302V40.8298L35.3384 28.2023C35.5488 27.9589 35.5229 27.5903 35.2797 27.3791C35.0365 27.1679 34.6673 27.194 34.4568 27.4375L23.4997 40.065V40.0647C23.3616 40.2239 23.1986 40.3407 23.0209 40.4196C22.8441 40.4984 22.6518 40.5382 22.4594 40.5382C22.2645 40.5382 22.0704 40.4975 21.891 40.4168C21.7116 40.3358 21.5477 40.2159 21.4079 40.0516L21.4088 40.0522L10.744 27.443C10.5362 27.197 10.1679 27.1662 9.92116 27.3744C9.67533 27.5825 9.64428 27.9506 9.85302 28.1967Z"
        fill="#14443A" fill-rule="evenodd" />
    <path clip-rule="evenodd"
        d="M14.4989 41.7057H30.697C31.0196 41.7057 31.2809 41.4444 31.2809 41.1222C31.2809 40.7998 31.0196 40.5386 30.697 40.5386H14.4989C14.1763 40.5386 13.9149 40.7998 13.9149 41.1222C13.9149 41.4444 14.1763 41.7057 14.4989 41.7057Z"
        fill="#14443A" fill-rule="evenodd" />
</svg>
