<svg fill="none" height="16" viewBox="0 0 17 16" width="17" xmlns="http://www.w3.org/2000/svg">
    <path clip-rule="evenodd"
        d="M7.81525 2.90518C6.39085 1.42072 3.99208 1.3995 2.4359 2.91989C2.43098 2.92471 2.42597 2.92945 2.42088 2.9341C0.911092 4.31698 0.888784 6.63142 2.4359 8.143L2.43997 8.14692L8.28117 13.9558L14.2308 8.143C14.2357 8.13817 14.2407 8.13342 14.2458 8.12875C15.7556 6.74583 15.7779 4.43143 14.2308 2.91989C12.6829 1.40766 10.2723 1.40766 8.7245 2.91989C8.60225 3.03935 8.4375 3.10497 8.26684 3.1022C8.09617 3.09944 7.93367 3.02853 7.81525 2.90518ZM8.28875 1.59844C6.3289 0.00322497 3.43577 0.155008 1.54865 1.99177C-0.526649 3.90041 -0.502616 7.06483 1.53918 9.06183C1.53988 9.0625 1.54058 9.06325 1.54127 9.06392L7.82583 15.3136C8.07417 15.5606 8.474 15.5623 8.7245 15.3176L15.1182 9.07092C17.194 7.16158 17.1692 3.99576 15.1254 1.99897C13.227 0.144208 10.3308 0.0107 8.28875 1.59844Z"
        fill="#ED2127" fill-rule="evenodd" />
</svg>
