<svg fill="none" height="17" viewBox="0 0 17 17" width="17" xmlns="http://www.w3.org/2000/svg">
    <path clip-rule="evenodd"
        d="M8.5 1.30769C4.5278 1.30769 1.30769 4.5278 1.30769 8.5C1.30769 12.4722 4.5278 15.6923 8.5 15.6923C12.4722 15.6923 15.6923 12.4722 15.6923 8.5C15.6923 4.5278 12.4722 1.30769 8.5 1.30769ZM0 8.5C0 3.80558 3.80558 0 8.5 0C13.1944 0 17 3.80558 17 8.5C17 13.1944 13.1944 17 8.5 17C3.80558 17 0 13.1944 0 8.5Z"
        fill="#418ABF" fill-rule="evenodd" />
    <path clip-rule="evenodd"
        d="M8.49997 5.23079C7.89809 5.23079 7.41019 5.71868 7.41019 6.32053C7.41019 6.68163 7.11753 6.97435 6.75638 6.97435C6.39527 6.97435 6.10254 6.68163 6.10254 6.32053C6.10254 4.99646 7.17593 3.9231 8.49997 3.9231C9.82402 3.9231 10.8974 4.99646 10.8974 6.32053C10.8974 6.79682 10.7578 7.24252 10.5171 7.61652C10.3664 7.85087 10.1901 8.0745 10.0276 8.27655C9.99784 8.31344 9.96869 8.34965 9.93996 8.38518C9.80515 8.55203 9.6813 8.70529 9.56698 8.86245C9.28486 9.25022 9.15379 9.54152 9.15379 9.80774C9.15379 10.1688 8.86105 10.4616 8.49997 10.4616C8.13889 10.4616 7.84615 10.1688 7.84615 9.80774C7.84615 9.11091 8.18819 8.53469 8.50949 8.09312C8.64532 7.90654 8.79407 7.72252 8.92931 7.55515C8.95642 7.52166 8.98303 7.48877 9.00878 7.45672C9.1702 7.25604 9.30764 7.07958 9.41746 6.90898C9.52643 6.73959 9.58976 6.53844 9.58976 6.32053C9.58976 5.71868 9.10186 5.23079 8.49997 5.23079Z"
        fill="#418ABF" fill-rule="evenodd" />
    <path
        d="M9.37169 12.4232C9.37169 12.9047 8.98137 13.295 8.49993 13.295C8.01849 13.295 7.62817 12.9047 7.62817 12.4232C7.62817 11.9417 8.01849 11.5514 8.49993 11.5514C8.98137 11.5514 9.37169 11.9417 9.37169 12.4232Z"
        fill="#418ABF" />
</svg>
