<?xml version="1.0" encoding="UTF-8"?>
<svg height="18px" version="1.1" viewBox="0 0 18 18" width="18px"
    xmlns="http://www.w3.org/2000/svg">
    <title>Lables</title>
    <g fill="none" fill-rule="evenodd" id="Page-1" stroke="none" stroke-width="1">
        <g fill="#D2D2D2" fill-rule="nonzero" id="Home"
            transform="translate(-275.000000, -1877.000000)">
            <g id="Lables" transform="translate(275.000000, 1877.000000)">
                <path
                    d="M16.36848,5.3849606 L12.16206,1.1181146 C11.70477,0.654326603 10.97325,0.468809603 10.33317,0.561563603 C10.24173,0.561563603 10.15029,0.561563603 10.05885,0.654326603 C10.05885,0.654326603 10.05885,0.654326603 9.96741,0.654326603 C9.87597,0.654326603 9.87597,0.654326603 9.78453,0.747080603 C9.32724,0.283292603 8.68716,0.00502160287 7.95564,0.00502160287 L2.560428,0.00502160287 C1.188774,-0.0877413971 0,1.1181146 0,2.5094786 L0,13.7331896 C0,14.4752396 0.274329,15.1244996 0.822996,15.5882696 L2.834757,17.3506496 C3.291975,17.8145096 3.932082,18 4.480749,18 L6.126741,18 C6.76683,18 7.31547,17.8145096 7.77276,17.3506496 L10.33317,15.0317996 L16.36848,8.9097296 C16.82568,8.4459596 17.1,7.7966996 17.1,7.1473586 C17.1,6.4980536 16.82568,5.8487486 16.36848,5.3849606 Z M5.303745,14.5679396 C4.846527,14.5679396 4.389309,14.1041696 4.389309,13.6403996 C4.389309,13.1766296 4.846527,12.7127696 5.303745,12.7127696 C5.760963,12.7127696 6.218181,13.1766296 6.218181,13.6403996 C6.218181,14.1041696 5.760963,14.5679396 5.303745,14.5679396 Z M15.45399,7.9821896 L10.60749,12.8983496 L10.60749,2.5094786 C10.60749,2.3239616 10.60749,2.1384446 10.51605,1.9529276 C10.51605,1.9529276 10.51605,1.9529276 10.60749,1.9529276 L10.69893,1.9529276 C10.69893,1.9529276 10.79037,1.9529276 10.88181,1.9529276 C11.06469,1.9529276 11.15613,2.0456906 11.33901,2.1384446 L15.54543,6.4052996 C15.72831,6.5908076 15.91119,6.8690876 15.91119,7.2401396 C15.91119,7.6111196 15.63687,7.7966996 15.45399,7.9821896 Z"
                    id="Shape"></path>
            </g>
        </g>
    </g>
</svg>