<svg fill="none" height="17" viewBox="0 0 17 17" width="17" xmlns="http://www.w3.org/2000/svg">
    <path
        d="M8.5 0C6.24568 0 4.08369 0.895571 2.48965 2.48965C0.895608 4.08369 0 6.24575 0 8.5C0 10.7542 0.89557 12.9163 2.48965 14.5103C4.08369 16.1044 6.24575 17 8.5 17C10.7542 17 12.9163 16.1044 14.5103 14.5103C16.1044 12.9163 17 10.7542 17 8.5C17 6.24575 16.1044 4.08369 14.5103 2.48965C12.9163 0.895609 10.7542 0 8.5 0ZM15.4207 5.36844H11.7299C11.466 3.64601 10.9782 2.0981 10.2804 1.11395C11.4035 1.38732 12.4499 1.91231 13.3404 2.64929C14.2309 3.38641 14.9422 4.31615 15.4207 5.3684V5.36844ZM11.0722 8.50008H11.0721C11.0724 9.24736 11.0321 9.99407 10.9514 10.7369H6.03043C5.86926 9.25009 5.86926 7.75007 6.03043 6.26343H10.9514C11.0321 7.00623 11.0724 7.75294 11.0721 8.50023L11.0722 8.50008ZM8.49977 0.894918C9.39446 0.894918 10.3877 2.63069 10.8306 5.36874L6.16891 5.36859C6.61184 2.63077 7.60508 0.895152 8.49977 0.895152V0.894918ZM6.71024 1.11406C6.01238 2.09832 5.52466 3.64623 5.26072 5.36854H1.5789C2.05642 4.31733 2.76643 3.38817 3.65525 2.65123C4.54411 1.91426 5.58874 1.38865 6.7102 1.1141L6.71024 1.11406ZM0.894688 8.50026C0.895587 7.74216 1.00868 6.98843 1.23022 6.26346H5.15378C4.99275 7.75025 4.99275 9.25027 5.15378 10.7369H1.23022C1.00868 10.0119 0.895586 9.25821 0.894688 8.50011V8.50026ZM1.57924 11.6319H5.27004C5.53397 13.3543 6.0217 14.9022 6.71956 15.8864H6.71941C5.59629 15.613 4.54987 15.088 3.65936 14.3511C2.76885 13.6139 2.05753 12.6842 1.57909 11.6319L1.57924 11.6319ZM8.49992 16.1053C7.60523 16.1053 6.612 14.3696 6.16906 11.6315L10.8308 11.6317C10.3878 14.3695 9.39461 16.1051 8.49992 16.1051V16.1053ZM10.2895 15.8862C10.9873 14.9019 11.475 13.354 11.739 11.6317H15.4298H15.4296C14.9513 12.684 14.24 13.6137 13.3495 14.3508C12.459 15.0878 11.4126 15.6128 10.2895 15.8862L10.2895 15.8862ZM11.8462 10.7367C11.927 9.99392 11.9672 9.24721 11.9671 8.49992C11.9672 7.75264 11.927 7.00593 11.8462 6.26313H15.7698C16.2184 7.72058 16.2184 9.27927 15.7698 10.7366L11.8462 10.7367Z"
        fill="#ED2127" />
</svg>
