<svg fill="none" height="18" viewBox="0 0 16 18" width="16" xmlns="http://www.w3.org/2000/svg">
    <path clip-rule="evenodd"
        d="M7.99998 1.31499C4.27804 1.31499 1.13838 4.01894 1.3941 7.38639C1.43078 7.86932 1.4856 8.28976 1.5603 8.62336C1.93719 10.3065 3.12022 11.9785 4.45273 13.3978C5.7739 14.8051 7.1806 15.9 7.90745 16.4309C7.96558 16.4734 8.03438 16.4734 8.09251 16.4309C8.81936 15.9 10.226 14.8051 11.5473 13.3978C12.8797 11.9785 14.0627 10.3065 14.4396 8.62336C14.5144 8.28976 14.5692 7.86932 14.6058 7.38639C14.8616 4.01894 11.7219 1.31499 7.99998 1.31499ZM0.0187962 7.48141C-0.307479 3.18497 3.66451 0 7.99998 0C12.3354 0 16.3074 3.18497 15.9812 7.48141C15.9421 7.99598 15.8812 8.48247 15.7881 8.89803C15.3363 10.9158 13.9634 12.7956 12.5745 14.275C11.1744 15.7665 9.69438 16.9172 8.931 17.4748C8.37811 17.8787 7.62185 17.8787 7.06896 17.4748C6.30558 16.9172 4.82556 15.7665 3.42539 14.275C2.03656 12.7956 0.66363 10.9158 0.2118 8.89803C0.118743 8.48247 0.0578717 7.99598 0.0187962 7.48141Z"
        fill="#418ABF" fill-rule="evenodd" />
    <path clip-rule="evenodd"
        d="M8.00005 6.575C7.36538 6.575 6.85099 7.06561 6.85099 7.67087C6.85099 8.27602 7.36538 8.76669 8.00005 8.76669C8.63472 8.76669 9.14911 8.27602 9.14911 7.67087C9.14911 7.06561 8.63472 6.575 8.00005 6.575ZM5.47205 7.67087C5.47205 6.33937 6.60388 5.26001 8.00005 5.26001C9.39622 5.26001 10.528 6.33937 10.528 7.67087C10.528 9.00224 9.39622 10.0816 8.00005 10.0816C6.60388 10.0816 5.47205 9.00224 5.47205 7.67087Z"
        fill="#418ABF" fill-rule="evenodd" />
</svg>
