<svg fill="none" height="17" viewBox="0 0 17 17" width="17" xmlns="http://www.w3.org/2000/svg">
    <path clip-rule="evenodd"
        d="M2.53857 3.23943C2.53857 1.97107 3.58038 0.942871 4.86551 0.942871H8.25012C8.60058 0.942871 8.88471 1.22329 8.88471 1.5692C8.88471 1.91512 8.60058 2.19554 8.25012 2.19554H4.86551C4.28136 2.19554 3.80781 2.6629 3.80781 3.23943V4.07453C3.80781 4.42045 3.52368 4.70087 3.17319 4.70087C2.8227 4.70087 2.53857 4.42045 2.53857 4.07453V3.23943ZM3.17319 11.7993C3.52368 11.7993 3.80781 12.0797 3.80781 12.4257V13.2607C3.80781 13.8372 4.28136 14.3046 4.86551 14.3046H8.25012C8.60058 14.3046 8.88471 14.5851 8.88471 14.9309C8.88471 15.2769 8.60058 15.5573 8.25012 15.5573H4.86551C3.58038 15.5573 2.53857 14.5291 2.53857 13.2607V12.4257C2.53857 12.0797 2.8227 11.7993 3.17319 11.7993Z"
        fill="#BF4141" fill-rule="evenodd" />
    <path clip-rule="evenodd"
        d="M8.88442 2.2986C8.88442 1.57155 9.61867 1.06718 10.3095 1.31969L14.5403 2.86619C14.9552 3.01785 15.2306 3.4084 15.2306 3.84509V12.6549C15.2306 13.0916 14.9552 13.4822 14.5403 13.6338L10.3095 15.1803C9.61867 15.4329 8.88442 14.9285 8.88442 14.2014V2.2986ZM10.7503 0.145003C9.2305 -0.41052 7.61523 0.69909 7.61523 2.2986V14.2014C7.61523 15.8009 9.2305 16.9105 10.7503 16.355L14.9811 14.8085C15.894 14.4748 16.4998 13.6157 16.4998 12.6549V3.84509C16.4998 2.88437 15.894 2.02517 14.9811 1.6915L10.7503 0.145003Z"
        fill="#BF4141" fill-rule="evenodd" />
    <path clip-rule="evenodd"
        d="M2.77567 6.13682C2.52784 5.89222 2.12602 5.89222 1.87818 6.13682L0.185873 7.80706C-0.0619576 8.05167 -0.0619576 8.44817 0.185873 8.69278L1.87818 10.363C2.12602 10.6076 2.52784 10.6076 2.77567 10.363C3.0235 10.1185 3.0235 9.72189 2.77567 9.47728L2.16672 8.87626H5.71155C6.06203 8.87626 6.34616 8.59584 6.34616 8.24992C6.34616 7.904 6.06203 7.62358 5.71155 7.62358H2.16672L2.77567 7.02257C3.0235 6.77796 3.0235 6.38142 2.77567 6.13682Z"
        fill="#BF4141" fill-rule="evenodd" />
</svg>
