<svg fill="none" height="100" viewBox="0 0 100 100" width="100" xmlns="http://www.w3.org/2000/svg">
    <path
        d="M50.0098 3.24802C24.225 3.24802 3.24778 24.2253 3.24778 50.01C3.24778 75.7834 24.225 96.7522 50.0098 96.7522C75.7832 96.7522 96.752 75.7834 96.752 50.01C96.752 24.2253 75.7832 3.24802 50.0098 3.24802ZM50.0098 100C22.4345 100 0 77.5745 0 50.01C0 22.4345 22.4345 0 50.0098 0C77.5742 0 99.9998 22.4345 99.9998 50.01C99.9998 77.5745 77.5742 100 50.0098 100Z"
        fill="#030404" />
    <path clip-rule="evenodd"
        d="M50.0098 1.62424C76.7279 1.62424 98.3758 23.2919 98.3758 50.01C98.3758 76.7281 76.7279 98.3762 50.0098 98.3762C23.2917 98.3762 1.62402 76.7281 1.62402 50.01C1.62402 23.2919 23.2917 1.62424 50.0098 1.62424Z"
        fill="#ED2127" fill-rule="evenodd" />
    <path
        d="M51.0011 18.5002C33.1454 18.5002 18.6185 33.0271 18.6185 50.8827C18.6185 68.7381 33.1454 83.2658 51.0011 83.2658C68.8567 83.2658 83.3841 68.7381 83.3841 50.8827C83.3841 33.0271 68.8567 18.5002 51.0011 18.5002ZM51.0011 85.4438C31.944 85.4438 16.4399 69.9398 16.4399 50.8827C16.4399 31.8254 31.944 16.3216 51.0011 16.3216C70.0582 16.3216 85.5622 31.8254 85.5622 50.8827C85.5622 69.9398 70.0582 85.4438 51.0011 85.4438Z"
        fill="#030404" />
    <path clip-rule="evenodd"
        d="M51.0011 17.4108C69.48 17.4108 84.4732 32.4038 84.4732 50.8826C84.4732 69.3618 69.48 84.3547 51.0011 84.3547C32.5223 84.3547 17.5291 69.3618 17.5291 50.8826C17.5291 32.4038 32.5223 17.4108 51.0011 17.4108Z"
        fill="white" fill-rule="evenodd" />
    <path
        d="M74.0947 23.8279C74.7285 23.5109 75.402 23.2138 75.8575 22.996C76.7686 22.5998 79.0463 22.2433 79.9373 23.1742C80.2542 23.4911 80.1554 23.9072 79.66 24.4022L79.5413 24.5014C79.2046 24.7984 78.8282 25.135 78.4719 25.4717C77.5409 26.363 77.5806 27.5514 78.5509 28.5812C79.7591 29.8291 81.6604 29.6705 83.8987 28.5416C83.7599 28.1258 83.6611 27.6703 83.5818 27.2345C81.6803 28.2643 80.2344 28.4625 79.5215 27.7097C79.0661 27.2543 79.0857 26.6997 79.66 26.1452C79.8186 26.0064 80.7099 25.2142 80.8484 25.0757C81.6803 24.2833 81.7992 23.3922 81.0665 22.6395C80.5318 22.0651 79.4819 21.6887 78.4322 21.7085H78.4124C79.6404 21.1738 82.3339 20.025 83.7798 19.4705C83.9778 19.6489 84.1562 19.7279 84.3343 19.6489L83.4034 18.0643C83.0867 18.2427 82.0765 18.7576 81.3832 19.0349C80.195 19.5894 75.8575 21.57 73.5005 22.6395L74.0947 23.8279ZM70.5297 19.7874C69.9356 19.53 69.3017 19.2329 68.3906 18.7774C66.7071 17.9258 65.6376 16.9552 66.1129 16.0044C66.3109 15.6085 66.7468 15.2915 67.42 15.1528L66.9051 14.0833C65.9546 14.3804 65.3009 14.8163 64.9642 15.4697C64.2513 16.8957 65.3009 18.5398 67.8162 19.8072C68.7075 20.2629 69.3215 20.5796 69.8761 20.8373L70.5297 19.7874ZM75.9367 13.4891C74.8671 13.3109 73.3025 12.8159 72.0546 12.3007C72.2526 11.6869 72.4509 11.0333 72.7083 10.3994C72.9261 10.4589 73.0649 10.3994 73.1439 10.2807L71.619 9.44867C71.3219 10.3003 71.0447 11.1126 70.8662 11.7858C70.4505 11.6275 69.9157 11.37 69.46 11.1324C68.2915 10.5382 67.42 10.0825 66.7864 9.72594L66.2517 10.7758C66.9646 11.1718 68.2322 11.8255 68.9055 12.182C69.5195 12.4989 70.1137 12.7564 70.589 12.9742C70.3712 14.004 70.3315 14.7964 70.4306 15.3906C70.193 15.1924 69.7571 14.9151 69.3215 14.6577L69.1233 15.6877C70.4306 16.361 70.9059 17.0345 71.1633 17.6881L72.431 17.1532C71.5794 16.1035 71.5001 15.0539 71.7774 13.4693C73.0847 13.9842 74.5303 14.4795 75.5802 14.6973L75.9367 13.4891ZM58.0915 7.28992C58.5472 7.74536 59.1808 8.63666 59.458 9.17139L60.1117 8.75559C59.8146 8.22087 59.2204 7.38904 58.7055 6.87389L58.0915 7.28992ZM59.8146 6.31934C60.2703 6.81466 60.9039 7.68614 61.1613 8.18122L61.8348 7.76518C61.5377 7.23046 60.9237 6.41845 60.4088 5.90354L59.8146 6.31934ZM53.972 4.87349C53.6947 6.37881 53.1402 10.0825 52.9419 11.6869C52.6448 14.0833 53.5559 15.6283 56.0713 15.9452C57.8538 16.163 59.6364 15.5886 61.3397 14.1626C61.1812 13.9448 60.8645 13.2911 60.7455 12.994C59.1411 14.3408 57.6162 14.8358 56.2497 14.6775C54.8038 14.4993 54.051 13.5882 54.2691 11.8651C54.4869 10.0429 55.0018 6.99283 55.2989 5.42828C55.5365 5.44786 55.6555 5.34899 55.7149 5.21023L53.972 4.87349ZM41.0585 14.935C41.2168 15.6283 40.8999 16.0639 40.3456 16.2026C39.6721 16.3412 39.2362 16.0242 39.0977 15.4499C38.8403 14.3804 40.2465 13.2118 40.5832 12.9346C40.7812 13.7664 40.9792 14.6379 41.0585 14.935ZM47.2973 7.52755C46.4853 7.07211 45.1978 6.6759 44.049 6.51756L43.6927 7.64649C44.7622 7.84448 46.0494 8.24069 46.8419 8.69613L47.2973 7.52755ZM42.6032 7.03247C42.0684 7.40886 41.415 7.70596 40.7019 7.98324C40.5832 7.36922 40.4444 6.71555 40.3651 6.26011C40.5634 6.18082 40.6424 6.04206 40.6228 5.88372L39.0184 6.20064L39.5333 8.37921C38.7015 8.61684 37.7708 8.85471 36.7209 9.07252L37.018 10.2411C38.0282 10.0032 38.9589 9.78541 39.7908 9.52796L40.3257 11.8255C39.7908 12.2217 39.3155 12.6375 38.9589 13.0733C38.1668 13.9448 37.8102 14.9548 38.0084 15.747C38.3055 17.0939 39.5333 17.4701 40.603 17.2126C41.9696 16.9155 42.4647 15.8263 42.227 14.737C42.1477 14.4201 41.8308 13.113 41.613 12.182C42.425 11.6869 43.2767 11.2907 44.0096 11.1126C45.4555 10.7956 46.4258 11.3898 46.6833 12.4593C46.9209 13.4891 46.5051 14.4399 45.3762 14.6973C44.7423 14.8358 44.1085 14.7172 43.4352 14.2022C43.3163 14.5192 43.1976 14.935 43.039 15.2519C43.8709 15.9055 44.7423 16.0242 45.6138 15.8263C47.5944 15.3708 48.3075 13.8853 47.9113 12.182C47.4755 10.34 45.8118 9.60725 43.7916 10.0627C43.0985 10.2411 42.2072 10.6371 41.3754 11.1324C41.2366 10.5382 41.0783 9.82505 40.9395 9.15157C41.7518 8.85471 42.4845 8.53779 43.0589 8.20104L42.6032 7.03247ZM29.2342 14.6973C30.5019 16.2026 31.8288 17.2325 32.839 17.787C32.7003 18.8171 32.2647 19.9064 31.809 20.5204C32.3635 20.4411 32.6014 20.4609 32.8787 20.6192C33.2747 19.8072 33.5718 19.0349 33.6907 18.0643C34.9581 18.4605 35.7704 18.5594 36.5427 18.5398C36.5229 18.1039 36.5824 17.7474 36.7407 17.3316C35.4535 17.4701 34.9978 17.4106 33.7303 17.0543C33.7105 15.6084 33.1758 14.004 32.0072 11.766C31.6705 12.0829 31.1159 12.4791 30.3039 12.994L28.4222 14.2022L27.5904 12.8949C28.0262 12.5978 29.3135 11.6275 30.0266 11.0333C30.799 10.3994 30.9177 10.3003 31.2941 10.1618C31.5119 10.0825 31.5317 9.94399 31.2743 9.90434C31.0366 9.8647 30.4821 9.58743 30.185 9.36962C29.5511 10.2609 28.1449 11.568 26.2833 12.6969C26.6597 13.192 27.4717 14.4002 28.244 15.6481C29.9077 18.4209 30.3634 20.0052 30.1057 21.8275C30.5019 21.6689 30.8188 21.6493 31.2941 21.8671C31.4527 19.4903 30.6602 17.8465 28.8779 14.935L29.2342 14.6973ZM30.0465 14.2022L31.6308 13.1722C32.423 14.5784 32.7201 15.6085 32.839 16.7968C31.9081 16.2423 31.0366 15.4105 30.0465 14.2022ZM23.7878 15.1528L25.2532 14.2221L26.0457 17.3316C27.3924 17.7672 27.9866 18.2625 28.2242 18.6783C28.6006 19.3716 28.5411 19.7081 27.4519 20.1638C27.9668 20.342 28.3432 20.5994 28.561 20.9163C29.6106 20.144 29.7295 19.213 29.1353 18.3019C28.7788 17.7275 28.1449 17.1135 26.8378 16.777L25.8871 12.7762C25.4911 13.0535 24.9363 13.4299 24.2036 13.8853C23.4907 14.3606 22.9163 14.6973 22.5003 14.935C22.6391 15.1134 22.9362 15.549 23.1738 15.9452L26.6597 21.3916C27.214 22.2433 27.5904 22.8771 28.1449 23.8279L28.9966 23.2931L23.7878 15.1528ZM19.0739 25.6895C20.2226 26.165 21.1536 26.4225 22.1834 26.4423C23.2727 26.4819 24.8176 26.1452 25.9267 25.6105C25.6296 25.0757 25.4911 24.5804 25.5305 23.9664C24.7582 24.6795 23.6094 25.2142 22.5598 25.353C21.0346 25.551 19.4899 25.2935 18.1035 24.6399C19.3511 23.0357 20.3019 21.8671 21.0544 21.0353L20.1039 20.3023C19.4899 21.2333 18.6184 22.4217 17.3706 24.006C16.9349 23.6101 16.3606 23.0753 15.7267 22.5404C15.4495 22.2829 15.2909 22.0849 15.2909 21.9068C15.3107 21.6887 15.2316 21.6689 15.1127 21.8275C14.8751 22.1642 14.5185 22.5602 14.1818 22.8969C14.7958 23.2733 15.5287 23.8477 16.7169 24.8577C15.5486 26.3233 14.6573 27.4126 13.9243 28.2249L14.8751 28.9576C15.4693 28.0861 16.3011 26.9572 17.43 25.4915C18.7569 26.6997 19.4304 27.8287 19.6086 28.8188C19.866 30.2845 19.7275 31.3542 19.1333 32.8989C19.6482 32.6811 20.0246 32.6018 20.5395 32.6613C20.9553 30.6807 20.8763 28.9774 20.3614 27.8287C20.0246 27.0365 19.7077 26.4423 19.0739 25.6895Z"
        fill="white" />
    <path clip-rule="evenodd"
        d="M35.8495 41.5145C35.8495 41.5145 34.0471 42.6632 34.0471 44.3665C34.7206 44.5843 36.6219 44.8616 38.9194 43.8516C39.4145 43.5743 39.3751 43.7525 39.4145 43.5743C39.4739 43.3761 37.0776 43.1187 35.8495 41.5145Z"
        fill="#B68336" fill-rule="evenodd" />
    <path clip-rule="evenodd"
        d="M43.8115 40.6827C43.8115 40.6827 57.2994 47.1198 60.4288 56.2699C61.3595 59.34 60.5673 60.5083 60.0722 62.2513C61.6962 62.4495 63.3205 62.6673 62.6272 65.2619C61.914 67.0247 58.8243 69.1636 57.2598 68.3714C55.8536 67.7772 55.299 66.9652 55.1999 66.4503C55.1008 65.9351 54.7247 66.569 54.7247 66.569C54.7247 66.569 49.2384 70.8669 44.2273 70.6689C41.633 70.5301 34.0075 67.4405 32.8786 64.6281C31.7695 61.8355 27.7885 52.8236 39.9493 43.4753C41.7715 42.2475 44.0095 40.8016 43.8115 40.6827Z"
        fill="#FCD5CA" fill-rule="evenodd" />
    <path clip-rule="evenodd"
        d="M57.2004 50.764C58.6066 52.4475 59.7554 54.2895 60.4289 56.2701C61.3596 59.34 60.5674 60.5086 60.0723 62.2515C61.6963 62.4495 63.3203 62.6673 62.6272 65.2619C61.9141 67.0247 58.8244 69.1636 57.2599 68.3714C55.8537 67.7772 55.2991 66.9652 55.2 66.4503C55.1009 65.9354 54.7248 66.569 54.7248 66.569C54.7248 66.569 49.2385 70.8669 44.2274 70.6689C43.2174 70.6293 41.4348 70.1143 39.593 69.3618C48.4265 71.3027 59.3393 60.964 56.2893 50.6252L57.2004 50.764Z"
        fill="#FABEAE" fill-rule="evenodd" />
    <path clip-rule="evenodd"
        d="M43.8117 40.6825C43.8117 40.6825 55.9922 47.0601 60.4289 56.2697L63.2017 53.6158C63.2017 53.6158 68.9652 62.1522 77.9768 54.9229C80.116 49.7337 79.5416 47.6937 71.0645 36.5233C69.4207 32.3838 66.7666 27.987 66.7666 27.987C66.7666 27.987 64.786 22.7185 55.0219 25.9866L54.7248 27.0561C54.7248 27.0561 53.8335 21.0549 47.6541 20.9161C43.376 21.5103 40.0287 24.818 41.336 31.7499C42.5046 33.6515 45.317 37.3552 47.0795 37.6523C44.9406 39.3358 43.8117 40.6825 43.8117 40.6825Z"
        fill="white" fill-rule="evenodd" />
    <path clip-rule="evenodd"
        d="M57.7745 52.4277L59.1807 59.1617C59.1807 59.1617 58.0518 60.1917 57.7349 61.5979C57.6556 62.5487 58.5072 62.9843 59.2402 62.6277L61.0426 60.7661C61.0426 60.7661 60.8246 57.5377 60.3691 55.9731C58.9827 53.5368 58.5667 52.6852 58.4678 52.7645C58.3489 52.824 57.7745 52.4277 57.7745 52.4277Z"
        fill="#B98138" fill-rule="evenodd" />
    <path clip-rule="evenodd"
        d="M46.2279 42.6237C46.2279 42.6237 45.3762 43.9506 40.4051 43.5348C37.7709 43.2575 35.0375 41.5344 35.9684 39.4151C36.0874 38.4051 37.2163 36.1869 39.4543 37.0782C40.4841 37.8109 41.6527 39.5538 42.0291 40.9204C42.663 41.4749 43.2373 41.2373 43.2373 41.2373L46.2279 42.6237Z"
        fill="#B68336" fill-rule="evenodd" />
    <path clip-rule="evenodd"
        d="M39.1372 69.8173L38.3451 69.4211C38.3451 69.4211 39.4145 71.6789 40.0484 71.976C39.4343 72.907 39.5731 72.8673 39.3749 73.521C38.3649 74.135 37.3348 74.8875 36.7803 74.9867C37.6121 76.3532 40.3653 78.512 44.0095 75.6403C45.2177 75.6995 45.891 75.6007 46.3268 75.3036C46.6834 76.3136 51.0207 80.7896 55.9128 77.5218C55.3781 76.8087 52.3873 74.9867 51.8724 73.8775C51.7735 74.2339 51.7735 74.2933 51.7537 74.5706C51.6942 74.2339 51.4962 72.8081 50.6644 72.0751C52.0309 71.164 53.4966 70.4115 54.3877 67.1236C52.4666 67.8763 48.1293 71.3028 39.1372 69.8173Z"
        fill="#030404" fill-rule="evenodd" />
    <path clip-rule="evenodd"
        d="M54.7642 77.3833C53.9324 76.5911 53.2589 76.4524 52.13 75.2047C52.0903 75.1453 52.0311 75.0858 51.9915 75.0462L51.8527 75.6998C51.12 74.056 51.2189 73.1845 49.6741 72.1743C48.7829 71.5801 47.4559 71.3226 46.2874 72.0556C46.1486 72.5705 46.109 72.8874 46.2874 73.5607C47.2181 76.9474 52.4073 79.3837 54.7642 77.3833Z"
        fill="#ED2127" fill-rule="evenodd" />
    <path clip-rule="evenodd"
        d="M44.7621 70.6689C44.3659 70.7086 44.0886 70.6095 43.6926 70.8275C42.4844 71.5404 42.9795 74.0953 44.3659 74.947C44.7423 75.1846 46.01 75.0065 46.4059 74.7094C45.9108 74.0953 45.3166 73.0259 45.6336 71.7582C46.7625 71.0453 47.6934 70.6491 48.7827 70.966C48.8025 70.9858 48.8224 70.9858 48.8422 70.9858L48.9609 71.0255C49.3769 71.1442 49.5749 71.3226 49.9909 71.5404C50.882 71.085 51.496 70.5698 52.1695 69.9164C52.6844 69.4211 53.4766 68.4507 53.3777 67.9358C52.2884 68.4507 51.3971 68.9656 50.288 69.3817C49.1589 69.7974 46.1485 70.5896 44.7621 70.6689Z"
        fill="#ED2127" fill-rule="evenodd" />
    <path clip-rule="evenodd"
        d="M37.9688 75.1448C38.4044 75.8775 39.6522 76.2936 40.4444 76.2737C41.4546 76.2539 42.5836 75.7588 43.5143 75.0061C43.1183 74.511 42.2865 73.8969 42.4448 72.3522C42.4646 72.0948 42.643 71.8175 42.4845 71.4411C41.5733 71.8175 40.9199 72.0353 40.2663 73.2633C39.9692 73.8377 40.0484 73.9762 39.5137 74.2733C39.0779 74.5308 38.365 74.8675 37.9688 75.1448Z"
        fill="#ED2127" fill-rule="evenodd" />
    <path clip-rule="evenodd"
        d="M43.6726 70.5698C43.4548 70.4509 43.2764 70.4311 43.019 70.4311C42.3655 70.3719 39.5925 69.936 39.5925 69.936C39.9689 70.8669 40.2065 71.0649 40.8007 71.5798C41.2958 71.3224 41.7713 70.9066 42.2862 70.8669C42.9595 70.8273 42.9003 71.1442 43.6726 70.5698Z"
        fill="#ED2127" fill-rule="evenodd" />
    <path clip-rule="evenodd"
        d="M47.6145 61.9544C48.1294 57.7755 50.8033 56.6267 52.3678 57.1615C54.9426 58.0329 52.8433 60.9444 51.3975 61.8157C51.3975 61.8157 50.0902 61.9743 48.9811 62.0139C48.4067 62.0337 47.9314 61.9544 47.6145 61.9544Z"
        fill="#F09886" fill-rule="evenodd" />
    <path clip-rule="evenodd"
        d="M49.2581 61.9744C49.2581 61.9744 51.4564 60.469 51.7734 59.657C51.6348 60.667 51.1001 61.0632 50.7436 61.4396C51.2585 61.7566 51.7535 61.7764 51.7535 61.7764C51.7535 61.7764 50.4861 61.9744 49.2581 61.9744Z"
        fill="#221F20" fill-rule="evenodd" />
    <path clip-rule="evenodd"
        d="M47.4756 61.9541C48.0698 57.3393 51.0011 56.0917 52.8033 56.666C55.7743 57.6562 53.3579 60.845 51.6744 61.8153H51.3971C52.8429 60.9441 54.9425 58.0326 52.3677 57.1611C50.8029 56.6264 48.2678 57.7751 47.7529 61.9541H47.4756Z"
        fill="#030404" fill-rule="evenodd" />
    <path clip-rule="evenodd"
        d="M57.1409 63.7369C57.1409 63.7369 47.8914 76.2344 35.8694 66.5691C27.9667 59.3005 32.7203 49.437 39.9691 43.9903C39.791 43.832 39.276 43.8716 39.1175 43.6932C35.7109 46.3869 30.1257 51.9325 30.4426 59.0626C31.3141 71.7979 50.7633 75.4025 57.1409 63.7369Z"
        fill="#030404" fill-rule="evenodd" />
    <path
        d="M35.8497 59.9924L35.8101 59.8759C36.1272 59.7681 36.3496 59.5868 36.4712 59.3368C36.6936 58.8792 36.5065 58.336 36.5046 58.3305L36.6206 58.2894C36.6293 58.3135 36.8273 58.885 36.5827 59.3898C36.4461 59.6712 36.1995 59.874 35.8497 59.9924Z"
        fill="#030404" />
    <path clip-rule="evenodd"
        d="M40.3851 48.8428C40.8405 48.8428 41.0189 49.6152 40.7813 50.5659C40.5632 51.5167 40.0087 52.2891 39.5532 52.2891C39.1176 52.2891 38.9194 51.5167 39.157 50.5659C39.3751 49.6152 39.9296 48.8428 40.3851 48.8428Z"
        fill="#030404" fill-rule="evenodd" />
    <path clip-rule="evenodd"
        d="M41.2766 44.3666C41.9699 44.3666 42.5047 44.9211 42.5047 45.5946C42.5047 45.8719 42.4254 46.1294 42.267 46.3472C42.1481 46.2481 42.0093 46.1492 41.8906 46.0699C41.9898 45.9512 42.049 45.7728 42.049 45.5946C42.049 45.1786 41.7125 44.822 41.2766 44.822C40.8608 44.822 40.5241 45.1389 40.5043 45.555C40.3259 45.5153 40.1675 45.4955 40.0486 45.4757C40.1279 44.8419 40.6428 44.3666 41.2766 44.3666Z"
        fill="#030404" fill-rule="evenodd" />
    <path clip-rule="evenodd"
        d="M55.1404 66.5097C57.933 70.8869 65.0631 65.5986 61.399 62.806C60.2503 62.0733 59.359 62.5882 59.359 62.5882C59.3788 62.5486 59.4185 62.5288 59.4383 62.4891C59.7354 62.2317 60.785 61.4395 62.1516 62.3308C66.0733 65.4601 57.3982 72.5506 55.1404 66.5097Z"
        fill="#030404" fill-rule="evenodd" />
    <path clip-rule="evenodd"
        d="M48.8619 52.8237C49.8719 52.8237 50.704 53.6555 50.704 54.6856C50.704 54.9629 50.6445 55.2402 50.5256 55.4778C50.4069 55.2994 50.2681 55.1212 50.1098 54.9629C50.1294 54.8638 50.1294 54.7845 50.1294 54.6856C50.1294 53.9725 49.5553 53.3981 48.8619 53.3981C48.3867 53.3981 47.9706 53.6555 47.7528 54.0319C47.5152 54.0319 47.2972 54.0716 47.0793 54.1112C47.317 53.3584 48.0301 52.8237 48.8619 52.8237Z"
        fill="#030404" fill-rule="evenodd" />
    <path clip-rule="evenodd"
        d="M43.0391 53.8538C44.4849 53.8538 45.4751 55.0223 45.2573 56.4484C45.0593 57.8744 43.7324 59.043 42.3064 59.043C40.8803 59.043 39.8701 57.8744 40.0879 56.4484C40.2861 55.0223 41.6131 53.8538 43.0391 53.8538Z"
        fill="#030404" fill-rule="evenodd" />
    <path clip-rule="evenodd"
        d="M77.7985 52.8236C78.4915 51.6947 78.6303 49.536 78.3332 48.3674C77.9568 46.9414 77.1844 45.2579 76.2139 43.8713C75.3426 42.6236 74.2531 40.7025 73.7382 39.4348C73.4213 38.6625 73.1836 37.989 73.0055 37.1968C72.9262 36.7808 72.7874 35.2757 72.9857 34.939C73.1638 35.8697 73.1836 36.5233 73.6393 37.5137C73.9956 38.3257 74.4117 39.2369 74.9861 40.0687C76.115 41.7125 77.3824 43.5546 78.3927 45.2182C79.6403 47.2385 79.8187 48.3476 79.8583 50.3876C79.8782 51.7938 79.0857 54.21 77.6993 55.5964L76.8279 56.4877C76.0753 57.2603 74.1939 58.2108 73.4213 58.4088C72.0547 58.7852 71.401 58.8447 70.0147 58.8645C68.0936 58.8843 65.1027 57.795 63.1618 55.8935L62.7064 55.4777L61.6369 54.2497C62.8845 52.2096 62.6469 51.2787 61.4783 49.2785C60.7853 48.0901 58.7056 45.4757 57.5568 44.3269L57.2994 44.0893C55.4771 42.3067 52.8035 40.841 50.9614 40.0885C47.3965 38.2464 45.6337 37.4939 45.6337 37.4939L42.9202 35.4539L41.8705 34.4241C40.1276 32.7009 39.4541 30.1262 39.692 28.3832C39.9494 26.561 40.702 24.1051 42.4846 22.2829C45.5148 19.1932 50.0503 19.7478 53.14 22.7978C53.6551 23.2931 53.9919 23.8675 54.3482 24.3824C54.6849 24.8973 54.7642 25.5906 55.0217 25.9866C58.0519 22.8969 65.1424 24.1448 68.4105 27.3531L68.6481 27.591C69.975 28.8981 70.708 30.7399 70.9853 32.0671C71.3022 33.592 71.5993 35.0381 71.936 36.563C72.2329 37.9692 72.7282 39.6725 73.3026 41.0589C73.6195 41.8116 73.8769 42.5642 74.2729 43.2969C74.4117 43.5546 75.4613 45.4559 75.4811 45.5352C72.9658 43.0593 71.2229 39.8509 70.094 37.3353C68.965 34.7804 68.3312 31.4927 65.8952 29.0961L65.2415 28.4623C63.9738 27.2345 61.5973 26.3828 60.3296 26.363C59.3394 26.3432 58.8639 26.363 57.8737 26.5808C57.5172 26.6601 55.6949 27.3137 55.4375 27.591C55.3188 27.7097 55.0217 28.7395 54.9028 28.9972C54.7444 29.3932 54.2887 30.0865 54.17 30.4232C54.1304 30.344 54.1899 28.9576 54.17 28.7199C54.17 28.2444 53.9721 27.4919 53.8135 26.9968C53.4371 25.9271 52.8825 24.62 51.8131 23.5704L51.6151 23.3722C49.3771 21.1738 45.8119 21.154 43.6135 23.392C40.9198 26.1452 41.1772 31.354 43.9502 34.0873L44.287 34.4042C45.1384 35.2361 45.9308 35.7113 46.7825 36.1472C47.4557 36.4639 48.9808 36.8204 49.2779 37.0187C49.3771 36.8601 49.1788 36.0481 49.1788 35.8104C49.1788 35.3151 49.1788 35.0381 49.2978 34.5626C49.4365 33.8497 49.9118 32.7406 50.4862 32.0473C50.506 32.1067 50.2287 33.2951 50.2485 33.6316C50.2485 34.1862 50.2485 34.622 50.3474 35.1964C50.4465 35.9489 50.8821 37.6126 51.5953 38.3059L51.7933 38.5039C52.2291 38.9398 52.9618 39.217 53.3779 39.5934C53.4371 39.2369 53.2391 38.7614 53.3184 38.3059C53.3779 37.8108 53.3779 37.4543 53.556 36.979C53.8135 36.1668 54.2887 35.1568 55.0812 34.3448L55.2395 34.1862C55.7346 33.6911 57.1804 32.5027 57.5965 32.4237C55.913 34.1468 55.1206 35.6915 54.982 37.3948C54.8433 38.9992 55.18 40.8014 56.7646 42.3662C56.9032 42.1484 56.9626 41.772 57.1606 41.4352C57.3192 41.1976 57.7152 40.6827 57.9134 40.4647C58.2895 40.0885 58.9432 39.5538 59.3196 39.534C58.151 40.7221 57.8341 42.2472 58.2303 43.396C58.5866 44.4655 60.092 46.1886 61.1614 47.2385L61.7953 47.8721C63.2807 49.3179 65.0237 50.1103 66.4894 50.1302C67.341 50.1497 67.9548 50.1497 68.8064 50.1103C69.3018 50.0905 70.8861 49.7538 71.1436 49.7934C70.5296 50.4072 68.5292 51.1798 67.8559 51.3183C66.8063 51.5364 65.6179 51.5758 64.568 51.3778C64.2709 52.3484 64.7068 53.9922 65.7168 54.9826L66.3308 55.5766C67.4597 56.7055 69.8761 57.0621 71.0447 57.1017C72.2527 57.1414 74.57 56.6859 75.7386 55.4975L76.729 54.5468L77.6005 53.2791L77.7985 52.8236Z"
        fill="#030404" fill-rule="evenodd" />
    <path clip-rule="evenodd"
        d="M60.4287 56.2697L60.389 56.2896C57.0419 50.5458 51.0209 44.0495 42.6233 41.4747L44.98 39.8901C50.1692 42.0888 58.9828 50.4665 60.4287 56.2697Z"
        fill="#030404" fill-rule="evenodd" />
    <path clip-rule="evenodd"
        d="M36.6619 59.1419C36.6619 59.1419 42.4254 62.8654 52.2292 61.7365C49.5952 62.1919 42.4056 62.9447 36.4639 59.439L36.6619 59.1419Z"
        fill="#030404" fill-rule="evenodd" />
    <path clip-rule="evenodd"
        d="M41.9499 54.547C42.2668 54.547 42.4846 54.8045 42.445 55.1412C42.4054 55.4581 42.0887 55.7156 41.7718 55.7156C41.4548 55.7156 41.2172 55.4581 41.2764 55.1412C41.3161 54.8045 41.6132 54.547 41.9499 54.547Z"
        fill="white" fill-rule="evenodd" />
    <path clip-rule="evenodd"
        d="M60.9437 64.9847C60.9437 64.9847 60.8446 63.8558 59.5574 63.9747C57.5173 64.2124 57.2797 67.0248 59.3395 66.4702C56.6855 66.3315 59.379 63.0438 60.9437 64.9847Z"
        fill="#030404" fill-rule="evenodd" />
    <path clip-rule="evenodd"
        d="M61.7756 54.0122C61.7756 54.0122 61.0231 55.4779 59.7356 56.5671C61.3993 56.2502 62.4293 54.8837 62.4293 54.8837L61.7756 54.0122Z"
        fill="#030404" fill-rule="evenodd" />
    <path clip-rule="evenodd"
        d="M41.0984 64.1328C41.0984 64.1328 43.2968 64.8854 45.6537 64.2319C43.2968 65.4203 41.0984 64.1328 41.0984 64.1328Z"
        fill="#030404" fill-rule="evenodd" />
    <path clip-rule="evenodd"
        d="M51.1992 48.9813C51.8925 48.9813 52.4273 49.5359 52.4273 50.2094C52.4273 50.5065 52.348 50.7441 52.1894 50.9619C52.0707 50.8628 51.9319 50.7838 51.8133 50.7045C51.9124 50.5659 51.9716 50.4074 51.9716 50.2094C51.9716 49.7933 51.6348 49.4368 51.1992 49.4368C50.7832 49.4368 50.4467 49.7735 50.4269 50.1697C50.2485 50.1301 50.0901 50.1103 49.9712 50.0904C50.0505 49.4764 50.5654 48.9813 51.1992 48.9813Z"
        fill="#030404" fill-rule="evenodd" />
    <path clip-rule="evenodd"
        d="M60.4284 56.2699C60.4284 56.2699 60.4086 56.3492 60.2304 56.4283C60.6859 57.3592 61.2801 60.8055 59.0222 62.7266L60.0719 62.2513C60.0719 62.2513 62.7061 59.8349 60.4284 56.2699Z"
        fill="#030404" fill-rule="evenodd" />
    <path clip-rule="evenodd"
        d="M35.1761 41.7918L35.4533 42.2472C33.0369 43.7922 35.5525 45.1984 38.5629 43.9505C34.3046 46.5055 32.3042 43.6534 35.1761 41.7918Z"
        fill="#030404" fill-rule="evenodd" />
    <path clip-rule="evenodd"
        d="M57.7747 52.4276C57.7747 52.4276 58.4482 58.3099 58.7254 59.1615C57.6362 60.2114 55.9921 63.0634 59.0225 62.7267C58.0519 62.3305 57.121 61.7363 59.676 59.4784C58.5669 54.7846 57.7747 52.4276 57.7747 52.4276Z"
        fill="#030404" fill-rule="evenodd" />
    <path clip-rule="evenodd"
        d="M41.7915 39.9696C42.2469 40.5439 42.049 41.039 46.0299 37.0977C47.2183 37.6324 48.07 38.3456 48.07 38.3456C48.07 38.3456 42.2866 42.0691 42.2075 41.4947C41.851 40.5043 41.7915 39.9696 41.7915 39.9696Z"
        fill="#030404" fill-rule="evenodd" />
    <path clip-rule="evenodd"
        d="M42.3064 41.5543C42.3064 41.5543 41.118 36.3849 38.6225 36.5829C36.1072 36.7811 33.5126 40.7621 36.6816 42.6832C38.6225 43.7725 39.4345 43.9112 39.4345 43.9112L39.8506 44.0696L40.5635 43.5547L39.9494 43.4754C39.9494 43.4754 35.4139 42.7823 35.9685 39.4154C36.3052 37.7316 37.9887 36.9989 38.88 37.2167C39.7911 37.4544 40.5635 37.6328 42.3064 41.5543Z"
        fill="#030404" fill-rule="evenodd" />
    <path
        d="M81.0663 75.6006C81.0465 75.6998 81.0068 75.7788 80.9672 75.8383C80.8683 76.0561 80.7097 76.2741 80.5514 76.4721L80.1948 76.8089C80.3928 76.9276 80.6108 77.0663 80.8287 77.2247C81.0465 77.3832 81.2444 77.5614 81.4427 77.7396L81.8981 78.1358L82.8291 77.9973L82.2943 77.5614C82.0171 77.3238 81.7792 77.0465 81.5614 76.7296C81.3634 76.3928 81.2048 76.0363 81.0663 75.6006ZM85.8196 77.1456L86.3149 79.2052C85.8593 79.1656 85.4237 79.0865 85.0274 78.9676C84.6312 78.8687 84.2154 78.73 83.7994 78.532L82.4328 78.73C82.9874 79.4627 83.3638 80.0767 83.5221 80.6313C83.7402 81.3048 83.6609 81.8593 83.3043 82.2753C83.0667 82.5526 82.7894 82.711 82.4923 82.7506C82.1754 82.7902 81.8981 82.6911 81.6605 82.4733C81.403 82.2753 81.2643 82.0176 81.2246 81.7404C81.1852 81.4433 81.2643 81.2056 81.4427 80.9878C81.6407 80.7502 81.9774 80.6117 82.413 80.572C82.2943 80.2551 82.1754 79.958 82.0369 79.6807C81.8981 79.4035 81.7398 79.1262 81.5614 78.8489L80.0365 79.0667L79.8779 78.4329L81.0663 78.2547L80.5316 77.7792C80.373 77.6605 80.2345 77.5416 80.0761 77.4427C79.9374 77.3238 79.7986 77.2445 79.6601 77.1654C79.4423 77.2643 79.244 77.3238 79.0659 77.3634C78.8679 77.3832 78.4915 77.4229 77.8973 77.4623V77.2048C77.9568 77.185 78.0162 77.1654 78.0559 77.1456C78.2935 77.0069 78.4915 76.8683 78.6498 76.7296L78.0757 76.6106L78.1151 76.1156C78.2539 76.1156 78.4519 76.1552 78.7093 76.2147C78.7886 76.2345 78.9075 76.2741 79.0461 76.294C79.244 76.0759 79.363 75.8581 79.4225 75.6205C79.4621 75.4027 79.4817 75.0461 79.4621 74.5708L81.2048 74.5907C81.2246 74.7688 81.2048 74.947 81.1852 75.1254C81.1852 75.1452 81.1852 75.1846 81.1654 75.2441L81.3832 75.1254C81.4625 75.3035 81.5614 75.4423 81.6208 75.5412C81.8386 75.8779 82.0369 76.1156 82.2349 76.2741C82.6705 76.6701 83.2054 76.9276 83.7796 77.0861C84.354 77.2247 85.0473 77.2445 85.8196 77.1456ZM80.1353 82.9684L80.1552 85.2064C79.363 85.1274 78.6303 84.9688 77.9766 84.7114C77.3229 84.4539 76.6693 84.0775 75.996 83.5428L75.7782 83.8399C76.1742 84.3548 76.5109 84.8697 76.7486 85.3848C77.0457 86.0383 77.2238 86.7316 77.3229 87.4643L75.1245 86.8701C75.0849 86.4147 75.0453 86.0184 74.9858 85.7412C74.9266 85.4441 74.8274 85.1274 74.6887 84.7906C74.4907 84.8895 74.2927 84.9688 74.1341 85.0283C74.0945 85.0481 73.8965 85.0877 73.5796 85.1668L73.4411 84.6915C73.8767 84.5728 74.2134 84.4341 74.4511 84.2559C74.2729 83.8994 74.0747 83.5824 73.8569 83.2853C73.5399 82.9089 73.2428 82.6118 72.9656 82.394C72.6687 82.1762 72.2527 81.9584 71.7179 81.7404L71.8961 81.2056C72.5696 81.4433 73.144 81.701 73.6192 81.9981C74.0747 82.2753 74.6096 82.6911 75.1642 83.2259L75.3027 82.9089C75.2432 82.8299 75.184 82.7704 75.1444 82.7308C74.8473 82.394 74.649 82.1564 74.5105 81.9782C74.3324 81.7602 74.1936 81.582 74.1143 81.4433C74.0154 81.3246 73.956 81.2056 73.8965 81.1068L74.2927 80.8887C74.57 81.2453 74.7878 81.5027 74.966 81.7208C75.1444 81.9188 75.3027 82.0771 75.4613 82.1762C75.5602 81.5622 75.5602 80.9878 75.4415 80.4333C75.3225 79.8986 75.0849 79.3242 74.7283 78.73L76.7486 78.8883C76.9071 79.542 76.9664 80.1758 76.9071 80.77C76.8675 81.3642 76.6891 82.0375 76.392 82.7308C77.0457 83.0477 77.6597 83.2259 78.2142 83.2655C78.7688 83.2853 79.4225 83.1862 80.1353 82.9684ZM70.2126 84.7708C70.1333 84.8501 70.0741 84.9093 70.0345 84.949C69.8362 85.1076 69.6383 85.2659 69.4006 85.3848L68.9449 85.5828C69.0837 85.761 69.242 85.9592 69.3808 86.1969C69.5193 86.4147 69.6581 86.6523 69.777 86.8899L70.0543 87.4249L70.9456 87.6427L70.6088 87.0287C70.4503 86.7118 70.3316 86.375 70.2523 85.9989C70.1928 85.6225 70.173 85.2064 70.2126 84.7708ZM74.0551 87.9596L73.7382 90.0589C73.342 89.8411 72.9656 89.6035 72.6489 89.3658C72.3121 89.1282 71.9754 88.8311 71.6585 88.5142L70.3117 88.1774C70.5692 89.0489 70.6683 89.7816 70.6287 90.356C70.589 91.0493 70.3117 91.5444 69.8362 91.782C69.4997 91.9604 69.1828 91.9998 68.8857 91.9406C68.5886 91.8613 68.351 91.6633 68.2122 91.3861C68.0539 91.089 68.0142 90.7919 68.0935 90.5146C68.1528 90.2373 68.3113 90.0391 68.5688 89.9006C68.8461 89.7618 69.1828 89.7618 69.6184 89.8807C69.6383 89.544 69.6184 89.2271 69.5986 88.9101C69.5788 88.613 69.5193 88.2961 69.4601 87.9794L67.9746 87.6031L68.0539 86.9692L69.2222 87.2267L68.8857 86.5928C68.8064 86.4147 68.7073 86.2563 68.6084 86.1176C68.5093 85.9592 68.4102 85.8205 68.3312 85.7018C68.0935 85.7018 67.8755 85.7018 67.6973 85.6621C67.5192 85.6225 67.1428 85.5035 66.5684 85.3254L66.6673 85.0877H66.8258C67.1031 85.0481 67.3408 85.0085 67.5387 84.9292L67.0437 84.5924L67.2813 84.1568C67.4002 84.2163 67.5784 84.3151 67.7964 84.4737C67.8557 84.5134 67.9548 84.5924 68.0737 84.6717C68.3312 84.5332 68.5291 84.3746 68.6481 84.1766C68.7866 83.9786 68.9254 83.6617 69.0837 83.206L70.7077 83.8795C70.6485 84.0379 70.589 84.2163 70.4899 84.3746C70.4899 84.3944 70.4503 84.4341 70.4304 84.4737L70.6683 84.4539C70.6879 84.6519 70.7077 84.7906 70.7474 84.9093C70.8266 85.3056 70.9258 85.6027 71.0445 85.8205C71.3019 86.3552 71.6981 86.7911 72.1734 87.1474C72.6687 87.4841 73.2825 87.7614 74.0551 87.9596ZM66.3704 90.2965C66.608 91.1286 66.5486 91.8811 66.1722 92.5546C65.796 93.208 65.182 93.6637 64.3105 93.9212C63.34 94.1985 62.4883 94.139 61.7556 93.723C60.9436 93.2675 60.3692 92.4753 60.0523 91.3068L62.013 91.5444C62.5279 92.4159 63.2014 92.7526 63.9936 92.515C64.5085 92.3564 64.9246 92.0395 65.182 91.5642C65.4593 91.0691 65.5188 90.5738 65.3602 90.0391C65.3007 89.8411 65.2611 89.7026 65.182 89.5836C65.1225 89.4647 65.0234 89.3262 64.8651 89.1676L64.2907 90.4749L63.7758 90.6333C62.7061 90.9304 61.7952 90.9502 61.0226 90.6927C60.2701 90.4353 59.775 89.9204 59.557 89.1676C59.3788 88.5142 59.4779 87.8605 59.8739 87.2465C60.2701 86.6325 60.8445 86.2167 61.6168 85.9989C62.1714 85.8403 62.7259 85.8006 63.2805 85.8998C63.8152 85.9989 64.4292 86.2563 65.0829 86.6325L64.9642 86.9692C64.3304 86.7316 63.7956 86.5928 63.3201 86.5336C62.8647 86.494 62.4092 86.5336 61.9337 86.6721C61.4387 86.8109 61.0623 87.0485 60.8246 87.3654C60.587 87.6823 60.5077 88.0188 60.6267 88.3952C60.7454 88.8311 61.0623 89.1084 61.5574 89.2667C62.0527 89.4253 62.6271 89.4055 63.2805 89.2271C63.4589 89.1676 63.637 89.1084 63.7956 89.0291C63.9341 88.9696 64.0925 88.8705 64.2907 88.7518C63.9936 88.6329 63.756 88.5538 63.5578 88.5142C63.34 88.4944 63.0627 88.4745 62.6865 88.4944L62.5676 88.118C63.0429 88.0981 63.4192 88.0981 63.7163 88.1378C64.0134 88.1774 64.3502 88.2567 64.7263 88.3952C64.8453 88.2765 64.9444 88.1774 65.0234 88.0585C65.1027 87.9398 65.2217 87.7812 65.3404 87.5634L65.5386 87.6229L65.1225 88.5932C65.4395 88.7716 65.7167 88.9894 65.8949 89.2667C66.0929 89.5242 66.2515 89.8807 66.3704 90.2965ZM57.616 91.782C57.5172 91.0295 57.2201 90.4551 56.7049 90.0391C56.19 89.6233 55.5564 89.4647 54.7838 89.5638L53.9123 88.5734C53.4965 89.1478 53.2192 89.6233 53.0805 90.0193C52.942 90.4155 52.9023 90.8513 52.9618 91.2869C53.0408 91.9604 53.3181 92.4952 53.7738 92.9308C54.2689 93.4063 54.8631 93.6241 55.5564 93.6043L56.3684 94.7728C56.8635 94.2183 57.2002 93.7031 57.3982 93.2279C57.616 92.7526 57.6953 92.2575 57.616 91.782ZM58.7053 90.97C58.9035 92.6139 58.2102 93.9804 56.5664 95.0898L56.8437 95.4461C56.7247 95.4857 56.606 95.5254 56.4871 95.565C56.3486 95.6047 56.2495 95.6245 56.19 95.6245C56.0713 95.6443 55.9127 95.6443 55.7147 95.6245C55.6949 95.6443 55.6553 95.6443 55.5958 95.6245L54.8631 95.9414L54.7047 95.684L55.0016 95.5055C54.1698 95.2481 53.4767 94.7927 52.9023 94.1588C52.3478 93.5051 52.011 92.7923 51.9119 91.9604C51.8329 91.3068 51.9119 90.6927 52.1892 90.1184C52.4466 89.5638 52.942 88.9498 53.6747 88.3159L53.1201 87.7022C53.1994 87.6823 53.2589 87.6625 53.2983 87.6625C53.6549 87.6031 53.8727 87.5634 53.9321 87.5436C54.1896 87.5238 54.5065 87.5039 54.8433 87.5238C54.9622 87.5436 55.1205 87.5436 55.2987 87.5832C55.3978 87.5238 55.4969 87.4841 55.5564 87.4643C55.794 87.3852 56.0118 87.306 56.19 87.2465L56.3089 87.5436L55.9325 87.7218C57.5764 88.4151 58.5073 89.4845 58.7053 90.97ZM48.228 93.7031L46.5644 95.5452C46.4256 95.565 46.3069 95.565 46.2276 95.565C45.9504 95.565 45.7524 95.5452 45.5742 95.5254C44.4252 95.3869 43.5934 94.9708 43.0785 94.2973C42.4843 93.5448 42.2665 92.4357 42.4645 90.9898C42.3854 91.0097 42.2467 91.1088 42.0685 91.2671C42.009 91.3266 41.9297 91.4059 41.811 91.5047L41.5139 91.2671C41.6723 91.1088 41.7912 90.97 41.8703 90.8709C42.1478 90.5738 42.4052 90.3956 42.623 90.3164C42.7023 89.9798 42.8012 89.7026 42.9201 89.4647C43.019 89.2469 43.2371 88.8705 43.5736 88.3556C43.4152 88.2567 43.1776 88.0585 42.8607 87.7812C42.7616 87.7022 42.623 87.5634 42.4251 87.4051L42.742 87.1672C42.8805 87.2861 42.9994 87.3654 43.0983 87.4249C43.3954 87.6229 43.6925 87.7416 43.9698 87.7614C44.0292 87.6823 44.1479 87.5832 44.2867 87.4249C44.3065 87.4051 44.3462 87.3654 44.3858 87.3258L44.6433 87.6031L44.3858 87.9002L45.0789 88.0189C45.6136 88.0783 46.0693 88.0981 46.4653 88.0387C46.8615 87.9596 47.2775 87.8209 47.6735 87.6031L48.7033 89.1084C47.9309 89.4449 47.0991 89.5638 46.2276 89.4449C45.4553 89.346 44.6829 89.0687 43.9301 88.5932C43.7916 88.8705 43.6727 89.1084 43.6132 89.3262C43.5342 89.5242 43.4747 89.7618 43.4549 90.0391C43.5736 90.0391 43.6727 90.0193 43.752 90.0193C44.0094 89.9994 44.2669 90.0193 44.5243 90.0589C44.9602 90.0985 45.3165 90.1977 45.5742 90.356C45.8317 90.4948 46.1288 90.7324 46.4256 91.089L44.9998 92.2377C44.7226 91.8811 44.4847 91.6039 44.2471 91.4255C44.0292 91.2671 43.752 91.1088 43.3954 90.9898C43.4747 91.8018 43.752 92.4753 44.2272 92.9902C44.7027 93.5051 45.2969 93.8022 46.0495 93.9014C46.3466 93.941 46.6437 93.941 46.9606 93.9212C47.2577 93.9014 47.6735 93.8221 48.228 93.7031ZM40.2264 92.911L38.4835 94.0993C38.0677 93.6043 37.6715 93.1882 37.2953 92.8911C36.9189 92.594 36.5624 92.3762 36.2256 92.2771C36.0871 92.2179 35.988 92.1981 35.9285 92.1782H35.8693C35.6513 92.3762 35.4929 92.515 35.3938 92.594C35.2355 92.713 34.9978 92.8911 34.7007 93.0894L34.5223 92.7724C34.6413 92.6931 34.7206 92.6139 34.7798 92.5742C34.9582 92.4159 35.0967 92.2969 35.1562 92.1981C34.978 92.1981 34.7007 92.2771 34.3045 92.4159C34.1856 92.4753 34.0074 92.5546 33.7698 92.6535L33.6112 92.3366C34.4433 91.8811 35.1165 91.6237 35.6116 91.5444C35.7305 91.3464 35.8495 91.1286 35.9484 90.8907C36.0475 90.6729 36.1466 90.4551 36.2058 90.2571C36.4831 89.4647 36.6218 88.8113 36.6218 88.2369C36.6417 87.5832 36.4831 86.9296 36.1862 86.2761L38.1073 85.147C38.2657 85.8205 38.3053 86.4345 38.2855 87.0089C38.2459 87.5832 38.1073 88.1973 37.8893 88.8509C37.7508 89.2469 37.6123 89.5836 37.4735 89.8411C37.3347 90.0985 37.0376 90.5738 36.602 91.2473C36.6813 91.2671 36.7405 91.2869 36.8 91.2869C37.2359 91.3662 37.6715 91.4849 38.1073 91.6237C38.543 91.782 38.8995 91.9406 39.157 92.0989C39.4342 92.2575 39.771 92.5348 40.2264 92.911ZM35.6909 85.9592C35.592 85.9394 35.5127 85.9394 35.4731 85.9592C35.3148 85.9592 35.1562 85.979 35.0177 85.9989L35.0571 86.5928L34.562 86.6325L34.4629 85.9989C34.1462 86.0977 33.9281 86.177 33.7896 86.2563C33.6707 86.3552 33.4132 86.5534 33.0567 86.8899C33.0368 86.5928 33.0368 86.3354 33.0567 86.1374C33.0963 85.9592 33.1756 85.7412 33.2945 85.5432C33.433 85.3056 33.6112 85.0877 33.8491 84.8895C33.9281 84.8303 34.0272 84.751 34.1856 84.6519C34.0867 84.5134 34.0074 84.4143 33.948 84.335C33.7301 84.0775 33.5123 83.8795 33.2747 83.7606C32.7003 83.4241 32.0665 83.3844 31.393 83.6617C30.6999 83.9192 30.1454 84.4341 29.7293 85.1668C29.2937 85.9196 29.1748 86.6721 29.3728 87.4249C29.571 88.1774 30.0264 88.7716 30.779 89.1874C31.1752 89.4253 31.5516 89.544 31.9475 89.5638C32.3239 89.5638 32.7992 89.4647 33.3736 89.2667L33.4925 89.5638L30.2839 90.8513C30.185 90.8117 30.0661 90.7522 29.9471 90.7126C29.8483 90.6531 29.7293 90.6135 29.6501 90.5542C28.7392 90.0391 28.1844 89.2667 27.9666 88.2765C27.7488 87.2663 27.9269 86.2761 28.5211 85.2659C29.0955 84.2559 29.8681 83.5626 30.8384 83.1666C31.809 82.7902 32.7003 82.8299 33.4925 83.2853C33.7896 83.4635 34.0669 83.7014 34.3243 83.9985C34.4235 84.0973 34.5223 84.2361 34.6413 84.4143C34.7798 84.3746 34.978 84.335 35.2156 84.2953C35.2751 84.2953 35.3938 84.2757 35.5127 84.2757L35.6909 85.9592ZM29.0955 82.5526C28.6004 82.7506 28.145 82.9486 27.7686 83.1666C27.3922 83.3646 26.9368 83.6815 26.402 84.0973C26.3227 84.7708 26.204 85.5035 26.0058 86.2957L25.0947 86.5336L24.9562 87.2267H24.56L24.6194 86.6721L23.9459 86.8505C24.4611 85.6423 24.8372 84.5924 25.0355 83.7209C25.2533 82.8299 25.3522 81.8593 25.3522 80.8295C25.2533 81.0077 25.1343 81.2056 24.976 81.4237C24.8372 81.6415 24.6789 81.8197 24.5401 81.9981C23.6687 83.1072 22.5199 83.9786 21.0545 84.6519V82.5526C22.1041 82.1564 22.936 81.7998 23.4905 81.4433C24.0649 81.1068 24.5401 80.6709 24.9562 80.156C25.0553 80.0569 25.1145 79.958 25.1542 79.8787C25.2136 79.7994 25.2335 79.7204 25.2731 79.6609C25.2533 79.542 25.2335 79.4627 25.2335 79.3836C25.174 78.928 25.0947 78.5716 24.9958 78.2745L25.372 78.0961L25.6294 78.7696L25.6691 78.3338H26.1446C26.1248 78.5122 26.1049 78.6309 26.0851 78.73C26.0455 79.0667 25.986 79.3638 25.9265 79.6014C26.1049 80.1758 26.2434 80.6511 26.3029 81.0275C26.3822 81.4039 26.4417 81.8395 26.4615 82.3742C26.8178 81.9386 27.1744 81.5622 27.531 81.2849C27.8875 81.0275 28.3628 80.7304 28.9768 80.4333L29.0955 82.5526ZM25.0355 77.3436C24.6591 77.4821 24.2827 77.6407 23.9065 77.8387C23.55 78.0565 23.1538 78.3338 22.7578 78.6903C22.4607 78.9478 22.1834 79.2052 21.9257 79.4431C21.6881 79.6807 21.4306 79.9382 21.1335 80.2155C20.5393 80.7304 19.6483 80.9878 18.4202 80.9878L18.9748 81.2651L18.8162 81.6019C18.5588 81.4829 18.3608 81.384 18.222 81.3048C18.1033 81.2453 17.9249 81.1068 17.6873 80.9284L17.2318 80.8493L17.2913 80.5916C16.796 79.8589 16.5584 79.1854 16.598 78.5716C16.6377 77.7396 17.1526 76.9077 18.1033 76.0759C18.7173 75.5412 19.1728 75.0857 19.4501 74.749C19.7075 74.3924 19.9256 73.9965 20.1037 73.5606L22.0843 73.521C21.9852 73.9568 21.8269 74.3332 21.6286 74.6301C21.4108 74.9272 21.0939 75.3036 20.6186 75.6998C20.3215 75.9572 19.9848 76.2147 19.6483 76.4721C19.2917 76.7296 18.9153 77.0069 18.5389 77.304C17.9646 77.799 17.5884 78.2349 17.4298 78.6507C17.2517 79.0667 17.2517 79.5222 17.4298 79.9977L17.6281 79.1064C18.3211 79.5222 19.0144 79.7006 19.7075 79.6014C20.2028 79.542 20.5988 79.3836 20.9157 79.1064L21.7476 78.3734C22.2426 77.9378 22.817 77.601 23.4509 77.3436C24.0847 77.0861 24.5996 77.0267 25.0156 77.1456L25.0355 77.3436Z"
        fill="white" />
</svg>
