<svg fill="none" height="50" viewBox="0 0 55 50" width="55" xmlns="http://www.w3.org/2000/svg">
    <path clip-rule="evenodd" d="M46.57 49.1097H6.34068L3.61377 43.4471H49.3687L46.57 49.1097"
        fill="#DFDFDA" fill-rule="evenodd" />
    <path clip-rule="evenodd"
        d="M48.7203 45.3423L47.1208 48.5528H8.45108L6.85227 45.3792C6.71389 45.1045 6.37902 44.994 6.10432 45.1323C5.82962 45.2707 5.71915 45.6056 5.85752 45.8803L7.6106 49.3603C7.70493 49.5475 7.89838 49.6667 8.10797 49.6667H47.4656C47.677 49.6667 47.8698 49.5472 47.964 49.358L49.7173 45.8391C49.8544 45.5638 49.7424 45.2294 49.4671 45.0923C49.1918 44.9551 48.8574 45.0671 48.7203 45.3423"
        fill="#14443A" fill-rule="evenodd" />
    <path clip-rule="evenodd"
        d="M20.3178 45.452H39.9926C40.3001 45.452 40.5495 45.2026 40.5495 44.8951C40.5495 44.5875 40.3001 44.3382 39.9926 44.3382H20.3178C20.0102 44.3382 19.7609 44.5875 19.7609 44.8951C19.7609 45.2026 20.0102 45.452 20.3178 45.452"
        fill="#C2C2BD" fill-rule="evenodd" />
    <path clip-rule="evenodd"
        d="M42.6478 45.452H45.6919C45.9995 45.452 46.2488 45.2026 46.2488 44.8951C46.2488 44.5875 45.9995 44.3382 45.6919 44.3382H42.6478C42.3403 44.3382 42.0909 44.5875 42.0909 44.8951C42.0909 45.2026 42.3403 45.452 42.6478 45.452"
        fill="#C2C2BD" fill-rule="evenodd" />
    <path clip-rule="evenodd"
        d="M37.6147 22.7316C34.2821 21.6359 30.2644 21.3515 26.1286 22.0001C19.7345 23.0026 14.7556 28.246 6.42353 31.7315C-1.90867 35.217 4.74529 42.5555 4.74529 42.5555L42.804 42.9212C48.5526 36.8825 49.7351 34.1094 45.5022 29.8286C45.5022 29.8286 42.3115 25.092 37.6147 22.7316"
        fill="#418ABF" fill-rule="evenodd" />
    <path clip-rule="evenodd"
        d="M3.44625 43.1124H52.1176C52.4253 43.1124 52.6746 42.8631 52.6746 42.5555C52.6746 42.2479 52.4253 41.9985 52.1176 41.9985H3.44625C3.13863 41.9985 2.88928 42.2479 2.88928 42.5555C2.88928 42.8631 3.13863 43.1124 3.44625 43.1124"
        fill="#14443A" fill-rule="evenodd" />
    <path clip-rule="evenodd"
        d="M47.1813 29.3292C47.9968 30.1537 48.5838 30.9259 48.962 31.6631C49.1514 32.0319 49.2894 32.392 49.3804 32.7493C49.4715 33.1066 49.5159 33.4613 49.516 33.8226C49.5159 34.3676 49.4144 34.9296 49.2049 35.5306C48.8911 36.4312 48.3298 37.417 47.5198 38.5143C46.7103 39.6116 45.6548 40.8194 44.3674 42.1715C44.1552 42.3942 44.1639 42.7467 44.3866 42.9588C44.6095 43.1709 44.962 43.1622 45.174 42.9395C46.9151 41.1099 48.2624 39.5209 49.19 38.0458C49.6535 37.308 50.0121 36.5976 50.2566 35.8977C50.5009 35.1981 50.63 34.5075 50.6299 33.8226C50.63 33.3691 50.5733 32.919 50.4598 32.4742C50.2897 31.8065 49.9927 31.1523 49.577 30.5029C49.161 29.8532 48.6265 29.2069 47.9734 28.5461C47.7571 28.3274 47.4045 28.3253 47.1857 28.5416C46.967 28.7579 46.965 29.1105 47.1813 29.3292"
        fill="#14443A" fill-rule="evenodd" />
    <path clip-rule="evenodd"
        d="M7.45532 42.1989L7.32279 42.3093L7.45549 42.1991L7.45532 42.1989L7.32279 42.3093L7.45549 42.1991C7.44997 42.1929 6.805 41.4135 6.17163 40.2602C5.85487 39.6839 5.54115 39.0145 5.30926 38.3064C5.07695 37.5981 4.92729 36.8523 4.92762 36.1226C4.92771 35.6756 4.98302 35.2347 5.10774 34.8061C5.29567 34.1632 5.63565 33.545 6.20703 32.9597C6.77857 32.3755 7.58736 31.8247 8.71357 31.3536C12.9349 29.5877 16.2933 27.3835 19.3668 25.5197C20.9033 24.5874 22.3684 23.74 23.8314 23.0683C25.2948 22.3963 26.7544 21.8997 28.2901 21.6587C29.7327 21.4323 31.1602 21.3221 32.5462 21.3221C35.0578 21.3219 37.4333 21.6846 39.5158 22.3698C39.808 22.4659 40.1228 22.307 40.2188 22.0147C40.315 21.7226 40.156 21.4078 39.8639 21.3117C37.6536 20.5849 35.1647 20.2085 32.5462 20.2083C31.1011 20.2083 29.6164 20.3232 28.1175 20.5583C26.456 20.819 24.8954 21.354 23.3666 22.0561C21.0728 23.1103 18.8458 24.5378 16.4189 26.0186C13.9922 27.4999 11.3667 29.0367 8.2837 30.326C7.46001 30.6706 6.76713 31.064 6.19016 31.4989C5.32481 32.1503 4.72166 32.8992 4.34406 33.6921C3.96548 34.4848 3.81343 35.3147 3.81384 36.1226C3.81409 37.0105 3.99429 37.8746 4.25697 38.672C4.65194 39.8679 5.23385 40.9178 5.71756 41.676C6.2016 42.4337 6.58866 42.8987 6.59986 42.9122C6.79685 43.1484 7.14802 43.1802 7.38428 42.9832C7.62045 42.7862 7.65231 42.435 7.45532 42.1989"
        fill="#14443A" fill-rule="evenodd" />
    <path clip-rule="evenodd"
        d="M39.9925 38.0738C39.9925 38.0738 43.408 33.8097 39.5033 31.333L46.7437 24.1819C47.6011 25.3684 49.2905 25.4705 50.2962 24.4767C52.0398 22.7555 50.2181 19.8795 47.8879 20.6677C48.6849 18.3655 45.7747 16.5669 44.0295 18.289C42.9889 19.317 43.1577 21.0318 44.3881 21.8398L37.1397 28.999C37.1397 28.999 27.1836 25.7605 24.1762 34.6663C23.8559 35.6163 23.0033 36.872 23.5962 38.3057C25.3317 42.5123 38.665 39.8667 39.9925 38.0738"
        fill="#A9CEE9" fill-rule="evenodd" />
    <path clip-rule="evenodd"
        d="M28.0036 1.09744L28.0747 0.812125L27.9985 1.09613L28.0036 1.09744L28.0747 0.812125L27.9985 1.09613L28.0014 1.09695C28.0188 1.10189 28.1088 1.12955 28.2285 1.18956C28.3183 1.23459 28.4247 1.29756 28.5316 1.38144C28.6923 1.50772 28.8527 1.67796 28.9758 1.9138C29.0984 2.15047 29.189 2.45612 29.1898 2.88254C29.1901 3.39884 29.0503 4.09609 28.6379 5.00975C28.2262 5.92292 27.5435 7.04872 26.4798 8.41291C25.5356 9.62465 24.8954 10.6585 24.4856 11.5551C24.0767 12.4513 23.8962 13.2141 23.8958 13.8767C23.8956 14.2074 23.9416 14.512 24.0263 14.787C24.1002 15.0275 24.2035 15.245 24.3269 15.437C24.5427 15.7736 24.8172 16.0302 25.0973 16.2231C25.5187 16.5126 25.9531 16.6654 26.2856 16.7526C26.6185 16.839 26.852 16.8581 26.876 16.8601C27.1827 16.8838 27.4505 16.6546 27.4743 16.3479C27.4981 16.0412 27.2688 15.7733 26.9621 15.7495L26.9384 16.0549L26.9643 15.7497L26.9621 15.7495L26.9384 16.0549L26.9643 15.7497L26.9589 15.7492C26.9286 15.7463 26.776 15.729 26.572 15.6762C26.4191 15.6368 26.2375 15.5774 26.057 15.4926C25.9215 15.4291 25.7869 15.3514 25.6636 15.2587C25.478 15.119 25.3193 14.9487 25.2035 14.7316C25.0883 14.5137 25.0104 14.2447 25.0095 13.8767C25.009 13.4208 25.1369 12.8095 25.4988 12.0178C25.8597 11.2266 26.4528 10.2589 27.3583 9.09765C28.4618 7.68151 29.1928 6.48763 29.6532 5.46786C30.1128 4.44858 30.3032 3.59962 30.3036 2.88254C30.3042 2.32408 30.1848 1.84778 29.9956 1.46245C29.8543 1.17326 29.6756 0.936262 29.4898 0.747175C29.2106 0.463173 28.9173 0.285446 28.6907 0.175714C28.4637 0.066147 28.3014 0.0238349 28.2729 0.0166731C27.9744 -0.0577436 27.6722 0.123935 27.5979 0.422343C27.5235 0.720832 27.7052 1.02303 28.0036 1.09744"
        fill="#14443A" fill-rule="evenodd" />
    <path clip-rule="evenodd"
        d="M35.8593 5.5289L35.9245 5.26737L35.8496 5.52635L35.8593 5.5289L35.9245 5.26737L35.8496 5.52635L35.8558 5.52832C35.8718 5.53351 35.9164 5.54997 35.9695 5.57977C36.0095 5.602 36.0541 5.63164 36.0971 5.6686C36.1618 5.72466 36.222 5.79479 36.2694 5.89242C36.3162 5.99063 36.3538 6.11962 36.3544 6.31439C36.3548 6.56547 36.286 6.93006 36.0613 7.42776C35.8372 7.92497 35.4587 8.55158 34.8614 9.31732L34.8615 9.31724C34.3149 10.0185 33.9397 10.6218 33.6957 11.1554C33.4524 11.6884 33.3382 12.1558 33.3376 12.5779C33.3376 12.7883 33.367 12.9865 33.4227 13.1671C33.4713 13.3252 33.5397 13.4694 33.6214 13.5965C33.7644 13.8195 33.9453 13.988 34.1262 14.1125C34.3987 14.2994 34.6712 14.3943 34.8792 14.449C35.0874 14.5031 35.2334 14.5154 35.2574 14.5173C35.5641 14.5412 35.832 14.312 35.8559 14.0054C35.8797 13.6987 35.6505 13.4308 35.3439 13.4069L35.3223 13.6845L35.3479 13.4073L35.3439 13.4069L35.3223 13.6845L35.3479 13.4073C35.3478 13.4073 35.3306 13.4056 35.3003 13.4008C35.2473 13.3925 35.1555 13.3739 35.055 13.3399C34.9796 13.3145 34.8996 13.2804 34.8265 13.2383C34.7715 13.2067 34.7205 13.1708 34.6762 13.1312C34.6095 13.0712 34.5577 13.0055 34.5188 12.922C34.4804 12.838 34.452 12.7329 34.4515 12.5779C34.451 12.3626 34.5126 12.0469 34.7088 11.6182C34.904 11.1901 35.2319 10.653 35.7398 10.0023L35.7399 10.0021C36.377 9.18445 36.8039 8.48968 37.0766 7.88579C37.3486 7.28247 37.4679 6.76616 37.4683 6.31439C37.4688 5.96272 37.3926 5.65238 37.2682 5.39949C37.1755 5.20967 37.0576 5.05326 36.9356 4.9292C36.7519 4.74259 36.5612 4.62726 36.4132 4.55556C36.2647 4.48394 36.1572 4.45529 36.1287 4.44813C35.8302 4.37371 35.528 4.55539 35.4536 4.8538C35.3792 5.15229 35.5608 5.45448 35.8593 5.5289"
        fill="#14443A" fill-rule="evenodd" />
    <path clip-rule="evenodd"
        d="M16.2195 10.0151L16.2847 9.75361L16.2099 10.0126L16.2195 10.0151L16.2847 9.75361L16.2099 10.0126L16.2161 10.0146C16.232 10.0198 16.2766 10.0362 16.3297 10.066C16.3697 10.0883 16.4144 10.1179 16.4573 10.1549C16.522 10.211 16.5823 10.2811 16.6296 10.3788C16.6765 10.477 16.7141 10.6061 16.7148 10.801C16.7151 11.052 16.6463 11.4167 16.4215 11.9146C16.1975 12.4119 15.819 13.0386 15.2216 13.8045L15.2218 13.8044C14.6751 14.5057 14.3 15.1089 14.0559 15.6425C13.8127 16.1756 13.6985 16.6429 13.698 17.065C13.6979 17.2755 13.7273 17.4735 13.783 17.6542C13.8315 17.8123 13.9 17.9565 13.9817 18.0836C14.1247 18.3067 14.3057 18.4751 14.4865 18.5996C14.7589 18.7864 15.0315 18.8813 15.2394 18.9361C15.4477 18.9902 15.5936 19.0024 15.6177 19.0045C15.9243 19.0284 16.1923 18.7991 16.2161 18.4925C16.24 18.1858 16.0108 17.9179 15.7042 17.894L15.6826 18.1713L15.7082 17.8943L15.7041 17.894L15.6826 18.1713L15.7082 17.8943C15.7082 17.8943 15.6909 17.8927 15.6606 17.8879C15.6076 17.8795 15.5158 17.861 15.4153 17.827C15.3399 17.8016 15.2598 17.7676 15.1867 17.7254C15.1318 17.6938 15.0808 17.6578 15.0365 17.6182C14.9697 17.5583 14.918 17.4926 14.879 17.4091C14.8407 17.3251 14.8123 17.22 14.8118 17.065C14.8113 16.8497 14.8729 16.534 15.069 16.1054C15.2643 15.6772 15.5922 15.1402 16.1001 14.4894L16.1002 14.4893C16.7374 13.6714 17.1641 12.9765 17.4369 12.3725C17.7088 11.7691 17.8282 11.2527 17.8285 10.801C17.8292 10.4492 17.7529 10.1388 17.6285 9.8859C17.5357 9.69607 17.4178 9.53966 17.2958 9.41553C17.1122 9.22891 16.9215 9.11358 16.7734 9.0418C16.6249 8.97026 16.5174 8.94161 16.4889 8.93437C16.1905 8.86004 15.8882 9.04163 15.8139 9.34012C15.7394 9.63853 15.9211 9.94081 16.2195 10.0151"
        fill="#14443A" fill-rule="evenodd" />
    <path clip-rule="evenodd"
        d="M41.8968 37.9865C41.9101 37.9667 42.2345 37.4945 42.5621 36.7598C42.7259 36.3924 42.8904 35.959 43.0154 35.481C43.1401 35.0031 43.2256 34.4803 43.2258 33.9344C43.2258 33.6009 43.1937 33.2588 43.1176 32.9154C43.0041 32.4006 42.7901 31.883 42.4471 31.3997C42.1046 30.916 41.6353 30.469 41.0254 30.0827L40.7272 30.553L41.1185 30.9493L48.3606 23.7981L47.9692 23.4018L47.5178 23.728C47.8047 24.1254 48.1729 24.4287 48.5785 24.6295C48.9844 24.8306 49.427 24.9306 49.8694 24.9306C50.2379 24.9306 50.6068 24.8613 50.9551 24.7218C51.3033 24.5824 51.6308 24.3723 51.9129 24.0938C52.2049 23.8057 52.4223 23.4811 52.5639 23.1408C52.7059 22.8006 52.7722 22.446 52.7721 22.0993C52.772 21.7209 52.6941 21.3521 52.5536 21.0117C52.3428 20.5014 51.9924 20.0525 51.5372 19.7256C51.0829 19.399 50.518 19.1969 49.9032 19.1973C49.5883 19.1973 49.2619 19.2502 48.9351 19.3608L49.1135 19.8884L49.6398 20.0708C49.7522 19.7466 49.8062 19.4222 49.8061 19.1089C49.8063 18.7015 49.7149 18.3145 49.5553 17.9699C49.3153 17.4523 48.9264 17.0295 48.4597 16.7339C47.9927 16.4387 47.4439 16.2676 46.8729 16.2673C46.5246 16.2672 46.1684 16.332 45.8258 16.4714C45.4832 16.6105 45.1554 16.8244 44.8637 17.1127L44.8639 17.1126C44.5802 17.3924 44.3667 17.7175 44.2255 18.0627C44.0842 18.4081 44.0149 18.7733 44.0149 19.1367C44.0149 19.5955 44.1253 20.0524 44.3428 20.4658C44.5599 20.8789 44.8857 21.2482 45.3078 21.5253L45.6136 21.0598L45.2223 20.6636L37.9739 27.8226L38.3653 28.2189L38.4978 27.678C38.4693 27.6715 36.838 27.2721 34.6269 27.2716C33.5655 27.2716 32.3696 27.3638 31.1518 27.6417C30.2384 27.8501 29.3123 28.1632 28.4246 28.6228C27.0935 29.3113 25.8488 30.3353 24.8914 31.8061C23.9328 33.2763 23.2651 35.1833 23.0414 37.6195C23.0133 37.9258 23.2387 38.197 23.545 38.2251C23.8513 38.2534 24.1225 38.028 24.1506 37.7217C24.3383 35.6858 24.8469 34.1016 25.5512 32.863C26.0798 31.9339 26.7194 31.1968 27.4302 30.6061C28.4958 29.7213 29.7277 29.1656 30.9815 28.8309C32.2342 28.4963 33.5056 28.3852 34.6269 28.3853C35.6651 28.3853 36.574 28.4802 37.2194 28.5748C37.5421 28.622 37.799 28.6691 37.9734 28.704C38.0606 28.7214 38.1273 28.7358 38.1711 28.7456C38.1931 28.7505 38.2094 28.7543 38.2198 28.7568L38.2308 28.7593L38.233 28.7598L38.2491 28.6934L38.2328 28.7598H38.233L38.2491 28.6934L38.2328 28.7598C38.4208 28.8059 38.619 28.7512 38.7567 28.6152L46.005 21.456C46.1239 21.3386 46.1844 21.1711 46.1679 21.0048C46.1513 20.8385 46.0591 20.6861 45.9195 20.5944C45.6559 20.4209 45.4609 20.1982 45.3284 19.9471C45.1964 19.6963 45.1287 19.4167 45.1287 19.1367C45.1287 18.9148 45.171 18.6932 45.2565 18.4845C45.342 18.2756 45.4701 18.0794 45.6463 17.9053L45.6465 17.9051C45.8389 17.7154 46.0401 17.5869 46.2454 17.5032C46.4508 17.4197 46.6615 17.3813 46.8729 17.3811C47.1035 17.3811 47.3349 17.4278 47.5519 17.5152C47.8777 17.6457 48.1682 17.8686 48.3708 18.1449C48.4724 18.2831 48.5526 18.4342 48.6075 18.5952C48.6623 18.7564 48.6922 18.9272 48.6923 19.1089C48.6921 19.2953 48.6609 19.4937 48.5873 19.706C48.5175 19.9074 48.5682 20.1295 48.7183 20.2807C48.8684 20.432 49.0902 20.4842 49.2921 20.4159C49.5087 20.3427 49.7121 20.3113 49.9032 20.3112C50.1514 20.3113 50.3805 20.3642 50.5902 20.4587C50.9041 20.6 51.1741 20.8386 51.3632 21.1305C51.5526 21.422 51.6585 21.7626 51.6583 22.0993C51.6581 22.3056 51.6197 22.511 51.5359 22.7121C51.4519 22.9132 51.3225 23.1111 51.1303 23.3012C50.9554 23.4738 50.7554 23.6018 50.541 23.6878C50.3267 23.7736 50.098 23.8168 49.8694 23.8168C49.5948 23.8168 49.3213 23.7545 49.0732 23.6316C48.8249 23.5082 48.6014 23.3256 48.4206 23.0757C48.325 22.9434 48.178 22.8603 48.0153 22.8468C47.8527 22.8333 47.694 22.8908 47.5779 23.0055L40.3359 30.1567C40.2155 30.2756 40.1555 30.4443 40.1735 30.6125C40.1915 30.7806 40.2862 30.9328 40.429 31.0233C40.7633 31.2353 41.0323 31.4599 41.2496 31.6914C41.5752 32.0388 41.7861 32.4014 41.921 32.7767C42.0552 33.1516 42.1119 33.5413 42.112 33.9344C42.1122 34.3628 42.0438 34.7941 41.9378 35.1994C41.7791 35.8075 41.536 36.3554 41.3332 36.7457C41.2319 36.9409 41.1409 37.0969 41.0765 37.2022C41.0443 37.2548 41.0187 37.2948 41.0019 37.3207C40.9935 37.3337 40.9872 37.3431 40.9833 37.3488L40.9795 37.3547L40.9793 37.3548C40.8049 37.6081 40.8689 37.9549 41.1222 38.1293C41.3756 38.3037 41.7223 38.2398 41.8968 37.9865"
        fill="#14443A" fill-rule="evenodd" />
    <mask style="mask-type:alpha" height="8" id="mask0_100_1364" maskUnits="userSpaceOnUse"
        width="9" x="26" y="29">
        <path clip-rule="evenodd" d="M26.3406 29.9139H34.0941V36.7094H26.3406V29.9139Z" fill="white"
            fill-rule="evenodd" />
    </mask>
    <g mask="url(#mask0_100_1364)">
        <path clip-rule="evenodd"
            d="M26.8203 36.7094C26.7667 36.7094 26.7122 36.7004 26.6589 36.6814C26.4707 36.6142 26.3503 36.4415 26.3406 36.2537V36.2046C26.343 36.159 26.3519 36.113 26.3681 36.0677C26.8365 34.7535 27.5214 33.7053 28.2819 32.8809C29.0425 32.0561 29.8773 31.4537 30.6506 31.0169C32.198 30.1439 33.4999 29.9266 33.5357 29.9199C33.5543 29.9168 33.5728 29.9148 33.5912 29.9139H33.6387C33.8594 29.9249 34.0504 30.088 34.0881 30.315C34.0913 30.334 34.0933 30.3529 34.0941 30.3718V30.4168C34.0838 30.6379 33.9206 30.8293 33.6937 30.8673H33.6936L33.6935 30.8674C33.6933 30.8674 33.6933 30.8674 33.6932 30.8674L33.6901 30.8679C33.6864 30.8685 33.6802 30.8697 33.6714 30.8714C33.6539 30.8746 33.6263 30.88 33.5896 30.8879C33.516 30.9037 33.4058 30.9291 33.2657 30.967C32.9855 31.0427 32.5859 31.168 32.1216 31.3633C31.1923 31.7541 30.0083 32.4246 28.988 33.532C28.3073 34.2707 27.6966 35.2029 27.2727 36.3904C27.2025 36.5869 27.0176 36.7094 26.8203 36.7094"
            fill="#418ABF" fill-rule="evenodd" />
    </g>
    <path clip-rule="evenodd"
        d="M0.55689 49.6667H54.4431C54.7507 49.6667 55 49.4174 55 49.1097C55 48.8022 54.7507 48.5529 54.4431 48.5529H0.55689C0.249345 48.5529 0 48.8022 0 49.1097C0 49.4174 0.249345 49.6667 0.55689 49.6667"
        fill="#14443A" fill-rule="evenodd" />
</svg>
