<svg fill="none" height="51" viewBox="0 0 43 51" width="43" xmlns="http://www.w3.org/2000/svg">
    <path clip-rule="evenodd" d="M2.16077 50.2704H25.2798V16.6112H2.16077V50.2704Z" fill="#A9CEE9"
        fill-rule="evenodd" />
    <path clip-rule="evenodd" d="M2.16077 16.6112H25.2782L31.2672 7.87848H9.71203L2.16077 16.6112Z"
        fill="#85B7DC" fill-rule="evenodd" />
    <path clip-rule="evenodd"
        d="M25.2795 50.2704V17.1804L31.7988 7.87933L38.923 16.9384V50.2704H25.2795Z" fill="#85B7DC"
        fill-rule="evenodd" />
    <path clip-rule="evenodd" d="M9.49841 7.8785H31.5855V1.50702H9.49841V7.8785Z" fill="#418ABF"
        fill-rule="evenodd" />
    <path clip-rule="evenodd"
        d="M3.11952 50.2703H3.66841V15.8577L11.0865 7.28007C11.1726 7.1802 11.2205 7.05191 11.2205 6.92037V1.09859H32.2065V6.92037C32.2065 7.04298 32.2487 7.16396 32.3243 7.25977L39.3315 16.1695V49.7206H3.11952V50.2703H3.66841H3.11952V50.8192H39.8804C40.0249 50.8192 40.167 50.7608 40.2693 50.6584C40.3716 50.5561 40.4301 50.4149 40.4301 50.2703V15.9795C40.4301 15.8568 40.3879 15.7359 40.3124 15.6392L33.3051 6.73037V0.548888C33.3051 0.404358 33.2466 0.263076 33.1443 0.160769C33.042 0.0584614 32.9007 0 32.7562 0H10.6708C10.5263 0 10.385 0.0584614 10.2827 0.160769C10.1804 0.263076 10.1219 0.404358 10.1219 0.548888V6.71576L2.7038 15.2933C2.61773 15.3932 2.56982 15.5215 2.56982 15.653V50.2703C2.56982 50.4149 2.62829 50.5561 2.73059 50.6584C2.8329 50.7608 2.97418 50.8192 3.11952 50.8192V50.2703Z"
        fill="#14443A" fill-rule="evenodd" />
    <path clip-rule="evenodd"
        d="M10.6692 7.47005H32.7563C33.06 7.47005 33.3052 7.22402 33.3052 6.92035C33.3052 6.61749 33.06 6.37146 32.7563 6.37146H10.6692C10.3664 6.37146 10.1204 6.61749 10.1204 6.92035C10.1204 7.22402 10.3664 7.47005 10.6692 7.47005Z"
        fill="#14443A" fill-rule="evenodd" />
    <path clip-rule="evenodd"
        d="M26.7867 50.2703V16.3952L33.2061 7.2362C33.3798 6.98774 33.3198 6.64509 33.0713 6.47052C32.8228 6.29676 32.4802 6.35684 32.3064 6.60531L25.7872 15.9072C25.723 15.9989 25.6881 16.1093 25.6881 16.2222V50.2703C25.6881 50.5732 25.9333 50.8192 26.237 50.8192C26.5407 50.8192 26.7867 50.5732 26.7867 50.2703Z"
        fill="#14443A" fill-rule="evenodd" />
    <path clip-rule="evenodd"
        d="M3.11952 16.202H19.4887C19.7916 16.202 20.0376 15.956 20.0376 15.6523C20.0376 15.3486 19.7916 15.1034 19.4887 15.1034H3.11952C2.81585 15.1034 2.56982 15.3486 2.56982 15.6523C2.56982 15.956 2.81585 16.202 3.11952 16.202Z"
        fill="#14443A" fill-rule="evenodd" />
    <path clip-rule="evenodd"
        d="M0.548888 50.8192H42.4511C42.754 50.8192 43 50.5732 43 50.2703C43 49.9667 42.754 49.7206 42.4511 49.7206H0.548888C0.245213 49.7206 0 49.9667 0 50.2703C0 50.5732 0.245213 50.8192 0.548888 50.8192Z"
        fill="#14443A" fill-rule="evenodd" />
</svg>
