<svg fill="none" height="96" viewBox="0 0 80 96" width="80" xmlns="http://www.w3.org/2000/svg">
    <path clip-rule="evenodd"
        d="M27.8252 69.0389C12.3408 70.9303 4.00008 75.9359 4.00008 79.7881C4.00008 82.3968 7.66291 85.2528 13.7981 87.4273C20.7663 89.8972 30.0716 91.2576 39.9999 91.2576C49.9282 91.2576 59.2335 89.8972 66.2011 87.4273C72.3369 85.2528 75.9997 82.3968 75.9997 79.7881C75.9997 75.646 66.4587 70.4937 50.4239 68.8416C49.8155 69.6454 49.1975 70.4578 48.5721 71.2756C53.9466 72.0118 61.9494 73.8995 61.9494 78.6092C61.9494 81.2209 59.5015 83.2682 54.6731 84.6944C50.7265 85.8605 45.5151 86.5023 39.9999 86.5023C34.4847 86.5023 29.2733 85.8605 25.3267 84.6944C20.4983 83.2682 18.0504 81.2209 18.0504 78.6092C18.0504 74.3325 24.6946 72.3894 29.7233 71.5313C29.0821 70.6928 28.4481 69.8604 27.8252 69.0389ZM40 95.2578C29.6278 95.2578 19.8481 93.8158 12.4621 91.1973C4.30953 88.3079 0 84.3625 0 79.7881C0 77.1647 1.51019 73.3229 8.70309 69.917C13.7525 67.5257 20.6026 65.8024 28.5116 64.9328C29.2113 64.8561 29.9018 65.1526 30.3262 65.7153C31.8255 67.6998 33.396 69.755 34.9932 71.8249C35.4365 72.3991 35.534 73.1688 35.2484 73.8356C34.9622 74.5018 34.3374 74.9616 33.6158 75.0365C25.5959 75.8658 22.4099 77.89 22.0646 78.6085C22.2528 78.9776 23.4543 80.0542 27.0623 81.0285C30.5808 81.9791 35.1759 82.5028 40 82.5028C44.8241 82.5028 49.4192 81.9791 52.9377 81.0285C56.5397 80.0554 57.7435 78.9812 57.9348 78.6104C57.7789 78.3181 56.9129 77.4875 54.4236 76.641C51.9037 75.7842 48.4382 75.1607 44.6652 74.8848C43.9314 74.8306 43.2859 74.3782 42.9851 73.7059C42.6849 73.0336 42.778 72.2511 43.228 71.6684C44.8247 69.5985 46.3994 67.5354 47.9072 65.5381C48.3243 64.9851 48.9966 64.6892 49.6853 64.7513C57.9116 65.5021 65.3816 67.2419 70.7196 69.6503C78.3893 73.1103 80 77.0728 80 79.7881C80 84.3625 75.6905 88.3079 67.5379 91.1973C60.1519 93.8158 50.3722 95.2578 40 95.2578Z"
        fill="#E9E9E9" fill-rule="evenodd" />
    <path clip-rule="evenodd"
        d="M22.065 78.6085C22.2532 78.9776 23.4553 80.0542 27.0627 81.0285C30.5812 81.9791 35.1763 82.5028 40.0004 82.5028C44.8245 82.5028 49.4196 81.9791 52.9381 81.0285C56.54 80.0554 57.7439 78.9812 57.9351 78.6104C57.7793 78.3181 56.9133 77.4875 54.424 76.641C52.1428 75.8658 49.0871 75.2812 45.73 74.9725C42.7224 78.8594 40.6367 81.4779 40.6142 81.5059C40.2348 81.9821 39.6588 82.2592 39.0504 82.2592C38.4415 82.2592 37.8654 81.9821 37.486 81.5059C37.4647 81.4785 35.4455 78.9429 32.517 75.1607C25.3028 76.0528 22.3945 77.9241 22.065 78.6085ZM40.0001 86.5023C34.4849 86.5023 29.2735 85.8605 25.3269 84.6943C20.4986 83.2682 18.0506 81.2209 18.0506 78.6091C18.0506 73.2077 28.6481 71.5289 33.2043 71.0575C33.8948 70.9869 34.5702 71.2768 34.9934 71.8248C36.6461 73.9659 38.0558 75.7684 39.0502 77.0331C40.0683 75.7379 41.5225 73.8782 43.2282 71.6683C43.638 71.1367 44.2871 70.8468 44.9576 70.8956C48.9438 71.1866 61.9497 72.6049 61.9497 78.6091C61.9497 81.2209 59.5017 83.2682 54.6734 84.6943C50.7268 85.8605 45.5154 86.5023 40.0001 86.5023Z"
        fill="#E9E9E9" fill-rule="evenodd" />
    <path clip-rule="evenodd"
        d="M11.7991 37.6756C12.1438 39.1968 14.649 44.9599 30.3264 65.7153C31.8262 67.6998 33.3961 69.7556 34.9934 71.8249C36.6461 73.9659 38.0558 75.7684 39.0502 77.0332C40.0684 75.7379 41.5225 73.8782 43.2282 71.6683C44.8248 69.5985 46.3996 67.5354 47.9073 65.5381C63.4684 44.9239 65.9578 39.1907 66.3012 37.6756L66.5004 36.7001C66.8042 35.0517 66.9583 33.3649 66.9583 31.6842C66.9583 16.4191 54.4389 4.00016 39.0502 4.00016C23.6615 4.00016 11.1421 16.4191 11.1421 31.6842C11.1421 33.3661 11.2961 35.0535 11.6 36.7007L11.7991 37.6756ZM39.0501 82.2592C38.4412 82.2592 37.8651 81.9821 37.4857 81.5059C37.4626 81.4767 35.1236 78.5391 31.8268 74.2692C30.221 72.189 28.6426 70.1222 27.1348 68.1261C15.2238 52.3574 8.74947 42.3993 7.89085 38.5276C7.88842 38.5166 7.88598 38.505 7.88354 38.4947L7.67711 37.4814C7.67468 37.4698 7.67224 37.4576 7.6698 37.4461C7.31966 35.5535 7.14185 33.6152 7.14185 31.6842C7.14185 14.2135 21.4558 0 39.0501 0C56.6445 0 70.9584 14.2135 70.9584 31.6842C70.9584 33.614 70.7806 35.5528 70.4305 37.4455C70.428 37.4576 70.4256 37.4698 70.4232 37.4814L70.2167 38.4947C70.2143 38.505 70.2119 38.5166 70.2094 38.5276C69.3545 42.384 62.9246 52.2825 51.1 67.9477C49.5837 69.9572 48.0005 72.0307 46.3947 74.1115C43.0333 78.4685 40.6377 81.4761 40.6139 81.5059C40.2345 81.9821 39.6585 82.2592 39.0501 82.2592Z"
        fill="#E9E9E9" fill-rule="evenodd" />
    <path clip-rule="evenodd"
        d="M39.0504 20.1915C33.4067 20.1915 28.8152 24.7422 28.8152 30.3354C28.8152 35.9286 33.4067 40.4793 39.0504 40.4793C44.6941 40.4793 49.2856 35.9286 49.2856 30.3354C49.2856 24.7422 44.6941 20.1915 39.0504 20.1915ZM39.0503 44.4788C31.2009 44.4788 24.8149 38.1341 24.8149 30.3353C24.8149 22.5365 31.2009 16.1919 39.0503 16.1919C46.8996 16.1919 53.285 22.5365 53.285 30.3353C53.285 38.1341 46.8996 44.4788 39.0503 44.4788Z"
        fill="#E9E9E9" fill-rule="evenodd" />
    <path clip-rule="evenodd"
        d="M39.0504 20.1915C33.4067 20.1915 28.8152 24.7422 28.8152 30.3354C28.8152 35.9286 33.4067 40.4793 39.0504 40.4793C44.6941 40.4793 49.2856 35.9286 49.2856 30.3354C49.2856 24.7422 44.6941 20.1915 39.0504 20.1915ZM39.0503 44.4788C31.2009 44.4788 24.8149 38.1341 24.8149 30.3353C24.8149 22.5365 31.2009 16.1919 39.0503 16.1919C46.8996 16.1919 53.285 22.5365 53.285 30.3353C53.285 38.1341 46.8996 44.4788 39.0503 44.4788Z"
        fill="#E9E9E9" fill-rule="evenodd" />
</svg>
