<svg fill="none" height="133" viewBox="0 0 165 133" width="165" xmlns="http://www.w3.org/2000/svg">
    <path clip-rule="evenodd"
        d="M89.918 0.131143C97.9778 -0.758849 104.928 2.91299 108.379 10.1733C117.174 28.6432 120.589 20.5673 131.367 30.6643C148.093 46.344 121.443 55.2357 129.604 73.4553C134.607 84.6193 127.364 106.53 110.646 100.558C91.5886 93.7433 89.0184 104.109 73.0811 103.822C54.5649 103.498 53.3619 90.7203 48.9923 82.8209C44.3561 74.4384 28.7042 74.0213 27.0882 60.317C25.8122 49.45 38.8756 48.0031 34.2122 24.6651C31.6234 11.6843 45.0358 -1.10171 57.6122 2.43992C77.1573 7.93858 77.1756 1.54077 89.918 0.131143Z"
        fill="white" fill-rule="evenodd" />
    <path clip-rule="evenodd"
        d="M69.8252 73.0389C54.3408 74.9303 46.0001 79.9359 46.0001 83.7881C46.0001 86.3968 49.6629 89.2528 55.7981 91.4273C62.7663 93.8972 72.0716 95.2576 81.9999 95.2576C91.9282 95.2576 101.234 93.8972 108.201 91.4273C114.337 89.2528 118 86.3968 118 83.7881C118 79.646 108.459 74.4937 92.4239 72.8416C91.8155 73.6454 91.1975 74.4578 90.5721 75.2756C95.9466 76.0118 103.949 77.8995 103.949 82.6092C103.949 85.2209 101.501 87.2682 96.6731 88.6944C92.7265 89.8605 87.5151 90.5023 81.9999 90.5023C76.4847 90.5023 71.2733 89.8605 67.3267 88.6944C62.4983 87.2682 60.0504 85.2209 60.0504 82.6092C60.0504 78.3325 66.6946 76.3894 71.7233 75.5313C71.0821 74.6928 70.4481 73.8604 69.8252 73.0389ZM82 99.2578C71.6278 99.2578 61.8481 97.8158 54.4621 95.1973C46.3095 92.3079 42 88.3625 42 83.7881C42 81.1647 43.5102 77.3229 50.7031 73.917C55.7525 71.5257 62.6026 69.8024 70.5116 68.9328C71.2113 68.8561 71.9018 69.1526 72.3262 69.7153C73.8255 71.6998 75.396 73.755 76.9932 75.8249C77.4365 76.3991 77.534 77.1688 77.2484 77.8356C76.9622 78.5018 76.3374 78.9616 75.6158 79.0365C67.5959 79.8658 64.4099 81.89 64.0646 82.6085C64.2528 82.9776 65.4543 84.0542 69.0623 85.0285C72.5808 85.9791 77.1759 86.5028 82 86.5028C86.8241 86.5028 91.4192 85.9791 94.9377 85.0285C98.5397 84.0554 99.7435 82.9812 99.9348 82.6104C99.7789 82.3181 98.9129 81.4875 96.4236 80.641C93.9037 79.7842 90.4382 79.1607 86.6652 78.8848C85.9314 78.8306 85.2859 78.3782 84.9851 77.7059C84.6849 77.0336 84.778 76.2511 85.228 75.6684C86.8247 73.5985 88.3994 71.5354 89.9072 69.5381C90.3243 68.9851 90.9966 68.6892 91.6853 68.7513C99.9116 69.5021 107.382 71.2419 112.72 73.6503C120.389 77.1103 122 81.0728 122 83.7881C122 88.3625 117.69 92.3079 109.538 95.1973C102.152 97.8158 92.3722 99.2578 82 99.2578Z"
        fill="#E9E9E9" fill-rule="evenodd" />
    <path clip-rule="evenodd"
        d="M64.065 82.6085C64.2532 82.9776 65.4553 84.0542 69.0627 85.0285C72.5812 85.9791 77.1763 86.5028 82.0004 86.5028C86.8245 86.5028 91.4196 85.9791 94.9381 85.0285C98.54 84.0554 99.7439 82.9812 99.9351 82.6104C99.7793 82.3181 98.9133 81.4875 96.424 80.641C94.1428 79.8658 91.0871 79.2812 87.73 78.9725C84.7224 82.8594 82.6367 85.4779 82.6142 85.5059C82.2348 85.9821 81.6588 86.2592 81.0504 86.2592C80.4415 86.2592 79.8654 85.9821 79.486 85.5059C79.4647 85.4785 77.4455 82.9429 74.517 79.1607C67.3028 80.0528 64.3945 81.9241 64.065 82.6085ZM82.0001 90.5023C76.4849 90.5023 71.2735 89.8605 67.3269 88.6943C62.4986 87.2682 60.0506 85.2209 60.0506 82.6091C60.0506 77.2077 70.6481 75.5289 75.2043 75.0575C75.8948 74.9869 76.5702 75.2768 76.9934 75.8248C78.6461 77.9659 80.0558 79.7684 81.0502 81.0331C82.0683 79.7379 83.5225 77.8782 85.2282 75.6683C85.638 75.1367 86.2871 74.8468 86.9576 74.8956C90.9438 75.1866 103.95 76.6049 103.95 82.6091C103.95 85.2209 101.502 87.2682 96.6734 88.6943C92.7268 89.8605 87.5154 90.5023 82.0001 90.5023Z"
        fill="#E9E9E9" fill-rule="evenodd" />
    <path clip-rule="evenodd"
        d="M53.7991 41.6756C54.1438 43.1968 56.649 48.9599 72.3264 69.7153C73.8262 71.6998 75.3961 73.7556 76.9934 75.8249C78.6461 77.9659 80.0558 79.7684 81.0502 81.0332C82.0684 79.7379 83.5225 77.8782 85.2282 75.6683C86.8248 73.5985 88.3996 71.5354 89.9073 69.5381C105.468 48.9239 107.958 43.1907 108.301 41.6756L108.5 40.7001C108.804 39.0517 108.958 37.3649 108.958 35.6842C108.958 20.4191 96.4389 8.00016 81.0502 8.00016C65.6615 8.00016 53.1421 20.4191 53.1421 35.6842C53.1421 37.3661 53.2961 39.0535 53.6 40.7007L53.7991 41.6756ZM81.0501 86.2592C80.4412 86.2592 79.8651 85.9821 79.4857 85.5059C79.4626 85.4767 77.1236 82.5391 73.8268 78.2692C72.221 76.189 70.6426 74.1222 69.1348 72.1261C57.2238 56.3574 50.7495 46.3993 49.8909 42.5276C49.8884 42.5166 49.886 42.505 49.8835 42.4947L49.6771 41.4814C49.6747 41.4698 49.6722 41.4576 49.6698 41.4461C49.3197 39.5535 49.1418 37.6152 49.1418 35.6842C49.1418 18.2135 63.4558 4 81.0501 4C98.6445 4 112.958 18.2135 112.958 35.6842C112.958 37.614 112.781 39.5528 112.43 41.4455C112.428 41.4576 112.426 41.4698 112.423 41.4814L112.217 42.4947C112.214 42.505 112.212 42.5166 112.209 42.5276C111.354 46.384 104.925 56.2825 93.1 71.9477C91.5837 73.9572 90.0005 76.0307 88.3947 78.1115C85.0333 82.4685 82.6377 85.4761 82.6139 85.5059C82.2345 85.9821 81.6585 86.2592 81.0501 86.2592Z"
        fill="#E9E9E9" fill-rule="evenodd" />
    <path clip-rule="evenodd"
        d="M81.0504 24.1915C75.4067 24.1915 70.8152 28.7422 70.8152 34.3354C70.8152 39.9286 75.4067 44.4793 81.0504 44.4793C86.6941 44.4793 91.2856 39.9286 91.2856 34.3354C91.2856 28.7422 86.6941 24.1915 81.0504 24.1915ZM81.0503 48.4788C73.2009 48.4788 66.8149 42.1341 66.8149 34.3353C66.8149 26.5365 73.2009 20.1919 81.0503 20.1919C88.8996 20.1919 95.285 26.5365 95.285 34.3353C95.285 42.1341 88.8996 48.4788 81.0503 48.4788Z"
        fill="#E9E9E9" fill-rule="evenodd" />
    <path clip-rule="evenodd"
        d="M81.0504 24.1915C75.4067 24.1915 70.8152 28.7422 70.8152 34.3354C70.8152 39.9286 75.4067 44.4793 81.0504 44.4793C86.6941 44.4793 91.2856 39.9286 91.2856 34.3354C91.2856 28.7422 86.6941 24.1915 81.0504 24.1915ZM81.0503 48.4788C73.2009 48.4788 66.8149 42.1341 66.8149 34.3353C66.8149 26.5365 73.2009 20.1919 81.0503 20.1919C88.8996 20.1919 95.285 26.5365 95.285 34.3353C95.285 42.1341 88.8996 48.4788 81.0503 48.4788Z"
        fill="#E9E9E9" fill-rule="evenodd" />
    <path
        d="M8.98502 127H7.71102L2.58702 119.202V127H1.31302V117.13H2.58702L7.71102 124.942V117.13H8.98502V127ZM14.5197 119.216C15.2571 119.216 15.9151 119.375 16.4937 119.692C17.0817 120.009 17.5391 120.467 17.8657 121.064C18.2017 121.661 18.3697 122.361 18.3697 123.164C18.3697 123.967 18.2017 124.667 17.8657 125.264C17.5391 125.852 17.0817 126.305 16.4937 126.622C15.9151 126.939 15.2571 127.098 14.5197 127.098C13.7824 127.098 13.1197 126.939 12.5317 126.622C11.9531 126.305 11.4957 125.852 11.1597 125.264C10.8237 124.667 10.6557 123.967 10.6557 123.164C10.6557 122.361 10.8237 121.661 11.1597 121.064C11.4957 120.467 11.9531 120.009 12.5317 119.692C13.1197 119.375 13.7824 119.216 14.5197 119.216ZM14.5197 120.336C14.0624 120.336 13.6377 120.439 13.2457 120.644C12.8631 120.849 12.5504 121.167 12.3077 121.596C12.0744 122.016 11.9577 122.539 11.9577 123.164C11.9577 123.78 12.0744 124.303 12.3077 124.732C12.5504 125.152 12.8631 125.465 13.2457 125.67C13.6377 125.875 14.0624 125.978 14.5197 125.978C14.9771 125.978 15.3971 125.875 15.7797 125.67C16.1717 125.465 16.4844 125.152 16.7177 124.732C16.9604 124.303 17.0817 123.78 17.0817 123.164C17.0817 122.539 16.9604 122.016 16.7177 121.596C16.4844 121.167 16.1717 120.849 15.7797 120.644C15.3971 120.439 14.9771 120.336 14.5197 120.336ZM26.6388 119.216C27.3855 119.216 28.0155 119.403 28.5288 119.776C29.0515 120.149 29.4155 120.649 29.6208 121.274V119.314H30.8948V127H29.6208V125.04C29.4155 125.665 29.0515 126.165 28.5288 126.538C28.0155 126.911 27.3855 127.098 26.6388 127.098C25.9575 127.098 25.3508 126.939 24.8188 126.622C24.2868 126.305 23.8668 125.852 23.5588 125.264C23.2601 124.667 23.1108 123.967 23.1108 123.164C23.1108 122.361 23.2601 121.661 23.5588 121.064C23.8668 120.467 24.2868 120.009 24.8188 119.692C25.3508 119.375 25.9575 119.216 26.6388 119.216ZM27.0028 120.35C26.2188 120.35 25.5888 120.602 25.1128 121.106C24.6461 121.601 24.4128 122.287 24.4128 123.164C24.4128 124.041 24.6461 124.732 25.1128 125.236C25.5888 125.731 26.2188 125.978 27.0028 125.978C27.5068 125.978 27.9548 125.861 28.3468 125.628C28.7481 125.395 29.0608 125.068 29.2848 124.648C29.5088 124.219 29.6208 123.724 29.6208 123.164C29.6208 122.604 29.5088 122.109 29.2848 121.68C29.0608 121.251 28.7481 120.924 28.3468 120.7C27.9548 120.467 27.5068 120.35 27.0028 120.35ZM36.0724 119.216C36.8191 119.216 37.4491 119.403 37.9624 119.776C38.4851 120.149 38.8491 120.649 39.0544 121.274V116.64H40.3284V127H39.0544V125.04C38.8491 125.665 38.4851 126.165 37.9624 126.538C37.4491 126.911 36.8191 127.098 36.0724 127.098C35.3911 127.098 34.7844 126.939 34.2524 126.622C33.7204 126.305 33.3004 125.852 32.9924 125.264C32.6937 124.667 32.5444 123.967 32.5444 123.164C32.5444 122.361 32.6937 121.661 32.9924 121.064C33.3004 120.467 33.7204 120.009 34.2524 119.692C34.7844 119.375 35.3911 119.216 36.0724 119.216ZM36.4364 120.35C35.6524 120.35 35.0224 120.602 34.5464 121.106C34.0797 121.601 33.8464 122.287 33.8464 123.164C33.8464 124.041 34.0797 124.732 34.5464 125.236C35.0224 125.731 35.6524 125.978 36.4364 125.978C36.9404 125.978 37.3884 125.861 37.7804 125.628C38.1817 125.395 38.4944 125.068 38.7184 124.648C38.9424 124.219 39.0544 123.724 39.0544 123.164C39.0544 122.604 38.9424 122.109 38.7184 121.68C38.4944 121.251 38.1817 120.924 37.7804 120.7C37.3884 120.467 36.9404 120.35 36.4364 120.35ZM45.506 119.216C46.2527 119.216 46.8827 119.403 47.396 119.776C47.9187 120.149 48.2827 120.649 48.488 121.274V116.64H49.762V127H48.488V125.04C48.2827 125.665 47.9187 126.165 47.396 126.538C46.8827 126.911 46.2527 127.098 45.506 127.098C44.8247 127.098 44.218 126.939 43.686 126.622C43.154 126.305 42.734 125.852 42.426 125.264C42.1273 124.667 41.978 123.967 41.978 123.164C41.978 122.361 42.1273 121.661 42.426 121.064C42.734 120.467 43.154 120.009 43.686 119.692C44.218 119.375 44.8247 119.216 45.506 119.216ZM45.87 120.35C45.086 120.35 44.456 120.602 43.98 121.106C43.5133 121.601 43.28 122.287 43.28 123.164C43.28 124.041 43.5133 124.732 43.98 125.236C44.456 125.731 45.086 125.978 45.87 125.978C46.374 125.978 46.822 125.861 47.214 125.628C47.6153 125.395 47.928 125.068 48.152 124.648C48.376 124.219 48.488 123.724 48.488 123.164C48.488 122.604 48.376 122.109 48.152 121.68C47.928 121.251 47.6153 120.924 47.214 120.7C46.822 120.467 46.374 120.35 45.87 120.35ZM53.0636 120.868C53.3156 120.336 53.6842 119.925 54.1696 119.636C54.6549 119.337 55.2336 119.188 55.9056 119.188V120.574H55.5136C54.7949 120.574 54.2069 120.761 53.7496 121.134C53.2922 121.498 53.0636 122.105 53.0636 122.954V127H51.7896V119.314H53.0636V120.868ZM64.2326 122.73C64.2326 123.001 64.214 123.234 64.1766 123.43H58.0306C58.0586 124.307 58.306 124.965 58.7726 125.404C59.2486 125.843 59.8273 126.062 60.5086 126.062C61.1246 126.062 61.638 125.908 62.0486 125.6C62.4686 125.283 62.7253 124.863 62.8186 124.34H64.1766C64.0833 124.872 63.8733 125.348 63.5466 125.768C63.2293 126.188 62.814 126.515 62.3006 126.748C61.7873 126.981 61.2086 127.098 60.5646 127.098C59.8273 127.098 59.174 126.939 58.6046 126.622C58.0353 126.305 57.5873 125.852 57.2606 125.264C56.9433 124.667 56.7846 123.967 56.7846 123.164C56.7846 122.361 56.9433 121.661 57.2606 121.064C57.5873 120.467 58.0353 120.009 58.6046 119.692C59.174 119.375 59.8273 119.216 60.5646 119.216C61.3113 119.216 61.96 119.375 62.5106 119.692C63.0706 120.009 63.4953 120.434 63.7846 120.966C64.0833 121.498 64.2326 122.086 64.2326 122.73ZM62.9446 122.814C62.9726 122.245 62.8793 121.769 62.6646 121.386C62.45 121.003 62.156 120.719 61.7826 120.532C61.4093 120.345 61.0033 120.252 60.5646 120.252C59.8646 120.252 59.2766 120.471 58.8006 120.91C58.3246 121.339 58.068 121.974 58.0306 122.814H62.9446ZM68.307 119.216C69.175 119.216 69.8703 119.445 70.393 119.902C70.925 120.35 71.247 120.957 71.359 121.722H70.141C70.085 121.265 69.8936 120.891 69.567 120.602C69.2496 120.303 68.8203 120.154 68.279 120.154C67.8216 120.154 67.4623 120.266 67.201 120.49C66.949 120.705 66.823 120.999 66.823 121.372C66.823 121.652 66.907 121.881 67.075 122.058C67.2523 122.226 67.467 122.357 67.719 122.45C67.9803 122.534 68.335 122.627 68.783 122.73C69.3523 122.861 69.8096 122.996 70.155 123.136C70.5096 123.267 70.8083 123.481 71.051 123.78C71.303 124.079 71.429 124.48 71.429 124.984C71.429 125.609 71.191 126.118 70.715 126.51C70.2483 126.902 69.623 127.098 68.839 127.098C67.9243 127.098 67.1776 126.879 66.599 126.44C66.0203 126.001 65.6796 125.39 65.577 124.606H66.809C66.8556 125.073 67.0563 125.451 67.411 125.74C67.775 126.029 68.251 126.174 68.839 126.174C69.2776 126.174 69.6183 126.062 69.861 125.838C70.113 125.614 70.239 125.32 70.239 124.956C70.239 124.657 70.1503 124.419 69.973 124.242C69.7956 124.065 69.5763 123.929 69.315 123.836C69.0536 123.743 68.6943 123.645 68.237 123.542C67.6676 123.411 67.2103 123.281 66.865 123.15C66.529 123.019 66.2396 122.814 65.997 122.534C65.7636 122.245 65.647 121.857 65.647 121.372C65.647 120.728 65.885 120.21 66.361 119.818C66.837 119.417 67.4856 119.216 68.307 119.216ZM75.5394 119.216C76.4074 119.216 77.1027 119.445 77.6254 119.902C78.1574 120.35 78.4794 120.957 78.5914 121.722H77.3734C77.3174 121.265 77.126 120.891 76.7994 120.602C76.482 120.303 76.0527 120.154 75.5114 120.154C75.054 120.154 74.6947 120.266 74.4334 120.49C74.1814 120.705 74.0554 120.999 74.0554 121.372C74.0554 121.652 74.1394 121.881 74.3074 122.058C74.4847 122.226 74.6994 122.357 74.9514 122.45C75.2127 122.534 75.5674 122.627 76.0154 122.73C76.5847 122.861 77.042 122.996 77.3874 123.136C77.742 123.267 78.0407 123.481 78.2834 123.78C78.5354 124.079 78.6614 124.48 78.6614 124.984C78.6614 125.609 78.4234 126.118 77.9474 126.51C77.4807 126.902 76.8554 127.098 76.0714 127.098C75.1567 127.098 74.41 126.879 73.8314 126.44C73.2527 126.001 72.912 125.39 72.8094 124.606H74.0414C74.088 125.073 74.2887 125.451 74.6434 125.74C75.0074 126.029 75.4834 126.174 76.0714 126.174C76.51 126.174 76.8507 126.062 77.0934 125.838C77.3454 125.614 77.4714 125.32 77.4714 124.956C77.4714 124.657 77.3827 124.419 77.2054 124.242C77.028 124.065 76.8087 123.929 76.5474 123.836C76.286 123.743 75.9267 123.645 75.4694 123.542C74.9 123.411 74.4427 123.281 74.0974 123.15C73.7614 123.019 73.472 122.814 73.2294 122.534C72.996 122.245 72.8794 121.857 72.8794 121.372C72.8794 120.728 73.1174 120.21 73.5934 119.818C74.0694 119.417 74.718 119.216 75.5394 119.216ZM85.0968 120.868C85.3488 120.336 85.7174 119.925 86.2028 119.636C86.6881 119.337 87.2668 119.188 87.9388 119.188V120.574H87.5468C86.8281 120.574 86.2401 120.761 85.7828 121.134C85.3254 121.498 85.0968 122.105 85.0968 122.954V127H83.8228V119.314H85.0968V120.868ZM96.2658 122.73C96.2658 123.001 96.2472 123.234 96.2098 123.43H90.0638C90.0918 124.307 90.3392 124.965 90.8058 125.404C91.2818 125.843 91.8605 126.062 92.5418 126.062C93.1578 126.062 93.6712 125.908 94.0818 125.6C94.5018 125.283 94.7585 124.863 94.8518 124.34H96.2098C96.1165 124.872 95.9065 125.348 95.5798 125.768C95.2625 126.188 94.8472 126.515 94.3338 126.748C93.8205 126.981 93.2418 127.098 92.5978 127.098C91.8605 127.098 91.2072 126.939 90.6378 126.622C90.0685 126.305 89.6205 125.852 89.2938 125.264C88.9765 124.667 88.8178 123.967 88.8178 123.164C88.8178 122.361 88.9765 121.661 89.2938 121.064C89.6205 120.467 90.0685 120.009 90.6378 119.692C91.2072 119.375 91.8605 119.216 92.5978 119.216C93.3445 119.216 93.9932 119.375 94.5438 119.692C95.1038 120.009 95.5285 120.434 95.8178 120.966C96.1165 121.498 96.2658 122.086 96.2658 122.73ZM94.9778 122.814C95.0058 122.245 94.9125 121.769 94.6978 121.386C94.4832 121.003 94.1892 120.719 93.8158 120.532C93.4425 120.345 93.0365 120.252 92.5978 120.252C91.8978 120.252 91.3098 120.471 90.8338 120.91C90.3578 121.339 90.1012 121.974 90.0638 122.814H94.9778ZM101.334 119.216C102.314 119.216 103.126 119.477 103.77 120C104.414 120.523 104.811 121.223 104.96 122.1H103.616C103.523 121.549 103.266 121.12 102.846 120.812C102.435 120.495 101.922 120.336 101.306 120.336C100.858 120.336 100.447 120.439 100.074 120.644C99.7102 120.849 99.4162 121.167 99.1922 121.596C98.9682 122.016 98.8562 122.539 98.8562 123.164C98.8562 123.789 98.9682 124.317 99.1922 124.746C99.4162 125.166 99.7102 125.479 100.074 125.684C100.447 125.889 100.858 125.992 101.306 125.992C101.922 125.992 102.435 125.833 102.846 125.516C103.266 125.199 103.523 124.765 103.616 124.214H104.96C104.811 125.101 104.414 125.805 103.77 126.328C103.126 126.841 102.314 127.098 101.334 127.098C100.597 127.098 99.9435 126.939 99.3742 126.622C98.8048 126.305 98.3568 125.852 98.0302 125.264C97.7128 124.667 97.5542 123.967 97.5542 123.164C97.5542 122.361 97.7128 121.661 98.0302 121.064C98.3568 120.467 98.8048 120.009 99.3742 119.692C99.9435 119.375 100.597 119.216 101.334 119.216ZM110.113 119.216C110.851 119.216 111.509 119.375 112.087 119.692C112.675 120.009 113.133 120.467 113.459 121.064C113.795 121.661 113.963 122.361 113.963 123.164C113.963 123.967 113.795 124.667 113.459 125.264C113.133 125.852 112.675 126.305 112.087 126.622C111.509 126.939 110.851 127.098 110.113 127.098C109.376 127.098 108.713 126.939 108.125 126.622C107.547 126.305 107.089 125.852 106.753 125.264C106.417 124.667 106.249 123.967 106.249 123.164C106.249 122.361 106.417 121.661 106.753 121.064C107.089 120.467 107.547 120.009 108.125 119.692C108.713 119.375 109.376 119.216 110.113 119.216ZM110.113 120.336C109.656 120.336 109.231 120.439 108.839 120.644C108.457 120.849 108.144 121.167 107.901 121.596C107.668 122.016 107.551 122.539 107.551 123.164C107.551 123.78 107.668 124.303 107.901 124.732C108.144 125.152 108.457 125.465 108.839 125.67C109.231 125.875 109.656 125.978 110.113 125.978C110.571 125.978 110.991 125.875 111.373 125.67C111.765 125.465 112.078 125.152 112.311 124.732C112.554 124.303 112.675 123.78 112.675 123.164C112.675 122.539 112.554 122.016 112.311 121.596C112.078 121.167 111.765 120.849 111.373 120.644C110.991 120.439 110.571 120.336 110.113 120.336ZM116.898 120.868C117.15 120.336 117.518 119.925 118.004 119.636C118.489 119.337 119.068 119.188 119.74 119.188V120.574H119.348C118.629 120.574 118.041 120.761 117.584 121.134C117.126 121.498 116.898 122.105 116.898 122.954V127H115.624V119.314H116.898V120.868ZM124.147 119.216C124.893 119.216 125.523 119.403 126.037 119.776C126.559 120.149 126.923 120.649 127.129 121.274V116.64H128.403V127H127.129V125.04C126.923 125.665 126.559 126.165 126.037 126.538C125.523 126.911 124.893 127.098 124.147 127.098C123.465 127.098 122.859 126.939 122.327 126.622C121.795 126.305 121.375 125.852 121.067 125.264C120.768 124.667 120.619 123.967 120.619 123.164C120.619 122.361 120.768 121.661 121.067 121.064C121.375 120.467 121.795 120.009 122.327 119.692C122.859 119.375 123.465 119.216 124.147 119.216ZM124.511 120.35C123.727 120.35 123.097 120.602 122.621 121.106C122.154 121.601 121.921 122.287 121.921 123.164C121.921 124.041 122.154 124.732 122.621 125.236C123.097 125.731 123.727 125.978 124.511 125.978C125.015 125.978 125.463 125.861 125.855 125.628C126.256 125.395 126.569 125.068 126.793 124.648C127.017 124.219 127.129 123.724 127.129 123.164C127.129 122.604 127.017 122.109 126.793 121.68C126.569 121.251 126.256 120.924 125.855 120.7C125.463 120.467 125.015 120.35 124.511 120.35ZM137.935 119.188C138.831 119.188 139.555 119.477 140.105 120.056C140.656 120.625 140.931 121.451 140.931 122.534V127H139.657V122.646C139.657 121.881 139.461 121.293 139.069 120.882C138.677 120.471 138.145 120.266 137.473 120.266C136.773 120.266 136.213 120.495 135.793 120.952C135.373 121.4 135.163 122.058 135.163 122.926V127H133.889V116.64H135.163V121.134C135.359 120.509 135.705 120.028 136.199 119.692C136.703 119.356 137.282 119.188 137.935 119.188ZM149.955 122.73C149.955 123.001 149.937 123.234 149.899 123.43H143.753C143.781 124.307 144.029 124.965 144.495 125.404C144.971 125.843 145.55 126.062 146.231 126.062C146.847 126.062 147.361 125.908 147.771 125.6C148.191 125.283 148.448 124.863 148.541 124.34H149.899C149.806 124.872 149.596 125.348 149.269 125.768C148.952 126.188 148.537 126.515 148.023 126.748C147.51 126.981 146.931 127.098 146.287 127.098C145.55 127.098 144.897 126.939 144.327 126.622C143.758 126.305 143.31 125.852 142.983 125.264C142.666 124.667 142.507 123.967 142.507 123.164C142.507 122.361 142.666 121.661 142.983 121.064C143.31 120.467 143.758 120.009 144.327 119.692C144.897 119.375 145.55 119.216 146.287 119.216C147.034 119.216 147.683 119.375 148.233 119.692C148.793 120.009 149.218 120.434 149.507 120.966C149.806 121.498 149.955 122.086 149.955 122.73ZM148.667 122.814C148.695 122.245 148.602 121.769 148.387 121.386C148.173 121.003 147.879 120.719 147.505 120.532C147.132 120.345 146.726 120.252 146.287 120.252C145.587 120.252 144.999 120.471 144.523 120.91C144.047 121.339 143.791 121.974 143.753 122.814H148.667ZM152.896 120.868C153.148 120.336 153.516 119.925 154.002 119.636C154.487 119.337 155.066 119.188 155.738 119.188V120.574H155.346C154.627 120.574 154.039 120.761 153.582 121.134C153.124 121.498 152.896 122.105 152.896 122.954V127H151.622V119.314H152.896V120.868ZM164.065 122.73C164.065 123.001 164.046 123.234 164.009 123.43H157.863C157.891 124.307 158.138 124.965 158.605 125.404C159.081 125.843 159.659 126.062 160.341 126.062C160.957 126.062 161.47 125.908 161.881 125.6C162.301 125.283 162.557 124.863 162.651 124.34H164.009C163.915 124.872 163.705 125.348 163.379 125.768C163.061 126.188 162.646 126.515 162.133 126.748C161.619 126.981 161.041 127.098 160.397 127.098C159.659 127.098 159.006 126.939 158.437 126.622C157.867 126.305 157.419 125.852 157.093 125.264C156.775 124.667 156.617 123.967 156.617 123.164C156.617 122.361 156.775 121.661 157.093 121.064C157.419 120.467 157.867 120.009 158.437 119.692C159.006 119.375 159.659 119.216 160.397 119.216C161.143 119.216 161.792 119.375 162.343 119.692C162.903 120.009 163.327 120.434 163.617 120.966C163.915 121.498 164.065 122.086 164.065 122.73ZM162.777 122.814C162.805 122.245 162.711 121.769 162.497 121.386C162.282 121.003 161.988 120.719 161.615 120.532C161.241 120.345 160.835 120.252 160.397 120.252C159.697 120.252 159.109 120.471 158.633 120.91C158.157 121.339 157.9 121.974 157.863 122.814H162.777Z"
        fill="#999999" />
</svg>
