<svg fill="none" height="19" viewBox="0 0 20 19" width="20" xmlns="http://www.w3.org/2000/svg">
    <path clip-rule="evenodd"
        d="M1.83098 6.09612C2.83389 2.50477 6.24501 0.166626 10 0.166626C13.7549 0.166626 17.1661 2.50477 18.169 6.09612C18.4101 6.95957 18.6347 7.82775 18.8034 8.60502C19.1972 10.4191 19.5254 12.8404 19.7284 14.5169C19.9195 16.0946 18.8182 17.5404 17.201 17.7935C15.2626 18.097 12.2713 18.5 10 18.5C7.72867 18.5 4.73733 18.097 2.79893 17.7935C1.18179 17.5404 0.0804076 16.0946 0.271518 14.5169C0.474589 12.8404 0.80285 10.4191 1.19658 8.60502C1.36528 7.82775 1.58985 6.95957 1.83098 6.09612ZM10 1.83329C6.95577 1.83329 4.26356 3.72269 3.47835 6.53444C3.2419 7.38111 3.02641 8.21588 2.86698 8.95051C2.49066 10.6842 2.16975 13.0403 1.96718 14.7125C1.88238 15.4127 2.36626 16.0378 3.06937 16.1479C5.0036 16.4508 7.8771 16.8333 10 16.8333C12.1229 16.8333 14.9964 16.4508 16.9306 16.1479C17.6337 16.0378 18.1176 15.4127 18.0328 14.7125C17.8302 13.0403 17.5093 10.6842 17.133 8.95051C16.9736 8.21588 16.7581 7.38111 16.5217 6.53444C15.7365 3.72269 13.0443 1.83329 10 1.83329Z"
        fill="#418ABF" fill-rule="evenodd" />
</svg>
