<svg fill="none" height="18" viewBox="0 0 18 18" width="18" xmlns="http://www.w3.org/2000/svg">
    <path clip-rule="evenodd"
        d="M16.3685 5.38496L12.1621 1.11811C11.7048 0.654327 10.9732 0.46881 10.3332 0.561564C10.2417 0.561564 10.1503 0.561564 10.0589 0.654327H9.96741C9.92868 0.654327 9.90635 0.654327 9.88653 0.661376C9.85956 0.670969 9.83724 0.693616 9.78453 0.747081C9.32724 0.283293 8.68716 0.0050216 7.95564 0.0050216H2.56043C1.18877 -0.0877414 0 1.11811 0 2.50948V13.7332C0 14.4752 0.274329 15.1245 0.822996 15.5883L2.83476 17.3506C3.29198 17.8145 3.93208 18 4.48075 18H6.12674C6.76683 18 7.31547 17.8145 7.77276 17.3506L10.3332 15.0318L16.3685 8.90973C16.8257 8.44596 17.1 7.7967 17.1 7.14736C17.1 6.49805 16.8257 5.84875 16.3685 5.38496ZM5.30374 14.5679C4.84653 14.5679 4.38931 14.1042 4.38931 13.6404C4.38931 13.1766 4.84653 12.7128 5.30374 12.7128C5.76096 12.7128 6.21818 13.1766 6.21818 13.6404C6.21818 14.1042 5.76096 14.5679 5.30374 14.5679ZM10.6075 12.8983L15.454 7.98219C15.4836 7.95211 15.5157 7.92203 15.5486 7.89115C15.7186 7.73163 15.9112 7.55096 15.9112 7.24014C15.9112 6.86909 15.7283 6.59081 15.5454 6.4053L11.339 2.13844C11.29 2.11359 11.2476 2.08873 11.2082 2.06566C11.1006 2.00264 11.0157 1.95293 10.8818 1.95293H10.6989H10.6075H10.5161C10.6075 2.13844 10.6075 2.32396 10.6075 2.50948V12.8983Z"
        fill="#D2D2D2" fill-rule="evenodd" />
</svg>
