<svg fill="none" height="14" viewBox="0 0 12 14" width="12" xmlns="http://www.w3.org/2000/svg">
    <path
        d="M10.6716 2.34721C9.50373 1.09721 7.7862 0.333328 6 0.333328C4.2138 0.333328 2.49629 1.02777 1.32839 2.34721C0.366592 3.45833 -0.114308 4.84721 0.0230921 6.23613C0.0230921 6.51386 0.0917921 6.79166 0.160492 6.99999C0.778792 9.91666 3.939 12.4861 5.313 13.4583C5.51907 13.5972 5.7252 13.6667 6 13.6667C6.2748 13.6667 6.48093 13.5972 6.687 13.4583C7.99233 12.4861 11.2212 9.91666 11.8395 6.99999C11.9082 6.79166 11.9082 6.51386 11.9769 6.23613C12.1143 4.84721 11.6334 3.45833 10.6716 2.34721ZM6 8.31946C4.96947 8.31946 4.0764 7.48613 4.0764 6.37499C4.0764 5.26388 4.9008 4.43055 6 4.43055C7.0992 4.43055 7.9236 5.26388 7.9236 6.37499C7.9236 7.48613 7.03053 8.31946 6 8.31946Z"
        fill="#418ABF" />
</svg>
