<svg fill="none" height="215" viewBox="0 0 219 215" width="219" xmlns="http://www.w3.org/2000/svg">
    <path
        d="M219 138C219 193.228 138.228 215 83 215C27.7715 215 0 146.228 0 91C0 35.7715 18.7715 0 74 0C174 0 219 82.7715 219 138Z"
        fill="#FFFFFE" fill-opacity="0.44" />
    <path clip-rule="evenodd"
        d="M94.6802 193.804C95.4412 188.029 96.8016 181.769 98.4483 175.27C98.8664 173.647 99.2793 172.043 99.6858 170.463C100.096 168.886 100.502 167.322 100.994 165.817C101.965 162.803 103.128 159.978 104.316 157.331C105.503 154.683 106.727 152.213 107.887 149.913C109.053 147.613 110.18 145.49 111.29 143.6C113.498 139.808 115.637 136.967 117.186 135.076C117.957 134.127 118.581 133.412 119.01 132.932C119.217 132.704 119.379 132.525 119.5 132.39C119.613 132.269 119.672 132.209 119.676 132.213C119.681 132.217 119.63 132.284 119.527 132.413C119.411 132.553 119.256 132.74 119.061 132.977C118.649 133.471 118.043 134.2 117.287 135.16C115.773 137.074 113.671 139.927 111.496 143.723C110.402 145.617 109.29 147.741 108.137 150.042C106.988 152.347 105.776 154.817 104.6 157.462C103.422 160.106 102.271 162.922 101.309 165.922C100.822 167.419 100.421 168.97 100.012 170.551C99.6056 172.131 99.1936 173.734 98.776 175.356C97.1306 181.849 95.7647 188.093 94.9879 193.847"
        fill="#D4D5CF" fill-rule="evenodd" />
    <path clip-rule="evenodd"
        d="M123.79 157.825C123.794 157.849 123.467 157.938 122.875 158.081C122.283 158.227 121.426 158.433 120.375 158.721C118.27 159.281 115.389 160.158 112.253 161.263C109.117 162.374 106.323 163.5 104.325 164.374C103.323 164.804 102.521 165.173 101.965 165.425C101.41 165.68 101.099 165.81 101.088 165.789C101.077 165.768 101.369 165.597 101.907 165.305C102.446 165.016 103.235 164.612 104.228 164.152C106.206 163.22 108.996 162.054 112.14 160.939C115.286 159.83 118.189 158.988 120.316 158.486C121.378 158.227 122.246 158.056 122.848 157.951C123.451 157.848 123.785 157.802 123.79 157.825Z"
        fill="#D4D5CF" fill-rule="evenodd" />
    <path clip-rule="evenodd"
        d="M123.959 178.542C123.963 178.552 123.863 178.612 123.669 178.717C123.439 178.835 123.156 178.981 122.814 179.157C122.023 179.555 120.954 180.093 119.654 180.747C116.985 182.09 113.322 183.986 109.276 186.088C105.229 188.19 101.543 190.055 98.8469 191.343C97.4987 191.987 96.4025 192.497 95.6382 192.834C95.2841 192.988 94.9921 193.114 94.7553 193.218C94.5518 193.301 94.4424 193.34 94.4373 193.33C94.4327 193.319 94.5324 193.259 94.7261 193.155C94.956 193.037 95.2392 192.891 95.5817 192.714C96.3738 192.316 97.4417 191.779 98.7413 191.125C101.41 189.783 105.074 187.885 109.121 185.783C113.167 183.681 116.852 181.817 119.548 180.529C120.897 179.884 121.992 179.374 122.758 179.037C123.112 178.883 123.403 178.756 123.641 178.654C123.844 178.57 123.953 178.531 123.959 178.542Z"
        fill="#D4D5CF" fill-rule="evenodd" />
    <path clip-rule="evenodd"
        d="M47.5289 48.6085C47.5289 48.6085 42.3578 49.865 46.4592 61.054C50.5601 72.2434 53.6534 77.9113 53.6534 77.9113C53.6534 77.9113 54.3111 80.473 52.206 80.6042C50.1003 80.7349 45.6532 79.4626 44.4305 81.8718C43.1624 84.37 44.7624 87.0656 48.3502 89.694C51.9371 92.3229 59.586 98.3709 60.2752 98.9206C60.9524 99.4597 61.5479 100.687 60.1278 101.006C58.7082 101.325 48.3794 101.155 48.5922 106.061C48.8049 110.967 60.0022 116.648 61.2142 117.292C62.4262 117.937 62.6649 118.513 62.4772 119.198C62.289 119.884 58.8227 119.499 55.8832 119.571C52.9434 119.643 49.5474 120.242 49.9075 123.062C50.2672 125.882 56.5099 132.471 73.1573 136.162L80.9832 137.366L86.0625 131.246C96.1341 117.486 96.4747 108.416 94.884 106.06C93.2929 103.704 90.3465 105.496 88.0907 107.382C85.835 109.267 83.4842 111.844 82.8909 111.453C82.2967 111.063 82.0965 110.473 82.5818 109.188C83.067 107.904 87.7297 96.2454 84.6517 92.4198C81.5737 88.5937 73.9262 95.5381 72.6488 96.2357C71.3715 96.9332 71.009 95.6178 71.162 94.7659C71.3173 93.8978 73.0715 84.3065 74.0319 79.9641C74.9918 75.6217 74.4152 72.5405 71.8136 71.5004C69.3053 70.4974 66.8034 74.3884 65.1358 75.6797C63.4672 76.9705 62.271 74.6123 62.271 74.6123C62.271 74.6123 60.8541 68.3121 56.5502 57.1996C52.2463 46.0871 47.426 48.6409 47.426 48.6409"
        fill="#E4E4DE" fill-rule="evenodd" />
    <path clip-rule="evenodd"
        d="M81.6298 139.264C78.5013 131.09 73.1851 116.47 68.5554 103.941C63.927 91.4161 59.7269 80.0802 56.6397 71.8914C55.0949 67.8053 53.8435 64.496 52.9744 62.1976C52.5452 61.0602 52.2106 60.1736 51.9793 59.5608C51.8709 59.2656 51.787 59.0366 51.7263 58.8726C51.6706 58.7173 51.6479 58.6353 51.6479 58.6353C51.6479 58.6353 51.6864 58.7113 51.7499 58.8638C51.8157 59.026 51.9075 59.2517 52.0257 59.5428C52.2667 60.1518 52.6157 61.0329 53.0634 62.1628C53.9626 64.4395 55.2399 67.7423 56.8028 71.8297C59.9313 80.0033 64.1583 91.3308 68.7862 103.856C73.4159 116.384 78.7061 131.014 81.7929 139.203L81.6298 139.264Z"
        fill="#D4D5CF" fill-rule="evenodd" />
    <path clip-rule="evenodd"
        d="M51.0435 83.9018C51.0514 83.8865 51.2396 83.9653 51.5733 84.121C51.9079 84.2749 52.3844 84.5113 52.9712 84.8093C54.1429 85.4076 55.7405 86.2753 57.486 87.2644C59.2037 88.2465 60.7568 89.134 61.9452 89.8135C62.4823 90.1162 62.9356 90.3716 63.3004 90.5769C63.6211 90.7558 63.7954 90.8619 63.788 90.8772C63.7806 90.8925 63.5919 90.8151 63.2564 90.6622C62.9227 90.5069 62.4453 90.2705 61.8617 89.966C60.6956 89.3561 59.1096 88.4676 57.3645 87.4785C55.6408 86.5098 54.0822 85.6334 52.8896 84.9627C52.3501 84.6628 51.8954 84.4098 51.5293 84.2058C51.2095 84.0246 51.0361 83.9171 51.0435 83.9018Z"
        fill="#D4D5CF" fill-rule="evenodd" />
    <path clip-rule="evenodd"
        d="M64.3854 90.44C64.3251 90.4094 65.9687 87.0376 68.0567 82.9093C70.1451 78.7797 71.8864 75.4579 71.9471 75.4885C72.0079 75.5191 70.3643 78.8909 68.2759 83.0206C66.1883 87.1484 64.4461 90.4711 64.3854 90.44Z"
        fill="#D4D5CF" fill-rule="evenodd" />
    <path clip-rule="evenodd"
        d="M70.6267 109.998C70.6146 109.986 70.7495 109.828 71.0044 109.551C71.295 109.24 71.6584 108.851 72.089 108.39C73.0039 107.409 74.2613 106.049 75.5929 104.497C76.9291 102.948 78.0892 101.503 78.9207 100.451C79.3128 99.9558 79.6428 99.5386 79.9075 99.2049C80.142 98.912 80.2783 98.7544 80.2917 98.7646C80.3056 98.7744 80.1953 98.9509 79.9844 99.2619C79.7726 99.5725 79.4588 100.016 79.0588 100.556C78.2612 101.638 77.1191 103.103 75.7792 104.657C74.4435 106.214 73.1624 107.559 72.2146 108.511C71.7386 108.985 71.3488 109.365 71.0721 109.619C70.7963 109.875 70.6387 110.01 70.6267 109.998Z"
        fill="#D4D5CF" fill-rule="evenodd" />
    <path clip-rule="evenodd"
        d="M57.257 106.74C57.2607 106.723 57.4512 106.751 57.7928 106.814C58.1844 106.894 58.6655 106.991 59.2328 107.105C60.4462 107.362 62.1189 107.733 63.9632 108.157C65.8078 108.582 67.4745 108.98 68.6782 109.28C69.2385 109.424 69.7136 109.547 70.1006 109.647C70.4352 109.739 70.6183 109.798 70.6146 109.814C70.6109 109.831 70.4204 109.804 70.0793 109.74C69.6876 109.661 69.2065 109.564 68.6392 109.449C67.4254 109.192 65.7527 108.822 63.908 108.397C62.0638 107.973 60.3971 107.575 59.1939 107.275C58.6331 107.13 58.158 107.008 57.771 106.907C57.4364 106.815 57.2533 106.756 57.257 106.74Z"
        fill="#D4D5CF" fill-rule="evenodd" />
    <path clip-rule="evenodd"
        d="M146.587 15.0392L133.518 15.0321C131.766 15.0309 130.344 16.5154 130.345 18.3474L130.344 20.7173C130.344 22.5492 128.923 24.0338 127.171 24.0326L101.699 24.0177C99.9463 24.0171 98.5253 22.5308 98.5259 20.6989L98.5265 18.3284C98.5265 16.4964 97.1066 15.0101 95.3537 15.0095L90.7581 15.0065L79.3206 15C73.6401 14.997 69.0333 19.6003 69.0321 25.2802L69 190.211C68.9988 195.889 73.5991 200.492 79.276 200.496L146.542 200.535C152.222 200.539 156.829 195.935 156.83 190.255L156.863 25.3235C156.863 19.6466 152.263 15.0428 146.587 15.0392Z"
        fill="#FFFFFE" fill-rule="evenodd" />
    <path
        d="M146.587 15.0392L133.518 15.0321C131.766 15.0309 130.344 16.5154 130.345 18.3474L130.344 20.7173C130.344 22.5492 128.923 24.0338 127.171 24.0326L101.699 24.0177C99.9463 24.0171 98.5253 22.5308 98.5259 20.6989L98.5265 18.3284C98.5265 16.4964 97.1066 15.0101 95.3537 15.0095L90.7581 15.0065L79.3206 15C73.6401 14.997 69.0333 19.6003 69.0321 25.2802L69 190.211C68.9988 195.889 73.5991 200.492 79.276 200.496L146.542 200.535C152.222 200.539 156.829 195.935 156.83 190.255L156.863 25.3235C156.863 19.6466 152.263 15.0428 146.587 15.0392"
        stroke="#9E9E9E" stroke-width="0.5" />
    <path clip-rule="evenodd" d="M134.442 20.7262H135.189V19.6787H134.442V20.7262Z" fill="#132529"
        fill-rule="evenodd" />
    <path clip-rule="evenodd" d="M135.658 20.7251H136.405V19.2114H135.658V20.7251Z" fill="#132529"
        fill-rule="evenodd" />
    <path clip-rule="evenodd" d="M136.874 20.7258H137.62V18.8618H136.874V20.7258Z" fill="#132529"
        fill-rule="evenodd" />
    <path clip-rule="evenodd" d="M138.09 20.7249H138.836V18.1846H138.09V20.7249Z" fill="#132529"
        fill-rule="evenodd" />
    <path clip-rule="evenodd"
        d="M149.795 18.5136H146.112C146.04 18.5136 145.983 18.5712 145.983 18.6455V20.5089C145.983 20.5813 146.042 20.6401 146.115 20.6401H149.795V20.0261L149.864 19.9572H150.265V19.1965H149.864L149.795 19.1276V18.5136ZM149.864 20.7779H146.115C145.967 20.7779 145.846 20.6573 145.846 20.5089V18.6455C145.846 18.497 145.966 18.3765 146.112 18.3765H149.864L149.913 18.3961L149.933 18.4448V19.0594H150.334L150.402 19.1276V20.0261L150.334 20.095H149.933V20.709L149.864 20.7779Z"
        fill="#132529" fill-rule="evenodd" />
    <path clip-rule="evenodd" d="M146.289 20.3346H149.49V18.8203H146.289V20.3346Z" fill="#132529"
        fill-rule="evenodd" />
    <path clip-rule="evenodd"
        d="M142.411 20.6343C142.411 20.4829 142.289 20.3606 142.137 20.3606C141.986 20.3606 141.863 20.4829 141.863 20.6343C141.863 20.7857 141.986 20.9081 142.137 20.9081C142.289 20.9081 142.411 20.7857 142.411 20.6343Z"
        fill="#132529" fill-rule="evenodd" />
    <path clip-rule="evenodd"
        d="M141.203 19.9742L141.553 20.3239C141.703 20.1743 141.909 20.0811 142.137 20.0811C142.366 20.0811 142.573 20.1743 142.722 20.3239L143.072 19.9742C142.832 19.7349 142.502 19.5864 142.137 19.5864C141.773 19.5864 141.442 19.7349 141.203 19.9742Z"
        fill="#132529" fill-rule="evenodd" />
    <path clip-rule="evenodd"
        d="M142.137 18.8066C141.558 18.8066 141.033 19.0424 140.652 19.423L141.001 19.7728C141.292 19.4818 141.694 19.3019 142.137 19.3019C142.58 19.3019 142.982 19.4818 143.273 19.7728L143.623 19.423C143.243 19.0424 142.717 18.8066 142.137 18.8066Z"
        fill="#132529" fill-rule="evenodd" />
    <path clip-rule="evenodd"
        d="M140.083 18.8546L140.433 19.2043C140.87 18.7679 141.472 18.4977 142.137 18.4977C142.802 18.4977 143.405 18.7679 143.842 19.2043L144.192 18.8546C143.666 18.3284 142.939 18.0024 142.137 18.0024C141.336 18.0024 140.61 18.3284 140.083 18.8546Z"
        fill="#132529" fill-rule="evenodd" />
    <path clip-rule="evenodd"
        d="M117.72 39.0474H113.191C112.881 39.0474 112.63 38.7962 112.63 38.4862V35.4084C112.63 35.0979 112.881 34.8467 113.191 34.8467H117.72C118.03 34.8467 118.282 35.0979 118.282 35.4084V38.4862C118.282 38.7962 118.03 39.0474 117.72 39.0474Z"
        fill="#132529" fill-rule="evenodd" />
    <path clip-rule="evenodd"
        d="M113.877 35.1227H113.283V34.4214C113.283 33.1697 114.217 32.2261 115.456 32.2261C116.695 32.2261 117.628 33.1697 117.628 34.4214V34.8698H117.034V34.4214C117.034 33.4933 116.37 32.8199 115.456 32.8199C114.541 32.8199 113.877 33.4933 113.877 34.4214V35.1227Z"
        fill="#132529" fill-rule="evenodd" />
    <path clip-rule="evenodd"
        d="M95.9823 66.9695C95.9823 62.6762 94.0536 60.311 91.2525 60.311C88.4515 60.311 86.5228 62.6762 86.5228 66.9695C86.5228 71.2634 88.4515 73.6286 91.2525 73.6286C94.0536 73.6286 95.9823 71.2634 95.9823 66.9695ZM84.847 66.9697C84.847 61.8498 87.5334 58.7964 91.2525 58.7964C94.9722 58.7964 97.6818 61.8498 97.6818 66.9697C97.6818 72.0902 94.9722 75.1442 91.2525 75.1442C87.5334 75.1442 84.847 72.0902 84.847 66.9697Z"
        fill="#132529" fill-rule="evenodd" />
    <path clip-rule="evenodd"
        d="M109.367 63.6407C109.367 61.8729 107.897 60.1966 105.119 60.1966C102.8 60.1966 101.193 61.5511 101.193 63.687C101.193 65.7992 102.754 67.1537 105.234 67.1537C107.691 67.1537 109.367 65.6383 109.367 63.6407ZM111.64 66.8319C111.64 72.2969 108.656 75.1442 104.293 75.1442C102.846 75.1442 101.491 74.8913 100.481 74.2713L101.147 72.94C101.974 73.491 103.075 73.6971 104.27 73.6971C107.737 73.6971 109.964 71.4703 109.964 67.1075C109.964 66.7405 109.941 66.2815 109.895 65.7993C109.091 67.5671 107.208 68.554 104.982 68.554C101.79 68.554 99.5624 66.6716 99.5624 63.7328C99.5624 60.7245 101.928 58.7964 105.05 58.7964C109.321 58.7964 111.64 61.7578 111.64 66.8319Z"
        fill="#132529" fill-rule="evenodd" />
    <path clip-rule="evenodd"
        d="M114.049 73.8576C114.049 73.1462 114.6 72.6183 115.266 72.6183C115.932 72.6183 116.506 73.1462 116.506 73.8576C116.506 74.5696 115.932 75.1207 115.266 75.1207C114.6 75.1207 114.049 74.5696 114.049 73.8576ZM114.049 64.0768C114.049 63.3648 114.6 62.8369 115.266 62.8369C115.932 62.8369 116.506 63.3648 116.506 64.0768C116.506 64.7882 115.932 65.3393 115.266 65.3393C114.6 65.3393 114.049 64.7882 114.049 64.0768Z"
        fill="#132529" fill-rule="evenodd" />
    <path clip-rule="evenodd"
        d="M129.869 73.5368V75.0065H118.595V73.8349L125.277 67.2916C127.09 65.5006 127.435 64.4216 127.435 63.3195C127.435 61.4597 126.126 60.3112 123.669 60.3112C121.787 60.3112 120.34 60.8854 119.284 62.1028L118.113 61.0921C119.353 59.6224 121.35 58.7964 123.807 58.7964C127.067 58.7964 129.134 60.449 129.134 63.1354C129.134 64.674 128.651 66.0517 126.493 68.1639L121.028 73.5368H129.869Z"
        fill="#132529" fill-rule="evenodd" />
    <path clip-rule="evenodd"
        d="M142.977 66.9695C142.977 62.6762 141.048 60.311 138.248 60.311C135.446 60.311 133.518 62.6762 133.518 66.9695C133.518 71.2634 135.446 73.6286 138.248 73.6286C141.048 73.6286 142.977 71.2634 142.977 66.9695ZM131.841 66.9697C131.841 61.8498 134.528 58.7964 138.248 58.7964C141.967 58.7964 144.677 61.8498 144.677 66.9697C144.677 72.0902 141.967 75.1442 138.248 75.1442C134.528 75.1442 131.841 72.0902 131.841 66.9697Z"
        fill="#132529" fill-rule="evenodd" />
    <path clip-rule="evenodd"
        d="M165.223 93.027L165.117 92.9813C165.059 92.9219 165.062 92.8281 165.121 92.7717L168.09 89.9273C168.15 89.8715 168.244 89.8721 168.301 89.9321C168.358 89.9908 168.355 90.0853 168.296 90.1417L165.326 92.9861L165.223 93.027Z"
        fill="#132529" fill-rule="evenodd" />
    <rect fill="#E4E4DE" height="12" rx="2" width="16" x="84" y="116" />
    <rect fill="#E4E4DE" height="12" rx="2" width="16" x="105" y="116" />
    <rect fill="#E4E4DE" height="12" rx="2" width="16" x="126" y="116" />
    <rect fill="#E4E4DE" height="12" rx="2" width="16" x="84" y="135" />
    <rect fill="#E4E4DE" height="12" rx="2" width="16" x="105" y="135" />
    <rect fill="#E4E4DE" height="12" rx="2" width="16" x="126" y="135" />
    <rect fill="#E4E4DE" height="12" rx="2" width="16" x="84" y="154" />
    <rect fill="#E4E4DE" height="12" rx="2" width="16" x="105" y="154" />
    <rect fill="#E4E4DE" height="12" rx="2" width="16" x="105" y="170" />
    <rect fill="#E4E4DE" height="12" rx="2" width="16" x="126" y="154" />
</svg>
