<svg fill="none" height="215" viewBox="0 0 219 215" width="219" xmlns="http://www.w3.org/2000/svg">
    <path
        d="M219 138C219 193.228 138.228 215 83 215C27.7715 215 0 146.228 0 91C0 35.7715 18.7715 0 74 0C174 0 219 82.7715 219 138Z"
        fill="#FFFFFE" fill-opacity="0.44" />
    <path clip-rule="evenodd"
        d="M94.6802 193.804C95.4412 188.029 96.8016 181.769 98.4483 175.27C98.8664 173.647 99.2794 172.043 99.6858 170.463C100.096 168.886 100.502 167.322 100.994 165.817C101.965 162.803 103.128 159.978 104.317 157.331C105.503 154.683 106.727 152.213 107.887 149.913C109.053 147.613 110.18 145.49 111.29 143.6C113.498 139.808 115.637 136.967 117.186 135.076C117.957 134.127 118.581 133.412 119.01 132.932C119.217 132.704 119.379 132.525 119.5 132.39C119.613 132.269 119.672 132.209 119.676 132.213C119.681 132.217 119.63 132.284 119.527 132.413C119.411 132.553 119.256 132.74 119.061 132.977C118.649 133.471 118.043 134.2 117.287 135.16C115.773 137.074 113.671 139.927 111.496 143.723C110.402 145.617 109.29 147.741 108.137 150.042C106.988 152.347 105.776 154.817 104.6 157.462C103.422 160.106 102.271 162.922 101.309 165.922C100.822 167.419 100.421 168.97 100.012 170.551C99.6057 172.131 99.1936 173.734 98.776 175.356C97.1306 181.849 95.7648 188.093 94.988 193.847"
        fill="#D4D5CF" fill-rule="evenodd" />
    <path clip-rule="evenodd"
        d="M123.79 157.825C123.794 157.849 123.467 157.938 122.875 158.081C122.283 158.227 121.426 158.433 120.375 158.721C118.27 159.281 115.389 160.158 112.253 161.263C109.117 162.374 106.323 163.5 104.325 164.374C103.323 164.804 102.521 165.173 101.965 165.425C101.41 165.68 101.099 165.81 101.088 165.789C101.077 165.768 101.369 165.597 101.907 165.305C102.446 165.016 103.235 164.612 104.228 164.152C106.206 163.22 108.996 162.054 112.14 160.939C115.286 159.83 118.189 158.988 120.316 158.486C121.378 158.227 122.246 158.056 122.848 157.951C123.451 157.848 123.785 157.802 123.79 157.825Z"
        fill="#D4D5CF" fill-rule="evenodd" />
    <path clip-rule="evenodd"
        d="M123.959 178.542C123.963 178.552 123.863 178.612 123.669 178.717C123.439 178.835 123.156 178.981 122.814 179.157C122.023 179.555 120.954 180.093 119.654 180.747C116.985 182.09 113.322 183.986 109.276 186.088C105.229 188.19 101.543 190.055 98.8469 191.343C97.4987 191.987 96.4025 192.497 95.6382 192.834C95.2841 192.988 94.9921 193.114 94.7553 193.218C94.5518 193.301 94.4424 193.34 94.4373 193.33C94.4327 193.319 94.5324 193.259 94.7261 193.155C94.956 193.037 95.2392 192.891 95.5817 192.714C96.3738 192.316 97.4417 191.779 98.7413 191.125C101.41 189.783 105.074 187.885 109.121 185.783C113.167 183.681 116.852 181.817 119.548 180.529C120.897 179.884 121.992 179.374 122.758 179.037C123.112 178.883 123.403 178.756 123.641 178.654C123.844 178.57 123.953 178.531 123.959 178.542Z"
        fill="#D4D5CF" fill-rule="evenodd" />
    <path clip-rule="evenodd"
        d="M47.5289 48.6085C47.5289 48.6085 42.3578 49.865 46.4592 61.054C50.5601 72.2434 53.6534 77.9113 53.6534 77.9113C53.6534 77.9113 54.3111 80.473 52.206 80.6042C50.1003 80.7349 45.6532 79.4626 44.4305 81.8718C43.1624 84.37 44.7624 87.0656 48.3502 89.694C51.9371 92.3229 59.586 98.3709 60.2752 98.9206C60.9524 99.4597 61.5479 100.687 60.1278 101.006C58.7082 101.325 48.3794 101.155 48.5922 106.061C48.8049 110.967 60.0022 116.648 61.2142 117.292C62.4262 117.937 62.6649 118.513 62.4772 119.198C62.289 119.884 58.8227 119.499 55.8832 119.571C52.9434 119.643 49.5474 120.242 49.9075 123.062C50.2672 125.882 56.5099 132.471 73.1573 136.162L80.9832 137.366L86.0625 131.246C96.1341 117.486 96.4747 108.416 94.884 106.06C93.2929 103.704 90.3465 105.496 88.0907 107.382C85.835 109.267 83.4842 111.844 82.8909 111.453C82.2967 111.063 82.0965 110.473 82.5818 109.188C83.067 107.904 87.7297 96.2454 84.6517 92.4198C81.5737 88.5937 73.9262 95.5381 72.6488 96.2357C71.3715 96.9332 71.009 95.6178 71.162 94.7659C71.3173 93.8978 73.0715 84.3065 74.0319 79.9641C74.9918 75.6217 74.4152 72.5405 71.8136 71.5004C69.3053 70.4974 66.8034 74.3884 65.1358 75.6797C63.4672 76.9705 62.271 74.6123 62.271 74.6123C62.271 74.6123 60.8541 68.3121 56.5502 57.1996C52.2463 46.0871 47.426 48.6409 47.426 48.6409"
        fill="#E4E4DE" fill-rule="evenodd" />
    <path clip-rule="evenodd"
        d="M81.6298 139.264C78.5013 131.09 73.1851 116.47 68.5554 103.941C63.927 91.4161 59.7269 80.0802 56.6396 71.8914C55.0949 67.8053 53.8434 64.496 52.9744 62.1976C52.5452 61.0602 52.2106 60.1736 51.9793 59.5608C51.8709 59.2656 51.787 59.0366 51.7262 58.8726C51.6706 58.7173 51.6479 58.6353 51.6479 58.6353C51.6479 58.6353 51.6864 58.7113 51.7499 58.8638C51.8157 59.026 51.9075 59.2517 52.0257 59.5428C52.2667 60.1518 52.6157 61.0329 53.0634 62.1628C53.9626 64.4395 55.2399 67.7423 56.8028 71.8297C59.9313 80.0033 64.1583 91.3308 68.7862 103.856C73.4159 116.384 78.7061 131.014 81.7929 139.203L81.6298 139.264Z"
        fill="#D4D5CF" fill-rule="evenodd" />
    <path clip-rule="evenodd"
        d="M51.0436 83.9018C51.0514 83.8865 51.2396 83.9653 51.5733 84.121C51.908 84.2749 52.3844 84.5113 52.9712 84.8093C54.1429 85.4076 55.7405 86.2753 57.486 87.2644C59.2037 88.2465 60.7568 89.134 61.9452 89.8135C62.4824 90.1162 62.9356 90.3716 63.3004 90.5769C63.6211 90.7558 63.7954 90.8619 63.788 90.8772C63.7806 90.8925 63.5919 90.8151 63.2564 90.6622C62.9227 90.5069 62.4453 90.2705 61.8617 89.966C60.6956 89.3561 59.1096 88.4676 57.3646 87.4785C55.6409 86.5098 54.0822 85.6334 52.8896 84.9627C52.3501 84.6628 51.8954 84.4098 51.5293 84.2058C51.2095 84.0246 51.0361 83.9171 51.0436 83.9018Z"
        fill="#D4D5CF" fill-rule="evenodd" />
    <path clip-rule="evenodd"
        d="M64.3854 90.44C64.3251 90.4094 65.9687 87.0376 68.0567 82.9093C70.1451 78.7797 71.8864 75.4579 71.9471 75.4885C72.0079 75.5191 70.3643 78.8909 68.2759 83.0206C66.1883 87.1484 64.4461 90.4711 64.3854 90.44Z"
        fill="#D4D5CF" fill-rule="evenodd" />
    <path clip-rule="evenodd"
        d="M70.6267 109.998C70.6146 109.986 70.7495 109.828 71.0044 109.551C71.295 109.24 71.6584 108.851 72.089 108.39C73.0039 107.409 74.2613 106.049 75.5929 104.497C76.9291 102.948 78.0892 101.503 78.9207 100.451C79.3128 99.9558 79.6428 99.5386 79.9075 99.2049C80.142 98.912 80.2783 98.7544 80.2917 98.7646C80.3056 98.7744 80.1953 98.9509 79.9844 99.2619C79.7726 99.5725 79.4588 100.016 79.0588 100.556C78.2612 101.638 77.1191 103.103 75.7792 104.657C74.4435 106.214 73.1624 107.559 72.2146 108.511C71.7386 108.985 71.3488 109.365 71.0721 109.619C70.7963 109.875 70.6387 110.01 70.6267 109.998Z"
        fill="#D4D5CF" fill-rule="evenodd" />
    <path clip-rule="evenodd"
        d="M57.257 106.74C57.2607 106.723 57.4512 106.751 57.7928 106.814C58.1844 106.894 58.6655 106.991 59.2328 107.105C60.4462 107.362 62.1189 107.733 63.9631 108.157C65.8078 108.582 67.4745 108.98 68.6782 109.28C69.2385 109.424 69.7136 109.547 70.1006 109.647C70.4352 109.739 70.6183 109.798 70.6146 109.814C70.6109 109.831 70.4204 109.804 70.0793 109.74C69.6876 109.661 69.2065 109.564 68.6392 109.449C67.4254 109.192 65.7526 108.822 63.908 108.397C62.0638 107.973 60.3971 107.575 59.1939 107.275C58.6331 107.13 58.158 107.008 57.771 106.907C57.4364 106.815 57.2533 106.756 57.257 106.74Z"
        fill="#D4D5CF" fill-rule="evenodd" />
    <path clip-rule="evenodd"
        d="M146.876 15.0392L133.807 15.0321C132.055 15.0309 130.633 16.5154 130.634 18.3474L130.633 20.7173C130.633 22.5492 129.212 24.0338 127.459 24.0326L101.988 24.0177C100.235 24.0171 98.8142 22.5308 98.8148 20.6989L98.8154 18.3284C98.8154 16.4964 97.3956 15.0101 95.6426 15.0095L91.0471 15.0065L79.6095 15C73.929 14.997 69.3222 19.6003 69.321 25.2802L69.2889 190.211C69.2878 195.889 73.8881 200.492 79.565 200.496L146.831 200.535C152.511 200.539 157.118 195.935 157.119 190.255L157.152 25.3235C157.152 19.6466 152.552 15.0428 146.876 15.0392Z"
        fill="#FFFFFE" fill-rule="evenodd" />
    <path
        d="M146.876 15.0392L133.807 15.0321C132.055 15.0309 130.633 16.5154 130.634 18.3474L130.633 20.7173C130.633 22.5492 129.212 24.0338 127.459 24.0326L101.988 24.0177C100.235 24.0171 98.8142 22.5308 98.8148 20.6989L98.8154 18.3284C98.8154 16.4964 97.3956 15.0101 95.6426 15.0095L91.0471 15.0065L79.6095 15C73.929 14.997 69.3222 19.6003 69.321 25.2802L69.2889 190.211C69.2878 195.889 73.8881 200.492 79.565 200.496L146.831 200.535C152.511 200.539 157.118 195.935 157.119 190.255L157.152 25.3235C157.152 19.6466 152.552 15.0428 146.876 15.0392"
        stroke="#9E9E9E" stroke-width="0.5" />
    <path clip-rule="evenodd" d="M134.442 20.7262H135.189V19.6787H134.442V20.7262Z" fill="#132529"
        fill-rule="evenodd" />
    <path clip-rule="evenodd" d="M135.658 20.7251H136.405V19.2114H135.658V20.7251Z" fill="#132529"
        fill-rule="evenodd" />
    <path clip-rule="evenodd" d="M136.874 20.7258H137.62V18.8618H136.874V20.7258Z" fill="#132529"
        fill-rule="evenodd" />
    <path clip-rule="evenodd" d="M138.09 20.7249H138.836V18.1846H138.09V20.7249Z" fill="#132529"
        fill-rule="evenodd" />
    <path clip-rule="evenodd"
        d="M149.795 18.5136H146.112C146.04 18.5136 145.983 18.5712 145.983 18.6455V20.5089C145.983 20.5813 146.042 20.6401 146.115 20.6401H149.795V20.0261L149.864 19.9572H150.265V19.1965H149.864L149.795 19.1276V18.5136ZM149.864 20.7779H146.115C145.967 20.7779 145.846 20.6573 145.846 20.5089V18.6455C145.846 18.497 145.966 18.3765 146.112 18.3765H149.864L149.913 18.3961L149.933 18.4448V19.0594H150.334L150.402 19.1276V20.0261L150.334 20.095H149.933V20.709L149.864 20.7779Z"
        fill="#132529" fill-rule="evenodd" />
    <path clip-rule="evenodd" d="M146.289 20.3346H149.49V18.8203H146.289V20.3346Z" fill="#132529"
        fill-rule="evenodd" />
    <path clip-rule="evenodd"
        d="M142.411 20.6343C142.411 20.4829 142.289 20.3606 142.137 20.3606C141.986 20.3606 141.863 20.4829 141.863 20.6343C141.863 20.7857 141.986 20.9081 142.137 20.9081C142.289 20.9081 142.411 20.7857 142.411 20.6343Z"
        fill="#132529" fill-rule="evenodd" />
    <path clip-rule="evenodd"
        d="M141.203 19.9742L141.553 20.3239C141.703 20.1743 141.909 20.0811 142.137 20.0811C142.366 20.0811 142.573 20.1743 142.722 20.3239L143.072 19.9742C142.832 19.7349 142.502 19.5864 142.137 19.5864C141.773 19.5864 141.442 19.7349 141.203 19.9742Z"
        fill="#132529" fill-rule="evenodd" />
    <path clip-rule="evenodd"
        d="M142.137 18.8066C141.558 18.8066 141.033 19.0424 140.652 19.423L141.001 19.7728C141.292 19.4818 141.694 19.3019 142.137 19.3019C142.58 19.3019 142.982 19.4818 143.273 19.7728L143.623 19.423C143.243 19.0424 142.717 18.8066 142.137 18.8066Z"
        fill="#132529" fill-rule="evenodd" />
    <path clip-rule="evenodd"
        d="M140.083 18.8546L140.433 19.2043C140.87 18.7679 141.472 18.4977 142.137 18.4977C142.802 18.4977 143.405 18.7679 143.842 19.2043L144.192 18.8546C143.666 18.3284 142.939 18.0024 142.137 18.0024C141.336 18.0024 140.61 18.3284 140.083 18.8546Z"
        fill="#132529" fill-rule="evenodd" />
    <path clip-rule="evenodd"
        d="M117.72 39.0474H113.191C112.881 39.0474 112.63 38.7962 112.63 38.4862V35.4084C112.63 35.0979 112.881 34.8467 113.191 34.8467H117.72C118.03 34.8467 118.282 35.0979 118.282 35.4084V38.4862C118.282 38.7962 118.03 39.0474 117.72 39.0474Z"
        fill="#132529" fill-rule="evenodd" />
    <path clip-rule="evenodd"
        d="M113.877 35.1227H113.283V34.4214C113.283 33.1697 114.217 32.2261 115.456 32.2261C116.695 32.2261 117.628 33.1697 117.628 34.4214V34.8698H117.034V34.4214C117.034 33.4933 116.37 32.8199 115.456 32.8199C114.541 32.8199 113.877 33.4933 113.877 34.4214V35.1227Z"
        fill="#132529" fill-rule="evenodd" />
    <path clip-rule="evenodd"
        d="M95.9823 66.9695C95.9823 62.6762 94.0536 60.311 91.2525 60.311C88.4515 60.311 86.5228 62.6762 86.5228 66.9695C86.5228 71.2634 88.4515 73.6286 91.2525 73.6286C94.0536 73.6286 95.9823 71.2634 95.9823 66.9695ZM84.847 66.9697C84.847 61.8498 87.5335 58.7964 91.2525 58.7964C94.9722 58.7964 97.6818 61.8498 97.6818 66.9697C97.6818 72.0902 94.9722 75.1442 91.2525 75.1442C87.5335 75.1442 84.847 72.0902 84.847 66.9697Z"
        fill="#132529" fill-rule="evenodd" />
    <path clip-rule="evenodd"
        d="M109.367 63.6407C109.367 61.8729 107.897 60.1966 105.119 60.1966C102.8 60.1966 101.193 61.5511 101.193 63.687C101.193 65.7992 102.754 67.1537 105.234 67.1537C107.691 67.1537 109.367 65.6383 109.367 63.6407ZM111.64 66.8319C111.64 72.2969 108.656 75.1442 104.293 75.1442C102.846 75.1442 101.491 74.8913 100.481 74.2713L101.147 72.94C101.974 73.491 103.075 73.6971 104.27 73.6971C107.737 73.6971 109.964 71.4703 109.964 67.1075C109.964 66.7405 109.941 66.2815 109.895 65.7993C109.091 67.5671 107.208 68.554 104.982 68.554C101.79 68.554 99.5624 66.6716 99.5624 63.7328C99.5624 60.7245 101.928 58.7964 105.05 58.7964C109.321 58.7964 111.64 61.7578 111.64 66.8319Z"
        fill="#132529" fill-rule="evenodd" />
    <path clip-rule="evenodd"
        d="M114.049 73.8576C114.049 73.1462 114.6 72.6183 115.266 72.6183C115.932 72.6183 116.506 73.1462 116.506 73.8576C116.506 74.5696 115.932 75.1207 115.266 75.1207C114.6 75.1207 114.049 74.5696 114.049 73.8576ZM114.049 64.0768C114.049 63.3648 114.6 62.8369 115.266 62.8369C115.932 62.8369 116.506 63.3648 116.506 64.0768C116.506 64.7882 115.932 65.3393 115.266 65.3393C114.6 65.3393 114.049 64.7882 114.049 64.0768Z"
        fill="#132529" fill-rule="evenodd" />
    <path clip-rule="evenodd"
        d="M129.869 73.5368V75.0065H118.595V73.8349L125.277 67.2916C127.09 65.5006 127.435 64.4216 127.435 63.3195C127.435 61.4597 126.126 60.3112 123.669 60.3112C121.787 60.3112 120.34 60.8854 119.284 62.1028L118.113 61.0921C119.353 59.6224 121.35 58.7964 123.807 58.7964C127.067 58.7964 129.134 60.449 129.134 63.1354C129.134 64.674 128.651 66.0517 126.493 68.1639L121.028 73.5368H129.869Z"
        fill="#132529" fill-rule="evenodd" />
    <path clip-rule="evenodd"
        d="M142.977 66.9695C142.977 62.6762 141.048 60.311 138.248 60.311C135.446 60.311 133.518 62.6762 133.518 66.9695C133.518 71.2634 135.446 73.6286 138.248 73.6286C141.048 73.6286 142.977 71.2634 142.977 66.9695ZM131.841 66.9697C131.841 61.8498 134.528 58.7964 138.248 58.7964C141.967 58.7964 144.677 61.8498 144.677 66.9697C144.677 72.0902 141.967 75.1442 138.248 75.1442C134.528 75.1442 131.841 72.0902 131.841 66.9697Z"
        fill="#132529" fill-rule="evenodd" />
    <path clip-rule="evenodd"
        d="M169.777 123.733H57.5147C55.238 123.733 53.3918 121.886 53.3918 119.61V89.221C53.3918 86.9437 55.238 85.0981 57.5147 85.0981H169.777C172.054 85.0981 173.9 86.9437 173.9 89.221V119.61C173.9 121.886 172.054 123.733 169.777 123.733Z"
        fill="#FFFFFE" fill-rule="evenodd" />
    <path clip-rule="evenodd"
        d="M169.777 123.732C169.776 123.714 170.052 123.739 170.572 123.638C171.081 123.53 171.87 123.274 172.615 122.553C172.98 122.194 173.336 121.725 173.565 121.132C173.808 120.541 173.884 119.848 173.854 119.087C173.85 117.571 173.845 115.823 173.84 113.855C173.833 109.917 173.824 105.1 173.814 99.5087C173.81 96.7118 173.806 93.7219 173.802 90.5509C173.776 89.7587 173.878 88.9428 173.657 88.178C173.458 87.4084 173.005 86.6982 172.386 86.1667C171.766 85.6347 170.973 85.2956 170.138 85.2226C169.299 85.1869 168.415 85.2142 167.54 85.2071C139.377 85.2184 100.482 85.2344 57.5224 85.2523C56.8746 85.2552 56.2326 85.4156 55.6608 85.7131C55.0907 86.0141 54.6032 86.4613 54.2356 86.9868C53.8758 87.5195 53.6489 88.137 53.5735 88.773C53.5195 89.4019 53.5581 90.0925 53.5462 90.7475C53.5462 93.4 53.5456 96.0348 53.5456 98.6506C53.545 103.882 53.5438 109.038 53.5432 114.102C53.5432 115.369 53.5426 116.63 53.5426 117.885C53.5456 118.51 53.5349 119.144 53.5498 119.757C53.5717 120.358 53.7309 120.951 54.0106 121.481C54.5777 122.536 55.6311 123.318 56.8045 123.516C57.3811 123.62 58.0028 123.573 58.615 123.584C59.2273 123.584 59.8383 123.584 60.447 123.584C65.3205 123.586 70.09 123.588 74.7444 123.59C93.3606 123.602 110.125 123.614 124.205 123.623C138.281 123.643 149.672 123.66 157.551 123.672C161.483 123.685 164.539 123.694 166.616 123.701C167.649 123.708 168.437 123.713 168.974 123.716C169.505 123.722 169.777 123.732 169.777 123.732C169.777 123.732 169.505 123.743 168.974 123.748C168.437 123.751 167.649 123.757 166.616 123.763C164.539 123.77 161.483 123.78 157.551 123.792C149.672 123.804 138.281 123.821 124.205 123.842C110.125 123.851 93.3606 123.862 74.7444 123.874C70.09 123.876 65.3205 123.878 60.447 123.88C59.8383 123.88 59.2273 123.88 58.615 123.88C58.0058 123.868 57.39 123.921 56.7511 123.809C55.4892 123.596 54.3568 122.757 53.7463 121.622C53.4453 121.053 53.2731 120.414 53.2493 119.768C53.2339 119.133 53.2451 118.514 53.2416 117.885C53.241 116.63 53.241 115.369 53.2404 114.102C53.2398 109.038 53.2386 103.882 53.238 98.6506C53.238 96.0348 53.2374 93.4 53.2374 90.7475C53.2505 90.077 53.2089 89.4363 53.2665 88.7386C53.3473 88.0533 53.5919 87.3858 53.9803 86.8122C54.3758 86.2451 54.9019 85.7647 55.5165 85.4399C56.1323 85.1186 56.8259 84.9452 57.5224 84.9429C100.482 84.9607 139.377 84.9767 167.54 84.9886C168.423 84.9975 169.28 84.9708 170.157 85.01C171.035 85.089 171.871 85.4482 172.521 86.0088C173.17 86.5687 173.645 87.317 173.853 88.1257C173.971 88.5266 173.998 88.9494 174 89.3532C173.999 89.7552 173.999 90.1548 173.999 90.5509C173.994 93.7219 173.991 96.7118 173.986 99.5087C173.976 105.1 173.967 109.917 173.96 113.855C173.955 115.823 173.95 117.571 173.946 119.087C173.972 119.842 173.89 120.565 173.637 121.161C173.399 121.763 173.033 122.237 172.658 122.598C171.895 123.322 171.093 123.571 170.579 123.669C170.315 123.711 170.115 123.733 169.98 123.73C169.845 123.734 169.777 123.732 169.777 123.732Z"
        fill="#132529" fill-rule="evenodd" />
    <path clip-rule="evenodd"
        d="M165.223 93.027L165.117 92.9813C165.06 92.9219 165.062 92.8281 165.121 92.7717L168.09 89.9273C168.15 89.8715 168.244 89.8721 168.301 89.9321C168.358 89.9908 168.355 90.0853 168.296 90.1417L165.326 92.9861L165.223 93.027Z"
        fill="#132529" fill-rule="evenodd" />
    <path clip-rule="evenodd"
        d="M168.178 93.04L168.074 92.9973L165.135 90.1291C165.076 90.0721 165.075 89.9777 165.133 89.9189C165.19 89.8613 165.283 89.8589 165.342 89.9165L168.282 92.7853C168.34 92.8423 168.342 92.9361 168.285 92.9955L168.178 93.04Z"
        fill="#132529" fill-rule="evenodd" />
    <path clip-rule="evenodd"
        d="M79.3619 111.921L78.1499 110.204C77.4195 109.17 77.027 107.935 77.0264 106.668L77.0252 102.812C77.024 99.6621 74.7093 97.0535 71.6886 96.5933L71.688 94.753C71.6874 94.2851 71.3079 93.9062 70.84 93.9062C70.3727 93.9062 69.9932 94.2857 69.9938 94.7536L69.9944 96.566C66.8662 96.9318 64.4386 99.5897 64.4398 102.816L64.441 106.812C64.4416 108.185 63.9814 109.519 63.1334 110.6L62.0925 111.926L79.3619 111.921Z"
        fill="#418ABF" fill-rule="evenodd" />
    <path clip-rule="evenodd"
        d="M69.818 114.726C70.7485 115.115 71.8958 114.918 72.6422 114.24C72.9688 113.943 73.2111 113.562 73.3554 113.146L68.3252 113.11C68.5728 113.822 69.1209 114.433 69.818 114.726Z"
        fill="#418ABF" fill-rule="evenodd" />
    <path clip-rule="evenodd"
        d="M147.158 98.1499C147.158 98.2354 133.659 98.3043 117.011 98.3043C100.356 98.3043 86.8595 98.2354 86.8595 98.1499C86.8595 98.065 100.356 97.9955 117.011 97.9955C133.659 97.9955 147.158 98.065 147.158 98.1499Z"
        fill="#132529" fill-rule="evenodd" />
    <path clip-rule="evenodd"
        d="M161.367 105.447C161.367 105.532 144.686 105.602 124.115 105.602C103.536 105.602 86.8595 105.532 86.8595 105.447C86.8595 105.362 103.536 105.292 124.115 105.292C144.686 105.292 161.367 105.362 161.367 105.447Z"
        fill="#D4D5CF" fill-rule="evenodd" />
    <path clip-rule="evenodd"
        d="M161.367 109.817C161.367 109.903 144.686 109.972 124.115 109.972C103.536 109.972 86.8595 109.903 86.8595 109.817C86.8595 109.733 103.536 109.663 124.115 109.663C144.686 109.663 161.367 109.733 161.367 109.817Z"
        fill="#D4D5CF" fill-rule="evenodd" />
    <path clip-rule="evenodd"
        d="M150.497 156.308H75.9451C73.6684 156.308 71.8222 154.462 71.8222 152.185V133.886C71.8222 131.609 73.6684 129.763 75.9451 129.763H150.497C152.774 129.763 154.62 131.609 154.62 133.886V152.185C154.62 154.462 152.774 156.308 150.497 156.308Z"
        fill="#FAF9F6" fill-rule="evenodd" />
    <path clip-rule="evenodd"
        d="M150.497 156.308C150.497 156.297 150.684 156.3 151.04 156.252C151.393 156.204 151.931 156.087 152.534 155.73C153.129 155.379 153.815 154.777 154.224 153.834C154.428 153.368 154.558 152.825 154.564 152.239C154.563 151.646 154.561 151.014 154.56 150.344C154.553 147.665 154.544 144.391 154.533 140.59C154.53 138.688 154.526 136.655 154.522 134.5C154.523 133.956 154.532 133.419 154.391 132.895C154.257 132.372 154.014 131.869 153.674 131.431C153.001 130.547 151.917 129.946 150.749 129.886C131.599 129.894 105.156 129.905 75.9498 129.918C75.0728 129.928 74.1939 130.208 73.5098 130.757C72.8222 131.295 72.3109 132.058 72.1049 132.902C71.9932 133.327 71.9671 133.747 71.9766 134.203V135.548C71.976 136.444 71.976 137.337 71.976 138.226C71.9754 141.783 71.9748 145.289 71.9736 148.732C71.9736 149.594 71.9736 150.451 71.973 151.304C71.976 151.728 71.9624 152.165 71.992 152.566C72.036 152.973 72.1363 153.372 72.2925 153.749C72.6191 154.493 73.1654 155.141 73.856 155.561C74.5407 155.996 75.3465 156.186 76.1583 156.16C79.4718 156.162 82.7152 156.164 85.8803 156.166C98.5369 156.178 109.936 156.189 119.511 156.199C129.079 156.22 136.823 156.236 142.184 156.248C144.855 156.261 146.931 156.27 148.348 156.277C149.047 156.283 149.582 156.289 149.952 156.292C150.313 156.297 150.497 156.308 150.497 156.308C150.497 156.308 150.313 156.319 149.952 156.324C149.582 156.327 149.047 156.333 148.348 156.339C146.931 156.346 144.855 156.356 142.184 156.368C136.823 156.379 129.079 156.397 119.511 156.417C109.936 156.426 98.5369 156.438 85.8803 156.45C82.7152 156.452 79.4718 156.454 76.1583 156.455C75.3186 156.485 74.4291 156.28 73.6993 155.814C72.957 155.363 72.3685 154.668 72.017 153.866C71.8489 153.461 71.7403 153.033 71.6928 152.594C71.6601 152.148 71.6761 151.733 71.6714 151.304C71.6714 150.451 71.6714 149.594 71.6708 148.732C71.6702 145.289 71.669 141.783 71.6684 138.226C71.6684 137.337 71.6684 136.444 71.6678 135.548V134.203C71.6577 133.76 71.685 133.273 71.8056 132.826C72.0283 131.915 72.5787 131.092 73.3198 130.514C74.0562 129.922 75.0063 129.618 75.9498 129.609C105.161 129.631 131.609 129.652 150.763 129.667C151.994 129.735 153.135 130.373 153.838 131.304C154.194 131.766 154.449 132.295 154.587 132.845C154.734 133.397 154.721 133.968 154.719 134.5C154.714 136.655 154.71 138.688 154.706 140.59C154.697 144.391 154.687 147.665 154.68 150.344C154.677 151.014 154.674 151.646 154.671 152.24C154.66 152.841 154.521 153.397 154.308 153.872C153.881 154.832 153.174 155.436 152.566 155.784C151.947 156.138 151.401 156.246 151.044 156.284C150.684 156.322 150.497 156.308 150.497 156.308Z"
        fill="#132529" fill-rule="evenodd" />
    <path clip-rule="evenodd"
        d="M148.659 135.258L148.551 135.212C148.494 135.153 148.497 135.059 148.556 135.002L150.596 133.047C150.656 132.991 150.75 132.993 150.806 133.052C150.863 133.112 150.861 133.205 150.801 133.262L148.762 135.217L148.659 135.258Z"
        fill="#132529" fill-rule="evenodd" />
    <path clip-rule="evenodd"
        d="M150.689 135.266L150.585 135.224L148.566 133.253C148.507 133.196 148.506 133.102 148.563 133.043C148.62 132.985 148.714 132.983 148.773 133.041L150.793 135.011C150.851 135.069 150.852 135.163 150.795 135.222L150.689 135.266Z"
        fill="#132529" fill-rule="evenodd" />
    <path clip-rule="evenodd"
        d="M89.6659 148.193L88.8327 147.013C88.331 146.303 88.0614 145.454 88.0608 144.584L88.0602 141.934C88.0596 139.77 86.4687 137.978 84.3933 137.662L84.3927 136.397C84.3927 136.076 84.1321 135.815 83.8108 135.815C83.489 135.815 83.2289 136.076 83.2289 136.397L83.2295 137.643C81.0804 137.894 79.4124 139.72 79.413 141.937L79.4136 144.682C79.4142 145.626 79.0977 146.542 78.5157 147.285L77.8002 148.197L89.6659 148.193Z"
        fill="#334F55" fill-rule="evenodd" />
    <path clip-rule="evenodd"
        d="M83.1083 150.119C83.7472 150.387 84.5358 150.252 85.0489 149.786C85.2728 149.582 85.4396 149.32 85.5388 149.034L82.0828 149.009C82.2526 149.499 82.6291 149.918 83.1083 150.119Z"
        fill="#334F55" fill-rule="evenodd" />
    <path clip-rule="evenodd"
        d="M136.246 138.731C136.246 138.816 126.971 138.886 115.533 138.886C104.09 138.886 94.8172 138.816 94.8172 138.731C94.8172 138.645 104.09 138.576 115.533 138.576C126.971 138.576 136.246 138.645 136.246 138.731Z"
        fill="#132529" fill-rule="evenodd" />
    <path clip-rule="evenodd"
        d="M146.009 143.744C146.009 143.83 134.548 143.899 120.414 143.899C106.276 143.899 94.8172 143.83 94.8172 143.744C94.8172 143.659 106.276 143.59 120.414 143.59C134.548 143.59 146.009 143.659 146.009 143.744Z"
        fill="#D4D5CF" fill-rule="evenodd" />
    <path clip-rule="evenodd"
        d="M146.009 146.747C146.009 146.833 134.548 146.901 120.414 146.901C106.276 146.901 94.8172 146.833 94.8172 146.747C94.8172 146.662 106.276 146.593 120.414 146.593C134.548 146.593 146.009 146.662 146.009 146.747Z"
        fill="#D4D5CF" fill-rule="evenodd" />
    <path clip-rule="evenodd"
        d="M150.184 186.782H76.2562C73.9795 186.782 72.1339 184.936 72.1339 182.659V164.56C72.1339 162.284 73.9795 160.438 76.2562 160.438H150.184C152.461 160.438 154.307 162.284 154.307 164.56V182.659C154.307 184.936 152.461 186.782 150.184 186.782Z"
        fill="#FAF9F6" fill-rule="evenodd" />
    <path clip-rule="evenodd"
        d="M150.184 186.782C150.183 186.772 150.369 186.774 150.722 186.727C151.073 186.681 151.605 186.563 152.206 186.213C152.799 185.866 153.481 185.273 153.895 184.342C154.101 183.881 154.236 183.343 154.248 182.762C154.248 182.174 154.247 181.547 154.247 180.884C154.239 178.225 154.231 174.976 154.221 171.205C154.216 169.318 154.212 167.301 154.208 165.161C154.209 164.623 154.218 164.091 154.078 163.571C153.946 163.052 153.704 162.552 153.368 162.116C152.704 161.239 151.635 160.632 150.476 160.562C131.475 160.57 105.239 160.58 76.2616 160.593C74.5015 160.569 72.84 161.847 72.4261 163.537C72.3068 163.956 72.2812 164.376 72.2877 164.824V166.16C72.2877 167.048 72.2872 167.933 72.2872 168.816C72.2866 172.345 72.286 175.823 72.2854 179.24C72.2848 180.095 72.2848 180.945 72.2842 181.792C72.2872 182.213 72.2735 182.646 72.3032 183.044C72.3477 183.448 72.4469 183.843 72.6013 184.217C72.9243 184.958 73.4647 185.6 74.1458 186.022C74.8239 186.455 75.6214 186.656 76.4249 186.634C79.7123 186.636 82.9302 186.637 86.0703 186.639C98.629 186.652 109.939 186.663 119.439 186.673C128.933 186.693 136.616 186.71 141.936 186.722C144.585 186.734 146.645 186.744 148.051 186.751C148.745 186.757 149.276 186.763 149.642 186.766C150.001 186.772 150.184 186.782 150.184 186.782C150.184 186.782 150.001 186.792 149.642 186.798C149.276 186.801 148.745 186.806 148.051 186.813C146.645 186.82 144.585 186.83 141.936 186.842C136.616 186.854 128.933 186.871 119.439 186.892C109.939 186.901 98.629 186.912 86.0703 186.925C82.9302 186.927 79.7123 186.928 76.4249 186.93C75.5876 186.955 74.7111 186.738 73.9879 186.274C73.2551 185.821 72.6731 185.132 72.3258 184.335C72.1595 183.933 72.052 183.507 72.0039 183.073C71.9718 182.63 71.9867 182.218 71.9831 181.792C71.9825 180.945 71.9825 180.095 71.9819 179.24C71.9813 175.823 71.9807 172.345 71.9796 168.816C71.9796 167.933 71.9796 167.048 71.9796 166.16L71.979 164.824C71.9718 164.382 71.9997 163.9 72.128 163.457C72.574 161.635 74.3643 160.258 76.2616 160.283C105.245 160.307 131.487 160.328 150.492 160.344C151.713 160.422 152.838 161.065 153.533 161.989C153.886 162.449 154.137 162.975 154.274 163.521C154.419 164.068 154.408 164.634 154.405 165.161C154.401 167.301 154.397 169.318 154.393 171.205C154.383 174.976 154.374 178.225 154.367 180.884C154.362 181.548 154.358 182.175 154.355 182.765C154.338 183.361 154.194 183.911 153.978 184.38C153.546 185.328 152.844 185.924 152.238 186.267C151.622 186.614 151.081 186.722 150.726 186.758C150.369 186.795 150.184 186.782 150.184 186.782Z"
        fill="#132529" fill-rule="evenodd" />
    <path clip-rule="evenodd"
        d="M148.39 165.893L148.283 165.847C148.226 165.788 148.228 165.694 148.288 165.637L150.313 163.698C150.373 163.643 150.466 163.643 150.522 163.702C150.579 163.762 150.577 163.856 150.518 163.913L148.493 165.851L148.39 165.893Z"
        fill="#132529" fill-rule="evenodd" />
    <path clip-rule="evenodd"
        d="M150.405 165.901L150.301 165.859L148.297 163.903C148.238 163.845 148.237 163.751 148.295 163.693C148.352 163.635 148.446 163.633 148.504 163.691L150.509 165.647C150.567 165.704 150.569 165.798 150.511 165.856L150.405 165.901Z"
        fill="#132529" fill-rule="evenodd" />
    <path clip-rule="evenodd"
        d="M89.8422 178.729L89.0156 177.558C88.5174 176.853 88.2502 176.011 88.2496 175.147L88.249 172.517C88.2484 170.369 86.6694 168.591 84.6095 168.277V167.022C84.6089 166.703 84.3505 166.444 84.0317 166.444C83.7122 166.444 83.4539 166.703 83.4539 167.022L83.4545 168.258C81.3215 168.508 79.6665 170.32 79.6671 172.52L79.6677 175.245C79.6683 176.181 79.3542 177.09 78.7764 177.827L78.0662 178.733L89.8422 178.729Z"
        fill="#D4D5CF" fill-rule="evenodd" />
    <path clip-rule="evenodd"
        d="M83.3345 180.641C83.9687 180.907 84.7514 180.772 85.2603 180.31C85.483 180.108 85.6481 179.848 85.746 179.564L82.3167 179.54C82.4854 180.025 82.8589 180.442 83.3345 180.641Z"
        fill="#D4D5CF" fill-rule="evenodd" />
    <path clip-rule="evenodd"
        d="M136.072 169.338C136.072 169.423 126.867 169.493 115.514 169.493C104.158 169.493 94.955 169.423 94.955 169.338C94.955 169.253 104.158 169.183 115.514 169.183C126.867 169.183 136.072 169.253 136.072 169.338Z"
        fill="#132529" fill-rule="evenodd" />
    <path clip-rule="evenodd"
        d="M145.76 174.313C145.76 174.4 134.386 174.468 120.359 174.468C106.327 174.468 94.955 174.4 94.955 174.313C94.955 174.228 106.327 174.16 120.359 174.16C134.386 174.16 145.76 174.228 145.76 174.313Z"
        fill="#D4D5CF" fill-rule="evenodd" />
    <path clip-rule="evenodd"
        d="M145.76 177.294C145.76 177.379 134.386 177.449 120.359 177.449C106.327 177.449 94.955 177.379 94.955 177.294C94.955 177.208 106.327 177.139 120.359 177.139C134.386 177.139 145.76 177.208 145.76 177.294Z"
        fill="#D4D5CF" fill-rule="evenodd" />
</svg>
