<svg fill="none" height="247" viewBox="0 0 265 247" width="265" xmlns="http://www.w3.org/2000/svg">
    <path
        d="M1.04966 229.164H4.39766V240H6.44966V229.164H9.77966V227.49H1.04966V229.164ZM11.8578 240H13.9098V234.456C13.9098 232.638 14.8998 231.702 16.4118 231.702C17.9058 231.702 18.8958 232.638 18.8958 234.456V240H20.9298V234.15C20.9298 231.378 19.2018 229.92 16.9878 229.92C15.7098 229.92 14.5938 230.406 13.9098 231.234V226.68H11.8578V240ZM22.8633 234.996C22.8633 238.056 24.9333 240.162 27.5073 240.162C29.1633 240.162 30.3513 239.37 30.9813 238.524V240H33.0513V230.082H30.9813V231.522C30.3693 230.712 29.2173 229.92 27.5433 229.92C24.9333 229.92 22.8633 231.936 22.8633 234.996ZM30.9813 235.032C30.9813 237.174 29.5233 238.38 27.9753 238.38C26.4453 238.38 24.9693 237.138 24.9693 234.996C24.9693 232.854 26.4453 231.702 27.9753 231.702C29.5233 231.702 30.9813 232.908 30.9813 235.032ZM42.7845 240H44.8185V234.15C44.8185 231.378 43.0725 229.92 40.7505 229.92C39.5625 229.92 38.4645 230.406 37.7985 231.216V230.082H35.7465V240H37.7985V234.456C37.7985 232.638 38.7885 231.702 40.3005 231.702C41.7945 231.702 42.7845 232.638 42.7845 234.456V240ZM47.4359 240H49.4879V235.734L53.1599 240H55.9319L51.3599 235.05L55.9319 230.082H53.0879L49.4879 234.42V226.68H47.4359V240ZM65.9845 237.642L63.1945 230.082H60.9085L64.8145 239.838L62.7985 244.662H64.9225L71.0065 230.082H68.8825L65.9845 237.642ZM82.0051 235.032C82.0051 231.918 79.7731 229.92 76.9471 229.92C74.1211 229.92 71.8891 231.918 71.8891 235.032C71.8891 238.146 74.0311 240.162 76.8571 240.162C79.7011 240.162 82.0051 238.146 82.0051 235.032ZM73.9771 235.032C73.9771 232.782 75.3631 231.702 76.9111 231.702C78.4411 231.702 79.8991 232.782 79.8991 235.032C79.8991 237.282 78.3871 238.38 76.8571 238.38C75.3091 238.38 73.9771 237.282 73.9771 235.032ZM93.0156 230.082H90.9636V235.608C90.9636 237.426 89.9736 238.362 88.4616 238.362C86.9676 238.362 85.9776 237.426 85.9776 235.608V230.082H83.9436V235.914C83.9436 238.686 85.7076 240.144 88.0296 240.144C89.1996 240.144 90.3156 239.658 90.9636 238.812V240H93.0156V230.082ZM100.651 240H102.721V231.756H104.557V230.082H102.721V229.38C102.721 228.246 103.153 227.814 104.413 227.814V226.104C101.821 226.104 100.651 227.094 100.651 229.38V230.082H99.4808V231.756H100.651V240ZM115.825 235.032C115.825 231.918 113.593 229.92 110.767 229.92C107.941 229.92 105.709 231.918 105.709 235.032C105.709 238.146 107.851 240.162 110.677 240.162C113.521 240.162 115.825 238.146 115.825 235.032ZM107.797 235.032C107.797 232.782 109.183 231.702 110.731 231.702C112.261 231.702 113.719 232.782 113.719 235.032C113.719 237.282 112.207 238.38 110.677 238.38C109.129 238.38 107.797 237.282 107.797 235.032ZM119.906 234.78C119.906 232.674 120.842 232.044 122.354 232.044H122.876V229.92C121.472 229.92 120.482 230.532 119.906 231.522V230.082H117.854V240H119.906V234.78ZM133.344 237.642L130.554 230.082H128.268L132.174 239.838L130.158 244.662H132.282L138.366 230.082H136.242L133.344 237.642ZM149.364 235.032C149.364 231.918 147.132 229.92 144.306 229.92C141.48 229.92 139.248 231.918 139.248 235.032C139.248 238.146 141.39 240.162 144.216 240.162C147.06 240.162 149.364 238.146 149.364 235.032ZM141.336 235.032C141.336 232.782 142.722 231.702 144.27 231.702C145.8 231.702 147.258 232.782 147.258 235.032C147.258 237.282 145.746 238.38 144.216 238.38C142.668 238.38 141.336 237.282 141.336 235.032ZM160.375 230.082H158.323V235.608C158.323 237.426 157.333 238.362 155.821 238.362C154.327 238.362 153.337 237.426 153.337 235.608V230.082H151.303V235.914C151.303 238.686 153.067 240.144 155.389 240.144C156.559 240.144 157.675 239.658 158.323 238.812V240H160.375V230.082ZM165.134 234.78C165.134 232.674 166.07 232.044 167.582 232.044H168.104V229.92C166.7 229.92 165.71 230.532 165.134 231.522V230.082H163.082V240H165.134V234.78ZM174.918 240H176.988V231.756H178.824V230.082H176.988V229.38C176.988 228.246 177.42 227.814 178.68 227.814V226.104C176.088 226.104 174.918 227.094 174.918 229.38V230.082H173.748V231.756H174.918V240ZM184.819 231.648C186.349 231.648 187.555 232.62 187.591 234.15H182.101C182.317 232.584 183.433 231.648 184.819 231.648ZM189.463 237.048H187.249C186.871 237.822 186.169 238.434 184.909 238.434C183.397 238.434 182.227 237.444 182.083 235.806H189.661C189.715 235.464 189.733 235.14 189.733 234.798C189.733 231.882 187.735 229.92 184.909 229.92C181.975 229.92 179.959 231.918 179.959 235.032C179.959 238.146 182.065 240.162 184.909 240.162C187.339 240.162 188.905 238.776 189.463 237.048ZM195.928 231.648C197.458 231.648 198.664 232.62 198.7 234.15H193.21C193.426 232.584 194.542 231.648 195.928 231.648ZM200.572 237.048H198.358C197.98 237.822 197.278 238.434 196.018 238.434C194.506 238.434 193.336 237.444 193.192 235.806H200.77C200.824 235.464 200.842 235.14 200.842 234.798C200.842 231.882 198.844 229.92 196.018 229.92C193.084 229.92 191.068 231.918 191.068 235.032C191.068 238.146 193.174 240.162 196.018 240.162C198.448 240.162 200.014 238.776 200.572 237.048ZM202.178 234.996C202.178 238.056 204.248 240.162 206.858 240.162C208.478 240.162 209.666 239.406 210.296 238.506V240H212.366V226.68H210.296V231.468C209.54 230.532 208.172 229.92 206.876 229.92C204.248 229.92 202.178 231.936 202.178 234.996ZM210.296 235.032C210.296 237.174 208.838 238.38 207.29 238.38C205.76 238.38 204.284 237.138 204.284 234.996C204.284 232.854 205.76 231.702 207.29 231.702C208.838 231.702 210.296 232.908 210.296 235.032ZM217.113 231.558V226.68H215.061V240H217.113V238.56C217.761 239.424 218.931 240.162 220.569 240.162C223.179 240.162 225.231 238.056 225.231 234.996C225.231 231.936 223.197 229.92 220.569 229.92C219.003 229.92 217.761 230.658 217.113 231.558ZM223.143 234.996C223.143 237.138 221.667 238.38 220.119 238.38C218.589 238.38 217.113 237.174 217.113 235.032C217.113 232.908 218.589 231.702 220.119 231.702C221.667 231.702 223.143 232.854 223.143 234.996ZM226.576 234.996C226.576 238.056 228.646 240.162 231.22 240.162C232.876 240.162 234.064 239.37 234.694 238.524V240H236.764V230.082H234.694V231.522C234.082 230.712 232.93 229.92 231.256 229.92C228.646 229.92 226.576 231.936 226.576 234.996ZM234.694 235.032C234.694 237.174 233.236 238.38 231.688 238.38C230.158 238.38 228.682 237.138 228.682 234.996C228.682 232.854 230.158 231.702 231.688 231.702C233.236 231.702 234.694 232.908 234.694 235.032ZM238.775 235.032C238.775 238.146 240.791 240.162 243.635 240.162C246.065 240.162 247.649 238.812 248.207 236.868H245.993C245.615 237.894 244.859 238.434 243.635 238.434C241.979 238.434 240.881 237.21 240.881 235.032C240.881 232.872 241.979 231.648 243.635 231.648C244.859 231.648 245.651 232.26 245.993 233.214H248.207C247.649 231.126 246.065 229.92 243.635 229.92C240.791 229.92 238.775 231.936 238.775 235.032ZM250.252 240H252.304V235.734L255.976 240H258.748L254.176 235.05L258.748 230.082H255.904L252.304 234.42V226.68H250.252V240ZM260.849 236.22H262.559L262.793 227.49H260.615L260.849 236.22ZM263.063 238.812C263.063 238.074 262.487 237.498 261.767 237.498C261.029 237.498 260.453 238.074 260.453 238.812C260.453 239.55 261.029 240.126 261.767 240.126C262.487 240.126 263.063 239.55 263.063 238.812Z"
        fill="black" />
    <path
        d="M141.949 42.1054C141.949 42.1054 127.218 75.1695 88.2598 67.5951C49.3021 60.0207 25.8302 113.31 62.6614 132.74C99.4926 152.17 73.9676 174.491 98.5315 185.892C126.45 198.85 136.861 155.52 157.429 159.545C202.823 168.427 230.903 153.194 218.486 132.694C196.692 96.7107 180.866 98.0354 187.298 74.798C193.729 51.5606 157.41 15.8873 141.949 42.1054Z"
        fill="#DEE9FF" />
    <path
        d="M134.838 117.569C131.415 124.129 130.551 127.616 120.168 134.125C120.087 134.178 120.027 134.256 119.996 134.348C118.338 139.491 115.529 144.188 111.785 148.084C111.735 148.136 111.699 148.201 111.682 148.271C111.666 148.342 111.668 148.415 111.69 148.484C112.852 152.352 114.11 159.325 110.61 165.041C105.466 173.456 101.656 168.375 102.45 166.47C103.129 164.837 108.934 161.332 107.594 152.574C107.582 152.504 107.553 152.438 107.509 152.383C107.465 152.327 107.407 152.284 107.342 152.257C107.276 152.23 107.204 152.221 107.134 152.23C107.063 152.238 106.997 152.265 106.939 152.308C102.732 155.361 97.9032 157.449 92.7965 158.424C92.7398 158.433 92.6858 158.454 92.6379 158.486C92.59 158.518 92.5494 158.559 92.5188 158.608C92.4882 158.656 92.4682 158.711 92.4603 158.768C92.4523 158.825 92.4565 158.883 92.4726 158.938C93.7745 163.599 94.3905 170.884 88.9543 177.584C86.0521 181.076 82.2035 175.97 86.0521 172.491C88.4399 170.338 88.2557 164.146 87.138 159.376C87.1167 159.284 87.0638 159.202 86.9885 159.144C86.9132 159.086 86.8201 159.056 86.7252 159.059C86.503 159.065 86.2742 159.065 86.0521 159.065C78.197 159.077 70.5601 156.481 64.3391 151.685C64.2822 151.641 64.2147 151.612 64.1432 151.601C64.0718 151.591 63.9988 151.599 63.9315 151.625C63.8643 151.652 63.805 151.695 63.7595 151.751C63.7141 151.807 63.684 151.874 63.6723 151.945C62.1798 161.801 68.1053 165.212 68.9496 167.74C69.8896 170.566 67.7303 173.081 65.0694 172.369C65.0117 172.352 64.9578 172.324 64.9107 172.287C56.2356 165.771 56.9913 152.117 57.9439 145.544C57.9526 145.49 57.9498 145.435 57.9355 145.383C57.9213 145.33 57.896 145.281 57.8613 145.239C53.0101 138.996 50.3837 131.312 50.3992 123.406C50.3992 108.907 59.0552 96.4277 71.4836 90.8582C71.4844 90.8582 71.4853 90.8581 71.486 90.8578C71.4868 90.8575 71.4875 90.857 71.4881 90.8564C71.4887 90.8558 71.4892 90.8551 71.4895 90.8544C71.4898 90.8536 71.49 90.8528 71.49 90.8519C73.4014 88.4319 75.7322 85.0093 76.088 82.6087C76.0997 82.5274 76.1354 82.4514 76.1905 82.3905C76.2457 82.3296 76.3177 82.2864 76.3975 82.2667C76.4772 82.2469 76.5611 82.2513 76.6383 82.2794C76.7155 82.3076 76.7826 82.3581 76.8309 82.4245C77.7455 83.6565 79.1617 86.0063 78.8505 88.4831C78.8378 88.5656 78.8315 88.6481 78.8187 88.7307C78.7933 88.8705 78.7616 89.0038 78.7298 89.1435C78.6981 89.2515 78.6726 89.3594 78.6346 89.4675C79.0787 89.0968 79.5025 88.7025 79.9041 88.2862C80.8376 87.3273 82.0189 85.8856 82.5269 84.3424C82.551 84.2601 82.5999 84.1873 82.6671 84.1339C82.7342 84.0805 82.8163 84.0493 82.9019 84.0445C82.9875 84.0396 83.0725 84.0615 83.1453 84.107C83.218 84.1524 83.2748 84.2193 83.3079 84.2984C83.6379 85.1113 84.0256 86.2481 84.1589 87.4102C84.1704 87.5145 84.2204 87.6107 84.2991 87.68C84.3778 87.7493 84.4795 87.7867 84.5844 87.7849C85.0734 87.7659 85.5624 87.7532 86.0514 87.7532C105.745 87.7532 121.711 103.719 121.711 123.406C121.711 123.857 121.704 124.301 121.685 124.746C121.682 124.814 121.696 124.881 121.725 124.943C121.754 125.004 121.798 125.057 121.853 125.098C121.907 125.139 121.97 125.165 122.038 125.176C122.105 125.187 122.173 125.181 122.238 125.159C124.359 124.416 127.032 122.625 128.645 118.363C131.662 110.425 131.98 108.202 131.027 102.01C130.074 95.8184 134.679 96.1364 135.631 98.2C136.583 100.264 138.648 110.266 134.838 117.569Z"
        fill="#418ABF" />
    <path
        d="M72.124 126.533C72.0026 126.533 71.8846 126.493 71.7885 126.419C71.6923 126.344 71.6235 126.24 71.5926 126.123C71.3532 125.077 71.3017 123.997 71.4407 122.933C71.7534 120.62 73.0118 118.921 75.0799 118.017C76.4314 117.427 77.709 117.393 78.8769 117.917C81.2709 118.989 82.29 122.032 82.3323 122.161C82.3732 122.298 82.3589 122.446 82.2924 122.573C82.226 122.7 82.1125 122.796 81.9763 122.84C81.8401 122.885 81.6919 122.875 81.5632 122.812C81.4345 122.749 81.3355 122.638 81.2873 122.503C81.2786 122.476 80.3721 119.789 78.4237 118.919C77.5514 118.529 76.5747 118.565 75.5206 119.025C73.8093 119.773 72.805 121.126 72.5358 123.047C72.4127 123.98 72.4539 124.927 72.6574 125.845C72.694 125.986 72.6731 126.136 72.5993 126.262C72.5255 126.388 72.4047 126.479 72.2636 126.516C72.218 126.528 72.1711 126.533 72.124 126.533Z"
        fill="white" />
    <path
        d="M88.7041 121.497C88.5889 121.496 88.4766 121.46 88.383 121.393C88.2895 121.325 88.2195 121.23 88.1829 121.121C87.876 120.098 87.7545 119.027 87.8243 117.961C87.9866 115.642 89.1323 113.872 91.1377 112.84C92.4507 112.164 93.7252 112.048 94.9265 112.495C97.3795 113.408 98.5919 116.359 98.6423 116.484C98.6952 116.619 98.6926 116.769 98.6352 116.902C98.5778 117.035 98.4702 117.14 98.3357 117.195C98.2013 117.249 98.0509 117.248 97.9172 117.191C97.7836 117.135 97.6775 117.029 97.622 116.895C97.611 116.869 96.5353 114.265 94.5386 113.525C93.6406 113.192 92.666 113.29 91.6412 113.818C89.9823 114.671 89.0682 116.08 88.9242 118.004C88.8621 118.938 88.9644 119.875 89.2266 120.773C89.2539 120.856 89.2612 120.944 89.2479 121.03C89.2346 121.116 89.2011 121.198 89.1501 121.268C89.0991 121.339 89.0322 121.396 88.9547 121.436C88.8772 121.476 88.7914 121.496 88.7043 121.497H88.7041Z"
        fill="white" />
    <path
        d="M87.3046 133.003C83.5612 133.003 80.7069 130.511 80.564 130.385C80.51 130.337 80.4659 130.279 80.4344 130.214C80.4028 130.149 80.3844 130.078 80.3801 130.006C80.3758 129.934 80.3858 129.862 80.4094 129.794C80.4331 129.725 80.4699 129.662 80.5179 129.608C80.5658 129.554 80.624 129.51 80.6889 129.479C80.7539 129.447 80.8245 129.429 80.8966 129.425C80.9687 129.42 81.0409 129.43 81.1092 129.454C81.1774 129.478 81.2404 129.514 81.2944 129.562C81.3319 129.595 85.1011 132.871 89.345 131.606C93.569 130.348 94.7274 124.984 94.7387 124.931C94.7695 124.789 94.8549 124.666 94.9762 124.587C95.0976 124.508 95.2452 124.48 95.387 124.509C95.5288 124.538 95.6534 124.622 95.7337 124.743C95.814 124.863 95.8436 125.01 95.816 125.152C95.5545 126.263 95.1449 127.334 94.5982 128.336C93.3907 130.562 91.6832 132.058 89.6592 132.661C88.8951 132.889 88.1019 133.004 87.3046 133.003Z"
        fill="white" />
    <path
        d="M205.865 108.522C205.818 109.717 205.696 110.907 205.501 112.086C202.85 128.306 187.558 139.301 171.338 136.649C155.124 133.998 144.123 118.706 146.775 102.486C146.944 101.452 147.168 100.44 147.432 99.4527C135.402 91.283 136.105 75.5291 138.411 73.7825C140.74 72.0139 143.282 73.5042 143.017 78.3965C142.743 85.501 147.117 91.3765 149.544 93.9356C155.223 82.6119 167.777 75.7708 180.938 77.9224C193.712 80.0103 203.24 89.9399 205.422 101.982C207.803 101.117 212.008 98.6189 215.415 91.5182C215.89 90.103 216.022 89.0627 216.047 88.4362C216.064 87.8509 216.293 87.2916 216.69 86.8618C217.436 86.0827 218.755 85.2558 220.459 86.5255C220.846 86.8151 221.158 87.1935 221.369 87.6289C221.58 88.0642 221.684 88.5438 221.671 89.0274C221.564 92.865 218.494 102.202 205.865 108.522Z"
        fill="#FABF4E" />
    <path
        d="M188.17 113.783C187.419 118.377 181.101 121.167 174.062 120.016C167.018 118.865 161.917 114.208 162.668 109.614C162.811 108.759 163.145 107.947 163.645 107.238C163.782 107.047 163.988 106.915 164.219 106.87C164.45 106.825 164.69 106.87 164.888 106.996C167.41 108.575 171.402 109.968 176.007 110.72C180.245 111.413 184.167 111.424 187.022 110.882C187.254 110.838 187.495 110.884 187.694 111.012C187.893 111.14 188.035 111.34 188.091 111.57C188.263 112.295 188.29 113.047 188.17 113.783Z"
        fill="white" />
    <path
        d="M174.814 104.668C174.735 104.668 174.656 104.651 174.583 104.617C174.511 104.584 174.447 104.535 174.395 104.474C174.343 104.413 174.305 104.342 174.284 104.265C174.262 104.188 174.258 104.108 174.271 104.029C174.456 102.9 174.184 101.743 173.516 100.814C172.848 99.8851 171.838 99.2595 170.709 99.0749C169.58 98.8903 168.423 99.1619 167.494 99.8299C166.565 100.498 165.939 101.508 165.755 102.637C165.731 102.781 165.651 102.91 165.533 102.995C165.414 103.08 165.267 103.115 165.123 103.091C164.979 103.067 164.85 102.988 164.765 102.869C164.68 102.751 164.646 102.603 164.669 102.459C164.901 101.042 165.686 99.775 166.852 98.9367C168.018 98.0984 169.469 97.7575 170.886 97.9892C172.304 98.2209 173.571 99.0061 174.409 100.172C175.247 101.338 175.588 102.789 175.357 104.206C175.336 104.335 175.269 104.452 175.17 104.537C175.071 104.621 174.945 104.668 174.814 104.668Z"
        fill="white" />
    <path
        d="M188.008 106.825C187.928 106.825 187.849 106.807 187.777 106.774C187.705 106.74 187.64 106.691 187.589 106.631C187.537 106.57 187.499 106.499 187.478 106.422C187.456 106.345 187.452 106.265 187.465 106.186C187.645 105.059 187.37 103.906 186.702 102.98C186.034 102.055 185.026 101.431 183.9 101.247C182.773 101.063 181.62 101.333 180.692 101.998C179.763 102.662 179.137 103.668 178.948 104.794C178.937 104.865 178.911 104.934 178.873 104.995C178.835 105.057 178.786 105.11 178.727 105.153C178.668 105.195 178.602 105.226 178.531 105.242C178.461 105.259 178.388 105.261 178.317 105.25C178.245 105.238 178.177 105.212 178.115 105.174C178.054 105.136 178 105.086 177.958 105.027C177.916 104.968 177.886 104.902 177.869 104.831C177.853 104.761 177.851 104.688 177.863 104.616C178.098 103.203 178.885 101.94 180.05 101.105C181.215 100.27 182.663 99.9315 184.077 100.163C185.492 100.394 186.757 101.176 187.595 102.339C188.433 103.501 188.777 104.948 188.55 106.363C188.529 106.492 188.463 106.609 188.364 106.694C188.264 106.778 188.138 106.825 188.008 106.825Z"
        fill="white" />
</svg>
