<svg fill="none" height="17" viewBox="0 0 18 17" width="18" xmlns="http://www.w3.org/2000/svg">
    <path clip-rule="evenodd"
        d="M14.5711 1.61053L17.5646 6.97895C18.0048 7.87368 18.0048 9.12632 17.5646 10.0211L14.5711 15.3895C14.0429 16.3737 13.0743 17 11.9298 17H6.03095C4.97443 17 3.91791 16.3737 3.38966 15.3895L0.39619 10.0211C-0.132063 9.12632 -0.132063 7.96316 0.39619 6.97895L3.38966 1.61053C3.91791 0.626316 4.88639 0 6.03095 0H11.9298C12.9863 0 14.0429 0.626316 14.5711 1.61053ZM5.59073 8.5C5.59073 10.3789 7.08746 11.9 8.93636 11.9C10.7852 11.9 12.282 10.3789 12.282 8.5C12.282 6.62105 10.7852 5.1 8.93636 5.1C7.08746 5.1 5.59073 6.62105 5.59073 8.5Z"
        fill="#418ABF" fill-rule="evenodd" />
</svg>
