<?xml version="1.0" encoding="UTF-8"?>
<svg height="17px" version="1.1" viewBox="0 0 18 17" width="18px"
    xmlns="http://www.w3.org/2000/svg">
    <title>Setting</title>
    <g fill="none" fill-rule="evenodd" id="Page-1" stroke="none" stroke-width="1">
        <g fill="#D2D2D2" fill-rule="nonzero" id="Home"
            transform="translate(-362.000000, -1877.000000)">
            <g id="Setting" transform="translate(362.000000, 1877.000000)">
                <path
                    d="M17.5645789,6.97894737 L14.5711474,1.61052632 C14.0428947,0.626315789 12.9863,0 11.9297947,0 L6.03094684,0 C4.88639053,0 3.91790947,0.626315789 3.38965684,1.61052632 L0.396189474,6.97894737 C-0.132063158,7.96315789 -0.132063158,9.12631579 0.396189474,10.0210526 L3.38965684,15.3894737 C3.91790947,16.3736842 4.97443263,17 6.03094684,17 L11.9297947,17 C13.0743421,17 14.0428947,16.3736842 14.5711474,15.3894737 L17.5645789,10.0210526 C18.0047895,9.12631579 18.0047895,7.87368421 17.5645789,6.97894737 Z M8.93636316,11.9 C7.08746105,11.9 5.59072737,10.3789474 5.59072737,8.5 C5.59072737,6.62105263 7.08746105,5.1 8.93636316,5.1 C10.7852474,5.1 12.2819632,6.62105263 12.2819632,8.5 C12.2819632,10.3789474 10.7852474,11.9 8.93636316,11.9 Z"
                    id="Shape"></path>
            </g>
        </g>
    </g>
</svg>