<svg fill="none" height="20" viewBox="0 0 20 20" width="20" xmlns="http://www.w3.org/2000/svg">
    <path
        d="M18.6391 10.1053L18.4204 10L18.6391 9.8947C19.9514 9.1579 20.3888 7.57895 19.6233 6.31579L18.0923 3.78947C17.7643 3.15789 17.1081 2.73684 16.452 2.52632C15.7959 2.31579 15.0304 2.42105 14.3742 2.73684L14.1555 2.84211V2.63158C14.1555 1.15789 12.9526 0 11.4216 0H8.469C6.93803 0 5.73512 1.15789 5.73512 2.63158V2.84211H5.62576C4.96962 2.42105 4.31349 2.31579 3.54799 2.52632C2.7825 2.73684 2.23572 3.15789 1.90765 3.78947L0.37667 6.31579C-0.38882 7.57895 0.0486003 9.1579 1.36087 9.8947L1.57959 10L1.36087 10.1053C0.0486003 10.8421 -0.38882 12.4211 0.37667 13.6842L1.90765 16.2105C2.23572 16.8421 2.89186 17.2632 3.54799 17.4737C4.31349 17.6842 4.96962 17.5789 5.62576 17.1579H5.73512V17.3684C5.73512 18.8421 6.93803 20 8.469 20H11.4216C12.9526 20 14.1555 18.8421 14.1555 17.3684V17.1579L14.3742 17.2632C15.0304 17.5789 15.7959 17.6842 16.452 17.4737C17.2175 17.2632 17.7643 16.8421 18.0923 16.2105L19.6233 13.6842C20.3888 12.4211 19.9514 10.8421 18.6391 10.1053ZM10 14C7.70352 14 5.84447 12.2105 5.84447 10C5.84447 7.78947 7.70352 6 10 6C12.2965 6 14.1555 7.78947 14.1555 10C14.1555 12.2105 12.2965 14 10 14Z"
        fill="#8A8A8A" />
</svg>
