<svg fill="none" height="40" viewBox="0 0 40 40" width="40" xmlns="http://www.w3.org/2000/svg">
    <circle cx="20" cy="20" r="19" stroke="#51CA56" stroke-width="2" />
    <path
        d="M24.7009 13.2288L17.1385 23.232L13.8775 19.0106C13.5512 18.5915 13.0717 18.3191 12.5446 18.2534C12.0174 18.1878 11.4858 18.3342 11.0666 18.6605C10.6475 18.9868 10.3751 19.4663 10.3094 19.9935C10.2438 20.5206 10.3902 21.0522 10.7165 21.4714L15.578 27.6933C15.7664 27.9318 16.0067 28.1242 16.2805 28.2559C16.5544 28.3876 16.8547 28.4552 17.1585 28.4536C17.4641 28.4528 17.7654 28.3821 18.0393 28.2469C18.3133 28.1116 18.5527 27.9154 18.739 27.6733L27.8819 15.6696C28.2055 15.2451 28.3473 14.7095 28.276 14.1804C28.2047 13.6514 27.9262 13.1724 27.5018 12.8487C27.0773 12.5251 26.5416 12.3833 26.0126 12.4546C25.4836 12.5258 25.0045 12.8044 24.6809 13.2288H24.7009Z"
        fill="#51CA56" stroke="white" stroke-width="1.1" />
</svg>
