<svg fill="none" height="131" viewBox="0 0 104 131" width="104" xmlns="http://www.w3.org/2000/svg">
    <path
        d="M53.2549 19.5726C27.6081 19.5726 6.74245 40.4383 6.74245 66.0851C6.74245 91.7317 27.6081 112.598 53.2549 112.598C78.9018 112.598 99.7681 91.7317 99.7681 66.0851C99.7681 40.4383 78.9018 19.5726 53.2549 19.5726ZM53.2549 115.727C25.8824 115.727 3.61328 93.4577 3.61328 66.0851C3.61328 38.7122 25.8824 16.4435 53.2549 16.4435C80.6275 16.4435 102.897 38.7122 102.897 66.0851C102.897 93.4577 80.6275 115.727 53.2549 115.727Z"
        fill="#030404" />
    <path clip-rule="evenodd"
        d="M53.2552 18.0078C79.7972 18.0078 101.333 39.5429 101.333 66.0849C101.333 92.6273 79.7972 114.162 53.2552 114.162C26.7132 114.162 5.17773 92.6273 5.17773 66.0849C5.17773 39.5429 26.7132 18.0078 53.2552 18.0078Z"
        fill="white" fill-rule="evenodd" />
    <path
        d="M86.4254 27.225C87.3358 26.7698 88.3031 26.343 88.9573 26.0302C90.266 25.4611 93.5375 24.9489 94.8174 26.2861C95.2726 26.7413 95.1306 27.3389 94.4191 28.05L94.2486 28.1923C93.7649 28.6191 93.2243 29.1024 92.7125 29.5861C91.3754 30.8663 91.4323 32.5732 92.826 34.0524C94.5615 35.8448 97.2924 35.617 100.507 33.9955C100.308 33.3982 100.166 32.7441 100.052 32.118C97.3208 33.5972 95.2441 33.8819 94.2201 32.8007C93.566 32.1465 93.5941 31.35 94.4191 30.5535C94.6469 30.3542 95.9271 29.2163 96.126 29.0173C97.3208 27.8792 97.4917 26.5993 96.4392 25.518C95.6712 24.693 94.1632 24.1524 92.6556 24.1809H92.6271C94.391 23.4128 98.2597 21.7628 100.336 20.9663C100.621 21.2226 100.877 21.3361 101.133 21.2226L99.7958 18.9465C99.341 19.2028 97.8899 19.9423 96.8941 20.3406C95.1875 21.1371 88.9573 23.9819 85.5719 25.518L86.4254 27.225ZM81.3049 21.4215C80.4514 21.0517 79.541 20.625 78.2323 19.9708C75.8142 18.7476 74.2781 17.3535 74.9608 15.9878C75.2451 15.4191 75.8712 14.9639 76.8382 14.7646L76.0986 13.2285C74.7333 13.6552 73.7944 14.2812 73.3108 15.2198C72.2868 17.268 73.7944 19.6295 77.4073 21.45C78.6875 22.1045 79.5694 22.5594 80.366 22.9295L81.3049 21.4215ZM89.0712 12.375C87.5347 12.1191 85.2875 11.408 83.4951 10.668C83.7795 9.78645 84.0642 8.84756 84.434 7.93714C84.7469 8.02256 84.9462 7.93714 85.0597 7.76665L82.8694 6.57151C82.4427 7.79478 82.0444 8.96144 81.7882 9.92846C81.191 9.70103 80.4229 9.33123 79.7684 8.98992C78.0899 8.13644 76.8382 7.48193 75.9281 6.96978L75.1601 8.47776C76.184 9.04651 78.0049 9.9854 78.9719 10.4976C79.8538 10.9528 80.7073 11.3226 81.3899 11.6354C81.0771 13.1146 81.0201 14.2528 81.1625 15.1062C80.8212 14.8215 80.1951 14.4233 79.5695 14.0535L79.2847 15.533C81.1625 16.5 81.8451 17.4673 82.2149 18.4062L84.0358 17.6378C82.8125 16.1302 82.6986 14.6226 83.0969 12.3465C84.9747 13.0861 87.051 13.7976 88.559 14.1104L89.0712 12.375ZM63.4392 3.47082C64.0938 4.12498 65.0038 5.40519 65.4021 6.17325L66.341 5.57603C65.9142 4.80797 65.0608 3.61318 64.3212 2.87325L63.4392 3.47082ZM65.9142 2.07672C66.5688 2.78818 67.4788 4.03992 67.8486 4.75103L68.816 4.15346C68.3892 3.3854 67.5073 2.21908 66.7677 1.4795L65.9142 2.07672ZM57.5222 -1.14441e-05C57.124 2.16214 56.3274 7.48193 56.0427 9.78645C55.616 13.2285 56.9247 15.4476 60.5375 15.9028C63.0979 16.2156 65.6583 15.3906 68.1049 13.3423C67.8771 13.0295 67.4222 12.0906 67.2514 11.6639C64.9469 13.5982 62.7566 14.3094 60.7938 14.0819C58.717 13.826 57.6358 12.5173 57.949 10.0423C58.2618 7.42499 59.0014 3.04409 59.4281 0.796864C59.7694 0.824989 59.9403 0.682972 60.0257 0.483665L57.5222 -1.14441e-05ZM38.974 14.4517C39.2014 15.4476 38.7462 16.0732 37.95 16.2726C36.9826 16.4715 36.3566 16.0163 36.1576 15.1913C35.7878 13.6552 37.8076 11.9767 38.2913 11.5785C38.5757 12.7732 38.8601 14.025 38.974 14.4517ZM47.9351 3.81214C46.7688 3.15797 44.9194 2.58887 43.2694 2.36145L42.7576 3.98297C44.2938 4.26735 46.1427 4.83644 47.2809 5.49061L47.9351 3.81214ZM41.1927 3.10103C40.4247 3.64165 39.4861 4.06839 38.4618 4.46666C38.2913 3.58471 38.092 2.64582 37.9781 1.99165C38.2628 1.87776 38.3764 1.67846 38.3483 1.45103L36.0438 1.90623L36.7833 5.0354C35.5885 5.37672 34.2517 5.71839 32.7438 6.03123L33.1705 7.70971C34.6215 7.36804 35.9583 7.05519 37.1531 6.68541L37.9215 9.9854C37.1531 10.5545 36.4705 11.1517 35.9583 11.7778C34.8205 13.0295 34.3083 14.4802 34.5931 15.618C35.0198 17.5528 36.7833 18.093 38.3198 17.7232C40.2826 17.2965 40.9938 15.7319 40.6524 14.1673C40.5385 13.7121 40.0833 11.8347 39.7705 10.4976C40.9368 9.78644 42.1601 9.21735 43.2128 8.96144C45.2896 8.50624 46.6833 9.35971 47.0531 10.8958C47.3944 12.375 46.7972 13.7406 45.1757 14.1104C44.2653 14.3094 43.3549 14.1389 42.3878 13.3993C42.217 13.8545 42.0465 14.4517 41.8188 14.9069C43.0135 15.8458 44.2653 16.0163 45.517 15.7319C48.3618 15.0778 49.3861 12.9441 48.817 10.4976C48.191 7.85172 45.8014 6.79929 42.8997 7.45346C41.9042 7.70971 40.624 8.27846 39.4292 8.98992C39.2299 8.13644 39.0024 7.11214 38.8031 6.14478C39.9698 5.71839 41.0222 5.26318 41.8472 4.7795L41.1927 3.10103ZM21.9903 14.1104C23.8111 16.2726 25.717 17.7517 27.1681 18.5482C26.9688 20.0278 26.3431 21.5923 25.6885 22.4743C26.4851 22.3604 26.8267 22.3889 27.225 22.6163C27.7938 21.45 28.2205 20.3406 28.3913 18.9465C30.2118 19.5156 31.3785 19.6576 32.4879 19.6295C32.4594 19.0035 32.5448 18.4913 32.7722 17.8941C30.9233 18.093 30.2688 18.0076 28.4483 17.4958C28.4198 15.4191 27.6517 13.1146 25.9733 9.89999C25.4896 10.3552 24.6931 10.9243 23.5267 11.6639L20.824 13.3993L19.6292 11.5215C20.2552 11.0948 22.1042 9.70103 23.1285 8.84756C24.2378 7.93714 24.4083 7.79478 24.949 7.59582C25.2618 7.48193 25.2903 7.28297 24.9205 7.22602C24.5792 7.16908 23.7826 6.77082 23.3559 6.45797C22.4455 7.73818 20.4257 9.61561 17.7517 11.2371C18.2924 11.9482 19.4587 13.6837 20.5681 15.476C22.9576 19.4587 23.6122 21.7344 23.242 24.3517C23.8111 24.1239 24.2663 24.0958 24.949 24.4087C25.1767 20.9948 24.0385 18.6337 21.4785 14.4517L21.9903 14.1104ZM23.1569 13.3993L25.4326 11.9198C26.5705 13.9396 26.9972 15.4191 27.1681 17.126C25.8309 16.3295 24.5792 15.1347 23.1569 13.3993ZM14.1674 14.7646L16.2722 13.4278L17.4104 17.8941C19.3448 18.5198 20.1983 19.2312 20.5396 19.8285C21.0802 20.8243 20.9948 21.3076 19.4302 21.9621C20.1698 22.218 20.7104 22.5878 21.0233 23.043C22.5309 21.9337 22.7017 20.5965 21.8483 19.2878C21.3361 18.4628 20.4257 17.5809 18.5483 17.0976L17.1826 11.351C16.6139 11.7493 15.817 12.2899 14.7646 12.9441C13.7406 13.6267 12.9156 14.1104 12.3181 14.4517C12.5174 14.708 12.9441 15.3337 13.2854 15.9028L18.2924 23.7257C19.0885 24.9489 19.6292 25.8594 20.4257 27.225L21.649 26.4569L14.1674 14.7646ZM7.39653 29.8989C9.04653 30.5819 10.3837 30.9517 11.8628 30.9802C13.4274 31.0371 15.6465 30.5535 17.2396 29.7854C16.8128 29.0173 16.6139 28.3059 16.6705 27.4239C15.5611 28.4482 13.9111 29.2163 12.4035 29.4156C10.2128 29.7 7.9941 29.3302 6.00278 28.3913C7.79479 26.0871 9.16042 24.4087 10.2413 23.2139L8.87604 22.1611C7.9941 23.4982 6.74236 25.2052 4.95 27.4809C4.3243 26.9121 3.4993 26.1441 2.58889 25.3757C2.19062 25.0059 1.96285 24.7215 1.96285 24.4656C1.99132 24.1524 1.87778 24.1239 1.70694 24.3517C1.36563 24.8354 0.853473 25.4042 0.369793 25.8878C1.25174 26.4285 2.30451 27.2535 4.01111 28.7042C2.33299 30.8094 1.05278 32.3739 0 33.5406L1.36562 34.593C2.2191 33.3413 3.41389 31.7198 5.03542 29.6146C6.94132 31.35 7.90868 32.9715 8.16458 34.3937C8.53437 36.4989 8.33542 38.0354 7.48195 40.2542C8.22153 39.9413 8.76216 39.8274 9.50174 39.9128C10.099 37.068 9.98542 34.6215 9.24584 32.9715C8.76216 31.8337 8.30695 30.9802 7.39653 29.8989Z"
        fill="white" />
    <path clip-rule="evenodd"
        d="M31.4922 52.6292C31.4922 52.6292 28.9033 54.2792 28.9033 56.7257C29.8707 57.0386 32.6016 57.4368 35.9016 55.9861C36.6127 55.5879 36.5561 55.8438 36.6127 55.5879C36.6981 55.3031 33.2561 54.9334 31.4922 52.6292Z"
        fill="#B68336" fill-rule="evenodd" />
    <path clip-rule="evenodd"
        d="M42.9284 51.4344C42.9284 51.4344 62.3016 60.6802 66.7964 73.8229C68.1332 78.2326 66.9954 79.9108 66.2843 82.4142C68.6169 82.699 70.9499 83.0118 69.9541 86.7386C68.9298 89.2705 64.4919 92.3427 62.2447 91.2049C60.2249 90.3514 59.4284 89.1851 59.286 88.4455C59.1436 87.7056 58.6034 88.616 58.6034 88.616C58.6034 88.616 50.7232 94.7892 43.5256 94.5049C39.7992 94.3056 28.8464 89.8677 27.2249 85.8281C25.6318 81.817 19.9138 68.8729 37.3808 55.4455C39.9982 53.682 43.2127 51.6052 42.9284 51.4344Z"
        fill="#FCD5CA" fill-rule="evenodd" />
    <path clip-rule="evenodd"
        d="M62.1594 65.9146C64.1792 68.3327 65.8292 70.9785 66.7966 73.8233C68.1334 78.2327 66.9955 79.9111 66.2844 82.4146C68.6171 82.699 70.9497 83.0118 69.9542 86.7386C68.9299 89.2705 64.4921 92.3427 62.2448 91.2049C60.225 90.3514 59.4285 89.1851 59.2862 88.4455C59.1438 87.7059 58.6035 88.616 58.6035 88.616C58.6035 88.616 50.7233 94.7892 43.5257 94.5049C42.075 94.4479 39.5146 93.7083 36.8691 92.6274C49.557 95.4153 65.2316 80.5653 60.8507 65.7153L62.1594 65.9146Z"
        fill="#FABEAE" fill-rule="evenodd" />
    <path clip-rule="evenodd"
        d="M42.9286 51.4342C42.9286 51.4342 60.4241 60.5946 66.7967 73.8227L70.7793 70.0109C70.7793 70.0109 79.0578 82.272 92.0015 71.8883C95.0741 64.4349 94.2491 61.5047 82.0731 45.4602C79.7119 39.5144 75.8998 33.1991 75.8998 33.1991C75.8998 33.1991 73.055 25.6317 59.0303 30.3258L58.6036 31.862C58.6036 31.862 57.3234 23.2422 48.4477 23.0429C42.3029 23.8963 37.4949 28.6474 39.3727 38.604C41.0512 41.3352 45.0908 46.655 47.6224 47.0817C44.5501 49.4998 42.9286 51.4342 42.9286 51.4342Z"
        fill="white" fill-rule="evenodd" />
    <path clip-rule="evenodd"
        d="M62.9843 68.3042L65.0041 77.9764C65.0041 77.9764 63.3825 79.4559 62.9273 81.4757C62.8134 82.8413 64.0367 83.467 65.0895 82.9548L67.6784 80.2809C67.6784 80.2809 67.3652 75.6437 66.711 73.3965C64.7197 69.8972 64.1221 68.6739 63.9801 68.7878C63.8093 68.8733 62.9843 68.3042 62.9843 68.3042Z"
        fill="#B98138" fill-rule="evenodd" />
    <path clip-rule="evenodd"
        d="M46.3992 54.2222C46.3992 54.2222 45.176 56.1281 38.0357 55.5309C34.252 55.1326 30.326 52.6576 31.6631 49.6135C31.8339 48.1628 33.4555 44.9767 36.6701 46.2569C38.1492 47.3093 39.8277 49.8128 40.3683 51.7757C41.2787 52.5722 42.1037 52.2309 42.1037 52.2309L46.3992 54.2222Z"
        fill="#B68336" fill-rule="evenodd" />
    <path clip-rule="evenodd"
        d="M36.2145 93.2817L35.0767 92.7126C35.0767 92.7126 36.6128 95.9556 37.5232 96.3824C36.6413 97.7195 36.8406 97.6626 36.5558 98.6015C35.1051 99.4834 33.6256 100.564 32.8291 100.707C34.0239 102.67 37.9784 105.77 43.2128 101.646C44.9482 101.731 45.9152 101.589 46.5413 101.162C47.0534 102.613 53.2833 109.042 60.31 104.348C59.5419 103.324 55.2461 100.707 54.5065 99.1136C54.3645 99.6254 54.3645 99.7108 54.336 100.109C54.2506 99.6254 53.9663 97.5775 52.7715 96.5247C54.7343 95.216 56.8395 94.1351 58.1194 89.4126C55.36 90.4938 49.1301 95.4153 36.2145 93.2817Z"
        fill="#030404" fill-rule="evenodd" />
    <path clip-rule="evenodd"
        d="M58.6602 104.149C57.4654 103.011 56.498 102.812 54.8765 101.02C54.8196 100.934 54.7345 100.849 54.6775 100.792L54.4782 101.731C53.4258 99.3698 53.5678 98.118 51.3491 96.667C50.0689 95.8135 48.163 95.4437 46.4845 96.4965C46.2852 97.2361 46.2282 97.6913 46.4845 98.6583C47.8213 103.523 55.2748 107.022 58.6602 104.149Z"
        fill="#ED2127" fill-rule="evenodd" />
    <path clip-rule="evenodd"
        d="M44.2938 94.5049C43.7247 94.5618 43.3264 94.4195 42.7577 94.7327C41.0223 95.7566 41.7334 99.4264 43.7247 100.65C44.2653 100.991 46.0862 100.735 46.6549 100.308C45.9438 99.4264 45.0903 97.8903 45.5455 96.0695C47.1671 95.0455 48.5042 94.4764 50.0688 94.9316C50.0973 94.9601 50.1257 94.9601 50.1542 94.9601L50.3247 95.017C50.9223 95.1875 51.2067 95.4438 51.8042 95.7566C53.0841 95.1025 53.966 94.3625 54.9334 93.424C55.673 92.7125 56.8108 91.3188 56.6688 90.5792C55.1042 91.3188 53.824 92.0584 52.231 92.6559C50.6091 93.2531 46.2851 94.391 44.2938 94.5049Z"
        fill="#ED2127" fill-rule="evenodd" />
    <path clip-rule="evenodd"
        d="M34.5361 100.934C35.1618 101.986 36.9542 102.584 38.092 102.555C39.5431 102.527 41.1646 101.816 42.5014 100.735C41.9327 100.023 40.7379 99.1415 40.9653 96.9228C40.9938 96.553 41.25 96.1547 41.0222 95.6141C39.7136 96.1547 38.775 96.4676 37.8361 98.2315C37.4094 99.0565 37.5233 99.2554 36.7552 99.6822C36.1292 100.052 35.1052 100.536 34.5361 100.934Z"
        fill="#ED2127" fill-rule="evenodd" />
    <path clip-rule="evenodd"
        d="M42.7291 94.3625C42.4162 94.1917 42.16 94.1632 41.7902 94.1632C40.8516 94.0782 36.8687 93.4521 36.8687 93.4521C37.4093 94.7893 37.7506 95.0736 38.6041 95.8132C39.3152 95.4434 39.9982 94.8462 40.7377 94.7893C41.7048 94.7323 41.6197 95.1875 42.7291 94.3625Z"
        fill="#ED2127" fill-rule="evenodd" />
    <path clip-rule="evenodd"
        d="M48.3906 81.9879C49.1302 75.9855 52.9708 74.3355 55.2181 75.1035C58.9163 76.3553 55.901 80.5372 53.8243 81.7886C53.8243 81.7886 51.9465 82.0164 50.3535 82.0733C49.5285 82.1018 48.8458 81.9879 48.3906 81.9879Z"
        fill="#F09886" fill-rule="evenodd" />
    <path clip-rule="evenodd"
        d="M50.7515 82.0164C50.7515 82.0164 53.9091 79.8542 54.3643 78.6879C54.1654 80.1386 53.3973 80.7077 52.8851 81.2483C53.6247 81.7035 54.3358 81.732 54.3358 81.732C54.3358 81.732 52.5154 82.0164 50.7515 82.0164Z"
        fill="#221F20" fill-rule="evenodd" />
    <path clip-rule="evenodd"
        d="M48.1914 81.9875C49.0449 75.3591 53.2553 73.5671 55.8438 74.3921C60.1112 75.8143 56.6404 80.3945 54.2223 81.7882H53.824C55.9008 80.5369 58.9164 76.3549 55.2181 75.1032C52.9706 74.3351 49.3293 75.9851 48.5897 81.9875H48.1914Z"
        fill="#030404" fill-rule="evenodd" />
    <path clip-rule="evenodd"
        d="M62.074 84.5481C62.074 84.5481 48.7886 102.499 31.5209 88.6162C20.1698 78.1759 26.9976 64.0085 37.4094 56.1853C37.1535 55.9578 36.4139 56.0148 36.1862 55.7585C31.2931 59.6276 23.2709 67.5929 23.7261 77.8342C24.9778 96.1266 52.9136 101.304 62.074 84.5481Z"
        fill="#030404" fill-rule="evenodd" />
    <path
        d="M31.4925 79.1697L31.4355 79.0023C31.8911 78.8475 32.2105 78.587 32.3852 78.228C32.7046 77.5707 32.4359 76.7905 32.4331 76.7825L32.5998 76.7235C32.6123 76.7582 32.8967 77.5791 32.5453 78.3041C32.3491 78.7082 31.9949 78.9995 31.4925 79.1697Z"
        fill="#030404" />
    <path clip-rule="evenodd"
        d="M38.007 63.1552C38.6612 63.1552 38.9174 64.2646 38.5761 65.6302C38.2629 66.9958 37.4664 68.1052 36.8122 68.1052C36.1865 68.1052 35.9018 66.9958 36.2431 65.6302C36.5563 64.2646 37.3528 63.1552 38.007 63.1552Z"
        fill="#030404" fill-rule="evenodd" />
    <path clip-rule="evenodd"
        d="M39.2873 56.7258C40.2832 56.7258 41.0512 57.5223 41.0512 58.4897C41.0512 58.8879 40.9373 59.2577 40.7099 59.5706C40.5391 59.4282 40.3398 59.2862 40.1693 59.1723C40.3116 59.0018 40.3967 58.7456 40.3967 58.4897C40.3967 57.8921 39.9134 57.3799 39.2873 57.3799C38.6901 57.3799 38.2064 57.8351 38.178 58.4327C37.9217 58.3758 37.6943 58.3473 37.5234 58.3188C37.6373 57.4084 38.3769 56.7258 39.2873 56.7258Z"
        fill="#030404" fill-rule="evenodd" />
    <path clip-rule="evenodd"
        d="M59.2007 88.5308C63.2118 94.8179 73.4531 87.2221 68.1903 83.211C66.5403 82.1585 65.2601 82.8981 65.2601 82.8981C65.2885 82.8412 65.3455 82.8127 65.3739 82.7558C65.8007 82.386 67.3083 81.2481 69.2712 82.5283C74.9042 87.0231 62.4437 97.2075 59.2007 88.5308Z"
        fill="#030404" fill-rule="evenodd" />
    <path clip-rule="evenodd"
        d="M50.1825 68.8731C51.6332 68.8731 52.8283 70.0679 52.8283 71.5475C52.8283 71.9457 52.7429 72.344 52.5721 72.6853C52.4016 72.4291 52.2023 72.1731 51.9748 71.9457C52.003 71.8034 52.003 71.6895 52.003 71.5475C52.003 70.5231 51.1783 69.6981 50.1825 69.6981C49.4998 69.6981 48.9023 70.0679 48.5894 70.6086C48.2481 70.6086 47.9349 70.6655 47.6221 70.7225C47.9634 69.6412 48.9877 68.8731 50.1825 68.8731Z"
        fill="#030404" fill-rule="evenodd" />
    <path clip-rule="evenodd"
        d="M41.819 70.3524C43.8957 70.3524 45.3179 72.0309 45.0051 74.0792C44.7207 76.1274 42.8148 77.8059 40.7665 77.8059C38.7183 77.8059 37.2672 76.1274 37.5801 74.0792C37.8648 72.0309 39.7707 70.3524 41.819 70.3524Z"
        fill="#030404" fill-rule="evenodd" />
    <path clip-rule="evenodd"
        d="M91.7452 68.8729C92.7407 67.2514 92.94 64.1507 92.5133 62.4722C91.9727 60.424 90.8633 58.0059 89.4692 56.0142C88.2178 54.2222 86.6529 51.4629 85.9133 49.642C85.4581 48.5327 85.1168 47.5653 84.8609 46.4274C84.747 45.8299 84.5477 43.6681 84.8324 43.1844C85.0883 44.5212 85.1168 45.4601 85.7713 46.8827C86.2831 48.049 86.8807 49.3577 87.7057 50.5524C89.3272 52.9136 91.1477 55.5594 92.5987 57.949C94.3907 60.8507 94.647 62.4438 94.7039 65.374C94.7324 67.3938 93.5942 70.8643 91.6029 72.8556L90.3511 74.1358C89.2702 75.2455 86.5678 76.6108 85.4581 76.8952C83.4952 77.4358 82.5564 77.5212 80.565 77.5497C77.8057 77.5781 73.5098 76.0136 70.722 73.2823L70.0678 72.6851L68.5317 70.9212C70.3237 67.991 69.9824 66.6538 68.3039 63.7809C67.3084 62.074 64.3213 58.3188 62.6713 56.6688L62.3015 56.3274C59.6841 53.767 55.8438 51.6618 53.198 50.5809C48.0775 47.9351 45.5456 46.8542 45.5456 46.8542L41.648 43.924L40.1404 42.4448C37.6369 39.9698 36.6695 36.2715 37.0112 33.7681C37.381 31.1507 38.4619 27.6233 41.0223 25.0059C45.3748 20.5681 51.8893 21.3646 56.3272 25.7455C57.0671 26.457 57.5508 27.282 58.0626 28.0215C58.5463 28.7611 58.6602 29.757 59.03 30.3257C63.3824 25.8879 73.5668 27.6802 78.2609 32.2886L78.6022 32.6302C80.5081 34.5077 81.5609 37.1531 81.9591 39.0594C82.4143 41.2497 82.8411 43.3267 83.3248 45.517C83.7511 47.5368 84.4626 49.9833 85.2876 51.9747C85.7428 53.0559 86.1126 54.1368 86.6813 55.1892C86.8807 55.5594 88.3883 58.2903 88.4168 58.4042C84.8039 54.8479 82.3004 50.2396 80.6789 46.6264C79.0574 42.9566 78.147 38.2344 74.648 34.792L73.7091 33.8816C71.8883 32.1181 68.4748 30.8948 66.6539 30.8663C65.2317 30.8379 64.5487 30.8663 63.1265 31.1792C62.6143 31.2931 59.997 32.232 59.6272 32.6302C59.4567 32.8007 59.03 34.2799 58.8591 34.65C58.6317 35.2188 57.9772 36.2146 57.8067 36.6983C57.7498 36.5844 57.8352 34.5931 57.8067 34.2518C57.8067 33.5688 57.5223 32.4879 57.2945 31.7767C56.7539 30.2403 55.9574 28.3629 54.4213 26.8552L54.1369 26.5705C50.9223 23.4129 45.8015 23.3844 42.6438 26.599C38.7748 30.5535 39.1445 38.0351 43.1275 41.9611L43.6112 42.4163C44.8341 43.6111 45.9723 44.2938 47.1956 44.9198C48.1626 45.3747 50.3532 45.8868 50.78 46.1715C50.9223 45.9438 50.6376 44.7774 50.6376 44.4361C50.6376 43.7247 50.6376 43.3267 50.8084 42.6438C51.0077 41.6198 51.6904 40.0267 52.5154 39.0309C52.5438 39.1163 52.1456 40.8233 52.1741 41.3066C52.1741 42.1031 52.1741 42.7292 52.3161 43.5542C52.4584 44.6351 53.0841 47.0247 54.1084 48.0205L54.3928 48.3049C55.0189 48.9309 56.0713 49.3292 56.6688 49.8698C56.7539 49.3577 56.4695 48.6747 56.5834 48.0205C56.6688 47.3094 56.6688 46.7972 56.9248 46.1146C57.2945 44.9479 57.9772 43.4972 59.1154 42.3309L59.3428 42.1031C60.0539 41.392 62.1307 39.6851 62.7282 39.5715C60.3102 42.0465 59.172 44.2653 58.973 46.7118C58.7737 49.0163 59.2574 51.6049 61.5334 53.8524C61.7324 53.5396 61.8178 52.999 62.1022 52.5153C62.33 52.174 62.8987 51.4344 63.1834 51.1212C63.7237 50.5809 64.6626 49.8129 65.2032 49.7844C63.5248 51.491 63.0695 53.6816 63.6386 55.3316C64.1504 56.8677 66.3126 59.3427 67.8487 60.8507L68.7591 61.7608C70.8928 63.8375 73.3963 64.9757 75.5015 65.0042C76.7248 65.0323 77.6063 65.0323 78.8296 64.9757C79.5411 64.9472 81.8168 64.4636 82.1866 64.5205C81.3046 65.4021 78.4314 66.5118 77.4643 66.7108C75.9567 67.024 74.2498 67.0806 72.7418 66.7962C72.315 68.1903 72.9411 70.5514 74.3918 71.974L75.2737 72.8271C76.8952 74.4486 80.3661 74.9608 82.0445 75.0177C83.7796 75.0747 87.1081 74.4205 88.7866 72.7136L90.2091 71.3479L91.4609 69.5271L91.7452 68.8729Z"
        fill="#030404" fill-rule="evenodd" />
    <path clip-rule="evenodd"
        d="M66.7963 73.8228L66.7394 73.8513C61.9317 65.6013 53.2835 56.2704 41.2217 52.5722L44.6067 50.2961C52.0602 53.4541 64.7196 65.4874 66.7963 73.8228Z"
        fill="#030404" fill-rule="evenodd" />
    <path clip-rule="evenodd"
        d="M32.6589 77.948C32.6589 77.948 40.9374 83.2962 55.019 81.6747C51.2356 82.3289 40.9089 83.4101 32.3745 78.3747L32.6589 77.948Z"
        fill="#030404" fill-rule="evenodd" />
    <path clip-rule="evenodd"
        d="M40.2543 71.3481C40.7096 71.3481 41.0224 71.7179 40.9655 72.2016C40.9085 72.6568 40.4537 73.0266 39.9984 73.0266C39.5432 73.0266 39.2019 72.6568 39.287 72.2016C39.3439 71.7179 39.7707 71.3481 40.2543 71.3481Z"
        fill="white" fill-rule="evenodd" />
    <path clip-rule="evenodd"
        d="M67.5362 86.3404C67.5362 86.3404 67.3939 84.7189 65.5449 84.8897C62.6147 85.2311 62.2734 89.2706 65.232 88.4741C61.4199 88.2748 65.2886 83.5526 67.5362 86.3404Z"
        fill="#030404" fill-rule="evenodd" />
    <path clip-rule="evenodd"
        d="M68.731 70.58C68.731 70.58 67.6501 72.6852 65.8008 74.2498C68.1904 73.7945 69.6699 71.8317 69.6699 71.8317L68.731 70.58Z"
        fill="#030404" fill-rule="evenodd" />
    <path clip-rule="evenodd"
        d="M39.0312 85.1169C39.0312 85.1169 42.1889 86.1978 45.5743 85.2593C42.1889 86.9662 39.0312 85.1169 39.0312 85.1169Z"
        fill="#030404" fill-rule="evenodd" />
    <path clip-rule="evenodd"
        d="M53.5398 63.3542C54.5356 63.3542 55.3037 64.1507 55.3037 65.1181C55.3037 65.5448 55.1898 65.8861 54.962 66.199C54.7915 66.0566 54.5922 65.9431 54.4217 65.8292C54.5641 65.6302 54.6491 65.4024 54.6491 65.1181C54.6491 64.5205 54.1655 64.0083 53.5398 64.0083C52.9422 64.0083 52.4589 64.492 52.4304 65.0611C52.1741 65.0042 51.9467 64.9757 51.7759 64.9472C51.8898 64.0653 52.6294 63.3542 53.5398 63.3542Z"
        fill="#030404" fill-rule="evenodd" />
    <path clip-rule="evenodd"
        d="M66.7962 73.823C66.7962 73.823 66.7677 73.9369 66.5118 74.0504C67.166 75.3875 68.0194 80.3375 64.7764 83.0969L66.284 82.4143C66.284 82.4143 70.0677 78.9435 66.7962 73.823Z"
        fill="#030404" fill-rule="evenodd" />
    <path clip-rule="evenodd"
        d="M30.5251 53.0275L30.9234 53.6817C27.4525 55.9008 31.0657 57.9206 35.3897 56.1282C29.2734 59.798 26.4001 55.7015 30.5251 53.0275Z"
        fill="#030404" fill-rule="evenodd" />
    <path clip-rule="evenodd"
        d="M62.9843 68.304C62.9843 68.304 63.9517 76.7529 64.3499 77.9762C62.7854 79.4842 60.4239 83.5807 64.7767 83.097C63.3826 82.5279 62.0454 81.6745 65.7152 78.4314C64.1222 71.6894 62.9843 68.304 62.9843 68.304Z"
        fill="#030404" fill-rule="evenodd" />
    <path clip-rule="evenodd"
        d="M40.0269 50.4101C40.681 51.2351 40.3966 51.9462 46.1147 46.2851C47.8216 47.0532 49.0449 48.0775 49.0449 48.0775C49.0449 48.0775 40.738 53.4258 40.6244 52.6008C40.1123 51.1782 40.0269 50.4101 40.0269 50.4101Z"
        fill="#030404" fill-rule="evenodd" />
    <path clip-rule="evenodd"
        d="M40.7664 52.6862C40.7664 52.6862 39.0594 45.2612 35.4751 45.5456C31.8622 45.8303 28.1355 51.5484 32.6872 54.3078C35.4751 55.8723 36.6414 56.0716 36.6414 56.0716L37.239 56.2991L38.2629 55.5595L37.381 55.4456C37.381 55.4456 30.8664 54.4501 31.6629 49.614C32.1466 47.1956 34.5647 46.1432 35.8449 46.456C37.1535 46.7973 38.2629 47.0536 40.7664 52.6862Z"
        fill="#030404" fill-rule="evenodd" />
    <path
        d="M96.4392 101.588C96.4107 101.731 96.3538 101.844 96.2968 101.93C96.1548 102.243 95.927 102.556 95.6996 102.84L95.1875 103.324C95.4718 103.494 95.785 103.694 96.0979 103.921C96.4107 104.149 96.6951 104.405 96.9798 104.661L97.634 105.23L98.9712 105.031L98.2031 104.405C97.8048 104.063 97.4632 103.665 97.1503 103.21C96.8659 102.726 96.6382 102.214 96.4392 101.588ZM103.267 103.807L103.978 106.766C103.324 106.709 102.698 106.595 102.129 106.424C101.56 106.282 100.962 106.083 100.365 105.799L98.4021 106.083C99.1986 107.136 99.7392 108.018 99.9666 108.814C100.28 109.781 100.166 110.578 99.6538 111.176C99.3125 111.574 98.9142 111.801 98.4875 111.858C98.0323 111.915 97.634 111.773 97.2927 111.46C96.9229 111.176 96.7236 110.805 96.6666 110.407C96.61 109.98 96.7236 109.639 96.9798 109.326C97.2642 108.985 97.7479 108.786 98.3736 108.729C98.2031 108.274 98.0323 107.847 97.8333 107.449C97.634 107.051 97.4066 106.652 97.1503 106.254L94.96 106.567L94.7323 105.656L96.4392 105.401L95.6711 104.718C95.4434 104.547 95.2444 104.376 95.017 104.234C94.8177 104.063 94.6184 103.949 94.4194 103.836C94.1066 103.978 93.8218 104.063 93.5659 104.12C93.2816 104.149 92.7409 104.206 91.8875 104.262V103.893C91.9729 103.864 92.0583 103.836 92.1152 103.807C92.4566 103.608 92.7409 103.409 92.9684 103.21L92.1437 103.039L92.2003 102.328C92.3996 102.328 92.684 102.385 93.0538 102.47C93.1677 102.499 93.3385 102.556 93.5375 102.584C93.8218 102.271 93.9927 101.958 94.0781 101.617C94.135 101.304 94.1632 100.792 94.135 100.109L96.6382 100.138C96.6666 100.394 96.6382 100.649 96.61 100.906C96.61 100.934 96.61 100.991 96.5816 101.076L96.8944 100.906C97.0083 101.162 97.1503 101.361 97.2357 101.503C97.5486 101.987 97.8333 102.328 98.1177 102.556C98.7434 103.124 99.5118 103.494 100.336 103.722C101.161 103.921 102.157 103.949 103.267 103.807ZM95.1021 112.171L95.1305 115.386C93.9927 115.272 92.9402 115.044 92.0014 114.674C91.0625 114.305 90.1236 113.764 89.1566 112.996L88.8437 113.423C89.4125 114.162 89.8961 114.902 90.2375 115.642C90.6642 116.58 90.9201 117.576 91.0625 118.629L87.9048 117.775C87.8479 117.121 87.7909 116.552 87.7055 116.154C87.6205 115.727 87.4781 115.272 87.2788 114.788C86.9944 114.93 86.71 115.044 86.4823 115.13C86.4253 115.158 86.1409 115.215 85.6857 115.329L85.4868 114.646C86.1125 114.476 86.5961 114.276 86.9375 114.02C86.6816 113.508 86.3968 113.053 86.084 112.626C85.6288 112.086 85.202 111.659 84.8038 111.346C84.3774 111.033 83.7798 110.72 83.0118 110.407L83.2677 109.639C84.235 109.98 85.06 110.351 85.7427 110.777C86.3968 111.176 87.1652 111.773 87.9618 112.541L88.1607 112.086C88.0753 111.972 87.9902 111.887 87.9333 111.83C87.5066 111.346 87.2218 111.005 87.0229 110.749C86.767 110.436 86.5677 110.18 86.4538 109.98C86.3118 109.81 86.2263 109.639 86.1409 109.497L86.71 109.184C87.1083 109.696 87.4212 110.066 87.677 110.379C87.9333 110.663 88.1607 110.891 88.3885 111.033C88.5305 110.151 88.5305 109.326 88.36 108.53C88.1892 107.762 87.8479 106.937 87.3357 106.083L90.2375 106.311C90.4652 107.249 90.5503 108.16 90.4652 109.013C90.4083 109.867 90.152 110.834 89.7253 111.83C90.6642 112.285 91.5462 112.541 92.3427 112.598C93.1392 112.626 94.0781 112.484 95.1021 112.171ZM80.8496 114.76C80.7357 114.874 80.6507 114.959 80.5937 115.016C80.309 115.244 80.0246 115.471 79.6833 115.642L79.0288 115.926C79.2281 116.182 79.4555 116.467 79.6548 116.808C79.8538 117.121 80.0531 117.462 80.2239 117.804L80.6222 118.572L81.9024 118.885L81.4187 118.003C81.1909 117.548 81.0204 117.064 80.9066 116.524C80.8211 115.983 80.7927 115.386 80.8496 114.76ZM86.3687 119.34L85.9135 122.355C85.3444 122.043 84.8038 121.701 84.3489 121.36C83.8652 121.019 83.3816 120.592 82.9264 120.137L80.992 119.653C81.3618 120.905 81.5041 121.957 81.4472 122.782C81.3902 123.778 80.992 124.489 80.309 124.83C79.8257 125.087 79.3705 125.143 78.9437 125.058C78.517 124.944 78.1757 124.66 77.9764 124.262C77.7489 123.835 77.692 123.408 77.8059 123.01C77.8909 122.612 78.1187 122.327 78.4885 122.128C78.8868 121.929 79.3705 121.929 79.9961 122.099C80.0246 121.616 79.9961 121.161 79.9677 120.705C79.9392 120.279 79.8538 119.823 79.7687 119.369L77.635 118.828L77.7489 117.918L79.427 118.287L78.9437 117.377C78.8298 117.121 78.6875 116.894 78.5454 116.694C78.4031 116.467 78.2607 116.268 78.1472 116.097C77.8059 116.097 77.4927 116.097 77.2368 116.04C76.9809 115.983 76.4402 115.812 75.6152 115.556L75.7573 115.215H75.985C76.3833 115.158 76.7246 115.101 77.009 114.987L76.2979 114.504L76.6392 113.878C76.81 113.963 77.0659 114.105 77.3791 114.333C77.4642 114.39 77.6066 114.504 77.7774 114.618C78.1472 114.419 78.4316 114.191 78.6024 113.906C78.8014 113.622 79.0007 113.167 79.2281 112.512L81.5607 113.48C81.4757 113.707 81.3902 113.963 81.2479 114.191C81.2479 114.219 81.1909 114.276 81.1625 114.333L81.5041 114.305C81.5323 114.589 81.5607 114.788 81.6177 114.959C81.7316 115.528 81.8739 115.955 82.0444 116.268C82.4142 117.036 82.9833 117.662 83.6659 118.173C84.3774 118.657 85.259 119.055 86.3687 119.34ZM75.3309 122.697C75.6722 123.892 75.5868 124.973 75.0462 125.94C74.5059 126.879 73.6239 127.533 72.3722 127.903C70.9781 128.301 69.7548 128.216 68.7024 127.618C67.5361 126.964 66.7111 125.826 66.2559 124.148L69.0722 124.489C69.8118 125.741 70.7791 126.224 71.917 125.883C72.6566 125.655 73.2541 125.2 73.6239 124.518C74.0222 123.806 74.1076 123.095 73.8798 122.327C73.7944 122.043 73.7375 121.844 73.6239 121.673C73.5385 121.502 73.3961 121.303 73.1687 121.075L72.3437 122.953L71.6041 123.18C70.0677 123.607 68.7593 123.636 67.6496 123.266C66.5687 122.896 65.8576 122.156 65.5444 121.075C65.2885 120.137 65.4309 119.198 65.9996 118.316C66.5687 117.434 67.3937 116.837 68.5031 116.524C69.2996 116.296 70.0961 116.239 70.8927 116.381C71.6607 116.524 72.5427 116.894 73.4816 117.434L73.3111 117.918C72.4007 117.576 71.6326 117.377 70.9496 117.292C70.2954 117.235 69.6413 117.292 68.9583 117.491C68.2472 117.69 67.7066 118.031 67.3652 118.487C67.0239 118.942 66.91 119.425 67.0809 119.966C67.2514 120.592 67.7066 120.99 68.4177 121.218C69.1291 121.445 69.9541 121.417 70.8927 121.161C71.1489 121.075 71.4048 120.99 71.6326 120.876C71.8316 120.791 72.059 120.648 72.3437 120.478C71.917 120.307 71.5757 120.194 71.2909 120.137C70.9781 120.108 70.5798 120.08 70.0396 120.108L69.8687 119.568C70.5514 119.539 71.092 119.539 71.5187 119.596C71.9454 119.653 72.4291 119.767 72.9694 119.966C73.1402 119.795 73.2826 119.653 73.3961 119.482C73.51 119.312 73.6809 119.084 73.8514 118.771L74.1361 118.856L73.5385 120.25C73.9937 120.506 74.392 120.819 74.6479 121.218C74.9323 121.587 75.16 122.099 75.3309 122.697ZM62.7566 124.83C62.6146 123.749 62.1878 122.924 61.4479 122.327C60.7083 121.73 59.7982 121.502 58.6885 121.644L57.4368 120.222C56.8395 121.047 56.4413 121.73 56.242 122.298C56.043 122.868 55.9861 123.494 56.0715 124.119C56.185 125.087 56.5833 125.855 57.2378 126.48C57.9489 127.163 58.8024 127.476 59.7982 127.448L60.9645 129.126C61.6757 128.33 62.1593 127.59 62.4437 126.907C62.7566 126.224 62.8705 125.513 62.7566 124.83ZM64.3211 123.664C64.6059 126.025 63.61 127.988 61.2489 129.581L61.6472 130.093C61.4764 130.15 61.3059 130.207 61.135 130.264C60.9361 130.321 60.7937 130.349 60.7083 130.349C60.5378 130.378 60.31 130.378 60.0257 130.349C59.9972 130.378 59.9402 130.378 59.8548 130.349L58.8024 130.805L58.575 130.435L59.0014 130.179C57.8066 129.809 56.8111 129.155 55.9861 128.244C55.1895 127.305 54.7059 126.281 54.5635 125.087C54.45 124.148 54.5635 123.266 54.9618 122.441C55.3316 121.644 56.043 120.762 57.0955 119.852L56.2989 118.97C56.4128 118.942 56.4982 118.913 56.5548 118.913C57.067 118.828 57.3798 118.771 57.4652 118.743C57.835 118.714 58.2902 118.686 58.7739 118.714C58.9448 118.743 59.1722 118.743 59.4281 118.799C59.5704 118.714 59.7128 118.657 59.7982 118.629C60.1395 118.515 60.4524 118.401 60.7083 118.316L60.8791 118.743L60.3385 118.998C62.6996 119.994 64.0368 121.53 64.3211 123.664ZM49.2722 127.59L46.8826 130.236C46.6833 130.264 46.5128 130.264 46.3989 130.264C46.0007 130.264 45.7163 130.236 45.4604 130.207C43.81 130.008 42.6152 129.411 41.8757 128.443C41.0222 127.362 40.7093 125.769 40.9937 123.693C40.8802 123.721 40.6809 123.863 40.425 124.091C40.3395 124.176 40.2257 124.29 40.0552 124.432L39.6284 124.091C39.8559 123.863 40.0267 123.664 40.1402 123.522C40.5388 123.095 40.9086 122.839 41.2215 122.725C41.3354 122.242 41.4774 121.844 41.6482 121.502C41.7902 121.189 42.1034 120.648 42.5868 119.909C42.3593 119.767 42.018 119.482 41.5628 119.084C41.4204 118.97 41.2215 118.771 40.9371 118.544L41.3923 118.202C41.5913 118.373 41.7621 118.487 41.9041 118.572C42.3309 118.856 42.7576 119.027 43.1559 119.055C43.2413 118.942 43.4118 118.799 43.6111 118.572C43.6395 118.544 43.6965 118.487 43.7534 118.43L44.1232 118.828L43.7534 119.255L44.7489 119.425C45.517 119.511 46.1715 119.539 46.7402 119.454C47.3093 119.34 47.9069 119.141 48.4757 118.828L49.9548 120.99C48.8455 121.473 47.6507 121.644 46.3989 121.473C45.2895 121.331 44.1802 120.933 43.0989 120.25C42.9 120.648 42.7291 120.99 42.6437 121.303C42.5302 121.587 42.4448 121.929 42.4163 122.327C42.5868 122.327 42.7291 122.298 42.843 122.298C43.2128 122.27 43.5826 122.298 43.9524 122.355C44.5784 122.412 45.0902 122.555 45.4604 122.782C45.8302 122.981 46.2569 123.323 46.6833 123.835L44.6354 125.485C44.2371 124.973 43.8954 124.574 43.5541 124.318C43.2413 124.091 42.843 123.863 42.3309 123.693C42.4448 124.859 42.843 125.826 43.5257 126.566C44.2086 127.305 45.0621 127.732 46.143 127.874C46.5698 127.931 46.9965 127.931 47.4517 127.903C47.8784 127.874 48.4757 127.761 49.2722 127.59ZM37.7791 126.452L35.2757 128.159C34.6784 127.448 34.1093 126.85 33.5691 126.423C33.0284 125.997 32.5163 125.684 32.0326 125.541C31.8336 125.456 31.6913 125.428 31.6059 125.399H31.5208C31.2076 125.684 30.9802 125.883 30.8378 125.997C30.6104 126.168 30.2691 126.423 29.8423 126.708L29.5861 126.253C29.7569 126.139 29.8708 126.025 29.9559 125.968C30.2121 125.741 30.4111 125.57 30.4965 125.428C30.2406 125.428 29.8423 125.541 29.2732 125.741C29.1024 125.826 28.8465 125.94 28.5052 126.082L28.2774 125.627C29.4725 124.973 30.4395 124.603 31.1507 124.489C31.3215 124.205 31.4923 123.892 31.6343 123.55C31.7767 123.237 31.9191 122.924 32.0041 122.64C32.4024 121.502 32.6017 120.563 32.6017 119.738C32.6302 118.799 32.4024 117.861 31.976 116.922L34.7354 115.3C34.9628 116.268 35.0198 117.149 34.9913 117.974C34.9343 118.799 34.7354 119.681 34.4222 120.62C34.2232 121.189 34.0243 121.673 33.825 122.043C33.6257 122.412 33.1989 123.095 32.5732 124.062C32.6871 124.091 32.7722 124.119 32.8576 124.119C33.4836 124.233 34.1093 124.404 34.7354 124.603C35.3611 124.83 35.8732 125.058 36.243 125.286C36.6413 125.513 37.125 125.912 37.7791 126.452ZM31.2645 116.467C31.1225 116.438 31.0086 116.438 30.9517 116.467C30.7243 116.467 30.4965 116.495 30.2975 116.524L30.3541 117.377L29.643 117.434L29.5007 116.524C29.0458 116.666 28.7326 116.78 28.5336 116.894C28.3628 117.036 27.993 117.32 27.4809 117.804C27.4524 117.377 27.4524 117.007 27.4809 116.723C27.5378 116.467 27.6517 116.154 27.8225 115.869C28.0215 115.528 28.2774 115.215 28.6191 114.93C28.7326 114.845 28.875 114.731 29.1024 114.589C28.9604 114.39 28.8465 114.248 28.7611 114.134C28.4482 113.764 28.1354 113.48 27.7941 113.309C26.9691 112.826 26.0586 112.769 25.0913 113.167C24.0958 113.537 23.2993 114.276 22.7017 115.329C22.076 116.41 21.9052 117.491 22.1895 118.572C22.4743 119.653 23.1284 120.506 24.2093 121.104C24.7784 121.445 25.3191 121.616 25.8878 121.644C26.4284 121.644 27.1111 121.502 27.9361 121.218L28.1069 121.644L23.4982 123.494C23.3562 123.437 23.1854 123.351 23.0145 123.294C22.8725 123.209 22.7017 123.152 22.5878 123.067C21.2795 122.327 20.4826 121.218 20.1698 119.795C19.8569 118.344 20.1128 116.922 20.9663 115.471C21.7913 114.02 22.901 113.024 24.2948 112.456C25.6889 111.915 26.9691 111.972 28.1069 112.626C28.5336 112.882 28.9319 113.224 29.3017 113.651C29.4441 113.793 29.5861 113.992 29.7569 114.248C29.9559 114.191 30.2406 114.134 30.5819 114.077C30.6673 114.077 30.8378 114.049 31.0086 114.049L31.2645 116.467ZM21.7913 111.574C21.0802 111.858 20.426 112.143 19.8854 112.456C19.3448 112.74 18.6906 113.195 17.9225 113.793C17.8086 114.76 17.6382 115.812 17.3534 116.95L16.0448 117.292L15.8458 118.287H15.2767L15.3621 117.491L14.3948 117.747C15.1347 116.012 15.675 114.504 15.9597 113.252C16.2725 111.972 16.4145 110.578 16.4145 109.099C16.2725 109.355 16.1017 109.639 15.8743 109.952C15.675 110.265 15.4475 110.521 15.2482 110.777C13.9965 112.37 12.3465 113.622 10.2416 114.589V111.574C11.7493 111.005 12.9441 110.493 13.7406 109.98C14.5656 109.497 15.2482 108.871 15.8458 108.131C15.9882 107.989 16.0732 107.847 16.1302 107.733C16.2156 107.619 16.2441 107.506 16.301 107.42C16.2725 107.249 16.2441 107.136 16.2441 107.022C16.1586 106.368 16.0448 105.856 15.9027 105.429L16.443 105.173L16.8128 106.14L16.8698 105.514H17.5527C17.5243 105.77 17.4958 105.941 17.4673 106.083C17.4104 106.567 17.325 106.994 17.2395 107.335C17.4958 108.16 17.6948 108.843 17.7802 109.383C17.8941 109.924 17.9795 110.549 18.0079 111.318C18.5198 110.692 19.0319 110.151 19.5441 109.753C20.0562 109.383 20.7388 108.956 21.6208 108.53L21.7913 111.574ZM15.9597 104.092C15.4191 104.291 14.8784 104.519 14.3382 104.803C13.826 105.116 13.2569 105.514 12.6882 106.026C12.2614 106.396 11.8632 106.766 11.493 107.107C11.1517 107.449 10.7819 107.819 10.3552 108.217C9.5017 108.956 8.22184 109.326 6.45795 109.326L7.25448 109.724L7.0267 110.208C6.65691 110.037 6.37253 109.895 6.17322 109.781C6.00274 109.696 5.74649 109.497 5.40517 109.241L4.751 109.127L4.83642 108.757C4.12496 107.705 3.78365 106.737 3.84059 105.856C3.89753 104.661 4.63711 103.466 6.00274 102.271C6.88468 101.503 7.53885 100.849 7.93711 100.365C8.30691 99.8529 8.6201 99.2842 8.876 98.6582L11.7208 98.6012C11.5784 99.2273 11.351 99.7679 11.0663 100.194C10.7534 100.621 10.2982 101.162 9.61559 101.731C9.18885 102.101 8.70517 102.47 8.22184 102.84C7.70969 103.21 7.16906 103.608 6.62843 104.035C5.80343 104.746 5.26315 105.372 5.03537 105.969C4.77947 106.567 4.77947 107.221 5.03537 107.904L5.3201 106.624C6.31558 107.221 7.31142 107.477 8.30691 107.335C9.01836 107.249 9.58711 107.022 10.0423 106.624L11.2371 105.571C11.9482 104.945 12.7732 104.462 13.6836 104.092C14.5941 103.722 15.3336 103.637 15.9312 103.807L15.9597 104.092Z"
        fill="white" />
</svg>
