<svg fill="none" height="47" viewBox="0 0 60 47" width="60" xmlns="http://www.w3.org/2000/svg">
    <path clip-rule="evenodd"
        d="M17.4124 16.8902C17.4124 16.8902 15.9084 6.20284 20.7841 3.49432C20.7841 3.49432 20.6276 4.4179 21.7423 4.79569C23.2224 5.30059 18.5378 9.29625 17.4124 16.8902Z"
        fill="#A9CEE9" fill-rule="evenodd" />
    <path clip-rule="evenodd"
        d="M2.15613 1.08003C2.29924 8.44555 8.93497 14.339 17.1939 13.6208C17.0818 6.3175 10.4203 0.330673 2.15613 1.08003Z"
        fill="#A9CEE9" fill-rule="evenodd" />
    <path clip-rule="evenodd"
        d="M23.8847 16.764C21.489 16.436 19.113 17.1996 16.9983 18.6565C14.8844 17.1996 12.5057 16.436 10.1101 16.764C3.41924 17.6787 -0.910651 23.9215 0.163155 31.7813C0.90273 37.201 4.05748 42.4491 8.12247 44.9203C8.64071 45.2341 9.17228 45.5034 9.71452 45.723C11.1323 46.2937 12.9519 45.4652 14.4711 45.2572C14.9129 45.1967 15.2809 45.315 15.632 45.4341C16.0782 45.5843 16.496 45.7345 16.9983 45.5185C17.5201 45.7434 17.8943 45.6732 18.3139 45.603C18.6143 45.5532 18.937 45.5025 19.3539 45.5603C21.001 45.7852 23.0864 46.2154 24.5753 45.4927C29.1292 43.2767 32.7 37.3023 33.8325 31.7813C35.3641 24.3073 30.5764 17.6787 23.8847 16.764Z"
        fill="#418ABF" fill-rule="evenodd" />
    <path clip-rule="evenodd"
        d="M25.2127 15.3382C24.8144 15.2839 24.4171 15.2573 24.0215 15.2573C22.9406 15.2573 21.8748 15.4546 20.849 15.8128C19.8223 16.1711 18.8347 16.6884 17.9022 17.3311L18.2436 17.8262L18.5849 17.3311C17.6516 16.6884 16.664 16.1711 15.6373 15.8128C14.6115 15.4546 13.5457 15.2573 12.4648 15.2573C12.0692 15.2573 11.671 15.2839 11.2727 15.3382C9.69758 15.5542 8.24065 16.052 6.94373 16.7906C4.99879 17.8982 3.41919 19.5445 2.33116 21.565C1.24314 23.5864 0.64401 25.9811 0.644898 28.5936C0.644898 29.3883 0.700011 30.2025 0.812903 31.0328C1.07602 32.9599 1.63337 34.8587 2.42183 36.6285C3.60498 39.2819 5.30546 41.6464 7.34196 43.3655C8.35977 44.2242 9.46291 44.922 10.6292 45.4065C11.7945 45.8901 13.0248 46.1603 14.2835 46.1603C14.6782 46.1603 15.0764 46.1336 15.4755 46.0794C16.5306 45.9345 17.5369 45.6474 18.4809 45.242L18.2436 44.6891L18.0062 45.242C18.9485 45.6465 19.953 45.9363 21.0108 46.0794C21.3859 46.131 21.7592 46.1558 22.129 46.1558C23.8144 46.1558 25.4233 45.6376 26.8927 44.7665C27.9958 44.1122 29.0234 43.2607 29.9648 42.2713C31.3764 40.7859 32.5924 38.9894 33.5622 37.0632C34.532 35.1369 35.2538 33.0808 35.6654 31.0728C35.868 30.0843 35.9649 29.1092 35.9649 28.1572C35.9658 24.8806 34.8165 21.8859 32.8973 19.6067C30.9799 17.3267 28.2865 15.7586 25.2127 15.3382C24.8838 15.2937 24.5797 15.5239 24.5353 15.8528C24.49 16.1817 24.7202 16.4849 25.0491 16.5302C27.8163 16.9089 30.2394 18.3169 31.9773 20.381C33.7151 22.4459 34.7622 25.1624 34.7622 28.1572C34.7622 29.0274 34.6742 29.9216 34.4876 30.831C34.1418 32.5155 33.5604 34.2542 32.7871 35.9067C31.6279 38.3868 30.035 40.673 28.1941 42.3157C27.274 43.138 26.2927 43.7993 25.2758 44.2527C24.258 44.706 23.2073 44.9531 22.129 44.9531C21.8135 44.9531 21.4943 44.9318 21.1734 44.8874H21.1725C20.2276 44.7594 19.3289 44.5016 18.4809 44.1371C18.3289 44.0713 18.1582 44.0713 18.0062 44.1371C17.1573 44.5007 16.2569 44.7585 15.3119 44.8874C14.9679 44.9345 14.6248 44.9576 14.2835 44.9576C12.8354 44.9576 11.4141 44.5451 10.0674 43.8002C8.04865 42.6846 6.20949 40.8144 4.79167 38.537C3.37208 36.2596 2.37383 33.5795 2.00493 30.8701C1.89826 30.0923 1.8476 29.3323 1.8476 28.5936C1.8476 25.3535 2.83429 22.5321 4.51789 20.4263C5.36058 19.3729 6.37749 18.4973 7.5393 17.836C8.70111 17.1738 10.0087 16.7257 11.4363 16.5302C11.7794 16.4831 12.1225 16.46 12.4648 16.46C13.399 16.46 14.3297 16.6306 15.2417 16.9489C16.1537 17.2662 17.0471 17.7329 17.9022 18.3213C18.1076 18.4627 18.3805 18.4627 18.5849 18.3213C19.4392 17.7329 20.3325 17.2662 21.2445 16.9489C22.1566 16.6306 23.0873 16.46 24.0215 16.46C24.3637 16.46 24.706 16.4831 25.0491 16.5302C25.3789 16.5755 25.682 16.3444 25.7264 16.0155C25.7718 15.6866 25.5415 15.3835 25.2127 15.3382Z"
        fill="#14443A" fill-rule="evenodd" />
    <path clip-rule="evenodd"
        d="M2.98542 0.664906L2.38452 0.676462C2.41919 2.49962 2.8352 4.23922 3.56233 5.81971C4.65302 8.19044 6.44418 10.202 8.70379 11.6207C10.9634 13.0403 13.6941 13.8661 16.6622 13.8661C17.128 13.8661 17.5991 13.8457 18.0756 13.8039C18.3903 13.7764 18.6294 13.5115 18.6249 13.1959C18.5974 11.3887 18.1867 9.65714 17.4631 8.07932C16.3787 5.71304 14.5911 3.69343 12.3332 2.26495C10.0763 0.836466 7.34643 0 4.38013 0C3.90278 0 3.41921 0.0213339 2.9312 0.0657795C2.61652 0.0942247 2.3783 0.360898 2.38452 0.676462L2.98542 0.664906L3.03965 1.26403C3.4921 1.22314 3.93923 1.2027 4.38013 1.2027C8.03178 1.2027 11.2674 2.5734 13.6035 4.76012C14.7715 5.8526 15.7138 7.14952 16.3698 8.58067C17.0267 10.0127 17.3974 11.5781 17.4222 13.2137L18.0231 13.2048L17.9716 12.6057C17.5298 12.6439 17.0925 12.6634 16.6622 12.6634C13.0035 12.6626 9.76782 11.3096 7.42821 9.13268C6.25929 8.04465 5.31437 6.7504 4.6548 5.31658C3.99523 3.88188 3.61922 2.3085 3.58633 0.65335L2.98542 0.664906L3.03965 1.26403L2.98542 0.664906Z"
        fill="#14443A" fill-rule="evenodd" />
    <path clip-rule="evenodd"
        d="M5.60953 31.7599C5.34285 31.7599 5.11707 31.5564 5.09307 31.2861C5.0424 30.703 5.01929 30.1483 5.01929 29.6203C5.0184 26.9509 5.62997 24.9846 6.4131 23.5802C7.19534 22.1739 8.14115 21.3348 8.78294 20.885C9.2114 20.5854 9.50563 20.4574 9.53407 20.4459C9.58118 20.4254 9.63007 20.413 9.67896 20.4067H9.79452C9.97408 20.4272 10.1376 20.541 10.2141 20.7196C10.3261 20.9819 10.2043 21.2859 9.94208 21.3988L9.94119 21.3997L9.92964 21.405C9.91719 21.4103 9.89675 21.4201 9.86919 21.4343C9.81319 21.4628 9.72874 21.509 9.62119 21.5748C9.40607 21.7072 9.10117 21.9206 8.75894 22.2343C8.07537 22.8646 7.24512 23.8939 6.68333 25.5162C6.30999 26.598 6.05576 27.9456 6.05576 29.6203C6.05576 30.1172 6.07798 30.6417 6.12687 31.1964C6.15176 31.4817 5.9402 31.7333 5.65486 31.7581C5.63975 31.7599 5.62464 31.7599 5.60953 31.7599Z"
        fill="#84B9E0" fill-rule="evenodd" />
    <path clip-rule="evenodd"
        d="M18.2437 16.4751L18.8393 16.3907C18.8348 16.3613 18.6259 14.8448 18.6259 12.8439C18.6259 12.0199 18.6615 11.1141 18.7593 10.1985C18.9059 8.82513 19.1975 7.42864 19.7059 6.25706C19.9593 5.67038 20.2668 5.14058 20.6304 4.69257C20.9958 4.24456 21.4153 3.87744 21.9069 3.60454L21.6153 3.07831L21.0224 2.97697C21.018 3.00364 21.0064 3.08186 21.0064 3.19831C21.0064 3.30054 21.0153 3.4321 21.0491 3.5841C21.0749 3.69788 21.1149 3.82322 21.1771 3.95211C21.2687 4.145 21.4118 4.34679 21.6127 4.5219C21.8144 4.69791 22.0713 4.84547 22.3807 4.95036L22.3798 4.94947L22.3816 4.95036L22.4313 4.83035L22.3522 4.93169C22.37 4.94591 22.3816 4.95036 22.3816 4.95036L22.4313 4.83035L22.3522 4.93169L22.506 4.73435L22.3087 4.88813C22.3229 4.90591 22.3389 4.92102 22.3522 4.93169L22.506 4.73435L22.3087 4.88813L22.5096 4.73169L22.2651 4.80458C22.2713 4.8268 22.2873 4.86058 22.3087 4.88813L22.5096 4.73169L22.2651 4.80458L22.4251 4.75657L22.2589 4.7788C22.2598 4.78413 22.2616 4.79302 22.2651 4.80458L22.4251 4.75657L22.2589 4.7788L22.3389 4.76813L22.2589 4.77346V4.7788L22.3389 4.76813L22.2589 4.77346L22.2616 4.77258H22.2589V4.77346L22.2616 4.77258H22.2589C22.2589 4.77791 22.2562 4.81702 22.2385 4.88013C22.2073 4.99836 22.1273 5.19303 22.0064 5.43126C21.7958 5.85171 21.4651 6.41173 21.0793 7.08908C20.4997 8.10688 19.7948 9.39314 19.1593 10.9434C18.5237 12.4937 17.9566 14.3088 17.649 16.3871L18.2437 16.4751L18.8393 16.3907L18.2437 16.4751L18.8384 16.5631C19.3122 13.3666 20.4331 10.8234 21.4482 8.90957C21.9558 7.95132 22.4358 7.15308 22.8011 6.49618C22.9843 6.16728 23.138 5.87394 23.2545 5.60015C23.3131 5.46326 23.362 5.33081 23.3994 5.19659C23.4358 5.06147 23.4607 4.92369 23.4616 4.77258C23.4616 4.67924 23.4509 4.57968 23.4225 4.47746C23.4012 4.40101 23.3692 4.32367 23.3265 4.25078C23.2634 4.14145 23.1736 4.04367 23.0758 3.97078C22.9771 3.89789 22.8722 3.84722 22.7682 3.81166L22.7665 3.81077C22.6065 3.75655 22.5025 3.69521 22.4296 3.63743C22.3745 3.59388 22.3371 3.5521 22.3087 3.5121C22.266 3.45254 22.242 3.39387 22.2269 3.33787C22.2127 3.28276 22.2091 3.23031 22.2091 3.19831C22.2091 3.18142 22.21 3.17076 22.21 3.1672V3.16542L21.9407 3.13431L22.2082 3.18053C22.21 3.16987 22.21 3.16542 22.21 3.16542L21.9407 3.13431L22.2082 3.18053C22.2473 2.95208 22.1522 2.72186 21.9629 2.58763C21.7736 2.45429 21.5255 2.44007 21.3229 2.55296C20.4704 3.02675 19.7984 3.71299 19.2784 4.50946C18.8881 5.10681 18.5806 5.76727 18.3352 6.45973C17.969 7.49798 17.7423 8.6109 17.6063 9.70604C17.4694 10.8012 17.4232 11.8785 17.4232 12.8439C17.4232 14.9604 17.6454 16.54 17.6481 16.5587C17.6899 16.8547 17.9423 17.0751 18.2419 17.076C18.5415 17.0769 18.7948 16.8591 18.8384 16.5631L18.2437 16.4751Z"
        fill="#14443A" fill-rule="evenodd" />
    <path clip-rule="evenodd"
        d="M45.1892 35.8436L51.8996 34.9902C51.8996 34.9902 66.0902 39.7406 56.9068 41.4597C52.1334 42.3531 57.0277 36.2987 51.8996 34.9902"
        fill="#A9CEE9" fill-rule="evenodd" />
    <path clip-rule="evenodd"
        d="M47.2782 35.5778C47.2782 35.5778 59.0963 24.5189 49.9903 24.8753C45.2559 25.0611 51.6739 32.1608 47.2782 35.5778Z"
        fill="#A9CEE9" fill-rule="evenodd" />
    <path clip-rule="evenodd"
        d="M51.6534 34.9955C51.6534 34.9955 64.0395 33.7173 57.5407 29.4132C54.1628 27.1758 56.0002 34.9707 51.6534 34.9955Z"
        fill="#A9CEE9" fill-rule="evenodd" />
    <path clip-rule="evenodd"
        d="M29.1665 46.1638H29.0696C28.8332 46.1416 28.6358 45.9576 28.6038 45.7123L28.4723 44.6767C28.8261 44.6758 29.1745 44.6749 29.5177 44.6722L29.6332 45.5816C29.635 45.5949 29.6359 45.6083 29.6368 45.6207V45.674C29.6243 45.9203 29.4368 46.1292 29.1843 46.1612C29.1781 46.1621 29.1719 46.1629 29.1665 46.1638Z"
        fill="#EEB9B4" fill-rule="evenodd" />
    <path clip-rule="evenodd"
        d="M38.061 44.3834C34.684 44.8136 4.43433 45.3523 3.92321 41.3344C3.41208 37.3157 32.8324 30.2604 36.2094 29.831C39.5855 29.4008 42.7384 32.3093 43.2496 36.329C43.7607 40.3468 41.4371 43.954 38.061 44.3834Z"
        fill="#418ABF" fill-rule="evenodd" />
    <path clip-rule="evenodd"
        d="M37.9979 39.7032C37.741 39.7032 37.5179 39.5121 37.4841 39.2499L37.0281 35.6649C36.9926 35.3805 37.1935 35.1209 37.477 35.0845C37.4992 35.0818 37.5215 35.08 37.5437 35.08C37.8006 35.08 38.0237 35.272 38.0575 35.5334L38.5135 39.1192C38.5153 39.1335 38.5162 39.1477 38.5171 39.1628V39.2081C38.5055 39.4561 38.3179 39.6668 38.0646 39.6988C38.0424 39.7024 38.0202 39.7032 37.9979 39.7032Z"
        fill="#84B9E0" fill-rule="evenodd" />
    <mask style="mask-type:alpha" height="5" id="mask0_100_1584" maskUnits="userSpaceOnUse"
        width="3" x="17" y="35">
        <path clip-rule="evenodd" d="M17.624 35.1316H19.0923V39.5602H17.624V35.1316Z" fill="white"
            fill-rule="evenodd" />
    </mask>
    <g mask="url(#mask0_100_1584)">
        <path clip-rule="evenodd"
            d="M18.5734 39.5602C18.3165 39.5602 18.0934 39.369 18.0596 39.1077L17.6276 35.7112C17.6258 35.6978 17.6249 35.6845 17.624 35.6712V35.6187C17.6365 35.3725 17.824 35.1636 18.0765 35.1316H18.2089C18.4374 35.1609 18.6258 35.3405 18.6569 35.5805L19.0881 38.9761C19.1245 39.2606 18.9236 39.5202 18.6392 39.5566C18.6169 39.5593 18.5956 39.5602 18.5734 39.5602Z"
            fill="#84B9E0" fill-rule="evenodd" />
    </g>
    <path clip-rule="evenodd"
        d="M44.2941 37.8952L51.0044 37.0418L50.9289 36.4454L50.7378 37.0152L50.7422 37.017C50.7982 37.0356 51.328 37.2152 52.0889 37.5041C52.6605 37.721 53.361 38.0001 54.0881 38.3183C54.6339 38.5566 55.1939 38.8179 55.7237 39.0908C56.1219 39.2952 56.5024 39.5068 56.8464 39.7184C57.3619 40.0357 57.7957 40.3602 58.0713 40.6446C58.21 40.7859 58.3069 40.9166 58.362 41.018C58.3895 41.0695 58.4064 41.1122 58.4162 41.1468C58.426 41.1806 58.4286 41.2055 58.4286 41.2251C58.4286 41.2446 58.426 41.2597 58.4198 41.2793C58.4144 41.2962 58.4046 41.3175 58.386 41.3451C58.3531 41.394 58.2891 41.4642 58.1762 41.5451C58.0073 41.6677 57.7317 41.8082 57.3424 41.9424C56.953 42.0775 56.4499 42.2073 55.8277 42.3238C55.5299 42.3798 55.2837 42.4038 55.089 42.4029C54.9228 42.4038 54.7948 42.386 54.6997 42.362C54.6099 42.3389 54.5494 42.3104 54.5041 42.2811C54.4623 42.2535 54.4312 42.2251 54.401 42.1869C54.3725 42.1513 54.3459 42.1069 54.3201 42.0473C54.2721 41.938 54.2321 41.7762 54.2081 41.5726C54.1868 41.3957 54.177 41.1895 54.1725 40.9628C54.1645 40.5673 54.1716 40.113 54.1414 39.6357C54.1183 39.2775 54.0739 38.9059 53.977 38.5317C53.905 38.2517 53.8036 37.9699 53.6587 37.6979C53.4427 37.2899 53.1272 36.9058 52.6978 36.5912C52.2694 36.2756 51.7334 36.0294 51.0773 35.8623C50.7556 35.7805 50.4284 35.9743 50.3458 36.2961C50.264 36.6178 50.4578 36.9458 50.7796 37.0276C51.3173 37.1654 51.7031 37.3521 51.9867 37.561C52.2356 37.745 52.4089 37.945 52.5432 38.1681C52.6605 38.3637 52.7458 38.5788 52.8081 38.8126C52.9165 39.2223 52.9503 39.6917 52.9601 40.1726C52.9672 40.5344 52.9627 40.9015 52.9787 41.2624C52.9912 41.5335 53.0143 41.802 53.0721 42.066C53.1147 42.2642 53.1778 42.4624 53.2765 42.6527C53.3503 42.7949 53.4454 42.9327 53.5645 43.0553C53.7423 43.2411 53.9734 43.386 54.2312 43.4758C54.4908 43.5665 54.7752 43.6056 55.089 43.6065C55.3788 43.6056 55.6952 43.5727 56.049 43.506C56.6286 43.3976 57.1255 43.2767 57.5504 43.1407C57.8695 43.0393 58.1486 42.9291 58.394 42.8082C58.7611 42.626 59.0562 42.4207 59.2784 42.1566C59.3887 42.0251 59.4784 41.8775 59.5398 41.7193C59.6011 41.5602 59.6322 41.3904 59.6313 41.2251C59.6313 40.9966 59.5753 40.7806 59.4891 40.5859C59.4073 40.4028 59.2989 40.2366 59.1736 40.0775C58.938 39.7815 58.6402 39.513 58.2971 39.2517C57.698 38.7974 56.9584 38.369 56.1779 37.9716C55.0081 37.377 53.7494 36.8561 52.7778 36.4801C51.8071 36.1049 51.1262 35.8765 51.12 35.8747C51.0329 35.8454 50.9431 35.8365 50.8524 35.848L44.1429 36.7023C43.8132 36.7441 43.5803 37.0454 43.622 37.3743C43.6638 37.7041 43.9652 37.937 44.2941 37.8952Z"
        fill="#14443A" fill-rule="evenodd" />
    <path clip-rule="evenodd"
        d="M46.719 37.4721C46.7288 37.4623 48.2808 36.0107 49.8471 34.1546C50.6302 33.2266 51.4169 32.1973 52.0213 31.1812C52.3227 30.6728 52.5796 30.167 52.7654 29.6701C52.9503 29.1723 53.0667 28.6834 53.0676 28.198C53.0685 27.8469 53.0027 27.4949 52.8454 27.1722C52.7289 26.9296 52.56 26.7073 52.3485 26.5207C52.1893 26.3811 52.008 26.2611 51.8071 26.1598C51.5049 26.0086 51.1591 25.9002 50.7671 25.8282C50.3751 25.7562 49.9351 25.7206 49.4382 25.7206C49.2959 25.7206 49.1484 25.7242 48.9964 25.7295C48.5919 25.7464 48.2364 25.806 47.9208 25.9224C47.6843 26.0095 47.4701 26.1295 47.2888 26.2824C47.1528 26.3971 47.0354 26.5296 46.9412 26.6727C46.799 26.8878 46.7065 27.1242 46.6514 27.3642C46.5963 27.6051 46.5759 27.8505 46.5759 28.1011C46.5759 28.5047 46.6292 28.9225 46.703 29.3563C46.815 30.0061 46.9768 30.6923 47.1074 31.3857C47.2381 32.0781 47.3386 32.7759 47.3377 33.4346C47.3377 34.0471 47.2523 34.6204 47.0399 35.1387C46.9332 35.3982 46.7954 35.6445 46.6159 35.8809C46.4363 36.1174 46.215 36.3431 45.9385 36.5583C45.6763 36.7618 45.6292 37.1396 45.8327 37.4018C46.0363 37.6641 46.415 37.7112 46.6772 37.5076C47.031 37.2321 47.3288 36.9307 47.5732 36.6089C47.9403 36.1262 48.1857 35.6 48.335 35.0631C48.4844 34.5253 48.5404 33.9769 48.5404 33.4346C48.5395 32.3973 48.3377 31.3768 48.1466 30.4514C48.0515 29.9892 47.9572 29.551 47.8888 29.1518C47.8203 28.7545 47.7777 28.3954 47.7786 28.1011C47.7777 27.8843 47.8008 27.7047 47.8408 27.5669C47.871 27.4638 47.9092 27.3856 47.9555 27.3198C47.9901 27.2718 48.0292 27.2291 48.0799 27.1891C48.1564 27.1287 48.2612 27.0709 48.4186 27.0238C48.5741 26.9767 48.7813 26.942 49.0435 26.9313C49.1813 26.926 49.3128 26.9233 49.4382 26.9233C49.9582 26.9233 50.3813 26.9687 50.712 27.0451C50.9609 27.1011 51.1564 27.1749 51.3067 27.2558C51.4195 27.3162 51.5067 27.3794 51.576 27.4442C51.6791 27.5429 51.7449 27.6425 51.792 27.7616C51.8382 27.8816 51.8649 28.0238 51.8649 28.198C51.8658 28.4816 51.7902 28.8434 51.6382 29.2496C51.5058 29.6043 51.3173 29.9928 51.088 30.3945C50.6862 31.0977 50.1591 31.8444 49.5946 32.5608C48.7484 33.6373 47.8203 34.6498 47.1065 35.3902C46.7492 35.76 46.4452 36.0622 46.2319 36.2711C46.1243 36.376 46.0399 36.4569 45.983 36.512C45.9545 36.5396 45.9323 36.56 45.9181 36.5734L45.9012 36.5894L45.8976 36.5929L45.8967 36.5938C45.6541 36.8205 45.6416 37.2009 45.8683 37.4436C46.0959 37.6863 46.4763 37.6987 46.719 37.4721Z"
        fill="#14443A" fill-rule="evenodd" />
    <path clip-rule="evenodd"
        d="M50.7441 37.0489C50.7521 37.0481 51.2472 36.9974 51.9903 36.8809C52.5468 36.7938 53.2428 36.6712 53.977 36.504C54.5282 36.3787 55.1015 36.2294 55.6562 36.0516C56.0722 35.9174 56.4784 35.7671 56.8589 35.5973C57.1442 35.4702 57.4145 35.3316 57.6651 35.1778C58.0394 34.9467 58.3718 34.6835 58.6278 34.3555C58.7549 34.192 58.8625 34.0106 58.939 33.8124C59.0145 33.6133 59.0572 33.3973 59.0572 33.1751C59.0572 32.9297 59.0056 32.6817 58.9087 32.4417C58.7629 32.0817 58.5212 31.7404 58.1905 31.4008C57.8589 31.0603 57.4349 30.7199 56.9025 30.367C56.6616 30.2079 56.4331 30.0852 56.2064 29.999C55.9789 29.9128 55.7513 29.863 55.522 29.863C55.3237 29.863 55.1255 29.903 54.9486 29.9785C54.7833 30.0496 54.6375 30.1501 54.5139 30.2639C54.2819 30.479 54.1228 30.7359 53.9886 31.0088C53.8722 31.2479 53.7753 31.5039 53.6855 31.7697C53.5281 32.2355 53.3904 32.7359 53.2321 33.2222C53.1139 33.5866 52.985 33.9422 52.8348 34.264C52.7228 34.5049 52.5983 34.7271 52.4606 34.92C52.2534 35.2107 52.0214 35.4356 51.7423 35.5929C51.6028 35.6711 51.4499 35.7334 51.2756 35.7778C51.1005 35.8222 50.9041 35.848 50.6792 35.8498C50.3467 35.8516 50.0792 36.1218 50.0809 36.4543C50.0827 36.7867 50.3538 37.0543 50.6863 37.0525C51.2392 37.0498 51.7361 36.936 52.1628 36.7289C52.5361 36.5494 52.8526 36.3023 53.1148 36.0196C53.345 35.7725 53.5353 35.4987 53.6979 35.2133C53.9824 34.7138 54.1842 34.1778 54.3548 33.6595C54.4828 33.2711 54.5922 32.8915 54.6988 32.5466C54.7788 32.2879 54.8571 32.0488 54.9371 31.8426C54.9966 31.6888 55.058 31.5528 55.1175 31.4426C55.2073 31.2755 55.2962 31.1706 55.3566 31.1243C55.3877 31.1003 55.4117 31.0879 55.4349 31.0799C55.458 31.0719 55.482 31.0666 55.522 31.0657C55.5753 31.0657 55.6598 31.0781 55.7798 31.1235C55.8998 31.1688 56.0544 31.2479 56.2375 31.3697C56.8785 31.7928 57.3025 32.175 57.5469 32.4862C57.6696 32.6417 57.7469 32.7777 57.7931 32.8915C57.8385 33.0062 57.8536 33.0959 57.8536 33.1751C57.8536 33.2506 57.8403 33.3191 57.81 33.3955C57.7816 33.4666 57.7363 33.544 57.6705 33.6275C57.5469 33.784 57.346 33.9573 57.0811 34.1244C56.6198 34.4178 55.9735 34.688 55.274 34.9111C54.2233 35.2471 53.0517 35.4862 52.1494 35.6365C51.6979 35.7129 51.3139 35.7671 51.0436 35.8018C50.9076 35.8196 50.801 35.832 50.729 35.8409C50.6925 35.8454 50.665 35.848 50.6472 35.8498C50.6374 35.8507 50.6312 35.8516 50.6267 35.8525H50.6205C50.2907 35.8871 50.0507 36.1823 50.0845 36.5129C50.1183 36.8427 50.4143 37.0836 50.7441 37.0489Z"
        fill="#14443A" fill-rule="evenodd" />
    <path clip-rule="evenodd"
        d="M43.686 38.2152C43.6878 38.2792 43.6887 38.3441 43.6887 38.409C43.6887 40.0615 43.1758 41.5762 42.3278 42.7069C41.9038 43.2722 41.3971 43.7425 40.8291 44.0918C40.261 44.4412 39.6326 44.6705 38.9535 44.7567C38.8308 44.7727 38.6548 44.7896 38.4361 44.8074C37.669 44.8678 36.3818 44.9274 34.7587 44.9718C33.1355 45.0163 31.1728 45.0456 29.0394 45.0456C24.042 45.0456 18.1031 44.8847 13.3999 44.3905C12.2248 44.2669 11.127 44.1229 10.1429 43.9558C9.40424 43.8314 8.73045 43.6936 8.13754 43.5434C7.6922 43.4313 7.29308 43.3113 6.94818 43.1869C6.42994 43.0011 6.03438 42.7984 5.79615 42.6144C5.67615 42.5238 5.59792 42.4393 5.55348 42.3744C5.50814 42.3078 5.4957 42.266 5.49036 42.2295C5.48948 42.2198 5.48859 42.2109 5.48859 42.2002C5.48859 42.1646 5.49659 42.1166 5.52592 42.0455C5.55348 41.9771 5.60326 41.8909 5.6797 41.7913C5.82726 41.5993 6.07349 41.3655 6.40594 41.1184C7.02996 40.6526 7.95087 40.137 9.07624 39.6126C11.047 38.6917 13.6461 37.7316 16.4658 36.8107C20.6961 35.4303 25.4269 34.1342 29.3372 33.1555C31.2928 32.6657 33.0431 32.2551 34.4218 31.9519C35.1107 31.7999 35.7071 31.6755 36.1889 31.5822C36.669 31.4879 37.0379 31.4248 37.2539 31.3973C37.4503 31.3724 37.6468 31.3608 37.8405 31.3608C38.5303 31.3608 39.2032 31.5137 39.8379 31.8008C40.7891 32.2311 41.6531 32.9653 42.3198 33.9235C42.9873 34.8818 43.4558 36.0623 43.6238 37.3752V37.3734C43.6585 37.6561 43.6798 37.9379 43.686 38.2143C43.694 38.5468 43.9687 38.809 44.3012 38.8019C44.6336 38.7939 44.8958 38.5183 44.8887 38.1868C44.8816 37.8685 44.8576 37.5468 44.8167 37.2241V37.2223C44.5607 35.2187 43.6905 33.464 42.4495 32.1999C41.8282 31.5679 41.1126 31.0577 40.3339 30.7048C39.5544 30.3519 38.7099 30.1572 37.8405 30.1572C37.5961 30.1572 37.349 30.1732 37.1019 30.2043C36.8699 30.2346 36.5543 30.2879 36.1516 30.3643C35.3978 30.5075 34.3453 30.7306 33.0769 31.0204C28.6367 32.0346 21.5468 33.8569 15.5422 35.8489C14.0408 36.3467 12.607 36.8561 11.2976 37.3663C10.3163 37.7485 9.40424 38.1325 8.58556 38.5148C7.97132 38.801 7.40864 39.0863 6.90818 39.3708C6.15527 39.7984 5.54103 40.2197 5.08324 40.6624C4.85479 40.8846 4.66368 41.114 4.52145 41.3664C4.38011 41.6171 4.28589 41.8998 4.28589 42.2002C4.28589 42.2607 4.28944 42.3211 4.29744 42.3807C4.31611 42.5273 4.35789 42.6696 4.41745 42.8002C4.53301 43.0553 4.71079 43.2678 4.91879 43.45C5.11524 43.6216 5.34192 43.77 5.59614 43.9069C6.07349 44.162 6.65306 44.3772 7.32686 44.5709C8.50466 44.9078 9.97404 45.1763 11.6416 45.395C14.1413 45.7221 17.0853 45.9354 20.1085 46.067C23.1308 46.1985 26.2322 46.2483 29.0394 46.2483C31.4902 46.2483 33.7169 46.2101 35.4716 46.1541C36.3498 46.1265 37.1099 46.0936 37.7232 46.059C38.0299 46.0421 38.2992 46.0243 38.5303 46.0065C38.7615 45.9879 38.9517 45.9701 39.1055 45.9505C39.9588 45.8421 40.7535 45.5505 41.4593 45.1158C42.518 44.4643 43.3758 43.4954 43.9687 42.3389C44.5616 41.1815 44.8914 39.8339 44.8914 38.409C44.8914 38.3352 44.8905 38.2605 44.8887 38.1859C44.8807 37.8543 44.6052 37.5912 44.2727 37.5992C43.9411 37.6072 43.678 37.8828 43.686 38.2152Z"
        fill="#14443A" fill-rule="evenodd" />
</svg>
