<svg fill="none" height="186" viewBox="0 0 186 186" width="186" xmlns="http://www.w3.org/2000/svg">
    <path
        d="M186 93.3328C186 135.429 120.381 185.11 77.2677 185.11C34.154 185.11 0 131.929 0 89.8328C0 47.7367 72.7878 0 115.901 0C159.015 0 186 51.2367 186 93.3328Z"
        fill="#FBFCFD" />
    <path clip-rule="evenodd"
        d="M49.601 78.4507L135.546 77.8262L137.941 136.258L48.9487 135.433L49.601 78.4507Z"
        fill="#418ABF" fill-rule="evenodd" />
    <path clip-rule="evenodd"
        d="M49.6008 78.4506L90.2762 45.5375C91.9985 44.1438 94.4628 44.1518 96.1764 45.5561L135.545 77.8261L49.6008 78.4506Z"
        fill="#E0565F" fill-rule="evenodd" />
    <path clip-rule="evenodd"
        d="M49.6008 78.4507L90.2762 45.5376C91.1332 44.8442 92.1742 44.4977 93.2148 44.4977C94.2653 44.4977 95.3154 44.8508 96.1764 45.5562L135.545 77.8261L49.6008 78.4507Z"
        fill="#418ABF" fill-rule="evenodd" />
    <path clip-rule="evenodd"
        d="M48.9485 135.433C48.8414 135.333 55.7218 127.82 64.3145 118.656C72.9104 109.488 79.9632 102.141 80.0703 102.241C80.1775 102.342 73.2985 109.852 64.7029 119.02C56.1103 128.184 49.056 135.533 48.9485 135.433Z"
        fill="#132529" fill-rule="evenodd" />
    <path clip-rule="evenodd"
        d="M137.941 136.258C137.831 136.355 131.131 128.995 122.977 119.82C114.82 110.642 108.299 103.124 108.409 103.026C108.519 102.929 115.218 110.288 123.375 119.466C131.529 128.641 138.051 136.16 137.941 136.258Z"
        fill="#132529" fill-rule="evenodd" />
    <path clip-rule="evenodd"
        d="M92.3888 112.302L79.9312 102.447C80.0325 102.32 80.0803 102.25 80.0704 102.241C80.0697 102.24 80.0686 102.24 80.0672 102.24C80.05 102.24 79.983 102.294 79.8693 102.398L49.6008 78.4507L135.545 77.8262L92.3888 112.302Z"
        fill="#6D232C" fill-rule="evenodd" />
    <path clip-rule="evenodd"
        d="M79.931 102.447L79.8691 102.398C79.9828 102.294 80.0498 102.24 80.0669 102.24C80.0684 102.24 80.0695 102.24 80.0702 102.241C80.08 102.25 80.0323 102.32 79.931 102.447Z"
        fill="#00080E" fill-rule="evenodd" />
    <path clip-rule="evenodd"
        d="M53.8184 82.0678L53.6843 55.2251L128.94 54.3357L129.788 82.5786L92.2736 112.276L53.8184 82.0678Z"
        fill="#FAF9F6" fill-rule="evenodd" />
    <path
        d="M53.8184 82.0678L53.6843 55.2251L128.94 54.3357L129.788 82.5786L92.2736 112.276L53.8184 82.0678"
        stroke="black" stroke-width="0.5" />
    <line stroke="#D4D4D4" stroke-linecap="round" x1="117.678" x2="69.4879" y1="67.5887"
        y2="67.5887" />
    <line stroke="#D4D4D4" stroke-linecap="round" x1="117.678" x2="69.4879" y1="73.7831"
        y2="73.7831" />
    <line stroke="#D4D4D4" stroke-linecap="round" x1="117.678" x2="69.4879" y1="79.9774"
        y2="79.9774" />
    <line stroke="#D4D4D4" stroke-linecap="round" x1="117.678" x2="69.4879" y1="86.1718"
        y2="86.1717" />
    <line stroke="#D4D4D4" stroke-linecap="round" x1="117.678" x2="69.4879" y1="92.3661"
        y2="92.3661" />
</svg>
